<?xml version="1.0" encoding="UTF-8"?>
<svg width="500px" height="35px" enable-background="new 34 127 500 35" version="1.1" viewBox="34 127 500 35" xml:space="preserve" xmlns="http://www.w3.org/2000/svg">
<style type="text/css">
	.st0{fill:#013C4D;}
</style>
<path class="st0" d="m53.9 162v-12.9h-4.4v-5.1h4.4v-3.7c0-4.3 2.6-6.7 6.5-6.7 1.8 0 3.4 0.1 3.9 0.2v4.5h-2.7c-2.1 0-2.5 1-2.5 2.5v3.2h5l-0.7 5.1h-4.4v12.9h-5.1zm52-22v0.6c0 5.9-4.5 12.8-12.8 12.8-2.5 0-4.9-0.7-6.9-2 0.4 0 0.7 0.1 1.1 0.1 2.1 0 4-0.7 5.6-1.9-2 0-3.6-1.3-4.2-3.1 0.3 0.1 0.6 0.1 0.8 0.1 0.4 0 0.8-0.1 1.2-0.2-2.1-0.4-3.6-2.2-3.6-4.4v-0.1c0.6 0.3 1.3 0.5 2 0.6-1.2-0.8-2-2.2-2-3.7 0-0.8 0.2-1.6 0.6-2.3 2.2 2.7 5.5 4.5 9.3 4.7-0.1-0.3-0.1-0.7-0.1-1 0-2.5 2-4.5 4.5-4.5 1.3 0 2.5 0.5 3.3 1.4 1-0.2 2-0.6 2.8-1.1-0.3 1-1 1.9-2 2.5 0.9-0.1 1.8-0.3 2.6-0.7-0.6 0.8-1.3 1.6-2.2 2.2zm26.8 1.2h4.1v13.2h-4.1v-13.2zm2-1.8c-1.3 0-2.4-1.1-2.4-2.4s1.1-2.4 2.4-2.4 2.4 1.1 2.4 2.4-1.1 2.4-2.4 2.4zm17.4 15h-4.1v-6.4c0-1.5 0-3.5-2.1-3.5s-2.5 1.7-2.5 3.4v6.5h-4.1v-13.2h3.9v1.8h0.1c0.5-1 1.9-2.1 3.9-2.1 4.1 0 4.9 2.7 4.9 6.3v7.2zm36.6-4.4c-2.1 2.6-5.9 3.4-9 2.4-3.3-1.1-5.7-4.4-5.6-7.8-0.2-4.3 3.6-8.2 7.9-8.3 2.2-0.2 4.3 0.7 6 2-0.7 0.7-1.4 1.5-2.1 2.2-1.5-0.9-3.2-1.6-4.9-1-2.8 0.8-4.4 4-3.4 6.7 0.8 2.8 4.3 4.3 7 3.2 1.4-0.5 2.3-1.8 2.7-3.1-1.6 0-3.2 0-4.8-0.1v-2.8h8c0 2.3-0.3 4.7-1.8 6.6zm11.6-4.3h-2.4v2.4h-2.4v-2.4h-2.4v-2.3h2.4v-2.4h2.4v2.4h2.4v2.3zm28.7 1.7l5.9-3.1-5.9-3.1v6.2m13.1-2c0 1.8-0.2 3.5-0.2 3.5s-0.2 1.5-0.9 2.2c-0.8 0.9-1.8 0.9-2.2 0.9-3.1 0.2-7.7 0.2-7.7 0.2s-5.7-0.1-7.4-0.2c-0.5-0.1-1.6-0.1-2.4-0.9-0.7-0.7-0.9-2.2-0.9-2.2s-0.2-1.8-0.2-3.5v-1.7c0-1.8 0.2-3.5 0.2-3.5s0.2-1.5 0.9-2.2c0.8-0.9 1.8-0.9 2.2-0.9 3.1-0.2 7.7-0.2 7.7-0.2s4.6 0 7.7 0.2c0.4 0.1 1.4 0.1 2.2 0.9 0.7 0.7 0.9 2.2 0.9 2.2s0.2 1.8 0.2 3.5v1.7h-0.1zm29.9 10.7c-1.8 0-3.3-1.5-3.3-3.3s1.5-3.3 3.3-3.3 3.3 1.5 3.3 3.3c-0.1 1.8-1.5 3.3-3.3 3.3zm10.1 0c-1.1 0-1.9-0.9-1.9-1.9 0-5.3-4.3-9.6-9.6-9.6-1.1 0-1.9-0.9-1.9-1.9 0-1.1 0.9-1.9 1.9-1.9 7.4 0 13.4 6 13.4 13.4 0 1-0.8 1.9-1.9 1.9zm7.7 0c-1.1 0-1.9-0.9-1.9-1.9 0-9.5-7.8-17.3-17.3-17.3-1.1 0-1.9-0.9-1.9-1.9 0-1.1 0.9-1.9 1.9-1.9 11.6 0 21.1 9.5 21.1 21.1 0 1-0.8 1.9-1.9 1.9zm31.3-11c-2.4 0.2-4.7 2.3-3.7 4.9 1.4 3.9 9.2 1.8 7.7-2.7-0.5-1.4-2-2.5-4-2.2zm-0.9 5.3c-1.8 0.4-2.1-1.9-0.5-2.3 2-0.5 1.9 2 0.5 2.3zm1.3-2.4c0-0.7 0.9-0.8 1-0.3 0 0.5-0.7 0.8-1 0.3z"/>
<path class="st0" d="m330.1 143.6c0.4-1 0.6-2.3 0-3-1.4-1.6-4.6 0-6.1 0.1 0.7-2.1-0.1-4.3-2.7-3.6-2.4 0.6-4.1 1.9-5.8 3.6s-3.5 3.8-3.8 6.5c-0.3 3.1 1.6 4.6 3.5 5.7 5.6 3.1 14.5 1.4 17.4-2.7 0.4-0.6 0.8-1.5 0.9-2.2 0.5-3-1.6-3.4-3.4-4.4zm-1.9 6.7c-1.5 1.7-4.8 2.9-8 2.7-2.8-0.2-6.6-1.8-5.9-5.3 0.3-1.6 1.6-2.6 2.7-3.2 1.3-0.8 2.6-1.2 4.5-1.3 3.4-0.3 7.8 1 7.8 4.5 0 1-0.6 2-1.1 2.6zm4.4-8c0.6 0 0.9-1 0.8-2-0.2-1.5-1.5-2.7-3.3-2.6-0.4 0-1.1-0.1-1.1 0.8 0 1.1 1.2 0.5 2 0.8 0.4 0.2 0.9 0.8 0.9 1.4 0 0.9-0.4 1.6 0.7 1.6z"/>
<path class="st0" d="m336.8 140.2c-0.3-3.7-3.4-6.5-7.4-6-0.5 0.1-1.1 0.1-1.2 0.7-0.2 1.4 1.3 1 2 1 2.4 0 4.9 2 4.8 4.9 0 1-0.8 2.7 0.7 2.5 0.9 0 1.2-1.7 1.1-3.1zm31.4 2.4c-1.3 2.9-2.4 5.3-3.6 8.1-0.6 1.4-1.1 2.9-2.2 3.6-4.7 0.3-1.2-4.8-0.5-6.7-1.1-2-2.4-4.3-3.7-6.5-0.6-1-2-2.9-0.6-4 0.5-0.4 1.7-0.4 2.2 0 1.6 1.3 2.6 4.7 3.9 6.3 0.5-0.9 1-2 1.5-3.2 0.5-1.1 0.9-2.6 1.6-3 1.1-0.7 2.7-0.1 3 1 0.3 1.4-1 3.2-1.6 4.4zm10.9 7.1c-0.9-0.2-1.6-1.4-2.5-2.1-0.9-0.8-1.8-1.5-2.5-2.1-0.5-0.7-0.3 0.5-0.3 1.2v2c-0.1 0.7-0.5 1.1-1.2 1.2h-1c-0.7-0.1-1-0.6-1.2-1.2v-9.1c0-1.7 3.3-1.7 3.3 0v3.2c0.5-0.3 0.8-0.7 1.2-1.2l0.9-0.9c0.6-0.5 1.1-1 1.6-1.6 0.6-1.3 3.2-1.3 3.4 0.4 0.3 2.3-2.9 3.1-3.5 4.4 0.9 1.2 2.8 2 3.5 3.3 0.8 1.2 0.1 2.9-1.7 2.5zm38.8-8.3c-2.1 0.1-4 0.8-5.5 2.2-1.5 1.5-2.2 3.3-2 5.6l-2.4-0.3c-0.3 0-0.6 0-0.8 0.1-0.7 0.4-1.5 0.9-2.3 1.4 0.2-0.7 0.3-1.3 0.4-1.9 0.1-0.4 0.1-0.7-0.3-1-2.6-1.8-3.7-4.5-2.9-7.4 0.8-2.6 2.6-4.2 5.1-5 3.4-1.1 7.3 0 9.4 2.7 0.8 1.1 1.2 2.2 1.3 3.6zm-9.8-0.9c0-0.5-0.4-1-1-1-0.5 0-1 0.4-1 0.9s0.4 1 0.9 1c0.6 0 1-0.4 1.1-0.9zm5.1-1c-0.5 0-1 0.5-1 1s0.4 1 1 0.9c0.5 0 1-0.4 1-1 0-0.5-0.5-0.9-1-0.9z"/>
<path class="st0" d="m422.8 154.8c-0.7-0.3-1.3-0.8-2-0.8-0.7-0.1-1.4 0.3-2.1 0.4-2.1 0.2-4-0.4-5.6-1.8-3-2.7-2.5-6.9 0.9-9.2 3-2 7.5-1.3 9.7 1.4 1.9 2.4 1.7 5.6-0.6 7.7-0.7 0.6-0.9 1.1-0.5 1.8 0.1 0.1 0.1 0.3 0.2 0.5zm-7.8-7.5c0.4 0 0.8-0.3 0.8-0.8s-0.3-0.8-0.8-0.8c-0.4 0-0.8 0.4-0.8 0.8s0.4 0.8 0.8 0.8zm5-1.6c-0.4 0-0.8 0.3-0.8 0.8s0.3 0.8 0.8 0.8c0.4 0 0.8-0.3 0.8-0.8s-0.3-0.8-0.8-0.8zm36.1 5.8v-14.9l12.1 7.4-12.1 7.5z"/>
<path class="st0" d="m513.5 157c-0.6 0.1-0.9-0.3-0.9-0.6v-3.5c0-1.2-0.4-2-0.9-2.4 2.8-0.3 5.8-1.4 5.8-6.3 0-1.4-0.5-2.5-1.3-3.4 0.1-0.3 0.6-1.6-0.1-3.4 0 0-1.1-0.3-3.5 1.3-1-0.3-2.1-0.4-3.2-0.4s-2.2 0.1-3.2 0.4c-2.4-1.6-3.5-1.3-3.5-1.3-0.7 1.8-0.3 3-0.1 3.4-0.8 0.9-1.3 2-1.3 3.4 0 4.9 3 6 5.8 6.3-0.4 0.3-0.7 0.9-0.8 1.7-0.7 0.3-2.6 0.9-3.7-1.1 0 0-0.7-1.2-1.9-1.3 0 0-1.2 0-0.1 0.8 0 0 0.8 0.4 1.4 1.9 0 0 0.8 2.5 4.3 1.7v2.2c0 0.3-0.2 0.7-0.9 0.6-5.1-1.7-8.7-6.5-8.7-12.1 0-7 5.7-12.7 12.7-12.7s12.7 5.7 12.7 12.7c0.1 5.7-3.5 10.4-8.6 12.1z"/>
</svg>
