<?xml version="1.0" encoding="UTF-8" standalone="no"?>
<!-- Generator: Adobe Illustrator 17.0.0, SVG Export Plug-In . SVG Version: 6.00 Build 0)  -->

<svg
   xmlns:dc="http://purl.org/dc/elements/1.1/"
   xmlns:cc="http://creativecommons.org/ns#"
   xmlns:rdf="http://www.w3.org/1999/02/22-rdf-syntax-ns#"
   xmlns:svg="http://www.w3.org/2000/svg"
   xmlns="http://www.w3.org/2000/svg"
   xmlns:sodipodi="http://sodipodi.sourceforge.net/DTD/sodipodi-0.dtd"
   xmlns:inkscape="http://www.inkscape.org/namespaces/inkscape"
   version="1.1"
   id="Layer_1"
   x="0px"
   y="0px"
   width="1750px"
   height="980px"
   viewBox="0 0 1400 980"
   enable-background="new 0 0 1400 980"
   xml:space="preserve"
   sodipodi:docname="tonka.svg"
   inkscape:version="0.92.3 (2405546, 2018-03-11)">
<g id="master-artboard" viewBox="0 0 1400 980" version="1.1" xmlns="http://www.w3.org/2000/svg" x="0px" y="0px" style="enable-background:new 0 0 1400 980;">

<path d="M 0 0 H 1400 V 980 H 0 V 0 Z" class="st0" style="fill: rgb(255, 242, 0);" transform="matrix(1, 0, 0, 1, 0, 0)"></path><path class="st1" d="M1174.3,498.5C1174.3,498.5,1174.3,498.5,1174.3,498.5c76.6,0,159.9-41.5,161-108.5
			c1.3-76-54.2-145.5-82.5-175.9v-17.7c0-3.7-1.1-7.2-3.1-10l16.7-70.2c1.4-6.1-1-12.4-6.1-15.9c-2.5-1.7-5.5-2.6-8.4-2.6
			c-3,0-6,0.9-8.6,2.7l-38.4,26.8l-22.8-36.4c-2.7-4.4-7.6-7-12.7-7c0,0-0.1,0-0.1,0c-5.2,0-10,2.8-12.7,7.3l-17.3,28.8l-43.2-13.6
			c-1.5-0.5-3-0.7-4.5-0.7c-4.2,0-8.4,1.8-11.3,5.1c-3.9,4.5-4.8,10.8-2.3,16.2l28.6,61.4c-1.3,2.4-2,5.2-2,8.1v21.2
			c-16.6,17-42.8,47-60,82.5c-10.6,21.8-16.5,43.2-17.8,63.5c-1.5,24.7,3.8,48,16,69.3C1066.5,474.6,1114.4,498.5,1174.3,498.5z" style="fill: rgb(255, 205, 3);" transform="matrix(1, 0, 0, 1, 0, 0)"></path><path class="st1" d="M1282.1,669.6c0.5,7.1,5.9,13,13,13.9c0.7,0.1,1.3,0.1,2,0.1c6.3,0,12.1-4,14.2-10.2l28-81.9
			c1.7-5.1,0.6-10.7-2.9-14.8c-2.9-3.3-7-5.1-11.2-5.1c-1,0-2,0.1-3,0.3l-85.1,17.6c-6.8,1.4-11.7,7.2-11.9,14.1
			c-0.3,6.9,4.2,13.1,10.8,15l16.6,4.8l-46.8,42.1l-51.3-41.5c-3.8-3-8.5-4.7-13.3-4.7c-5.3,0-10.3,1.9-14.3,5.5l-116.7,105.8
			c-4.2,3.8-6.7,9-6.9,14.7c-0.3,5.7,1.7,11.1,5.5,15.3c4,4.4,9.7,7,15.7,7c5.3,0,10.3-1.9,14.3-5.5l103.2-93.6l51.2,41.5
			c3.8,3,8.5,4.7,13.3,4.7c5.3,0,10.3-1.9,14.2-5.4l4.2-3.8c-0.5,1.4-0.7,3-0.7,4.6v48.3h-35.3v-20.3c0-8.3-6.7-15-15-15h-65.3
			c-8.3,0-15,6.7-15,15v58.7H1043c-8.3,0-15,6.7-15,15v67.4c0,8.3,6.7,15,15,15h261.4c8.3,0,15-6.7,15-15V710.2c0-8.3-6.7-15-15-15
			H1239c-1,0-2.1,0.1-3.1,0.3l45.2-40.7L1282.1,669.6z" style="fill: rgb(255, 205, 3);" transform="matrix(1, 0, 0, 1, 0, 0)"></path><path class="st1" d="M459.9,210.5L259.2,72.1c-2.6-1.8-5.5-2.7-8.5-2.7s-6,0.9-8.5,2.7L41.3,210.5c-5.4,3.7-7.8,10.5-5.8,16.8
			c2,6.3,7.8,10.5,14.3,10.5h35.6v8.4c0,6.8,4.5,12.6,10.7,14.4v3.3c0,7.4,5.3,13.5,12.3,14.8v92.4c-7,1.3-12.3,7.4-12.3,14.8v3.3
			c-6.2,1.8-10.7,7.6-10.7,14.4v5.5H71.3c-8.3,0-15,6.7-15,15v40.8c0,8.3,6.7,15,15,15h355c8.3,0,15-6.7,15-15v-40.8
			c0-8.3-6.7-15-15-15h-10.5v-5.5c0-6.8-4.5-12.6-10.7-14.4v-3.3c0-7.4-5.3-13.5-12.3-14.8v-92.4c7-1.3,12.3-7.4,12.3-14.8v-3.3
			c6.2-1.8,10.7-7.6,10.7-14.4v-8.4h35.6c6.6,0,12.4-4.3,14.3-10.5C467.7,221.1,465.3,214.2,459.9,210.5z" style="fill: rgb(255, 205, 3);" transform="matrix(1, 0, 0, 1, 0, 0)"></path><path class="st1" d="M938.3,754c-4.5-12.8-14.5-21.7-28.7-25.6c-8.5-26.7-32.5-52.1-65.9-69.6c1.9-6.7,2.8-13.7,2.8-20.7
			c0-42.6-34.6-77.2-77.2-77.2c-28.1,0-53.8,15.2-67.5,39.7c-8.9,12.9-13.6,28.1-13.6,43.8c0,0.5,0,0.9,0,1.4
			c-7.4,2.4-14.7,5.3-21.8,8.5c-8.7-5.4-23.5-12.6-39.7-12.6c-4.1,0-8.1,0.5-11.9,1.4c-7.1,1.7-11.9,8.3-11.5,15.5
			c0.1,2.4,1.4,20.1,7.3,36.3l-19.9,20.3c-3.5-0.6-7.6-1.1-11.6-1.1c-8.7,0-15.1,2.2-19.7,6.8c-4.2,4.2-8.7,11.8-6.5,34.3
			c0.6,6.5,2.7,22.5,8.4,31.2c10.9,16.7,50.3,52.4,75.2,65.6c0.4,5.2,0.9,12,1.5,18.9c2.7,29.9,4.8,35.7,10.5,40.3
			c5.4,4.3,12.3,4.9,18.4,4.9c7.4,0,15.9-1.1,20.4-1.6l0.5-0.1c11.7-1.5,18.1-13.1,24.4-26.2c11.5,1.8,30.1,4.2,49.8,4.2
			c15.5,0,29-1.5,40.5-4.4c4.1,8.5,10.1,17.7,18.3,21.8c4.8,2.4,10.5,3.6,17,3.6c7,0,13.8-1.4,18.3-2.4c1.2-0.2,2.5-0.5,3.1-0.6
			c12.6-1.8,15-15.1,16.2-21.5c1-5.3,1.8-12.4,2.6-21.1c0.8-8.8,1.3-17.5,1.6-23.1c6.6-6.8,17.9-20.6,25.7-41
			c2.8,1.1,5.8,1.6,8.9,1.6c5.7,0,11.6-2,16.4-6.3c2.7,2.8,6.5,4.4,10.6,4.4c0.7,0,1.5-0.1,2.2-0.2c7.2-1,12.6-7.3,12.8-14.6
			C956.6,773.2,949.9,760.7,938.3,754z" style="fill: rgb(255, 205, 3);" transform="matrix(1, 0, 0, 1, 0, 0)"></path><path class="st1" d="M418.5,735.8v-87.3c0-22.6-18.4-41-41-41H112.1c-22.6,0-41,18.4-41,41v229.7c0,22.6,18.4,41,41,41h265.5
			c22.6,0,41-18.4,41-41v-29.7c9.8-8.1,15.6-20.1,15.6-33.2V769C434.1,755.9,428.3,743.9,418.5,735.8z" style="fill: rgb(255, 205, 3);" transform="matrix(1, 0, 0, 1, 0, 0)"></path><path class="st1" d="M603.2,458.6c0,11.2,9.1,20.2,20.2,20.2h261.8c11.2,0,20.2-9.1,20.2-20.2V276.1c0-11.2-9.1-20.3-20.2-20.3
			h-52.9v-40.4c0-11.2-9.1-20.2-20.2-20.2H550.4c-11.2,0-20.2,9.1-20.2,20.2v182.4c0,11.2,9.1,20.2,20.2,20.2h52.9V458.6z" style="fill: rgb(255, 205, 3);" transform="matrix(1, 0, 0, 1, 0, 0)"></path><path class="st2" d="M1180.3,488.5C1180.3,488.5,1180.3,488.5,1180.3,488.5c76.6,0,159.9-41.5,161-108.5
			c1.3-76-54.2-145.5-82.5-175.9v-17.7c0-3.7-1.1-7.2-3.1-10l16.7-70.2c1.4-6.1-1-12.4-6.1-15.9c-2.5-1.7-5.5-2.6-8.4-2.6
			c-3,0-6,0.9-8.6,2.7l-38.4,26.8l-22.8-36.4c-2.7-4.4-7.6-7-12.7-7c0,0-0.1,0-0.1,0c-5.2,0-10,2.8-12.7,7.3l-17.3,28.8l-43.2-13.6
			c-1.5-0.5-3-0.7-4.5-0.7c-4.2,0-8.4,1.8-11.3,5.1c-3.9,4.5-4.8,10.8-2.3,16.2l28.6,61.4c-1.3,2.4-2,5.2-2,8.1v21.2
			c-16.6,17-42.8,47-60,82.5c-10.6,21.8-16.5,43.2-17.8,63.5c-1.5,24.7,3.8,48,16,69.3C1072.5,464.6,1120.4,488.5,1180.3,488.5z" style="fill: rgb(255, 255, 255);" transform="matrix(1, 0, 0, 1, 0, 0)"></path><path class="st2" d="M1288.1,659.6c0.5,7.1,5.9,13,13,13.9c0.7,0.1,1.3,0.1,2,0.1c6.3,0,12.1-4,14.2-10.2l28-81.9
			c1.7-5.1,0.6-10.7-2.9-14.8c-2.9-3.3-7-5.1-11.2-5.1c-1,0-2,0.1-3,0.3l-85.1,17.6c-6.8,1.4-11.7,7.2-11.9,14.1
			c-0.3,6.9,4.2,13.1,10.8,15l16.6,4.8l-46.8,42.1l-51.3-41.5c-3.8-3-8.5-4.7-13.3-4.7c-5.3,0-10.3,1.9-14.3,5.5l-116.7,105.8
			c-4.2,3.8-6.7,9-6.9,14.7c-0.3,5.7,1.7,11.1,5.5,15.3c4,4.4,9.7,7,15.7,7c5.3,0,10.3-1.9,14.3-5.5l103.2-93.6l51.2,41.5
			c3.8,3,8.5,4.7,13.3,4.7c5.3,0,10.3-1.9,14.2-5.4l4.2-3.8c-0.5,1.4-0.7,3-0.7,4.6v48.3h-35.3v-20.3c0-8.3-6.7-15-15-15h-65.3
			c-8.3,0-15,6.7-15,15v58.7H1049c-8.3,0-15,6.7-15,15v67.4c0,8.3,6.7,15,15,15h261.4c8.3,0,15-6.7,15-15V700.2c0-8.3-6.7-15-15-15
			H1245c-1,0-2.1,0.1-3.1,0.3l45.2-40.7L1288.1,659.6z" style="fill: rgb(255, 255, 255);" transform="matrix(1, 0, 0, 1, 0, 0)"></path><path class="st2" d="M465.9,200.5L265.2,62.1c-2.6-1.8-5.5-2.7-8.5-2.7s-6,0.9-8.5,2.7L47.3,200.5c-5.4,3.7-7.8,10.5-5.8,16.8
			c2,6.3,7.8,10.5,14.3,10.5h35.6v8.4c0,6.8,4.5,12.6,10.7,14.4v3.3c0,7.4,5.3,13.5,12.3,14.8v92.4c-7,1.3-12.3,7.4-12.3,14.8v3.3
			c-6.2,1.8-10.7,7.6-10.7,14.4v5.5H77.3c-8.3,0-15,6.7-15,15v40.8c0,8.3,6.7,15,15,15h355c8.3,0,15-6.7,15-15v-40.8
			c0-8.3-6.7-15-15-15h-10.5v-5.5c0-6.8-4.5-12.6-10.7-14.4v-3.3c0-7.4-5.3-13.5-12.3-14.8v-92.4c7-1.3,12.3-7.4,12.3-14.8v-3.3
			c6.2-1.8,10.7-7.6,10.7-14.4v-8.4h35.6c6.6,0,12.4-4.3,14.3-10.5C473.7,211.1,471.3,204.2,465.9,200.5z" style="fill: rgb(255, 255, 255);" transform="matrix(1, 0, 0, 1, 0, 0)"></path><path class="st2" d="M944.3,744c-4.5-12.8-14.5-21.7-28.7-25.6c-8.5-26.7-32.5-52.1-65.9-69.6c1.9-6.7,2.8-13.7,2.8-20.7
			c0-42.6-34.6-77.2-77.2-77.2c-28.1,0-53.8,15.2-67.5,39.7c-8.9,12.9-13.6,28.1-13.6,43.8c0,0.5,0,0.9,0,1.4
			c-7.4,2.4-14.7,5.3-21.8,8.5c-8.7-5.4-23.5-12.6-39.7-12.6c-4.1,0-8.1,0.5-11.9,1.4c-7.1,1.7-11.9,8.3-11.5,15.5
			c0.1,2.4,1.4,20.1,7.3,36.3l-19.9,20.3c-3.5-0.6-7.6-1.1-11.6-1.1c-8.7,0-15.1,2.2-19.7,6.8c-4.2,4.2-8.7,11.8-6.5,34.3
			c0.6,6.5,2.7,22.5,8.4,31.2c10.9,16.7,50.3,52.4,75.2,65.6c0.4,5.2,0.9,12,1.5,18.9c2.7,29.9,4.8,35.7,10.5,40.3
			c5.4,4.3,12.3,4.9,18.4,4.9c7.4,0,15.9-1.1,20.4-1.6l0.5-0.1c11.7-1.5,18.1-13.1,24.4-26.2c11.5,1.8,30.1,4.2,49.8,4.2
			c15.5,0,29-1.5,40.5-4.4c4.1,8.5,10.1,17.7,18.3,21.8c4.8,2.4,10.5,3.6,17,3.6c7,0,13.8-1.4,18.3-2.4c1.2-0.2,2.5-0.5,3.1-0.6
			c12.6-1.8,15-15.1,16.2-21.5c1-5.3,1.8-12.4,2.6-21.1c0.8-8.8,1.3-17.5,1.6-23.1c6.6-6.8,17.9-20.6,25.7-41
			c2.8,1.1,5.8,1.6,8.9,1.6c5.7,0,11.6-2,16.4-6.3c2.7,2.8,6.5,4.4,10.6,4.4c0.7,0,1.5-0.1,2.2-0.2c7.2-1,12.6-7.3,12.8-14.6
			C962.6,763.2,955.9,750.7,944.3,744z" style="fill: rgb(255, 255, 255);" transform="matrix(1, 0, 0, 1, 0, 0)"></path><path class="st2" d="M424.5,725.8v-87.3c0-22.6-18.4-41-41-41H118.1c-22.6,0-41,18.4-41,41v229.7c0,22.6,18.4,41,41,41h265.5
			c22.6,0,41-18.4,41-41v-29.7c9.8-8.1,15.6-20.1,15.6-33.2V759C440.1,745.9,434.3,733.9,424.5,725.8z" style="fill: rgb(255, 255, 255);" transform="matrix(1, 0, 0, 1, 0, 0)"></path><path class="st2" d="M609.2,448.6c0,11.2,9.1,20.2,20.2,20.2h261.8c11.2,0,20.2-9.1,20.2-20.2V266.1c0-11.2-9.1-20.3-20.2-20.3
			h-52.9v-40.4c0-11.2-9.1-20.2-20.2-20.2H556.4c-11.2,0-20.2,9.1-20.2,20.2v182.4c0,11.2,9.1,20.2,20.2,20.2h52.9V448.6z" style="fill: rgb(255, 255, 255);" transform="matrix(1, 0, 0, 1, 0, 0)"></path><path class="st3" d="M923.1,771.2c2.5,0,3.6-4.1,2.8-9.3C911.5,763.6,915.4,771.2,923.1,771.2z" style="fill: none;" transform="matrix(1, 0, 0, 1, 0, 0)"></path><path d="M 223.3000030517578 393.6000061035156 L 223.3000030517578 375.79998779296875 L 235.60000610351562 375.79998779296875 L 235.60000610351562 254 L 223.3000030517578 254 L 223.3000030517578 236.1999969482422 L 212.60000610351562 236.1999969482422 L 212.60000610351562 212.89999389648438 L 194.60000610351562 212.89999389648438 L 194.60000610351562 236.1999969482422 L 183.8000030517578 236.1999969482422 L 183.8000030517578 254 L 171.5 254 L 171.5 375.79998779296875 L 183.8000030517578 375.79998779296875 L 183.8000030517578 393.6000061035156 L 194.60000610351562 393.6000061035156 L 194.60000610351562 414.1000061035156 L 212.60000610351562 414.1000061035156 L 212.60000610351562 393.6000061035156 Z" class="st3" style="fill: none;" transform="matrix(1, 0, 0, 1, 0, 0)"></path><path d="M 329.5 236.1999969482422 L 318.70001220703125 236.1999969482422 L 318.70001220703125 212.89999389648438 L 300.70001220703125 212.89999389648438 L 300.70001220703125 236.1999969482422 L 290 236.1999969482422 L 290 254 L 277.6000061035156 254 L 277.6000061035156 375.79998779296875 L 290 375.79998779296875 L 290 393.6000061035156 L 300.70001220703125 393.6000061035156 L 300.70001220703125 414.1000061035156 L 318.70001220703125 414.1000061035156 L 318.70001220703125 393.6000061035156 L 329.5 393.6000061035156 L 329.5 375.79998779296875 L 341.79998779296875 375.79998779296875 L 341.79998779296875 254 L 329.5 254 Z" class="st3" style="fill: none;" transform="matrix(1, 0, 0, 1, 0, 0)"></path><path class="st4" d="M624.2,266.1c0-2.9,2.4-5.2,5.2-5.2h193.9v-55.4c0-2.9-2.4-5.2-5.2-5.2H556.4c-2.9,0-5.2,2.4-5.2,5.2v55.4
			h65.3v20.2h-65.3v21.8h73.1V266.1z" style="fill: rgb(255, 207, 1);" transform="matrix(1, 0, 0, 1, 0, 0)"></path><path class="st4" d="M624.2,348v-22.6h-73.1v62.4c0,2.9,2.4,5.2,5.2,5.2h67.9V348z" style="fill: rgb(255, 207, 1);" transform="matrix(1, 0, 0, 1, 0, 0)"></path><path d="M 551.099976 260.899994 H 616.399979 V 281.099995 H 551.099976 V 260.899994 Z" class="st5" style="fill: rgb(247, 148, 30);" transform="matrix(1, 0, 0, 1, 0, 0)"></path><path d="M 551.099976 302.899994 H 624.199974 V 325.499994 H 551.099976 V 302.899994 Z" class="st5" style="fill: rgb(247, 148, 30);" transform="matrix(1, 0, 0, 1, 0, 0)"></path><path class="st6" d="M771.4,572.1c34.4,0,62.2,27.9,62.2,62.2c0,7.6-1.4,14.9-3.9,21.6c0.3,0.1,0.6,0.3,1,0.4
			c4.3-8.5,6.8-18.1,6.8-28.3c0-34.4-27.9-62.2-62.2-62.2c-23.6,0-44.2,13.2-54.7,32.6C731.8,582.5,750.4,572.1,771.4,572.1z" style="fill: rgb(255, 194, 14);" transform="matrix(1, 0, 0, 1, 0, 0)"></path><path class="st7" d="M752.7,640.9l1.4-5.3c4.1,2.2,9.8,4.2,16,4.2c5.5,0,9.3-2.1,9.3-6c0-3.7-3.1-6-10.2-8.4
			c-10.3-3.5-17.4-8.3-17.4-17.7c0-8.5,6-15.2,16.3-17.2v-9.2h9.5v8.5c6.5,0.3,10.8,1.6,14,3.2l-2.8,10.9c-2.5-1.1-7-3.3-13.9-3.3
			c-6.3,0-8.3,2.7-8.3,5.4c0,3.2,3.4,5.2,11.6,8.3c11.5,4.1,16.1,9.4,16.1,18.1c0,4.3-1.5,8.2-4.4,11.4c14.2,2.6,27.6,6.7,40,12
			c2.5-6.7,3.9-14,3.9-21.6c0-34.4-27.9-62.2-62.2-62.2c-21,0-39.6,10.4-50.8,26.4c-7.2,10.1-11.4,22.5-11.4,35.9
			c0,4.2,0.4,8.3,1.2,12.3C724.7,642.9,738.9,641.1,752.7,640.9z" style="fill: rgb(255, 227, 0);" transform="matrix(1, 0, 0, 1, 0, 0)"></path><path class="st8" d="M1241.1,217.9h-112.7c-1.5,0-2.8-1.2-2.8-2.8v-1.4c-33,32.6-109.7,121.1-63.8,201.7
			c57.6,101.1,262.9,57.6,264.5-35.8c1.3-75.1-58.9-145.1-82.5-169.6v5.1C1243.8,216.7,1242.6,217.9,1241.1,217.9z M1195.3,399.6
			v19.3h-18.5v-17.9c-12.7-0.6-25-4-32.1-8.1l5.7-22.1c7.9,4.3,19.1,8.3,31.4,8.3c10.8,0,18.1-4.2,18.1-11.7c0-7.2-6-11.7-20-16.5
			c-20.2-6.8-34-16.3-34-34.6c0-16.6,11.7-29.7,32-33.6v-18h18.5v16.6c12.7,0.6,21.2,3.2,27.4,6.2l-5.5,21.4
			c-4.9-2.1-13.6-6.4-27.2-6.4c-12.3,0-16.3,5.3-16.3,10.6c0,6.2,6.6,10.2,22.7,16.3c22.5,7.9,31.6,18.3,31.6,35.4
			C1229,381.5,1217.1,395.8,1195.3,399.6z" style="fill: rgb(141, 198, 63);" transform="matrix(1, 0, 0, 1, 0, 0)"></path><path d="M 1257.9000244140625 102.80000305175781 L 1206.5 138.60000610351562 L 1175.4000244140625 88.80000305175781 L 1152.0999755859375 127.69999694824219 L 1097.5999755859375 110.5999984741211 L 1131.5999755859375 183.6999969482422 L 1238.5999755859375 183.6999969482422 Z" class="st8" style="fill: rgb(141, 198, 63);" transform="matrix(1, 0, 0, 1, 0, 0)"></path><path class="st9" d="M1125.6,186.4v27.4v1.4c0,1.5,1.2,2.8,2.8,2.8h112.7c1.5,0,2.8-1.2,2.8-2.8v-5.1v-23.6c0-1.5-1.2-2.8-2.8-2.8
			h-2.5h-106.9h-3.3C1126.8,183.7,1125.6,184.9,1125.6,186.4z" style="fill: rgb(117, 76, 41);" transform="matrix(1, 0, 0, 1, 0, 0)"></path><path class="st9" d="M1197.4,329.3c-16.1-6-22.7-10-22.7-16.3c0-5.3,4-10.6,16.3-10.6c13.6,0,22.3,4.4,27.2,6.4l5.5-21.4
			c-6.2-3-14.7-5.7-27.4-6.2v-16.6h-18.5v18c-20.2,4-32,17-32,33.6c0,18.3,13.8,27.8,34,34.6c14,4.7,20,9.3,20,16.5
			c0,7.6-7.4,11.7-18.1,11.7c-12.3,0-23.4-4-31.4-8.3l-5.7,22.1c7.2,4.2,19.5,7.6,32.1,8.1v17.9h18.5v-19.3
			c21.7-3.8,33.6-18.1,33.6-35C1229,347.6,1219.9,337.2,1197.4,329.3z" style="fill: rgb(117, 76, 41);" transform="matrix(1, 0, 0, 1, 0, 0)"></path><path class="st10" d="M778.1,614.5c-8.2-3.1-11.6-5.1-11.6-8.3c0-2.7,2-5.4,8.3-5.4c7,0,11.4,2.2,13.9,3.3l2.8-10.9
			c-3.2-1.5-7.5-2.9-14-3.2v-8.5h-9.5v9.2c-10.3,2-16.3,8.7-16.3,17.2c0,9.4,7.1,14.2,17.4,17.7c7.1,2.4,10.2,4.7,10.2,8.4
			c0,3.9-3.8,6-9.3,6c-6.3,0-12-2-16-4.2l-1.4,5.3c12.7-0.2,25.2,0.9,37.1,3c2.9-3.1,4.4-7.1,4.4-11.4
			C794.2,623.8,789.6,618.5,778.1,614.5z" style="fill: rgb(135, 104, 0);" transform="matrix(1, 0, 0, 1, 0, 0)"></path><path d="M 1049 801.799988 H 1114.300003 V 869.199989 H 1049 V 801.799988 Z" class="st11" style="fill: rgb(253, 181, 21);" transform="matrix(1, 0, 0, 1, 0, 0)"></path><path d="M 1179.699951171875 728.0999755859375 L 1114.300048828125 728.0999755859375 L 1114.300048828125 801.7999877929688 L 1114.300048828125 869.2000122070312 L 1179.699951171875 869.2000122070312 L 1179.699951171875 763.4000244140625 Z" class="st12" style="fill: rgb(55, 194, 219);" transform="matrix(1, 0, 0, 1, 0, 0)"></path><path d="M 1179.699951 763.400024 H 1244.999954 V 869.200027 H 1179.699951 V 763.400024 Z" class="st13" style="fill: rgb(241, 88, 75);" transform="matrix(1, 0, 0, 1, 0, 0)"></path><path d="M 1245 763.4000244140625 L 1245 869.2000122070312 L 1310.4000244140625 869.2000122070312 L 1310.4000244140625 700.2000122070312 L 1245 700.2000122070312 Z" class="st14" style="fill: rgb(0, 167, 157);" transform="matrix(1, 0, 0, 1, 0, 0)"></path><path class="st9" d="M1208.4,688.4c2.4,1.9,5.8,1.8,8.1-0.2l83.7-75.3l2.9,45.7l28-81.9l-85.1,17.6l42.5,12.3l-76.4,68.8
			l-61.2-49.6c-2.4-1.9-5.8-1.8-8.1,0.2l-116.7,105.8c-2.5,2.3-2.7,6.2-0.4,8.8c1.2,1.4,2.9,2,4.6,2c1.5,0,3-0.5,4.2-1.6
			l112.7-102.2L1208.4,688.4z" style="fill: rgb(117, 76, 41);" transform="matrix(1, 0, 0, 1, 0, 0)"></path><path d="M 129.5 254 H 171.5 V 375.900002 H 129.5 V 254 Z" class="st15" style="fill: rgb(155, 133, 121);" transform="matrix(1, 0, 0, 1, 0, 0)"></path><path d="M 183.8000030517578 254 L 183.8000030517578 236.1999969482422 L 117.19999694824219 236.1999969482422 L 117.19999694824219 254 L 129.5 254 L 171.5 254 Z" class="st16" style="fill: rgb(194, 181, 155);" transform="matrix(1, 0, 0, 1, 0, 0)"></path><path d="M 183.8000030517578 236.1999969482422 L 194.60000610351562 236.1999969482422 L 194.60000610351562 212.89999389648438 L 106.4000015258789 212.89999389648438 L 106.4000015258789 236.1999969482422 L 117.19999694824219 236.1999969482422 Z" class="st15" style="fill: rgb(155, 133, 121);" transform="matrix(1, 0, 0, 1, 0, 0)"></path><path d="M 171.5 393.6000061035156 L 183.8000030517578 393.6000061035156 L 183.8000030517578 375.79998779296875 L 171.5 375.79998779296875 L 129.5 375.79998779296875 L 117.19999694824219 375.79998779296875 L 117.19999694824219 393.6000061035156 L 129.5 393.6000061035156 Z" class="st16" style="fill: rgb(194, 181, 155);" transform="matrix(1, 0, 0, 1, 0, 0)"></path><path d="M 194.60000610351562 393.6000061035156 L 183.8000030517578 393.6000061035156 L 171.5 393.6000061035156 L 129.5 393.6000061035156 L 117.19999694824219 393.6000061035156 L 106.4000015258789 393.6000061035156 L 106.4000015258789 414.1000061035156 L 194.60000610351562 414.1000061035156 Z" class="st15" style="fill: rgb(155, 133, 121);" transform="matrix(1, 0, 0, 1, 0, 0)"></path><path d="M 235.600006 254 H 277.600006 V 375.900002 H 235.600006 V 254 Z" class="st15" style="fill: rgb(155, 133, 121);" transform="matrix(1, 0, 0, 1, 0, 0)"></path><path d="M 223.3000030517578 236.1999969482422 L 223.3000030517578 254 L 235.60000610351562 254 L 277.6000061035156 254 L 290 254 L 290 236.1999969482422 Z" class="st16" style="fill: rgb(194, 181, 155);" transform="matrix(1, 0, 0, 1, 0, 0)"></path><path d="M 223.3000030517578 236.1999969482422 L 290 236.1999969482422 L 300.70001220703125 236.1999969482422 L 300.70001220703125 212.89999389648438 L 212.60000610351562 212.89999389648438 L 212.60000610351562 236.1999969482422 Z" class="st15" style="fill: rgb(155, 133, 121);" transform="matrix(1, 0, 0, 1, 0, 0)"></path><path d="M 223.3000030517578 375.79998779296875 L 223.3000030517578 393.6000061035156 L 235.60000610351562 393.6000061035156 L 277.6000061035156 393.6000061035156 L 290 393.6000061035156 L 290 375.79998779296875 L 277.6000061035156 375.79998779296875 L 235.60000610351562 375.79998779296875 Z" class="st16" style="fill: rgb(194, 181, 155);" transform="matrix(1, 0, 0, 1, 0, 0)"></path><path d="M 290 393.6000061035156 L 277.6000061035156 393.6000061035156 L 235.60000610351562 393.6000061035156 L 223.3000030517578 393.6000061035156 L 212.60000610351562 393.6000061035156 L 212.60000610351562 414.1000061035156 L 300.70001220703125 414.1000061035156 L 300.70001220703125 393.6000061035156 Z" class="st15" style="fill: rgb(155, 133, 121);" transform="matrix(1, 0, 0, 1, 0, 0)"></path><path d="M 341.799988 254 H 383.799988 V 375.900002 H 341.799988 V 254 Z" class="st15" style="fill: rgb(155, 133, 121);" transform="matrix(1, 0, 0, 1, 0, 0)"></path><path d="M 329.5 236.1999969482422 L 329.5 254 L 341.79998779296875 254 L 383.79998779296875 254 L 396.1000061035156 254 L 396.1000061035156 236.1999969482422 Z" class="st16" style="fill: rgb(194, 181, 155);" transform="matrix(1, 0, 0, 1, 0, 0)"></path><path d="M 318.70001220703125 236.1999969482422 L 329.5 236.1999969482422 L 396.1000061035156 236.1999969482422 L 406.79998779296875 236.1999969482422 L 406.79998779296875 212.89999389648438 L 318.70001220703125 212.89999389648438 Z" class="st15" style="fill: rgb(155, 133, 121);" transform="matrix(1, 0, 0, 1, 0, 0)"></path><path d="M 329.5 375.79998779296875 L 329.5 393.6000061035156 L 341.79998779296875 393.6000061035156 L 383.79998779296875 393.6000061035156 L 396.1000061035156 393.6000061035156 L 396.1000061035156 375.79998779296875 L 383.79998779296875 375.79998779296875 L 341.79998779296875 375.79998779296875 Z" class="st16" style="fill: rgb(194, 181, 155);" transform="matrix(1, 0, 0, 1, 0, 0)"></path><path d="M 341.79998779296875 393.6000061035156 L 329.5 393.6000061035156 L 318.70001220703125 393.6000061035156 L 318.70001220703125 414.1000061035156 L 406.79998779296875 414.1000061035156 L 406.79998779296875 393.6000061035156 L 396.1000061035156 393.6000061035156 L 383.79998779296875 393.6000061035156 Z" class="st15" style="fill: rgb(155, 133, 121);" transform="matrix(1, 0, 0, 1, 0, 0)"></path><path class="st16" d="M212.6,212.9h88.1h18h88.1h50.6L256.6,74.4L55.9,212.9h50.6h88.1H212.6z M256.6,126.2
			c14.4,0,26.1,11.7,26.1,26.1c0,14.4-11.7,26.1-26.1,26.1c-14.4,0-26.1-11.7-26.1-26.1C230.6,137.9,242.2,126.2,256.6,126.2z" style="fill: rgb(194, 181, 155);" transform="matrix(1, 0, 0, 1, 0, 0)"></path><path d="M 282.700006 152.300003 A 26.1 26.1 0 0 1 256.600006 178.400003 A 26.1 26.1 0 0 1 230.500006 152.300003 A 26.1 26.1 0 0 1 256.600006 126.200003 A 26.1 26.1 0 0 1 282.700006 152.300003 Z" class="st15" style="fill: rgb(155, 133, 121);" transform="matrix(1, 0, 0, 1, 0, 0)"></path><path class="st17" d="M931.5,754.9c-2.5-17.4-16.5-22.4-28.2-23.4c-4.6-28.6-32.9-57.9-72.6-75.1c-0.3-0.1-0.6-0.3-1-0.4
			c-12.4-5.3-25.8-9.4-40-12c-11.9-2.2-24.4-3.3-37.1-3c-13.8,0.2-28,2.1-42.3,5.7c-13.1,3.4-26.3,8.3-39.3,15
			c0,0-24.1-19.4-46.7-14c0,0,1.6,24.9,10.1,40.5l-32.7,33.5c0,0-20.2-5.4-25.7,0c-5.4,5.4-1.6,38.3,3.9,46.7
			c11.7,17.9,59.9,59.1,77,63.8c0,0,3.1,54.5,7,57.6c3.9,3.1,21.8,0.8,28,0c6.2-0.8,14.8-23.3,17.9-28c0,0,70,14.8,107.4-2.3
			c0,0,7,22.6,16.3,27.2c9.3,4.7,24.1,0,29.6-0.8c5.4-0.8,7.8-57.6,7.8-57.6s36.8-30.3,33.2-87.5c9.7,0.8,15.9,6.9,19.1,13.6
			c-8.4,0.6-15.7,5.6-15,13.3c1.4,16.5,23.5,19.8,23.7-5c10.6,2.8,15.2,15.9,15.2,15.9C947.6,764.4,940.1,757.2,931.5,754.9z
			 M653.2,732.3c-5.2,0-9.3-4.2-9.3-9.3c0-5.2,4.2-9.3,9.3-9.3c5.2,0,9.3,4.2,9.3,9.3C662.5,728.1,658.3,732.3,653.2,732.3z
			 M923.1,771.2c-7.7,0-11.6-7.6,2.8-9.3C926.7,767.1,925.7,771.2,923.1,771.2z" style="fill: rgb(233, 144, 143);" transform="matrix(1, 0, 0, 1, 0, 0)"></path><path d="M 662.500012 723 A 9.3 9.3 0 0 1 653.200012 732.3 A 9.3 9.3 0 0 1 643.900012 723 A 9.3 9.3 0 0 1 653.200012 713.7 A 9.3 9.3 0 0 1 662.500012 723 Z" class="st18" style="fill: rgb(111, 64, 65);" transform="matrix(1, 0, 0, 1, 0, 0)"></path><path d="M 300.70001220703125 414.1000061035156 L 212.60000610351562 414.1000061035156 L 194.60000610351562 414.1000061035156 L 106.4000015258789 414.1000061035156 L 77.30000305175781 414.1000061035156 L 77.30000305175781 454.8999938964844 L 432.29998779296875 454.8999938964844 L 432.29998779296875 414.1000061035156 L 406.79998779296875 414.1000061035156 L 318.70001220703125 414.1000061035156 Z" class="st16" style="fill: rgb(194, 181, 155);" transform="matrix(1, 0, 0, 1, 0, 0)"></path><path class="st19" d="M243.3,833.5c-15.6,0-28.2-12.6-28.2-28.2V759c0-15.6,12.6-28.2,28.2-28.2h153.6c4.6,0,8.9,1.1,12.7,3v-31
			H92.2v165.4c0,14.3,11.6,26,26,26h265.5c14.3,0,26-11.6,26-26v-37.7c-3.8,1.9-8.1,3-12.7,3H243.3z" style="fill: rgb(139, 94, 60);" transform="matrix(1, 0, 0, 1, 0, 0)"></path><path class="st19" d="M408.9,649.9c0.4,2.3,0.6,4.6,0.6,7v-18.4c0-14.3-11.6-26-26-26H118.1c-14.3,0-26,11.6-26,26v18.4
			c0-2.4,0.2-4.7,0.6-7H408.9z" style="fill: rgb(139, 94, 60);" transform="matrix(1, 0, 0, 1, 0, 0)"></path><path class="st20" d="M409.5,656.9c0-2.4-0.2-4.7-0.6-7H92.8c-0.4,2.3-0.6,4.6-0.6,7v45.9h317.4V656.9z" style="fill: rgb(110, 74, 45);" transform="matrix(1, 0, 0, 1, 0, 0)"></path><path class="st20" d="M409.5,733.8c-3.8-1.9-8.1-3-12.7-3H243.3c-15.6,0-28.2,12.6-28.2,28.2v46.2c0,15.6,12.6,28.2,28.2,28.2
			h153.6c4.6,0,8.9-1.1,12.7-3c9.2-4.6,15.6-14.2,15.6-25.2V759C425.1,748,418.8,738.4,409.5,733.8z M261.7,810.1
			c-14.6,0-26.4-11.8-26.4-26.4s11.8-26.4,26.4-26.4c14.6,0,26.4,11.8,26.4,26.4S276.3,810.1,261.7,810.1z" style="fill: rgb(110, 74, 45);" transform="matrix(1, 0, 0, 1, 0, 0)"></path><path d="M 288.100012 783.700012 A 26.4 26.4 0 0 1 261.700012 810.100012 A 26.4 26.4 0 0 1 235.300013 783.700012 A 26.4 26.4 0 0 1 261.700012 757.300013 A 26.4 26.4 0 0 1 288.100012 783.700012 Z" class="st15" style="fill: rgb(155, 133, 121);" transform="matrix(1, 0, 0, 1, 0, 0)"></path><path class="st16" d="M624.2,266.1v36.8h136.1h136.1v-36.8c0-2.9-2.4-5.2-5.2-5.2h-67.9H629.5
			C626.6,260.9,624.2,263.3,624.2,266.1z" style="fill: rgb(194, 181, 155);" transform="matrix(1, 0, 0, 1, 0, 0)"></path><path class="st16" d="M624.2,348v45.1v55.4c0,2.9,2.4,5.2,5.2,5.2h261.8c2.9,0,5.2-2.4,5.2-5.2V348H624.2z M638.2,369.8h133.8v9.3
			H638.2V369.8z M742.5,419.6H638.2v-9.3h104.2V419.6z M638.2,399.4V390h133.8v9.3H638.2z" style="fill: rgb(194, 181, 155);" transform="matrix(1, 0, 0, 1, 0, 0)"></path><path d="M 760.4000244140625 302.8999938964844 L 624.2000122070312 302.8999938964844 L 624.2000122070312 325.5 L 624.2000122070312 348 L 896.5 348 L 896.5 302.8999938964844 Z" class="st21" style="fill: rgb(89, 74, 66);" transform="matrix(1, 0, 0, 1, 0, 0)"></path><path d="M 638.200012 369.799988 H 772.000015 V 379.099988 H 638.200012 V 369.799988 Z" class="st21" style="fill: rgb(89, 74, 66);" transform="matrix(1, 0, 0, 1, 0, 0)"></path><path d="M 638.200012 390 H 772.000015 V 399.3 H 638.200012 V 390 Z" class="st21" style="fill: rgb(89, 74, 66);" transform="matrix(1, 0, 0, 1, 0, 0)"></path><path d="M 638.200012 410.299988 H 742.400009 V 419.599988 H 638.200012 V 410.299988 Z" class="st21" style="fill: rgb(89, 74, 66);" transform="matrix(1, 0, 0, 1, 0, 0)"></path>
<g transform="matrix(1, 0, 0, 1, 0, 0)">
		<g>
			<g>
				<path class="st15" d="M732.3,937.7c0.8,0,1.6,0.7,1.6,0.7L720,968.2c-1.5,0-5.2,0.2-6.1,0.2c-0.8,0-1.6-0.7-1.6-0.7l-4.8-29.8
					c2.9,0,6.5-0.2,7.6-0.2c0.8,0,1.6,0.7,1.6,0.7l1.5,14.6c0.1,1.3,0.1,3,0.1,4.8c0.5-2,1-3.9,1.5-5.2l5.8-14.7
					C728.1,937.9,731.3,937.7,732.3,937.7L732.3,937.7z" style="fill: rgb(155, 133, 121);"></path>
			</g>
			<g>
				<path class="st15" d="M746.6,952.4c0,3.2-1.8,5.4-6.3,6.3l-4.7,1c0.4,2,1.6,3,3.8,3c2.6,0,4.4-2,4.4-2s1.3,0.7,1.3,2.3
					c0,2.7-4.1,5.6-9,5.6c-4.9,0-8.1-3.1-8.1-8.3c0-6,4.3-14.2,11.9-14.2C744,946.1,746.6,948.6,746.6,952.4L746.6,952.4z
					 M738.6,955.5c1-0.3,1.3-1.2,1.3-2.1c0-0.9-0.3-2.2-1.3-2.2c-1.9,0-2.7,3-3,5.3L738.6,955.5z" style="fill: rgb(155, 133, 121);"></path>
			</g>
			<g>
				<path class="st15" d="M759.4,946.1c3.8,0,6.7,2,6.7,4.7c0,3.3-4,4.5-4,4.5s-1.2-3.6-3.9-3.6c-1.8,0-2.9,1.8-2.9,5.8
					c0,3.6,1,5.2,3.3,5.2c2.4,0,3.9-1.6,3.9-1.6s1.3,0.7,1.3,2.2c0,2.6-4,5.3-8.6,5.3c-4.9,0-8-3.1-8-8.2
					C747.3,954.3,751.7,946.1,759.4,946.1L759.4,946.1z" style="fill: rgb(155, 133, 121);"></path>
			</g>
			<g>
				<path class="st15" d="M777.8,941.3c0.9,0,1.5,0.7,1.5,0.7l-0.7,4.5h4.8l-1.1,3.5c-0.4,1.1-0.9,1.7-2,1.7h-2.5l-1.4,8.9
					c-0.2,1.4,0.1,2.1,1.1,2.1c0.9,0,1.8-0.5,1.8-0.5s1.3,0.7,1.3,2.2c0,2.2-3.1,4.3-7,4.3c-4.1,0-5.8-2.5-5.1-7l1.6-9.9h-2.6
					l1.1-3.6c0.3-0.9,1.1-1.6,2-1.6h1.3l1.5-4.2C775.2,941.9,777,941.3,777.8,941.3L777.8,941.3z" style="fill: rgb(155, 133, 121);"></path>
			</g>
			<g>
				<path class="st15" d="M801.2,952.4c0,3.2-1.8,5.4-6.3,6.3l-4.7,1c0.4,2,1.6,3,3.8,3c2.6,0,4.4-2,4.4-2s1.3,0.7,1.3,2.3
					c0,2.7-4.1,5.6-9,5.6c-4.9,0-8.1-3.1-8.1-8.3c0-6,4.3-14.2,11.9-14.2C798.6,946.1,801.2,948.6,801.2,952.4L801.2,952.4z
					 M793.2,955.5c1-0.3,1.3-1.2,1.3-2.1c0-0.9-0.3-2.2-1.3-2.2c-1.9,0-2.7,3-3,5.3L793.2,955.5z" style="fill: rgb(155, 133, 121);"></path>
			</g>
			<g>
				<path class="st15" d="M820.5,952.4c0,3.2-1.8,5.4-6.3,6.3l-4.7,1c0.4,2,1.6,3,3.8,3c2.6,0,4.4-2,4.4-2s1.3,0.7,1.3,2.3
					c0,2.7-4.1,5.6-9,5.6c-4.9,0-8.1-3.1-8.1-8.3c0-6,4.3-14.2,11.9-14.2C817.9,946.1,820.5,948.6,820.5,952.4L820.5,952.4z
					 M812.5,955.5c1-0.3,1.3-1.2,1.3-2.1c0-0.9-0.3-2.2-1.3-2.2c-1.9,0-2.7,3-3,5.3L812.5,955.5z" style="fill: rgb(155, 133, 121);"></path>
			</g>
			<g>
				<path class="st15" d="M836.3,960.5c0,0,1.6,1.5,1.6,4c0,3.3-2.8,4.2-5.2,4.2c-3.1,0-5.3-1.5-7.6-2.3c-0.6,0.7-1.3,1.5-1.9,2.3
					c0,0-3.5-0.1-3.5-2.4c0-2.9,4.8-7.8,9.9-13.4c-0.6-0.1-1.2-0.2-1.7-0.2c-2.9,0-4.1,1.5-4.1,1.5s-1.5-1.7-1.4-4
					c0.2-3.1,3.1-4,5.5-4c2.5,0,4.3,1,6.1,1.7l1.5-1.7c0,0,3.5,0.1,3.5,2.5c0,2.8-4.6,7.6-9.6,13c1.1,0.3,2,0.5,3,0.5
					C835.1,962.2,836.3,960.5,836.3,960.5L836.3,960.5z" style="fill: rgb(155, 133, 121);"></path>
			</g>
			<g>
				<path class="st15" d="M858.7,966.7c-1.2,7.6-6.4,11.4-13,11.4c-4.2,0-7.3-2.2-7.3-4.8c0-1.7,1.4-2.5,1.4-2.5s1.4,1.3,4.2,1.3
					c2.6,0,6.2-1.1,6.8-5.1l0.5-3.1c-1.8,2.6-4.1,4.6-7.1,4.6c-3.3,0-4.8-2.7-3.9-8.3l0.9-6c0.6-3.7,0.7-6.7,0.7-6.7
					c2.4-0.4,5.5-1.5,6.6-1.5c0.8,0,1.6,0.7,1.6,0.7l-1.2,7.5l-1.1,6.9c-0.1,0.6,0,1,0.6,1c2.8,0,4.3-7.9,4.3-7.9
					c0.6-3.7,0.7-6.7,0.7-6.7c2.4-0.4,5.5-1.5,6.6-1.5c0.9,0,1.6,0.7,1.6,0.7l-1.2,7.5L858.7,966.7z" style="fill: rgb(155, 133, 121);"></path>
			</g>
		</g>
		<g>
			<path class="st15" d="M538.1,947.4h7.4c1.7,0,3,0.1,3.8,0.4c1.2,0.3,2.2,1,3,1.9c0.8,0.9,1.5,2,1.9,3.3c0.4,1.3,0.7,2.9,0.7,4.8
				c0,1.7-0.2,3.1-0.6,4.3c-0.5,1.5-1.2,2.7-2.2,3.6c-0.7,0.7-1.7,1.2-2.9,1.6c-0.9,0.3-2.1,0.4-3.6,0.4h-7.7V947.4z M542.2,950.8
				v13.4h3c1.1,0,2-0.1,2.5-0.2c0.7-0.2,1.2-0.4,1.6-0.8c0.4-0.4,0.8-1,1.1-1.9c0.3-0.9,0.4-2.1,0.4-3.7c0-1.6-0.1-2.8-0.4-3.6
				c-0.3-0.8-0.7-1.5-1.2-2s-1.1-0.8-1.9-0.9c-0.6-0.1-1.7-0.2-3.3-0.2H542.2z" style="fill: rgb(155, 133, 121);"></path>
			<path class="st15" d="M566.4,962.9l3.9,0.6c-0.5,1.4-1.3,2.5-2.3,3.2c-1.1,0.7-2.4,1.1-4,1.1c-2.5,0-4.4-0.8-5.6-2.5
				c-1-1.3-1.4-3-1.4-5c0-2.4,0.6-4.3,1.9-5.7c1.3-1.4,2.9-2.1,4.8-2.1c2.2,0,3.9,0.7,5.1,2.2c1.3,1.4,1.9,3.6,1.8,6.6h-9.7
				c0,1.1,0.3,2,0.9,2.7c0.6,0.6,1.3,1,2.2,1c0.6,0,1.1-0.2,1.5-0.5C565.8,964.1,566.2,963.6,566.4,962.9z M566.6,959
				c0-1.1-0.3-2-0.9-2.6c-0.6-0.6-1.2-0.9-2-0.9c-0.8,0-1.5,0.3-2.1,0.9c-0.6,0.6-0.8,1.4-0.8,2.5H566.6z" style="fill: rgb(155, 133, 121);"></path>
			<path class="st15" d="M571.6,963.4l3.9-0.6c0.2,0.8,0.5,1.3,1,1.7c0.5,0.4,1.2,0.6,2.1,0.6c1,0,1.8-0.2,2.3-0.6
				c0.3-0.3,0.5-0.6,0.5-1c0-0.3-0.1-0.5-0.3-0.7c-0.2-0.2-0.6-0.4-1.3-0.5c-3.1-0.7-5.1-1.3-5.9-1.9c-1.2-0.8-1.7-1.9-1.7-3.3
				c0-1.3,0.5-2.3,1.5-3.2c1-0.9,2.6-1.3,4.7-1.3c2,0,3.5,0.3,4.5,1c1,0.7,1.6,1.6,2,2.9l-3.6,0.7c-0.2-0.6-0.5-1-0.9-1.3
				c-0.4-0.3-1.1-0.5-1.9-0.5c-1,0-1.7,0.1-2.2,0.4c-0.3,0.2-0.4,0.5-0.4,0.8c0,0.3,0.1,0.5,0.4,0.7c0.3,0.3,1.6,0.6,3.6,1.1
				c2.1,0.5,3.5,1,4.3,1.7c0.8,0.7,1.2,1.6,1.2,2.9c0,1.3-0.6,2.5-1.7,3.5c-1.1,1-2.8,1.4-5,1.4c-2,0-3.6-0.4-4.7-1.2
				C572.8,965.8,572,964.7,571.6,963.4z" style="fill: rgb(155, 133, 121);"></path>
			<path class="st15" d="M588.1,950.9v-3.6h3.9v3.6H588.1z M588.1,967.5v-14.6h3.9v14.6H588.1z" style="fill: rgb(155, 133, 121);"></path>
			<path class="st15" d="M595,968.5l4.4,0.5c0.1,0.5,0.2,0.9,0.5,1.1c0.4,0.3,0.9,0.4,1.7,0.4c1,0,1.8-0.2,2.3-0.5
				c0.3-0.2,0.6-0.5,0.8-1c0.1-0.3,0.2-0.9,0.2-1.8v-2.1c-1.2,1.6-2.6,2.4-4.4,2.4c-2,0-3.5-0.8-4.7-2.5c-0.9-1.3-1.3-2.9-1.3-4.9
				c0-2.4,0.6-4.3,1.8-5.6c1.2-1.3,2.6-1.9,4.4-1.9c1.8,0,3.3,0.8,4.5,2.4v-2.1h3.6V966c0,1.7-0.1,3-0.4,3.9s-0.7,1.5-1.2,2
				c-0.5,0.5-1.2,0.9-2.1,1.1c-0.9,0.3-1.9,0.4-3.3,0.4c-2.5,0-4.2-0.4-5.3-1.3c-1-0.8-1.6-1.9-1.6-3.2
				C595,968.8,595,968.7,595,968.5z M598.5,959.9c0,1.6,0.3,2.7,0.9,3.4c0.6,0.7,1.3,1.1,2.2,1.1c0.9,0,1.7-0.4,2.4-1.1
				c0.7-0.7,1-1.8,1-3.3c0-1.5-0.3-2.6-0.9-3.4c-0.6-0.7-1.4-1.1-2.4-1.1c-0.9,0-1.7,0.4-2.3,1.1
				C598.8,957.3,598.5,958.4,598.5,959.9z" style="fill: rgb(155, 133, 121);"></path>
			<path class="st15" d="M625.3,967.5h-3.9v-7.5c0-1.6-0.1-2.6-0.2-3.1c-0.2-0.5-0.4-0.8-0.8-1.1c-0.4-0.3-0.8-0.4-1.3-0.4
				c-0.7,0-1.3,0.2-1.8,0.6c-0.5,0.4-0.9,0.9-1.1,1.5c-0.2,0.6-0.3,1.7-0.3,3.4v6.6H612v-14.6h3.6v2.1c1.3-1.7,2.9-2.5,4.8-2.5
				c0.9,0,1.6,0.2,2.3,0.5c0.7,0.3,1.2,0.7,1.6,1.2c0.4,0.5,0.6,1,0.8,1.6c0.1,0.6,0.2,1.5,0.2,2.6V967.5z" style="fill: rgb(155, 133, 121);"></path>
			<path class="st15" d="M637.2,962.9l3.9,0.6c-0.5,1.4-1.3,2.5-2.3,3.2c-1.1,0.7-2.4,1.1-4,1.1c-2.5,0-4.4-0.8-5.6-2.5
				c-1-1.3-1.4-3-1.4-5c0-2.4,0.6-4.3,1.9-5.7c1.3-1.4,2.9-2.1,4.8-2.1c2.2,0,3.9,0.7,5.1,2.2c1.3,1.4,1.9,3.6,1.8,6.6h-9.7
				c0,1.1,0.3,2,0.9,2.7c0.6,0.6,1.3,1,2.2,1c0.6,0,1.1-0.2,1.5-0.5C636.6,964.1,636.9,963.6,637.2,962.9z M637.4,959
				c0-1.1-0.3-2-0.9-2.6c-0.6-0.6-1.2-0.9-2-0.9c-0.8,0-1.5,0.3-2.1,0.9c-0.6,0.6-0.8,1.4-0.8,2.5H637.4z" style="fill: rgb(155, 133, 121);"></path>
			<path class="st15" d="M657.2,967.5h-3.6v-2.1c-0.6,0.8-1.3,1.5-2.1,1.9c-0.8,0.4-1.6,0.6-2.5,0.6c-1.7,0-3.1-0.7-4.3-2
				c-1.2-1.4-1.8-3.2-1.8-5.7c0-2.5,0.6-4.4,1.7-5.7c1.2-1.3,2.6-1.9,4.4-1.9c1.6,0,3,0.7,4.2,2v-7.3h3.9V967.5z M646.9,959.9
				c0,1.6,0.2,2.7,0.6,3.4c0.6,1,1.5,1.5,2.6,1.5c0.9,0,1.6-0.4,2.3-1.1c0.6-0.8,0.9-1.9,0.9-3.4c0-1.7-0.3-2.9-0.9-3.6
				c-0.6-0.7-1.4-1.1-2.3-1.1c-0.9,0-1.7,0.4-2.3,1.1C647.2,957.4,646.9,958.5,646.9,959.9z" style="fill: rgb(155, 133, 121);"></path>
			<path class="st15" d="M667.6,967.5v-20.2h3.9v7.3c1.2-1.4,2.6-2,4.2-2c1.8,0,3.3,0.6,4.4,1.9c1.2,1.3,1.7,3.1,1.7,5.6
				c0,2.5-0.6,4.4-1.8,5.8c-1.2,1.3-2.6,2-4.3,2c-0.8,0-1.7-0.2-2.5-0.6c-0.8-0.4-1.5-1-2.1-1.9v2.1H667.6z M671.4,959.9
				c0,1.5,0.2,2.6,0.7,3.4c0.7,1,1.6,1.5,2.7,1.5c0.9,0,1.6-0.4,2.2-1.1c0.6-0.7,0.9-1.9,0.9-3.4c0-1.7-0.3-2.9-0.9-3.6
				c-0.6-0.7-1.4-1.1-2.3-1.1c-0.9,0-1.7,0.4-2.3,1.1C671.7,957.3,671.4,958.4,671.4,959.9z" style="fill: rgb(155, 133, 121);"></path>
			<path class="st15" d="M682.6,952.9h4.1l3.5,10.4l3.4-10.4h4l-5.2,14.1l-0.9,2.5c-0.3,0.9-0.7,1.5-1,2c-0.3,0.4-0.7,0.8-1.1,1.1
				c-0.4,0.3-0.9,0.5-1.5,0.7c-0.6,0.2-1.2,0.2-2,0.2c-0.7,0-1.5-0.1-2.2-0.2l-0.3-3c0.6,0.1,1.2,0.2,1.6,0.2c0.9,0,1.6-0.3,2-0.8
				c0.4-0.5,0.8-1.2,1-2L682.6,952.9z" style="fill: rgb(155, 133, 121);"></path>
		</g>
	</g>
</g>
</svg>