<?xml version="1.0" encoding="UTF-8" standalone="no"?>
<svg
   xmlns:dc="http://purl.org/dc/elements/1.1/"
   xmlns:cc="http://creativecommons.org/ns#"
   xmlns:rdf="http://www.w3.org/1999/02/22-rdf-syntax-ns#"
   xmlns:svg="http://www.w3.org/2000/svg"
   xmlns="http://www.w3.org/2000/svg"
   version="1.1"
   id="Layer_1"
   x="0px"
   y="0px"
   viewBox="0 0 1400 980"
   enable-background="new 0 0 40 40"
   xml:space="preserve"
   width="1400"
   height="980"><metadata
   id="metadata256"><rdf:RDF><cc:Work
       rdf:about=""><dc:format>image/svg+xml</dc:format><dc:type
         rdf:resource="http://purl.org/dc/dcmitype/StillImage" /><dc:title></dc:title></cc:Work></rdf:RDF></metadata><defs
   id="defs254">



	
	
	
	
	
	

		
		
		
		
		
		
	</defs>
   <path
   style="fill:#3ea0c3"
   id="XMLID_1_"
   d="M 0,0 H 1400 V 980 H 0 Z" /><text
   y="221.82153"
   x="643.86169"
   style="white-space:pre"
   id="XMLID_40_"><tspan
     style="font-size:58.38809967px;font-family:TitilliumWeb-Bold;fill:#ffffff"
     id="tspan3"
     font-size="58.3881px"
     y="221.82153"
     x="643.86169">CUIDA TUS OJOS</tspan></text>
<path
   style="fill:none"
   id="XMLID_42_"
   d="M 676.79999,205.7 H 1193.5 v 73.69999 H 676.79999 Z" /><path
   d="m 1211,584.09998 a 275.89999,275.89999 0 0 1 -275.90002,275.89999 275.89999,275.89999 0 0 1 -275.9,-275.89999 275.89999,275.89999 0 0 1 275.9,-275.9 275.89999,275.89999 0 0 1 275.90002,275.9 z"
   id="XMLID_34_"
   style="fill:#007898" /><g
   style="stroke-width:0.44784397"
   transform="matrix(1.9445391,0,0,2.5640695,-887.28572,-943.80122)"
   id="XMLID_9_">
			<path
   id="XMLID_6_"
   d="m 1023.2,612.3 c 0,0 -34.6,28.2 -80.8,24 -46.2,-4.2 -78.8,-40.2 -86.4,-46.5 -7.6,-6.2 88,9 88,9 z"
   style="fill:#2a333f;stroke-width:0.44784397" />
			<g
   style="stroke-width:0.44784397"
   id="XMLID_5_">
				<path
   id="XMLID_17_"
   d="m 1023.2,612.3 c 0,0 -131.6,-4.5 -167.2,-22.4 3,-2.4 6.1,-4.7 9.1,-6.8 30.8,-18.1 59.3,-23.6 76.6,-22.1 28.2,2.5 59.7,17.1 78.1,44.2 1.2,2.3 2.3,4.7 3.4,7.1 z"
   style="fill:#2a333f;stroke-width:0.44784397" />
				<path
   id="XMLID_19_"
   d="m 1019.7,605.2 c -18.4,-27 -49.9,-41.7 -78.1,-44.2 -17.3,-1.5 -45.8,4 -76.6,22.1 31.6,-22.3 61.5,-29 79,-27.4 27.9,2.7 59.2,19.1 75.7,49.5 z"
   style="fill:#e3a064;stroke-width:0.44784397" />
				<path
   id="XMLID_24_"
   d="m 1013.2,617.6 c -22.1,10.8 -42.7,15 -61.9,14.5 -2.9,-0.1 -5.8,-0.2 -8.6,-0.5 -34,-3.3 -63.1,-21.1 -86.8,-41.7 15.5,-6.6 37.1,-17.4 61.2,-22 22.2,-4.2 46.6,-3.2 70.5,11.3 8.6,5.2 17.2,12.2 25.6,21.2 1,5.6 1,11.6 0,17.2 z"
   style="fill:#e0eaef;stroke-width:0.44784397" />
				<path
   id="XMLID_14_"
   d="m 1013.2,600.4 c 1,5.7 1,11.6 0,17.3 3.3,-1.6 6.6,-3.4 10,-5.3 -3.3,-4.4 -6.6,-8.4 -10,-12 z"
   style="fill:#dda5a2;stroke-width:0.44784397" />
				<path
   id="XMLID_22_"
   d="m 989.7,591.9 c 0,21.6 -17,39.3 -38.4,40.2 -0.6,0 -1.2,0 -1.8,0 -2.3,0 -4.6,-0.2 -6.8,-0.6 -19,-3.2 -33.5,-19.8 -33.5,-39.7 0,-9 3,-17.4 8,-24.1 22.2,-4.2 46.6,-3.2 70.5,11.3 1.3,4.1 2,8.4 2,12.9 z"
   style="fill:#343e4b;stroke-width:0.44784397" />
				<path
   d="m 974,591.90002 a 24.5,24.5 0 0 1 -24.5,24.5 24.5,24.5 0 0 1 -24.5,-24.5 24.5,24.5 0 0 1 24.5,-24.5 24.5,24.5 0 0 1 24.5,24.5 z"
   id="XMLID_7_"
   style="fill:#2a333f;stroke-width:0.44784397" />
				<path
   d="M 976.6,605.5 A 13.6,13.6 0 0 1 963,619.1 13.6,13.6 0 0 1 949.4,605.5 13.6,13.6 0 0 1 963,591.9 13.6,13.6 0 0 1 976.6,605.5 Z"
   id="XMLID_8_"
   style="fill:#e0eaef;stroke-width:0.44784397" />
			</g>
		</g><g
   id="XMLID_38_">
		<defs
   id="defs166">
			<path
   id="XMLID_36_"
   d="M 99,91 H 499 V 980 H 99 Z" />
		</defs>
		<clipPath
   id="XMLID_47_">
			<use
   height="100%"
   width="100%"
   y="0"
   x="0"
   style="overflow:visible"
   id="use168"
   href="#XMLID_36_"
   overflow="visible" />
		</clipPath>
		<g
   clip-path="url(#XMLID_47_)"
   id="XMLID_105_">
			<path
   d="m 267.4,1191.6 c -7.4,-2.7 -17.5,-7 -24.8,-2.7 -6.6,3.9 -8.3,13.1 -13.2,18.7 -6.9,7.9 -19.3,14 -28,19.5 -14.8,9.5 -31,19.2 -38.2,35.4 -1.2,2.8 -2.1,6.3 0,8.6 1.5,1.7 4.1,1.9 6.4,1.9 23.6,-0.2 47.2,-6.5 67.9,-18.1 7,-3.9 13.7,-8.5 21.3,-10.9 6.1,-1.9 13.2,-2.9 16.8,-8.2 2.7,-4 2.5,-9.2 2,-14 -0.7,-7.1 -1.6,-14.1 -2.9,-21.1 -0.4,-2.2 -0.9,-4.6 -2.4,-6.3 -1.2,-1.3 -3.1,-2.1 -4.9,-2.8 z"
   id="XMLID_282_" />
			<path
   d="m 347.6,1191.6 c 7.4,-2.7 17.5,-7 24.8,-2.7 6.6,3.9 8.3,13.1 13.2,18.7 6.9,7.9 19.3,14 28,19.5 14.8,9.5 31,19.2 38.2,35.4 1.2,2.8 2.1,6.3 0,8.6 -1.5,1.7 -4.1,1.9 -6.4,1.9 -23.6,-0.2 -47.2,-6.5 -67.9,-18.1 -7,-3.9 -13.7,-8.5 -21.3,-10.9 -6.1,-1.9 -13.2,-2.9 -16.8,-8.2 -2.7,-4 -2.5,-9.2 -2,-14 0.7,-7.1 1.6,-14.1 2.9,-21.1 0.4,-2.2 0.9,-4.6 2.4,-6.3 1.2,-1.3 3.1,-2.1 4.9,-2.8 z"
   id="XMLID_281_" />
			<path
   style="fill:#c0968f"
   d="M 339.2,412.4 H 323.1 305 276 259.1 l 1.6,-5.9 1.8,-6.8 c 0,0 -0.1,-0.4 0,-1.1 v 0 c 0.4,-1.8 2.6,-5 13.6,-5.3 0.9,0 1.8,0 2.8,0 3.8,0.1 8.4,-0.2 13.3,-0.4 3,-0.2 6.1,-0.4 9.3,-0.6 5.4,-0.3 10.8,-0.5 15.7,-0.3 1,0.1 2,0.1 3,0.2 1.4,0.1 2.8,0.3 4.1,0.5 0,0 0,0 0,0 2.3,0.4 4.3,0.9 6,1.7 2.8,1.2 4.7,3 5.4,5.5 l 2.4,9 z"
   id="XMLID_280_" />
			<path
   style="fill:#004b73"
   d="m 385.1,1188.5 c -17.7,11.5 -52.8,12.9 -52.8,12.9 0,0 1.4,-59.2 2.1,-129.3 15.5,-8.8 30.4,-19.2 45.1,-30 -1.3,59.7 -0.3,112.4 5.6,146.4 z"
   id="XMLID_205_" />
			<path
   style="fill:#004b73"
   d="m 229,1117.3 c 14.8,-5.7 29.6,-11.6 44.3,-17.6 2.6,59.1 5.2,105.5 5.2,105.5 0,0 -15.5,1.9 -50.2,-9.5 2.3,-14.2 2.2,-43 0.7,-78.4 z"
   id="XMLID_239_" />
			<path
   style="fill:#003b5e"
   d="m 206,834.8 c -4.6,-35.8 -5.9,-96.4 -5.9,-96.4 0,0 60.5,-9.5 195,0 -4.6,86.2 -13.4,204.7 -15.6,303.6 -14.7,10.8 -29.6,21.2 -45.1,30 1,-95.5 0.7,-211.1 -6,-224.4 -9.6,-19.2 -46.4,-25.7 -56.9,10.1 -6.5,22 -2.4,147.9 1.8,241.9 -14.7,6.1 -29.5,11.9 -44.3,17.6 -4.2,-100.8 -19.6,-255.9 -23,-282.4 z"
   id="XMLID_248_" />
			<path
   style="fill:#c0968f"
   d="m 399.6,617.6 c 0.2,18.6 0.7,38 1.2,55.6 -51.4,30.3 -104.9,55.6 -160.3,75.1 -24.7,-2.4 -43.8,-6.8 -49.2,-13.2 -0.3,-0.4 -0.6,-0.8 -0.9,-1.2 0,0 2.9,-58.1 4.7,-109.1 68.5,0.1 136.7,0.6 204.5,-7.2 z"
   id="XMLID_226_" />
			<path
   style="fill:#d9a8a0"
   d="m 196.2,554.4 c -1.1,-18.1 -7.9,-63.8 -10.1,-90.9 -0.5,-5.9 -0.7,-10.9 -0.6,-14.6 0.1,-6.8 4.4,-12.7 10.7,-14.9 l 68.5,-23.6 69.2,0.8 60.2,15.2 c 6.6,1.4 11.6,6.9 12.4,13.8 0.5,3.7 2.4,8 2,16.2 -1.4,27.5 -6.7,74.3 -8.1,101.5 -0.7,12.3 -0.8,29 -0.7,47.2 0,4.1 0.1,8.3 0.1,12.5 -67.8,7.9 -136,7.3 -204.4,7.1 0.6,-17.3 1.1,-33.8 1.2,-47 0,-10.2 -0.1,-18.4 -0.4,-23.3 z"
   id="XMLID_237_" />
			<path
   style="fill:#d9a8a0"
   d="m 400.8,673.1 c 1,33.9 2.2,60.7 2.2,60.7 -0.2,0.3 -0.5,0.5 -0.7,0.8 -14.1,14.1 -103.5,19.3 -161.7,13.6 55.3,-19.4 108.8,-44.7 160.2,-75.1 z"
   id="XMLID_206_" />
			<path
   style="fill:#414042"
   d="m 403,752.6 c -7,9.1 -44.9,14.7 -86.9,16.3 -12.8,0.5 -26,0.6 -38.8,0.3 -42.8,-1 -81.2,-6.3 -86.9,-16.5 0,0 0.3,-6.7 0.9,-17.6 7.9,9.4 45,14.4 86,15.3 12.8,0.3 26,0.2 38.8,-0.3 40.7,-1.5 77.6,-6.8 86.1,-15.5 0.5,11.1 0.8,18 0.8,18 z"
   id="XMLID_277_" />
			<path
   style="fill:#c0968f"
   d="m 347.3,414.1 -13.5,-2.9 -69.2,-0.9 -68.5,24.4 c -6.3,2.2 -10.5,8.4 -10.7,15.4 -0.4,21.4 9.4,86.3 10.7,109.2 0.9,14.5 -0.4,57.2 -2,98 68.1,-66.2 113.3,-155.7 153.2,-243.2 z"
   id="XMLID_276_" />
			<path
   style="fill:#fcba7c"
   d="m 339.2,412.4 c 0,0 -23.9,27.7 -39.7,26.5 -0.7,-0.1 -1.3,-0.1 -1.9,-0.3 -2.8,-0.7 -5.6,-1.6 -8.2,-2.8 l -1.6,-0.7 c -1,-0.5 -2,-1 -3,-1.5 -0.6,-0.3 -1.2,-0.6 -1.7,-1 -0.9,-0.5 -1.8,-1.1 -2.7,-1.6 0,0 0,0 0,0 -0.1,-0.1 -0.2,-0.1 -0.2,-0.2 -0.5,-0.3 -0.9,-0.6 -1.4,-0.9 -2.4,-1.6 -4.6,-3.2 -6.6,-4.8 -0.4,-0.3 -0.8,-0.6 -1.2,-1 -1.5,-1.3 -3,-2.5 -4.2,-3.8 -4.3,-4.1 -7,-7.4 -7.4,-7.9 v 0 c 0,0 0,0 0,0 0,0 0,0 0,0 0,0 4,-1.8 8.8,-6.9 0.1,-0.2 0.3,-0.3 0.5,-0.5 0.4,-0.5 0.9,-1 1.3,-1.5 1.8,-2.1 3.6,-4.7 5.3,-7.8 0.4,-0.7 0.8,-1.5 1.1,-2.4 0.3,-0.6 0.5,-1.3 0.7,-2 4.4,-14.5 2.2,-42.6 2.2,-42.6 l 40.1,-5.9 c 0,0 -0.2,15.6 0,29.7 0,0.6 0,1.3 0,1.9 0,0.6 0,1.3 0,2 0,0.6 0,1.2 0.1,1.7 0,1.1 0.1,2.1 0.1,3.1 0,0.5 0,1 0.1,1.5 0,0.1 0,0.2 0,0.3 0,0.3 0,0.6 0,0.9 0.1,1.4 0.1,2.7 0.2,3.8 0.1,0.8 0.1,1.6 0.2,2.3 0.1,0.7 0.2,1.5 0.4,2.2 2.7,11.3 18.7,20.2 18.7,20.2 z"
   id="XMLID_275_" />
			<path
   style="fill:#e3a064"
   d="m 319.7,387.5 c -0.8,1.4 -1.6,2.9 -2.4,4.3 -3.9,7 -8.1,13.8 -12.3,20.6 -3.6,5.7 -7.3,11.2 -11,16.8 -1.5,2.2 -3.1,4.5 -4.6,6.7 l -1.6,-0.7 c -1,-0.5 -2,-1 -3,-1.5 -0.6,-0.3 -1.2,-0.6 -1.7,-1 -0.9,-0.5 -1.8,-1.1 -2.7,-1.7 -0.1,-0.1 -0.2,-0.1 -0.2,-0.2 -0.5,-0.3 -0.9,-0.6 -1.4,-0.9 -2.4,-1.6 -4.5,-3.2 -6.6,-4.8 -0.4,-0.3 -0.8,-0.6 -1.2,-1 -1.5,-1.3 -2.9,-2.5 -4.2,-3.8 -4.3,-4.1 -7,-7.4 -7.4,-7.9 v 0 c 0,0 0,0 0,0 0,0 0,0 0,0 0,0 4,-1.8 8.8,-6.9 0.1,-0.2 0.3,-0.3 0.5,-0.5 0.4,-0.5 0.9,-1 1.3,-1.5 1.8,-2.1 3.6,-4.7 5.3,-7.8 0.4,-0.7 0.8,-1.5 1.1,-2.4 0.3,-0.6 0.5,-1.3 0.7,-2 4.4,-14.5 2.2,-42.6 2.2,-42.6 l 40.1,-5.9 c 0,0 -0.2,15.6 0,29.7 0,0.6 0,1.3 0,1.9 0,0.6 0,1.3 0,2 0,0.6 0,1.2 0.1,1.7 0,1.1 0.1,2.1 0.1,3.1 0,0.5 0,1 0.1,1.5 0,0.1 0,0.2 0,0.3 0,0.3 0,0.6 0,0.9 -0.2,1.1 -0.1,2.4 0,3.6 z"
   id="XMLID_274_" />
			<path
   style="fill:#fcba7c"
   d="m 319.9,389.8 c -0.1,-0.7 -0.1,-1.5 -0.2,-2.3 -9.3,16.8 -19.6,32.8 -30.4,48.3 2.6,1.1 5.3,2.7 8.2,2.8 17.5,0.5 41.7,-26.2 41.7,-26.2 0,0 -18.1,-10 -19.3,-22.6 z"
   id="XMLID_273_" />
			<path
   style="fill:#fdc07d"
   d="m 291.2,362.1 c 1.9,0.1 3.9,0.2 5.9,0.2 -1.2,0 -3.2,-0.1 -5.9,-0.2 z"
   id="XMLID_272_" />
			<path
   style="fill:#4b361b"
   d="m 298.1,362.3 v 0 c 0,0 -0.2,0 -0.6,0 0.2,0 0.4,0 0.6,0 z"
   id="XMLID_271_" />
			<path
   style="fill:#c0968f"
   d="m 259.1,412.3 3.4,-12.8 c 0,0 12.5,14.2 22.2,20.4 9.7,6.1 14.8,19 14.8,19 -5.9,0.2 -21.7,0.6 -40.4,-26.6 z"
   id="XMLID_270_" />
			<path
   style="fill:#c0968f"
   d="m 339.2,412.4 c 0,0 0,0 0,0 -6.9,10.9 -13.9,17.4 -20.1,21.2 -11.2,7 -19.6,5.4 -19.6,5.4 0,0 0,0 0,0 0,-0.1 0.1,-0.2 0.1,-0.4 0.8,-2.2 5.4,-13.1 14,-18.6 0,0 0.1,0 0.2,-0.1 3,-1.9 6.4,-4.7 9.5,-7.5 1.5,-1.4 2.9,-2.7 4.3,-4 l 0.3,-0.3 c 0.8,-0.8 1.5,-1.5 2.2,-2.2 0.2,-0.2 0.4,-0.4 0.5,-0.6 2.4,-2.5 4.2,-4.5 4.9,-5.3 0.1,-0.1 0.2,-0.2 0.3,-0.4 l 2.4,9 z"
   id="XMLID_269_" />
			<path
   style="fill:#e6e7e8"
   d="m 259.1,410.4 -64.2,22.5 c -6.4,2.2 -10.8,8.4 -10.9,15.5 -0.4,21.4 9.6,86.6 10.9,109.5 0.6,9.3 -1.5,53.6 -4.7,110.9 24.6,-25.9 47.3,-53.7 68.8,-82.1 V 410.4 Z"
   id="XMLID_268_" />
			<path
   style="fill:#e6e7e8"
   d="m 190.3,668.7 c 24.6,-25.9 47.3,-53.7 68.8,-82.1 v 154.9 c -24.5,9.2 -49.3,17.4 -74.4,24.3 2,-33.9 3.9,-67.2 5.6,-97.1 z"
   id="XMLID_207_" />
			<path
   style="fill:#efeff0"
   d="m 259.1,741.5 v 275.7 c -45.8,-1.5 -84,-6.7 -89.1,-16 0,0 7.8,-120 14.7,-235.5 25.1,-6.9 49.9,-15 74.4,-24.2 z"
   id="XMLID_212_" />
			<path
   style="fill:#efeff0"
   d="m 339.2,411.3 57.5,14.8 c 6.7,1.4 11.8,7.2 12.6,14.3 2,17.1 -6.2,80.6 -8.1,117.3 -0.8,15.3 1.4,58.5 4.9,112.3 -22.3,13.4 -45.1,25.8 -68.2,37.2 z"
   id="XMLID_221_" />
			<path
   style="fill:#ffffff"
   d="m 406.1,670 c 8.6,132.1 25.1,327.7 25.1,327.7 -6.5,8.6 -45.7,14.5 -94.6,21.7 l 1.3,-312.2 C 361,695.8 383.8,683.4 406.1,670 Z"
   id="XMLID_224_" />
			<path
   style="fill:#d9a8a0"
   d="m 284.6,419.9 c 0,0 -2.2,5.3 -4.4,11.1 0,0 0,0 0,0 -0.3,0.7 -0.6,1.5 -0.9,2.2 -1,2.5 -1.9,5 -2.6,7 -12.2,-14.7 -17.3,-27.1 -17.7,-27.8 0,0 0,0 0,0 l 1.4,-5.9 1.9,-8 v 0 c 1.6,1.9 3.3,3.7 5,5.6 0.3,0.3 0.6,0.6 0.9,0.9 2.6,2.7 5.3,5.3 7.6,7.4 4.8,4.2 8.4,7.2 8.8,7.5 0,0 0,0 0,0 z"
   id="XMLID_265_" />
			<path
   style="fill:#d9a8a0"
   d="m 339.2,412.4 c 0,0 0,0 0,0 -0.3,0.8 -5.5,13.2 -17.7,27.9 -0.6,-1.9 -1.5,-4.3 -2.4,-6.7 -0.3,-0.7 -0.5,-1.4 -0.8,-2.1 -0.1,-0.2 -0.2,-0.5 -0.3,-0.7 -2.2,-5.6 -4.4,-10.8 -4.4,-10.8 0,0 0.1,0 0.2,-0.1 0.8,-0.6 4.6,-3.4 9.3,-7.5 1.4,-1.2 3,-2.6 4.5,-4 l 0.3,-0.3 c 0.7,-0.7 1.5,-1.4 2.2,-2.2 0.2,-0.2 0.4,-0.4 0.6,-0.6 1.7,-1.7 3.3,-3.5 4.9,-5.3 0.1,-0.1 0.2,-0.2 0.3,-0.4 l 2.4,9 z"
   id="XMLID_264_" />
			<path
   style="fill:#003d61"
   d="m 309.4,432.6 c -6.4,-1.7 -13.3,-1.7 -20.6,0 l -2.1,5.6 5.6,9.8 h 13.5 l 5.7,-9.8 z"
   id="XMLID_263_" />
			<path
   style="fill:#003050"
   id="XMLID_262_"
   d="m 288.79999,432.60001 -6.9,-6 -2.6,6.6 7.40002,4.9 z" />
			<path
   style="fill:#003050"
   id="XMLID_261_"
   d="m 309.39999,432.60001 7.30002,-5.20002 2.69998,6.9 -7.79998,3.80002" />
			<path
   style="fill:#003050"
   d="m 305.8,448 h -6.7 -6.8 l -5.9,92.1 c 7.9,-12.2 16.2,-24.5 22.9,-37.5 z"
   id="XMLID_260_" />
			<path
   style="fill:#003d61"
   d="m 309.4,502.6 c -6.7,13.1 -15,25.3 -22.9,37.5 l -9,139.5 21.7,29.1 21.7,-29.1 z"
   id="XMLID_259_" />
			<g
   id="XMLID_258_">
				<path
   style="fill:#d1d3d4"
   d="m 293.5,770.3 c -3,0 -6,0 -8.9,-0.1 -1.8,0 -3.3,-1.9 -3.3,-4.2 v -12.4 c 0,-1.3 0.5,-2.5 1.3,-3.3 0.6,-0.6 1.4,-0.9 2.1,-0.9 7.8,0.2 15.8,0.1 23.9,-0.2 0.8,0 1.5,0.3 2.2,0.9 0.8,0.8 1.3,2 1.3,3.3 v 12.4 c 0,2.3 -1.4,4.1 -3.2,4.2 -5.1,0.1 -10.2,0.3 -15.4,0.3 z m -8.8,-18.9 c -0.3,0 -0.5,0.2 -0.7,0.3 -0.4,0.4 -0.7,1.1 -0.7,1.8 V 766 c 0,1.3 0.7,2.1 1.3,2.2 8,0.2 16.1,0.1 24.2,-0.2 0.6,0 1.3,-0.9 1.3,-2.2 v -12.4 c 0,-0.8 -0.3,-1.4 -0.7,-1.8 -0.2,-0.2 -0.4,-0.3 -0.7,-0.3 -8.1,0.2 -16.2,0.3 -24,0.1 0,0 0,0 0,0 z"
   id="XMLID_43_" />
			</g>
			<g
   id="XMLID_257_">
				<path
   style="fill:#d1d3d4"
   id="XMLID_39_"
   d="m 282.29999,759.20001 h 11.8 v 1 h -11.8 z" />
			</g>
			<path
   style="fill:#fcba7c"
   d="m 374.3,251.7 c 0,10.1 1.2,73.8 -4.3,91.6 -5.4,17.8 -42.8,39.6 -69.9,39.9 -0.7,0 -1.4,0 -2.1,0 v -69.3 c 0,0 -17,-1.5 -9,-14.2 8,-12.7 9.8,-28.7 9.8,-28.7 L 298,204 277.3,184.4 228,195.7 c 0,0 0,0 0,0 16.2,-23.8 51.3,-25.8 73.3,-26.2 22,-0.4 63.7,19.5 68.2,25.5 11.6,15.2 4.8,46.6 4.8,56.7 z"
   id="XMLID_256_" />
			<path
   style="fill:#e3a064"
   d="m 298,313.9 v 69.3 c -0.1,0 -0.3,0 -0.4,0 -0.1,0 -0.2,0 -0.3,0 -29.3,-2.7 -68.2,-15.3 -72.8,-39.9 -5.3,-28.6 -4.4,-94.9 -4.4,-94.9 -2.3,-37.8 5.6,-49.7 7.8,-52.8 l 49.3,-11.3 20.8,19.7 0.7,67.1 c 0,0 -1.8,16 -9.8,28.7 -7.9,12.6 9.1,14.1 9.1,14.1 z"
   id="XMLID_255_" />
			<path
   style="fill:#fcba7c"
   d="m 370.2,280.8 c 0,0 -0.4,-19.1 14.3,-20.2 14.7,-1.1 13.4,15.9 9.1,27.3 -4.3,11.4 -24.1,15.5 -24.1,15.5 z"
   id="XMLID_254_" />
			<path
   style="fill:#e3a064"
   d="m 225.5,275.7 c 0,0 0.4,-19.1 -14.3,-20.2 -14.7,-1.1 -13.4,15.9 -9.1,27.3 4.3,11.4 24.1,15.5 24.1,15.5 z"
   id="XMLID_253_" />
			<path
   id="XMLID_252_"
   d="m 268.10001,279.39999 a 6.9,8.3 0 0 1 -6.9,8.3 6.9,8.3 0 0 1 -6.9,-8.3 6.9,8.3 0 0 1 6.9,-8.3 6.9,8.3 0 0 1 6.9,8.3 z" />
			<path
   style="fill:#ffffff"
   id="XMLID_251_"
   d="m 265.99999,274.70001 a 2.2,2.7 0 0 1 -2.2,2.7 2.2,2.7 0 0 1 -2.2,-2.7 2.2,2.7 0 0 1 2.2,-2.7 2.2,2.7 0 0 1 2.2,2.7 z" />
			<path
   id="XMLID_250_"
   d="m 344.60001,279.39999 a 6.9,8.3 0 0 1 -6.9,8.3 6.9,8.3 0 0 1 -6.9,-8.3 6.9,8.3 0 0 1 6.9,-8.3 6.9,8.3 0 0 1 6.9,8.3 z" />
			<path
   style="fill:#ffffff"
   id="XMLID_249_"
   d="m 342.49999,274.70001 a 2.2,2.7 0 0 1 -2.2,2.7 2.2,2.7 0 0 1 -2.2,-2.7 2.2,2.7 0 0 1 2.2,-2.7 2.2,2.7 0 0 1 2.2,2.7 z" />
			<path
   style="fill:#d58958"
   d="m 298.8,271 c 0,0 0.8,10.9 -5,25.2 -2.8,6.9 -3.5,14.4 -0.9,15.4 2.6,1 8,1.8 8,1.8 0,0 -15,2.7 -14.2,-5.4 1,-9.7 8.2,-16.3 12.1,-37 z"
   id="XMLID_247_" />
			<path
   d="m 274.3,247.7 c -5.9,0.1 -20.1,1.2 -37.7,7.5 -1.6,0.6 -3.4,-0.3 -3.9,-1.9 v 0 c -0.4,-1.3 0.1,-2.8 1.4,-3.5 4.8,-2.8 18.3,-9.5 39.9,-11.1 1.8,-0.1 3.3,1.3 3.3,3 v 2.9 c 0,1.8 -1.3,3.1 -3,3.1 z"
   id="XMLID_246_" />
			<path
   d="m 320.9,247.7 c 5.9,0.1 20.1,1.2 37.7,7.5 1.6,0.6 3.4,-0.3 3.9,-1.9 v 0 c 0.4,-1.3 -0.1,-2.8 -1.4,-3.5 -4.8,-2.8 -18.3,-9.5 -39.9,-11.1 -1.8,-0.1 -3.3,1.3 -3.3,3 v 2.9 c 0.1,1.8 1.4,3.1 3,3.1 z"
   id="XMLID_245_" />
			<path
   d="m 210.1,189.3 c 12.1,-39.7 95.7,-47.5 116.6,-48.1 59.9,-1.8 45.2,40.7 45.2,40.7 0,0 0.8,0.2 2.1,0.6 -1,0.4 -2,0.4 -2.8,-0.4 0.8,0.8 11.7,9.9 15.3,17.1 0,14.7 -12.5,96.8 -12.5,96.8 l -3.7,-68.7 c -0.7,-13.1 -11.9,-23.2 -25,-22.5 -16.6,0.9 -32.8,10 -47.9,9.8 -16.9,-0.2 -31.7,-7.9 -47.3,-9.7 -13.6,-1.6 -25.7,8.9 -26.3,22.6 l -3.1,68.5 c 0,0 -12.1,-85.9 -12.1,-96.8 0,-3.4 0.6,-6.8 1.5,-9.9 z"
   id="XMLID_3_" />
			<path
   style="fill:#f1f2f2"
   d="m 259.1,410.4 c 0,2 -26.1,48.2 -26.1,48.2 l 13.1,13.3 -17.3,16.4 27,113.8 c 1.1,-1.8 2.2,-3.7 3.4,-5.5 z"
   id="XMLID_242_" />
			<path
   style="fill:#ffffff"
   d="m 259.1,596.5 c -1.2,1.8 -2.3,3.7 -3.4,5.5 l 3.4,14.2 z"
   id="XMLID_241_" />
			<path
   style="fill:#ffffff"
   d="m 339.2,410.4 c 0,2 26.1,48.2 26.1,48.2 l -13.1,13.3 17.3,16.4 -30.3,128 z"
   id="XMLID_240_" />
			<g
   id="XMLID_231_">
				<path
   style="fill:#bcbec0"
   d="m 234.1,632.2 -1.2,-6.9 4.4,-0.7 c 13.4,-2.2 24.4,-14.9 27.6,-31.4 4.1,-21.5 7.9,-52.5 2.9,-77.6 l 6.9,-1.4 c 5.2,26.2 1.3,58.1 -2.9,80.3 -3.7,19.7 -16.8,34.3 -33.3,37.1 z"
   id="XMLID_232_" />
			</g>
			<g
   id="XMLID_227_">
				<path
   style="fill:#003050"
   d="m 228,635.2 12.9,-2.2 c 0.9,-0.2 1.5,-1 1.3,-1.9 l -1.3,-7.4 c -0.2,-0.9 -1,-1.5 -1.9,-1.3 l -12.9,2.2 c -0.9,0.2 -1.5,1 -1.3,1.9 l 1.3,7.4 c 0.1,0.8 1,1.4 1.9,1.3 z"
   id="XMLID_228_" />
			</g>
			<path
   style="fill:#003050"
   d="m 276.8,391.1 c -0.2,0.7 -0.4,1.4 -0.7,2 -11,0.3 -13.2,3.5 -13.6,5.3 v 0 l -1.9,8 c -8.2,3.4 -14.9,8.2 -20.2,14.3 -17.3,20 -13.6,47.9 -13.5,48.1 0.4,2.9 -1.6,5.6 -4.5,6 -0.2,0 -0.5,0.1 -0.8,0.1 -2.6,0 -4.8,-1.9 -5.2,-4.5 -0.2,-1.3 -4.4,-33 16,-56.5 10.5,-12.2 25.3,-19.8 44.4,-22.8 z"
   id="XMLID_225_" />
			<path
   style="fill:#003050"
   d="m 377.8,470.3 c -0.4,2.6 -2.6,4.5 -5.2,4.5 -0.2,0 -0.5,0 -0.7,-0.1 -2.9,-0.4 -4.9,-3.1 -4.5,-6 0.1,-0.4 3.6,-28.4 -13.6,-48.2 -4.3,-4.9 -9.5,-8.9 -15.6,-12.1 l -2.4,-9 c -0.7,-2.5 -2.6,-4.3 -5.4,-5.5 12.9,4 23.4,10.5 31.4,19.7 20.4,23.8 16.2,55.4 16,56.7 z"
   id="XMLID_223_" />
			<path
   style="fill:#003050"
   id="XMLID_222_"
   d="m 377.79999,470.29999 -5,51.60003 h -11.19998 l 5.79998,-53.00003 z" />
			<path
   style="fill:#bcbec0"
   id="XMLID_220_"
   d="m 385.29999,527.29999 a 19,19 0 0 1 -19,19 19,19 0 0 1 -19,-19 19,19 0 0 1 19,-19 19,19 0 0 1 19,19 z" />
			<path
   style="fill:#e6e7e8"
   id="XMLID_219_"
   d="m 375.89999,527.29999 a 9.6,9.6 0 0 1 -9.6,9.6 9.6,9.6 0 0 1 -9.6,-9.6 9.6,9.6 0 0 1 9.6,-9.6 9.6,9.6 0 0 1 9.6,9.6 z" />
			<path
   style="fill:#ffffff"
   d="m 234.1,632.2 c 0,0 2.4,0.4 6.5,1.1 16,2.6 58.6,9.2 97.6,13.7 27.7,3.1 53.5,5.2 66.7,3.8 1.3,-0.1 2.5,-0.3 3.6,-0.5 16.8,-3.3 27.4,-7.2 32.2,-17 2.2,-4.4 3.2,-9.9 3,-17.1 -0.5,-21.7 -4.8,-131.6 -34.2,-172.7 1,20.5 -6.5,79.5 -8.3,114.4 0,0.5 0,1.1 -0.1,1.7 0,0.3 0,0.6 0,0.9 0,0 -2,7.7 1.2,45.1 v 0.1 c -16.6,2 -40.1,1.6 -64,0.1 -46.6,-2.9 -94.4,-9.6 -94.4,-9.6 z"
   id="XMLID_210_" />
			<path
   style="fill:#d58958"
   d="m 328.8,330.4 c -19.2,11.2 -39.9,12.4 -62.7,0 21.4,5.9 42.3,5.8 62.7,0 z"
   id="XMLID_198_" />
			<path
   style="fill:#d58958"
   d="m 306.6,349.4 h -17.2 c 0,0 5.4,6.7 17.2,0 z"
   id="XMLID_217_" />
			<path
   style="fill:#efeff0"
   d="m 402.3,605.5 c -1,-20.3 -1.5,-36.1 -1.2,-45.1 0,0 -2,7.7 1.2,45.1 z"
   id="XMLID_317_" />
			<path
   style="fill:#e3a064"
   d="m 338.1,605.2 c 0,0.2 0.1,0.4 0.1,0.6 h 0.1 c 12.7,0.8 25.3,1.3 36.8,1.2 -1,-0.3 -1.9,-0.7 -2.9,-1.1 -5.9,-2.2 -11.7,-4.6 -17.7,-6.6 -0.6,-0.2 -1.2,-0.4 -1.8,-0.6 -0.6,-0.2 -1.2,-0.4 -1.8,-0.6 -2.9,-0.8 -5.8,-1.6 -8.7,-2.1 l -0.4,7.2 c -1.2,0.8 -2.5,1.4 -3.7,2 z"
   id="XMLID_213_" />
			<path
   style="fill:#fcba7c"
   d="m 332.6,588.9 c 1.4,3.1 3.4,8.2 5.5,16.3 1.3,-0.6 2.5,-1.2 3.8,-1.8 3.1,-1.5 6.2,-3 9.3,-4.6 0,0 0,-0.1 0,-0.1 0,-0.1 -0.1,-0.2 -0.1,-0.4 0.6,0.2 1.2,0.4 1.8,0.6 0.6,0.2 1.2,0.4 1.8,0.6 6,2 11.9,4.4 17.7,6.6 1,0.4 1.9,0.7 2.9,1.1 0,0 0,0 0,0 0.1,0 0.2,0.1 0.4,0.1 1.2,0.4 2.3,0.8 3.5,1.2 -0.4,-0.4 -0.8,-0.9 -1.2,-1.3 -6.8,-7.2 -15.3,-14.9 -22.8,-18.6 -7,-3.4 -12.1,-3.6 -12.1,-3.6 -3.8,1.2 -7.2,2.6 -10.5,3.9 z"
   id="XMLID_214_" />
			<path
   style="fill:#ffffff"
   d="m 375.1,607 c 0.1,0 0.2,0.1 0.4,0.1 1.2,0.4 2.3,0.8 3.5,1.2 -0.4,-0.4 -0.8,-0.9 -1.2,-1.3 -0.9,0 -1.8,0 -2.7,0 z"
   id="XMLID_211_" />
			<path
   style="fill:#e6e7e8"
   d="m 240.6,633.3 c 16,2.6 58.6,9.2 97.6,13.7 27.7,3.1 53.5,5.2 66.7,3.8 1.3,-0.1 2.5,-0.3 3.6,-0.5 16.8,-3.3 27.4,-7.2 32.2,-17 -21.8,2.1 -76.9,6.2 -110.3,-1 8.2,-1.7 8.8,-3.5 8.8,-3.5 l -2.6,-14.1 z"
   id="XMLID_208_" />
			<path
   style="fill:#ffffff"
   d="m 148.6,619.9 c 3,17.6 13.5,25.1 42.9,25.5 3,0 6.1,0 9.5,-0.1 3.3,-0.1 7.1,-0.3 11.1,-0.6 40.1,-3.2 109.8,-16.7 129.2,-24.7 -1,-5.5 -2.1,-10.1 -3.1,-14.1 -4.2,-16.3 -7.8,-21 -7.8,-21 0,0 -36.1,8.5 -80.3,13.6 -18.1,2.1 -37.5,3.5 -56.4,3.6 1,-23.1 1.5,-39 1.2,-44.2 C 193.5,535 183.5,469.8 184,448.4 155.1,474.1 145.4,600.5 148.6,619.9 Z"
   id="XMLID_218_" />
			<path
   style="fill:#efeff0"
   d="m 148.6,619.9 c 3,17.6 13.5,25.1 42.9,25.5 3,0 6.1,0 9.5,-0.1 3.3,-0.1 7.1,-0.3 11.1,-0.6 40.1,-3.2 109.8,-16.7 129.2,-24.7 -1,-5.5 -2.1,-10.1 -3.1,-14.1 -4,0.8 -116,22.5 -150.2,18.1 5.7,-21.9 5.7,-21.9 5.7,-21.9 1,-23.1 1.5,-39 1.2,-44.2 C 193.5,535 183.5,469.8 184,448.4 155.1,474.1 145.4,600.5 148.6,619.9 Z"
   id="XMLID_209_" />
			<g
   id="XMLID_233_">
				<path
   style="fill:#003050"
   d="m 271.2,520.1 c -2.5,0 -4.7,-1.7 -5.2,-4.2 -5.5,-27.6 -20.1,-41 -44.5,-41 -24.5,0 -39,13.4 -44.5,41 -0.6,2.9 -3.3,4.7 -6.2,4.1 -2.9,-0.6 -4.7,-3.3 -4.1,-6.2 6.5,-32.3 25.4,-49.4 54.9,-49.4 29.5,0 48.4,17.1 54.9,49.4 0.6,2.9 -1.3,5.6 -4.1,6.2 -0.5,0.1 -0.8,0.1 -1.2,0.1 z"
   id="XMLID_234_" />
			</g>
			<g
   id="XMLID_235_">
				<path
   style="fill:#bcbec0"
   d="m 209,632.2 -4.4,-0.7 c -16.5,-2.8 -29.6,-17.3 -33.3,-37.1 -4.2,-22.2 -8.1,-54.1 -2.9,-80.3 l 6.9,1.4 c -5,25.1 -1.2,56 2.9,77.6 3.1,16.5 14.2,29.2 27.6,31.4 l 4.4,0.7 z"
   id="XMLID_236_" />
			</g>
			<g
   id="XMLID_229_">
				<path
   style="fill:#003050"
   d="M 215.1,635.2 202.2,633 c -0.9,-0.2 -1.5,-1 -1.3,-1.9 l 1.3,-7.4 c 0.2,-0.9 1,-1.5 1.9,-1.3 l 12.9,2.2 c 0.9,0.2 1.5,1 1.3,1.9 l -1.3,7.4 c -0.2,0.8 -1,1.4 -1.9,1.3 z"
   id="XMLID_230_" />
			</g>
			<path
   style="fill:#e3a064"
   d="m 167.8,596.5 23.9,0.3 2.1,3 1.6,2.2 c 6.7,-0.1 13.4,-0.3 20.2,-0.7 -4,-1.4 -7.9,-3.2 -11.5,-5.6 -3.1,-2.3 -6.5,-3.7 -9.9,-4.3 -8.2,-1.4 -17.2,1.1 -26.4,3.2 z"
   id="XMLID_322_" />
			<path
   style="fill:#fcba7c"
   d="m 180.1,572.6 -16.7,5.2 0.2,5.5 15.2,-1.2 11.9,3.4 v 0.9 l -22.8,4.7 v 3.6 c 9.2,-2.1 18.2,-4.6 26.4,-3.2 3.5,0.6 6.8,1.9 9.9,4.3 3.6,2.4 7.5,4.2 11.5,5.6 8.7,-0.5 17.4,-1.2 25.8,-2 -2.8,-1 -5.6,-2 -8.4,-3.2 l -14.8,-26 -5.9,-9.6 -16,-8.1 -1.9,-0.5 -17.1,-4.5 -2,5.1 11.6,6 4.1,4.1 v 0.2 l -10.7,-3 -19.1,-0.6 -1.8,5.2 20,4.7 9.2,3.9 z"
   id="XMLID_320_" />
		</g>
	</g>
   </svg>