<?xml version="1.0" encoding="UTF-8" standalone="no"?>
<svg
   xmlns:dc="http://purl.org/dc/elements/1.1/"
   xmlns:cc="http://creativecommons.org/ns#"
   xmlns:rdf="http://www.w3.org/1999/02/22-rdf-syntax-ns#"
   xmlns:svg="http://www.w3.org/2000/svg"
   xmlns="http://www.w3.org/2000/svg"
   xmlns:sodipodi="http://sodipodi.sourceforge.net/DTD/sodipodi-0.dtd"
   xmlns:inkscape="http://www.inkscape.org/namespaces/inkscape"
   height="980"
   width="1400"
   xml:space="preserve"
   enable-background="new 0 0 40 40"
   viewBox="0 0 1400 980"
   y="0px"
   x="0px"
   id="Layer_1"
   version="1.1"
   sodipodi:docname="doctor_ojos.svg"
   inkscape:version="0.92.3 (2405546, 2018-03-11)"><metadata
   id="metadata256"><rdf:RDF><cc:Work
       rdf:about=""><dc:format>image/svg+xml</dc:format><dc:type
         rdf:resource="http://purl.org/dc/dcmitype/StillImage" /><dc:title></dc:title></cc:Work></rdf:RDF></metadata><defs
   id="defs254">

<g id="master-artboard" viewBox="0 0 1098 780" version="1.1" xmlns="http://www.w3.org/2000/svg" x="0px" y="0px" style="enable-background:new 0 0 1098 780;">

<path class="st0" d="M477.6,421.3c0,0-25.3-29.8-6.7-86.8c0,0,6.3-35.4,7-65.7c0,0,25.4-116.6,139.7-70c0,0,110.2,64.4,44.5,195.2
	c0,0-22.2,51.8-70.5,88.3c0,0-67.8,80.8-98.6,31.5c0,0-3.1-8,0.3-27.7c0,0,6.2-31.8-8.9-53.1L477.6,421.3z" style="fill: rgb(240, 208, 180);"></path>
<path class="st1" d="M643.7,342.9c-2.1-20.6-4.2-39.6-11.3-58.8c-5.7-15.6-10.7-33.4-22.9-44.9c-13.6-12.7-32.9-15.4-51.1-13.6
	c-20.1,2-30,10.1-38.7,29.2c-5.4,11.9-9.3,22-8.5,35.4c0.6,10.2,7.7,19.7,11.4,28.8c4.3,10.3,9.2,22.8,18.1,30
	c7.5,6,17,8.7,24.4,14.7c5.9,4.7,9.5,14.8,16.4,17.1c1-5.9-4.5-15,2.3-18.9c9.9-5.7,12.1,11.3,18.8,14.8
	c10.3-9.9-11.3-39.2-15.7-49.1c-3.9-8.9-0.1-17.7-4.1-26.8c-3.6-8-11.5-15.3-16.5-22.6c-9.1-13.6-20.9-43.4,8.3-33.8
	c17,5.5,25.2,29.6,31.3,44.9c6.5,16.4,9.9,33.7,13,50.6c3.2,18,9.8,40.5,2.1,58.1c-3.4,7.7-7.9,15.4-14.3,21.1
	c-5.7,5.1-12.1,12.8-18.6,17.4c-14.7,10.6-31.9-2.6-45.2,9.2c-4,3.5-16.9,12.8-14.2,18.3c3.4,7,25.1,0.5,30.7-1.1
	c15.5-4.3,33.5-14,46-24.9c11.3-9.8,20.9-23.4,28.7-35.9C645.9,383.2,645.9,364.4,643.7,342.9z M558.5,295.6
	c3.7,6.1,22.7,17.2,17.8,24.6c-4.3,6.6-29.6-12.2-33-16.8c-4.3-5.8-12.7-22.5-6.4-29.1C547.9,262.8,554.9,289.6,558.5,295.6z" style="fill: rgb(207, 158, 118);"></path>
<path class="st1" d="M498.6,315.2c7.7,9.4,8.9,18.8,15.2,28.7c-6.8-9.1-17.2-14.5-24.7-22.5c-16.2-17.1-16.2-49.7-8.4-70.6
	c4.2-11.2,18.5-45.2,33.4-44.5c1.1,8.8-8,13.8-12.3,19.9c-5.7,8.1-9.1,18.6-11.6,28.1C484.8,274.4,484.7,298.1,498.6,315.2z" style="fill: rgb(207, 158, 118);"></path>
<path class="st1" d="M499.1,495.7c-0.7,8.6-1.8,15.1,5.9,19.5c7.4,4.3,17.7,0.9,24.5-3.3c13.8-8.6,28.5-20.3,40.2-31.6
	c13.3-12.8,29.2-19.9,43.2-31.8c26.3-22.4,40-57.3,46.2-89.3c5.5-28.5,10.7-59.7,1.1-87.9c-9.7-28.3-38.9-54.1-64.8-67.5
	c-7.5-3.9-15.8-5.7-23.6-7.9c-5.9-1.7-15.1-2-20.1-4.4c28.7-15.8,73.6,14.4,95.1,30.3c15.9,11.8,22.2,23,26.7,40.9
	c8.5,33.5,10.9,65.4,4.1,99.7c-3,15.1-11.8,33-20.3,46.2c-8.4,13-16.6,28.7-27.7,39.2c-11.6,10.9-23.1,20.4-33.3,32.6
	c-9.9,11.8-19.1,23.8-32.6,31.6c-21.4,12.4-49.3,35.2-69.7,9.5c-17.7-22.4,7.5-40.3,1.2-63c-0.5-1.8-7.9-21.2-8.6-21.1
	C511.4,436.3,500.1,484,499.1,495.7z" style="fill: rgb(207, 158, 118);"></path>
<path class="st1" d="M526.6,368.3c10,8.4,23,16,32.1,25.4c3.9,4,12.6,14.7,10,20.8c-2.7,6.6-15.5,6.3-20.8,7.9
	c-12.9,4-28.6,26.2-39.1,5.6c-6.4-12.5,4.1-15.6,8.5-24.9c5.7-12.2-14.1-18.4-14.4-28.8C502.6,360.4,519.1,362,526.6,368.3z" style="fill: rgb(207, 158, 118);"></path>
<g>
	<path class="st2" d="M322.3,243.7c-15.7-29-45.6-50-77.1-58.2c-14.9-3.9-30.8-4.8-45.7-0.7c-15.8,4.4-30.2,13.5-42.3,24.5
		c-11.7,10.7-22.1,24.2-26.9,39.5c-1.2,3.8-1.1,7.9-1.8,11.7c-0.8,4.1-1.3,8.3-1.8,12.5c-0.8,7.9-0.8,15.9,1,23.6
		c0.1,0.5,0.5,0.8,1,0.9c-0.1-2.4-0.1-4.8,0-7.2c0.3-6.2,1.2-12.5,2.8-18.5c0.1-0.5,0.1-1,0.2-1.5c1.2-8.5,3.8-16.3,7.3-24
		c7.2-15.7,18.7-28.9,32.6-39.1c13.2-9.8,29.2-17.1,45.8-17.5c16.3-0.3,32.7,3.9,47.4,10.8c7.2,3.4,14.1,7.5,20.5,12.3
		c1.7,2.4,3.2,4.9,4.5,7.6c2.2,4.6,2.8,9.8,3.1,14.8c0,0.5,0.8,0.5,0.8,0c0.2-7.3-1.4-14-5-19.8c3,2.4,5.8,4.9,8.5,7.5
		c0.8,2.3,1.5,4.7,2,7.1c1.3,5.8,1.2,11.7,1.5,17.5c0,0.5,0.8,0.6,0.9,0.1c1.4-6.7,1-14.4-1-21.4c1.3,1.4,2.6,2.8,3.9,4.2
		c2,2.3,3.9,4.7,5.6,7.2c-0.1,0.1-0.2,0.2-0.1,0.4c2.9,8.2,2.7,16.7,1,25.1c-0.1,0.6,0.8,0.9,1,0.3c2-7.5,3.3-15,0.6-22.2
		c3.5,5.5,6.5,11.4,9,17.5c0,0.3,0.1,0.6,0.1,0.9c0.2,4.4,0,8.8-0.6,13.2c0,0.4,0.6,0.5,0.7,0.1c0.7-3.1,1.3-6.4,1.6-9.7
		c0.5,1.3,1,2.6,1.4,3.9c0.4,6,0.2,12.1-1.5,17.9c-0.1,0.3,0.3,0.4,0.4,0.1c1.5-4.5,2.4-8.9,2.5-13.4c0.5,1.7,1,3.4,1.5,5.2
		c0.7,8.4-0.7,16-5.9,23c-0.3,0.4,0.3,0.8,0.6,0.5c3.2-3.7,6.4-9.3,7.4-14.8c0.5,2.7,1,5.5,1.4,8.2c-1.3,6.2-4.1,12.7-9.1,16.5
		c-0.1,0.1,0,0.3,0.1,0.2c4.2-3,7.8-8,9.4-13.2c0.3,2.9,0.6,5.8,0.7,8.7c-1.7,4.9-3.9,9.5-9,12.2c-0.5,0.3-0.1,1.1,0.5,0.8
		c3.4-1.6,6.6-4.9,8.7-8.7c0,2.3,0,4.6,0,6.9c-2.2,4.5-4,9.4-9.6,10.2c-0.6,0.1-0.6,1,0,1c4.3-0.2,7.5-2.9,9.4-6.5
		c-0.1,1.8-0.2,3.6-0.4,5.4c-1.8,4.3-4.5,8.3-9.4,7.9c-0.3,0-0.3,0.4-0.1,0.5c3.4,0.5,6.7-1.5,9-4.3c-0.1,1.1-0.3,2.3-0.5,3.4
		c-2.8,5.1-6.5,9.8-12.9,9.6c-0.5,0-0.5,0.7,0,0.7c5.2,0.3,9.5-2.5,12.4-6.6c-0.3,1.7-0.6,3.4-0.9,5c-2.6,4.2-5.8,7.9-11.4,8.3
		c-0.6,0-0.6,0.9,0,0.9c4,0,7.7-1.8,10.4-4.5c-0.4,1.7-0.8,3.4-1.2,5c-2.3,3.4-6,6.3-10.1,5.6c-0.5-0.1-0.7,0.6-0.2,0.7
		c3.5,0.9,7-0.5,9.4-3c-0.4,1.5-0.9,3-1.4,4.6c-3,1.9-6.8,2.6-10.7,2.9c-0.4,0-0.4,0.6,0,0.6c3.5,0.2,7.1-0.1,10-1.3
		c-0.3,0.9-0.6,1.9-0.9,2.8c-2.5,2-5.4,3.3-9,3.5c-0.7,0-0.7,1,0,1c2.4,0,5.4-0.5,8-1.7c-0.5,1.3-1,2.7-1.5,4
		c-3,3.2-6.6,5.7-10.5,4.4c-0.3-0.1-0.6,0.4-0.2,0.6c3.1,1.8,6.4,0.8,9.3-1.3c-0.5,1.1-0.9,2.2-1.4,3.3c-2.5,2.3-5.3,3.6-8.7,4.2
		c0,0,0,0,0,0c2.5,0.5,5.1-0.2,7.5-1.6c-0.1,0.2-0.2,0.4-0.3,0.6c-2.7,3.8-6.7,8.4-11.7,8.2c-0.4,0-0.3,0.5,0,0.5
		c3.9,0.5,7.2-1.7,9.6-4.5c-0.9,1.7-1.7,3.4-2.6,5.1c-3.1,2.3-6.7,3.7-10.8,4.4c-0.3,0-0.2,0.5,0.1,0.5c3.5-0.3,6.9-1.2,9.7-2.9
		c-1.1,2-2.2,4.1-3.4,6.1c-0.4,0.3-0.8,0.6-1.3,0.9c-2.4,1.4-5.3,2.1-8.1,1.9c-0.7,0-0.7,1,0,1.1c2.2,0.3,5.1-0.1,7.7-1.1
		c-0.7,1.1-1.4,2.2-2,3.3c-3.8,2.4-7.9,4-12.5,4.4c-0.4,0-0.4,0.6,0,0.6c3.6,0.2,7.7-0.7,11-2.6c-1.1,1.8-2.3,3.5-3.5,5.3
		c-3.5,1.6-7.4,2.4-11.3,2.7c-0.2,0-0.2,0.3,0,0.3c3.1,0.1,6.7,0,9.9-1c-1.2,1.7-2.4,3.5-3.7,5.2c-2.5,1.4-5.5,1.6-8.2,1
		c-0.2-0.1-0.3,0.3-0.1,0.3c2.3,0.8,4.8,0.8,7.2,0.2c-0.7,0.9-1.4,1.9-2.1,2.8c-3.9,1-7.7,1.4-11.7,1.4c-0.3,0.3-0.5,0.6-0.8,0.9
		c0.1,0,0.1,0.1,0.2,0.1c3.7,0,7.6,0.1,11.1-0.9c-1.1,1.5-2.3,3-3.5,4.4c-3.4,0.8-6.9,0.8-10.4,0.8c-0.5,0-0.5,0.7,0,0.7
		c3.3,0.1,6.6,0.3,9.7-0.6c-1.5,1.9-3,3.8-4.6,5.6c-2.7,0.7-5.4,0.7-8.5,0.4c0,0,0,0,0,0c1.9,1.2,4.6,1.6,7.1,1.2
		c-1.6,1.9-3.2,3.7-4.8,5.6c-2.5,0.1-5.1-0.6-7.2-1.9c-0.2-0.1-0.5,0.2-0.3,0.4c1.6,1.4,3.9,2.5,6.3,2.8c-1.1,1.2-2.2,2.5-3.3,3.7
		c-3.4,0.1-6.8-0.5-9.3-2.5c-0.5-0.4-1.2,0.3-0.7,0.7c2.4,2,5.6,2.9,8.9,3c-1.1,1.2-2.2,2.3-3.3,3.5c-3-0.2-5.9-0.9-9-1.6
		c-0.3-0.1-0.4,0.4-0.1,0.5c2.5,1,5.3,1.9,8.1,2.3c-1,1-2,2.1-3,3.1c-2.6-0.2-5.2-0.7-8-1.5c-0.4-0.1-0.6,0.4-0.3,0.6
		c1.7,1,4.1,2,6.6,2.5c-0.5,0.6-1.1,1.1-1.6,1.7c-0.6-0.1-1.2-0.2-1.8-0.4c-2.2-0.6-4.2-1.7-6.4-2.2c-0.3-0.1-0.5,0.4-0.2,0.6
		c1.8,1.2,4.4,2.6,7,3.5c-0.9,0.9-1.7,1.7-2.6,2.5c-0.3,0.3-0.6,0.6-0.9,0.8c-2.6-0.4-5-0.9-7.3-1.9c-1.2,0-2.4-0.2-3.6-0.5
		c2.6,1.9,5.8,3.6,9.1,4.2c-0.9,0.8-1.7,1.7-2.6,2.5c-3.4-0.6-6.6-1.7-9.7-3.4c-0.3-0.2-0.6,0.3-0.3,0.5c2.7,1.9,5.7,3.4,9,4
		c-1.5,1.5-3.1,3-4.6,4.4c-3.4-0.3-6.6-1.7-9.3-4.2c-0.5-0.5-1.2,0.3-0.7,0.8c2.4,2.3,5.5,4.1,8.8,4.7c-1.2,1.2-2.4,2.3-3.6,3.5
		c-3-0.2-5.9-0.6-8.7-2c-0.5-0.3-1,0.5-0.5,0.8c2.7,1.4,5.5,1.9,8.3,2.1c-0.7,0.6-1.3,1.2-2,1.9c-0.7,0.1-1.3,0.1-2.1,0.1
		c-3.7-0.1-7.4-1.6-10.6-3.5c-0.6-0.3-1.1,0.5-0.5,0.9c3.1,2.1,7.2,3.8,11.4,4.2c-1.8,1.7-3.6,3.4-5.4,5.1c0.1-0.2,0.1-0.5-0.2-0.5
		c-4.8-0.7-9.3-0.9-13.5-3.6c-0.6-0.4-1.1,0.6-0.6,0.9c4.1,2.6,9.1,3.9,14,3.3c0,0,0.1,0,0.1,0c-1,0.9-2,1.8-2.9,2.8
		c-0.5,0.5-1,0.9-1.5,1.4c-6-0.8-11.1-2.7-16.1-6.1c-0.4-0.3-0.8,0.4-0.4,0.6c4.6,3.3,9.9,6.3,15.6,6.2c-1.8,1.7-3.7,3.4-5.6,5
		c-2.9-0.7-5.9-1-8.7-1.9c-4-1.2-7.6-3.4-10.3-6.6c-0.4-0.5-1.2,0.2-0.7,0.8c4.1,5,11.7,8.6,18.5,8.9c-5.1,4.4-10.4,8.5-16,12.2
		c-9.6,1.7-18.7-6.7-21.6-15.4c-0.2-0.6-1-0.3-0.9,0.2c1.2,5.2,4.8,10.2,9.1,13.4c2.7,2.1,6.3,4,9.8,4c-1.6,1-3.2,1.9-4.9,2.8
		c-1.5,0.8-3.2,1.6-4.8,2.3c-8.8-3.6-16.1-12.1-18-21.3c-0.1-0.4-0.7-0.3-0.7,0.1c0.8,6.3,4.6,11.7,8.8,16.2c1.9,2,4.5,4.3,7.4,5.9
		c-2.8,1-5.7,1.8-8.7,2.2c-7.9-6.1-12.4-18.1-12.3-27.1c0-0.5-0.7-0.4-0.7,0c-0.6,8.7,2.8,20.8,9.9,27.4c-1.8,0-3.5-0.1-5.3-0.4
		c-0.5-0.1-0.9-0.2-1.4-0.3c-6.9-6.3-11.2-17.6-9.3-25.9c0.1-0.5-0.6-0.7-0.8-0.2c-1.8,6.2,0,13,2.6,18.7c0.9,2,2.1,4.2,3.6,6.1
		c-3.1-1.3-5.9-3.2-8.1-5.6c-4.3-8-6.7-17.2-3.7-25.2c0.1-0.2-0.3-0.3-0.4-0.1c-2.5,6.2-1.9,12.9-0.1,19.2c-1-2.1-1.7-4.4-2-6.9
		c-1.5-11.9,2.4-23.8,2.7-35.7c0.3-10.3-2.8-19.7-6.7-28.9c-1-1.1-2.1-2.3-3.2-3.3c3,7.4,5.5,14.9,5.6,23c0.2,8.8-1.8,17.4-3.5,25.9
		c-1.6,7.8-2.9,15.7-1.4,23.6c1.4,7.7,6.3,13.8,12.6,18.3c23.3,16.5,52.8-6.7,69.8-21.8c9.3-8.3,17.8-17.4,26.9-25.8
		c13.4-12.3,26.1-25.5,37.5-39.7c22.1-27.3,40.4-58.3,48.1-92.8C343.3,313.3,339.3,275,322.3,243.7z" style="fill: rgb(2, 2, 2);"></path>
	<path class="st2" d="M300.5,313c-2.2-17.5-5.3-35.2-12.6-51.4c-5.8-12.9-14.7-24.2-26.2-32.5c-11.3-8.1-25.1-12-38.9-12.2
		c-28.4-0.4-60.3,14.8-68.2,44.1c-1.1,4-1.5,8.1-1.5,12.1c0,3.8,0.4,7.6,1.1,11.2c1.6,8.2,5,16.2,9.2,23.4c2.1,3.6,4.5,7,7.1,10.1
		c0,0,0,0,0.1,0.1c2.6,3.8,5.3,7.5,7.8,11.4c5.6,8.8,9.3,18.4,13.9,27.7c3.3,6.7,6.8,17.2,14.4,20.3c-1-0.8-1.9-1.6-2.8-2.6
		c-2.7-3.1-4.9-6.7-6.5-10.5c-1.9-4.5-3.4-9.1-4.4-13.8c-0.2-0.9-0.4-1.8-0.6-2.7c4.2-5.6,6.7-12.8,7.1-19.8c0.5,0.4,1,0.8,1.5,1.2
		c0.3,3.5-0.4,7-0.7,10.6c0,0.1,0.1,0.1,0.1,0c1.1-3.1,1.9-6.1,2.2-9.3c1,0.9,2.1,1.8,3.1,2.8c0,1.4-0.1,2.8-0.7,4.5
		c-1,2.7-2.6,5.3-4,7.8c-0.1,0.1,0.1,0.3,0.2,0.2c2-2.4,5.2-6.7,6.2-10.8c0.4,0.4,0.8,0.8,1.3,1.3c-0.1,0.9-0.4,1.8-0.6,2.7
		c-0.8,2.9-2,5.7-3.9,8.1c0,0,0,0.1,0.1,0c2.5-2.7,4.5-5.9,5.6-9.4c0-0.1,0-0.2,0.1-0.2c0.7,0.8,1.5,1.6,2.2,2.4
		c-0.1,0.6-0.2,1.2-0.4,1.9c-1,3.5-3.3,7-6.4,8.8c0,0,0,0.1,0,0.1c2.9-1.7,6.3-5.5,7.9-9.5c0.7,0.8,1.4,1.6,2.1,2.5
		c0,0.1-0.1,0.3-0.1,0.4c-1,3.5-3.4,6.4-6.6,8c-0.3,0.2,0,0.6,0.3,0.4c3.3-1.5,5.6-4,7.1-7.3c0.1-0.2,0.2-0.4,0.3-0.6
		c0.7,0.9,1.5,1.8,2.2,2.7c-0.2,0.5-0.3,0.9-0.6,1.4c-1.2,2.4-3,4.5-5,6.2c-0.1,0.1,0,0.3,0.2,0.2c1.9-1.2,4.1-3.5,5.7-6.1
		c0,0,0,0,0,0c0.1,0.7,0.8,0.6,1.2,0.3c0.2,0.3,0.4,0.6,0.6,0.9c-0.2,1.2-0.6,2.4-1.3,3.6c-1.3,2.2-3.4,4.1-5.7,5.1
		c-0.3,0.1-0.1,0.5,0.2,0.5c3.3-0.7,7-3.6,8.3-7c0.2,0.4,0.5,0.7,0.7,1.1c-0.8,3-2,5.7-4.9,7.6c-0.5,0.3,0,1.1,0.5,0.8
		c2.2-1.3,4.4-3.9,5.6-6.7c0.4,0.6,0.8,1.3,1.1,1.9c-0.8,2.1-2.1,4-3.9,5.8c-0.5,0.4,0.2,1.1,0.7,0.7c1.6-1.4,3-3.1,4-5
		c0.4,0.7,0.8,1.4,1.2,2.2c-0.8,1.4-1.7,2.7-2.8,3.9c-0.4,0.4,0.2,1,0.6,0.6c1-1,1.9-2.2,2.7-3.5c0.3,0.6,0.6,1.2,0.9,1.8
		c-1,1.9-1.9,3.8-2.8,5.7c-0.1,0.3,0.3,0.6,0.4,0.3c0.9-1.7,1.9-3.4,2.8-5.1c1,2.1,2,4.2,2.9,6.3c-0.5,1-1.1,1.9-1.8,2.8
		c-0.3,0.4,0.3,1.1,0.6,0.6c0.6-0.8,1.2-1.6,1.6-2.4c1.9,4.5,3.6,9.1,4.9,13.8c1.6,5.6,2.5,11.7,1,17.4c-1.6,6.1-6.7,9.3-12.5,10.8
		c-2.6,0.7-5.7,0.5-8.7,0.2c0,0,0,0,0,0c-3.2-4.1-6.8-8.1-10.3-11.9c-3.9-4.3-8.7-7.5-13.1-11.2c-0.2-0.2-0.6,0.1-0.4,0.4
		c4.4,4.1,9.2,7.8,12.9,12.6c2.6,3.3,4.9,7.4,8.5,9.8c-1.2-0.2-2.4-0.3-3.6-0.4c-1.3-0.1-2.6-0.1-3.9,0c-2-2.3-4-4.6-6-7
		c-0.1-0.1-0.3,0-0.2,0.2c1.6,2.3,3.2,4.6,4.9,6.9c-2.1,0.2-4.2,0.6-6.3,1.2c-3.1-4.1-6.4-8.1-9.7-11.9c-3-3.4-6.8-6.4-10.7-8.9
		c-0.1-0.2-0.2-0.3-0.2-0.5c-2.4-4.1-6.3-7.2-9.7-10.5c-2.6-2.5-5.7-5.5-6.7-9.1c3.2,2.6,6.6,4.7,10,7c9.4,6.4,17.4,14.8,26.1,22
		c0.1,0.1,0.3-0.1,0.2-0.2c-7.4-7.4-14.9-15-22.9-21.9c-2.9-2.5-6.1-4.7-9.1-7.1c-1.6-1.3-3-2.6-4.3-4c0,0,0,0,0-0.1
		c0.1-0.4,0.2-0.7,0.3-0.9c0.1,0,0.2,0,0.3-0.1c0.2,0,0.2,0.1,0.7,0.2c4.3,1,8.3,4.3,11.8,6.8c4.6,3.2,8.9,6.8,13.2,10.5
		c2.4,2.1,5,4.9,8,6.1c0.1,0.1,0.2,0,0.3-0.1c-0.1-0.1-0.1-0.1-0.2-0.2c-0.3-0.3-0.7-0.7-1-1c-2.9-1.7-5.3-4.8-7.5-7.1
		c-3.9-4.1-7.3-8.5-11.1-12.7c-4.7-5.2-15.6-16.1-21.8-6.8c-3,4.4-1.9,10.7,0,15.2c1.8,4.2,5.4,7.7,8.6,10.9c1.3,2,2.5,4.1,3.2,6.4
		c1.6,5.1-4.6,7.2-7.8,9.7c-8.1,6.5-7.2,21.3,0.8,27.3c4.2,4.4,10.3,6.2,16.7,4.8c7.8-1.7,13.3-8.1,19.7-12.3c1-0.6,1.9-1.1,2.9-1.6
		c0.2,0,0.4,0,0.5-0.2c4.1-1.6,8.4-1.7,12.8-1.4c0,0,0,0,0.1,0.1c0.6,0,1.1,0,1.7,0.1c0,0,0,0,0,0c3.2,0.2,6.5,0.5,9.7,0.3
		c7.7-0.4,14.9-4.5,19.4-10.6c3.7-5,4.5-11.9,3.9-17.9c-0.6-6.5-2.5-12.7-5-18.7c-3.3-7.8-6.8-15.4-11.4-22.5
		c-1.2-1.8-2.5-3.6-3.8-5.3c0.1-1.8,0.1-3.6,0.1-5.3c0-4.7-0.2-9.3-0.3-14c-0.2-8.2-0.4-19.7,6.8-25.3c0.2-0.1,0-0.5-0.2-0.3
		c-6.9,4.4-7.8,14-8.4,21.4c-0.6,6.7-0.6,13.6-0.5,20.4c-0.5-0.6-1.1-1.3-1.6-1.9c1-6.6-1.9-14.5-2.1-20.6c0-0.4-0.6-0.4-0.7,0
		c-0.3,4.1,0.2,8.1,0.6,12.2c0.2,2.1,0.2,4,0,6c-0.4-0.4-0.8-0.9-1.2-1.3c-0.3-1.3-0.6-2.6-0.9-3.7c-1.5-5.6-3.2-11.1-2.6-16.9
		c0-0.3-0.5-0.4-0.5-0.1c-0.9,4.7-0.3,9.4,0.6,14c0.2,1.3,0.5,2.5,0.7,3.8c-0.1-0.1-0.1-0.1-0.2-0.2c-0.1-0.4-0.3-0.7-0.5-1.1
		c-0.1-0.2-0.5-0.3-0.7-0.1c-0.4-0.4-0.9-0.9-1.3-1.3c-2.2-7-4.4-14.4-0.9-21.2c0.2-0.3-0.3-0.5-0.4-0.3c-3.1,5-3.6,11.9-2.2,18.2
		c-0.8-0.7-1.6-1.4-2.3-2.1c-1.5-4.7-2.5-9.5-1.1-14.5c0.1-0.4-0.5-0.6-0.7-0.2c-1.4,4.1-1.7,8.5-0.5,12.7c-1.2-1.1-2.5-2.2-3.7-3.3
		c-1.5-3.7-2-7.3-0.7-11.6c0.1-0.3-0.4-0.5-0.5-0.2c-1.2,2.9-1.9,6.3-1.5,9.5c-0.4-0.4-0.9-0.8-1.3-1.2c-0.5-0.4-1-0.8-1.5-1.2
		c-0.5-1.6-1-3.2-1.1-5c-0.1-3.8,1.2-7.5,4.6-9.4c0.1-0.1,0-0.3-0.1-0.3c-3.7,1-5.7,4.4-6.1,8.1c-0.1,1.2-0.2,2.8,0,4.3
		c-0.8-0.6-1.6-1.3-2.4-1.9c-0.7-4.3,0.4-8.8,3.9-11.6c0.1-0.1,0-0.4-0.2-0.3c-3.6,2.3-4.9,6.6-5.1,10.7c-0.9-0.7-1.8-1.4-2.7-2.1
		c0.3-5.1,2.6-10.1,6.3-13.5c0.2-0.2-0.1-0.6-0.3-0.4c-3.7,2.6-7,7.6-7.8,12.5c-0.4-0.3-0.8-0.6-1.3-1c-0.7-6,1.3-12.4,6.9-15.6
		c0.2-0.1,0-0.4-0.2-0.3c-3.9,1.7-6.6,5.2-8.2,9.1c-0.6,1.4-1,3.1-1,4.9c-0.4-0.3-0.8-0.6-1.1-0.9c0-4.7,1.7-9.1,5.1-13.1
		c0.2-0.2-0.1-0.5-0.3-0.3c-3.2,3.3-6.1,7.5-6.6,11.9c-0.9-0.8-1.8-1.5-2.6-2.3c0.6-5,3.1-9.4,7.5-12.5c0.3-0.2,0-0.8-0.3-0.6
		c-4.1,2.8-7.5,6.8-8.6,11.4c-0.3-0.3-0.5-0.7-0.8-1c0.2-2,0.8-4,1.8-6c2.1-4.1,5.9-7.5,9.5-10.2c0.1,0,0-0.2-0.1-0.1
		c-5.7,3-11.4,8.2-12.8,14.4c-0.4-0.5-0.8-1-1.2-1.5c-0.7-1-1.3-2-1.9-3.1c0.4-0.6,0.8-1.2,1.3-1.8c3-3.4,6.9-6,10.5-8.7
		c3.4-2.6,6.5-5.3,8.5-9.2c3.2-6.1,3.6-13.2,8.1-18.6c0.3-0.3-0.2-0.8-0.5-0.5c-4.6,4.9-5.7,11.5-9,17.1c-2.9,4.9-8.1,7.4-12.7,10.6
		c-2.2,1.5-4.7,3.5-6.9,5.7c0.1-1.4,0.4-2.8,1.1-4.2c1.9-3.8,5.6-6.5,8.8-9.2c3.6-3.1,6.7-6.4,9.4-10.3c4-5.7,7.1-12.1,12-17.1
		c0.2-0.2-0.1-0.4-0.2-0.2c-5.4,5.2-9.4,11.2-14.2,17c-3.4,4.1-7.8,6.9-11.9,10.2c-1.8,1.5-3.6,3-5.1,4.8c0.4-0.9,0.8-1.9,1.4-2.8
		c3.2-5.3,8.4-9.4,13-13.5c3.2-2.8,5.2-6.4,7.5-10c2.3-3.6,6.2-10.8,11.5-9.7c0.3,0.1,0.5-0.4,0.1-0.5c-4.4-1.3-7.6,2.2-10.2,5.4
		c-3.7,4.7-6.1,9.9-11.2,13.3c-5.1,3.4-11.3,8.9-14.7,15c1.2-6.4,7-10.4,11-15c0.1-0.1,0.2-0.2,0.3-0.4c1.7-1.4,3.4-2.8,4.8-4.6
		c4.9-6.3,7.1-21.7,17.9-20.5c0.2,0,0.2-0.4,0-0.4c-10.4-1.1-13.6,11.3-18,18.2c-0.2,0.4-0.5,0.7-0.8,1.1c1.3-2.9,1.9-6.1,2.1-9.6
		c0.1-1.5,0.1-3.1,0.3-4.7c1.1-1.9,2.4-3.8,4-5.5c3.4-1.8,7-3.3,10.7-4.5c13.8-4.5,29.1-5,43-0.4c0.7,0.2,1.4,0.5,2.1,0.8
		c-4.7,1.2-9.1,3.9-12.7,7.1c-0.2,0.2,0.1,0.6,0.3,0.4c3.4-2.3,7.1-4,11-5.2c1.5-0.5,3-0.8,4.5-1c1.7,0.8,3.4,1.7,5,2.6
		c-1.5,0.2-2.9,0.4-4.3,0.6c-4.2,0.6-8.1,2.2-11,5.5c-0.1,0.2,0.1,0.4,0.2,0.2c3.1-3.3,7.4-4.4,11.8-4.8c1.8-0.2,3.7,0,5.5,0
		c1.9,1.2,3.7,2.6,5.5,4c-0.6,0-1.1,0-1.6,0c-6.2,0.1-12.2,2.1-17.5,5.1c-0.1,0,0,0.1,0,0.1c4.6-2.1,10-3.2,15-3.6
		c2-0.2,4-0.1,6,0.1c2.8,2.5,5.4,5.3,7.8,8.2c-1.6-0.4-3.3-0.7-4.9-0.9c-5.7-0.8-16.5-1.5-20.2,4.2c-0.2,0.4,0.3,0.8,0.6,0.5
		c3.8-4.7,13.2-3.6,18.4-2.8c2.9,0.4,5.9,1.1,8.6,2.4c0,0.1,0.1,0.1,0.1,0.2c1,1.4,2,2.9,2.9,4.4c-1.4-0.5-2.9-1-4.2-1.3
		c-6.5-1.6-14.1-1.9-20.6,0c-0.4,0.1-0.2,0.7,0.2,0.6c5.7-1.4,12.1-1,17.9,0.1c2.7,0.5,5.4,1.2,7.8,2.4c1.4,2.5,2.7,5.1,3.8,7.7
		c-2.2-1.5-4.6-2.7-7.1-3.6c-6.6-2.5-14.3-3.2-21.2-1.8c-0.6,0.1-0.3,0.9,0.2,0.8c6.3-1,13-0.1,19,1.8c3.2,1,6.2,2.5,8.8,4.7
		c0.7,0.6,1.3,1.2,1.9,1.8c0.3,0.8,0.6,1.6,0.9,2.4c-2-1.3-4.2-2.3-5.6-2.9c-5.3-2.2-11.5-3-17.2-2.3c-0.6,0.1-0.7,1.1,0,1
		c5.1-0.5,10.3,0.4,15.1,2.1c2.8,1,5.4,2.5,7.6,4.4c0.6,0.5,1,1.1,1.4,1.6c0.5,1.6,1,3.3,1.5,4.9c-1.3-0.6-2.4-1.1-3-1.4
		c-4.4-1.8-9-3.2-13.7-4.3c-2.8-0.6-5.9-1.3-8.7-0.7c-0.3,0.1-0.2,0.6,0.1,0.6c2.6-0.3,5.3,0.6,7.7,1.2c3.7,0.9,7.3,2.1,10.8,3.5
		c2.3,0.9,5,2,7.4,3.5c0.7,2.8,1.4,5.7,2,8.6c-1.3-1.1-2.7-2.1-4-3.1c-5.2-3.7-12.3-8.4-19-8.3c-0.2,0-0.2,0.3,0,0.3
		c6.2,0.5,12.5,5.2,17.2,8.9c2.5,1.9,4.8,4.2,6.7,6.7c0.3,1.5,0.6,3,0.8,4.5c-1.7-2-3.4-3.7-5-5.2c-5.3-5-12.7-9.5-20.2-8.5
		c-0.3,0-0.2,0.5,0.1,0.5c7.6,0.2,14.3,5,19.4,10.1c2.6,2.6,4.8,5.6,6.6,8.8c0,0.1,0,0.2,0,0.3c-1.5-1.7-3.1-3.3-4.2-4.3
		c-4.7-4.2-10.5-7.2-16.6-8.7c-0.6-0.2-0.8,0.7-0.3,0.9c5.4,1.8,10.5,4.7,14.8,8.4c2.3,2,4.3,4.4,5.9,7c0.4,0.6,0.6,1.2,0.9,1.9
		c-1-0.9-2-1.6-2.9-2.3c-3.9-3-10-7.1-15.2-6.5c-0.2,0-0.3,0.4-0.1,0.4c4.7,0.9,9,3.7,12.7,6.7c2.4,1.9,4.7,4,6.4,6.6
		c0.3,2.3,0.5,4.6,0.8,6.8c-1.5-2.2-3.3-4.2-5.3-6c-4.4-4.2-9.9-7.3-15.8-8.6c-0.2,0-0.3,0.2-0.1,0.3c5.7,1.7,10.7,5.1,15,9.3
		c2.2,2.2,3.9,4.6,5.3,7.3c0.6,1.2,0.9,2.7,1.5,4c0,0.1,0,0.3,0,0.4c-1.3-1.5-2.7-2.8-3.9-3.9c-4.2-4.1-9.4-8.5-15.3-9.7
		c-0.5-0.1-0.7,0.6-0.2,0.7c5.3,1.5,9.9,5.7,13.6,9.6c2.5,2.6,4.5,5.4,6.1,8.5c0.1,1.3,0.2,2.5,0.2,3.8
		c-4.4-7.5-12.7-13.5-19.8-16.9c-0.3-0.1-0.6,0.3-0.3,0.4c9,5,18.8,14.3,20.3,25c0,0,0,0.1,0,0.1c0,0.6,0,1.1,0,1.7
		c-1-2.3-2.3-4.4-3.4-6c-3.8-5.4-8.9-10-13.6-14.6c-0.1-0.1-0.3,0.1-0.2,0.2c3.9,4,7.8,7.9,11.1,12.5c1.8,2.5,3.4,5.3,4.5,8.2
		c1,2.6,0.7,5,0.9,7.6c-1-2.2-2.4-4.4-3.7-6.4c-3.6-5.5-8.1-10.5-12.3-15.6c-0.1-0.1-0.3,0-0.2,0.2c3.3,4.9,6.9,9.5,10,14.5
		c1.7,2.7,3.3,5.6,4.5,8.6c0.3,0.9,0.5,1.9,0.7,2.9c-0.7-1.3-1.5-2.7-2.2-4c-3.2-5.5-7.2-10.5-11.9-14.9c-0.5-0.4-1.2,0.2-0.7,0.7
		c4.4,4.5,8.1,9.5,11.1,15.1c1.5,2.8,2.9,5.8,4.1,8.8c0.2,0.4,0.3,0.7,0.4,1.1c-0.2,1.6-0.3,3.3-0.6,4.9c-1.1-3.1-3-6.1-4.5-8.7
		c-2.8-4.5-6.2-8.5-9.6-12.5c-0.3-0.4-0.8,0.2-0.5,0.5c3.2,4.1,6.2,8.2,8.8,12.7c2.3,3.9,3.3,8.2,5.1,12.2c-0.2,0.9-0.3,1.8-0.5,2.6
		c-0.7-1.9-1.5-3.8-2.2-5.4c-2.3-5.2-5.9-9.7-9.3-14.2c-0.3-0.4-1,0.1-0.7,0.6c2.9,4,5.7,8.1,7.9,12.5c1.2,2.4,2.1,4.9,2.8,7.6
		c0.3,1.1,0.4,2.2,0.6,3.4c-0.4,1.6-0.8,3.2-1.3,4.7c-0.7-2.7-1.7-5.4-2.6-7.8c-2-5-4.6-9.6-7.5-14c-0.4-0.6-1.3-0.1-1,0.6
		c2.6,4.5,4.9,9.1,6.5,14c1.3,4.2,1.7,8.6,2.8,12.7c-0.4,1.1-0.8,2.1-1.2,3.1c0.4-9.2-4.3-17.5-9.3-24.9c-0.3-0.4-0.8,0-0.6,0.4
		c2.1,3.7,4.2,7.5,5.7,11.6c1.7,4.4,2,8.9,2.2,13.6c0,0.1,0,0.2,0,0.3c-0.3,1.4-0.5,2.8-0.7,4.3c-0.2,0.4-0.4,0.8-0.7,1.1
		c0.6-3.7-0.2-7.9-0.9-11.5c-0.9-4.6-2.7-8.8-5-12.9c-0.3-0.5-1.1-0.1-0.8,0.5c2.2,4,3.6,8.3,4.3,12.8c0.6,4.1,0,8.5,1.1,12.4
		c0,0.1,0.1,0.2,0.2,0.3c-0.4,0.6-0.8,1.3-1.2,1.9c0.1-3.2-0.7-6.6-1.2-9.5c-0.8-4.6-2.4-8.9-5-12.8c-0.2-0.3-0.6,0-0.5,0.3
		c2,4.1,3.3,8.4,4.1,12.9c0.6,3.7,0.1,7.8,1,11.5c-0.9,1.2-1.7,2.4-2.7,3.6c-0.2-2.8-0.8-5.8-1.1-8.2c-0.6-4.9-1.8-9.6-3.5-14.2
		c-0.1-0.4-0.8-0.2-0.6,0.2c1.4,5,2.2,10.1,2.7,15.2c0.2,2.4,0.3,4.8,0.4,7.2c0,0.8,0,1.7,0,2.5c-0.7,0.8-1.4,1.7-2.1,2.5
		c0.4-3.3-0.3-7.1-0.7-10.3c-0.5-4-1.4-7.9-2.4-11.8c-0.1-0.4-0.7-0.2-0.6,0.2c0.6,4.2,1,8.5,1.4,12.7c0.3,3.5-0.4,7.6,0.7,11
		c0,0,0,0.1,0.1,0.1c-0.4,0.5-0.9,1.1-1.3,1.6c0.3-2.5,0.1-5.1,0.1-7.5c-0.1-3.9-0.6-7.7-1.2-11.6c-0.1-0.4-0.8-0.3-0.8,0.1
		c0.4,3.8,0.6,7.6,0.6,11.5c0,3.3-0.7,6.6-0.8,9.9c-0.4,0.4-0.7,0.8-1.1,1.2c0.8-5.5-0.2-11.8-0.6-16.8c0-0.3-0.5-0.3-0.5,0
		c0.1,3.6,0.2,7.2,0.1,10.8c-0.1,2.8-0.7,5.5-1.1,8.2c-1,1.1-1.9,2.1-2.9,3.2c0.5-3,0.5-6.1,0.6-9c0.1-4.8-0.6-9.5-2.2-14.1
		c-0.2-0.5-0.9-0.3-0.7,0.2c1.3,4.6,1.6,9.2,1.5,13.9c-0.1,3.6-1,7.3-1,11c-0.6,0.6-1.2,1.3-1.8,1.9c1.3-6.4-0.4-14.1-1.6-20.2
		c-0.2-0.8-1.3-0.5-1.2,0.3c0.6,3.9,1.1,7.8,1.3,11.8c0.1,3.2-0.3,6.5-0.1,9.7c-0.6,0.6-1.1,1.2-1.7,1.7c-0.1-1-0.2-2-0.2-2.7
		c-0.2-4.2-1.2-8.4-1.8-12.5c0-0.3-0.6-0.2-0.5,0.1c0.4,3.8,0.6,7.6,0.7,11.5c0,2,0,4-0.4,6c-0.6,0.6-1.2,1.2-1.8,1.8
		c-0.6,0.5-1.2,1.1-1.8,1.6c1-0.6,1.9-1.3,2.9-2c0.4-0.4,0.9-0.9,1.3-1.3c9.2-7.6,18.5-14.8,26.1-24.3c5.1-6.4,9.8-13.3,12.8-20.9
		c3.7-7.5,6.4-15.4,8-23.9C303.3,353.5,303,332.9,300.5,313z M172.5,429.3c-2.7-3-5.2-6.6-7.1-10.4c0.3-0.4,0.7-0.8,1.1-1.2
		c0.8,2.4,2,4.6,3.6,6.5c1,1.2,2.6,3.2,4.5,4.9C173.9,429.3,173.2,429.3,172.5,429.3z M177.4,428c-1.6-1.1-3.1-2.5-4.5-3.9
		c-2.1-2.2-3.9-4.8-5-7.7c0.3-0.3,0.7-0.5,1-0.7c1,2.2,2.4,4.2,3.9,6.1c1.6,1.9,3.4,4.1,5.5,5.8C178,427.7,177.7,427.8,177.4,428z
		 M179.5,426.8c-3.6-3.7-7.7-6.9-10.1-11.5c0.6-0.5,1.3-0.9,1.8-1.3c0.1-0.1,0.3-0.2,0.4-0.3c1.8,2.6,3.7,5,5.9,7.3
		c1.2,1.4,2.6,3,4,4.5C180.9,425.9,180.2,426.4,179.5,426.8z M183.4,424.1c-1.4-1.2-2.7-2.3-3.9-3.5c-2.4-2.5-4.7-5.1-6.8-7.9
		c0.7-0.6,1.3-1.1,1.9-1.7c1.9,2.2,3.9,4.2,5.9,6.3c1.7,1.7,3.3,3.4,4.9,5.2C184.8,423,184.1,423.5,183.4,424.1z M186.8,421.5
		c-1-1-2-2-2.9-2.9c-2.8-2.8-5.7-5.5-8.3-8.4c1-1.1,2-2.2,2.8-3.4c0.1-0.2,0.2-0.3,0.3-0.5c2.6,2.7,5,5.5,7.3,8.6
		c1.1,1.5,2.1,3.2,3.1,4.9C188.3,420.3,187.6,420.9,186.8,421.5z M190.6,418.7c-1.2-1.7-2.5-3.2-3.6-4.6c-2.4-3-5-5.9-7.9-8.4
		c0.7-1.3,1.1-2.7,1.3-4.2c3,3.4,6.4,6.5,9.4,9.8c1.5,1.7,3,3.4,4.4,5.2C192.9,417.1,191.7,417.9,190.6,418.7z M196,415.5
		c-0.2,0.1-0.3,0.1-0.5,0.2c-1.1-1.3-2.2-2.6-3.3-3.8c-3.6-4.1-7.7-8-11.8-11.7c0-1.7-0.3-3.3-0.8-4.9c3.3,2.3,6.4,4.8,9.1,7.8
		c3.2,3.5,5.7,8,8.8,11.7C197,415.1,196.5,415.3,196,415.5z M195.2,324.6c1.2,0.9,2.4,1.7,3.6,2.7c-1,6.7-3.6,12.9-6.6,19
		c-0.1-0.6-0.2-1.2-0.3-1.9c-0.3-1.1-0.6-2.2-1-3.4C193.9,336.1,195.4,330.3,195.2,324.6z M191.6,322.2c0.8,0.5,1.7,1.1,2.5,1.7
		c-0.4,5.4-1.8,10.4-3.7,15.5c-0.3-1.1-0.7-2.2-1-3.2C191.7,332.1,192.7,326.6,191.6,322.2z" style="fill: rgb(2, 2, 2);"></path>
	<path class="st2" d="M140.3,266c-6.9,12.2-6.6,28.3-5.1,41.9c0.1,0.6,0.9,0.6,1,0c1.6-14.1-0.9-28.2,4.5-41.7
		C140.8,265.9,140.4,265.8,140.3,266z" style="fill: rgb(2, 2, 2);"></path>
	<path class="st2" d="M140.7,300.4c0.4-5.9,1.2-11.8,1.4-17.8c0-0.2-0.3-0.2-0.3,0c-2.3,11.2-4.8,24.5-1.6,35.8
		c0.1,0.5,0.9,0.4,0.9-0.1C140.7,312.2,140.3,306.3,140.7,300.4z" style="fill: rgb(2, 2, 2);"></path>
	<path class="st2" d="M146.2,299.7c0-0.4-0.5-0.4-0.5,0c-0.3,7.4-1.8,15.3-0.7,22.7c0,0.3,0.5,0.3,0.6,0
		C146.7,315,146.5,307,146.2,299.7z" style="fill: rgb(2, 2, 2);"></path>
	<path class="st2" d="M153.2,322.8c-1-4.3-1.1-8.6-1.1-12.9c0-0.8-1.2-0.8-1.2,0c0,4.5-0.1,8.9,1.6,13.1
		C152.6,323.5,153.3,323.4,153.2,322.8z" style="fill: rgb(2, 2, 2);"></path>
	<path class="st2" d="M150.4,443.3c-0.2-0.4-0.9-0.1-0.7,0.3c2.2,5.5,4,11.2,5.2,17.1c1.3,6.1,1.2,12.2,1,18.4
		c0,0.4,0.6,0.5,0.7,0.1C160,467.5,155.3,453.9,150.4,443.3z" style="fill: rgb(2, 2, 2);"></path>
	<path class="st2" d="M158,451.4c-0.2-0.5-1.1-0.1-0.9,0.4c1.5,4.4,2.1,8.8,2.3,13.4c0.1,3.7-0.3,7.6,0.4,11.2c0.1,0.5,0.9,0.5,1,0
		C162.5,468.5,161.3,458.9,158,451.4z" style="fill: rgb(2, 2, 2);"></path>
	<path class="st2" d="M165,456.5c0-0.7-1.1-0.7-1.2,0c-0.1,5.1-0.5,10.9,0.8,15.9c0.1,0.5,0.8,0.5,0.9,0
		C166.8,467.4,165.2,461.5,165,456.5z" style="fill: rgb(2, 2, 2);"></path>
	<path class="st2" d="M168.9,461.3c0,1.6,0.1,3.2,0.1,4.8c0,0.2,0.4,0.2,0.4,0c0.1-1.6,0.1-3.2,0.1-4.8
		C169.6,460.9,168.9,460.9,168.9,461.3z" style="fill: rgb(2, 2, 2);"></path>
	<path class="st2" d="M205,510.2c-9.3-1.4-15.7-5.8-21-13.5c-0.3-0.4-0.9,0-0.6,0.4c4.6,7.4,12.1,14.9,21.5,13.9
		C205.2,510.9,205.4,510.3,205,510.2z" style="fill: rgb(2, 2, 2);"></path>
	<path class="st2" d="M210.3,504.8c-6.9-0.5-13.9-3.1-18-8.9c-0.4-0.6-1.3,0-0.9,0.6c4.4,6.3,11.5,9.2,19,8.9
		C210.7,505.4,210.7,504.8,210.3,504.8z" style="fill: rgb(2, 2, 2);"></path>
	<path class="st2" d="M284.1,223.2c-1-4.9-3.7-8.9-6.7-12.8c-0.2-0.3-0.7,0.1-0.5,0.4c2.3,4.1,5.1,8,6.3,12.6
		C283.3,224.1,284.2,223.8,284.1,223.2z" style="fill: rgb(2, 2, 2);"></path>
	<path class="st2" d="M275.5,215.5c-1.3-2.4-2.4-4.9-3.6-7.4c-0.2-0.4-0.7-0.1-0.7,0.3c0.4,2.8,1.9,5.3,3.3,7.7
		C274.9,216.7,275.9,216.1,275.5,215.5z" style="fill: rgb(2, 2, 2);"></path>
	<path class="st2" d="M268.9,210.3c-1.4-1.2-2.8-3.2-4.8-3.3c-0.3,0-0.6,0.4-0.5,0.7c0.3,0.9,0.9,1.5,1.6,2.1c0.8,0.7,1.7,1.4,2.5,2
		C268.6,212.4,269.7,211,268.9,210.3z" style="fill: rgb(2, 2, 2);"></path>
	<path class="st2" d="M210,253.7c-10.2,2.3-12.8,12.9-15.7,21.6c-0.1,0.4,0.5,0.6,0.7,0.3c4.9-7,6.1-18.5,15.1-21.6
		C210.2,253.9,210.1,253.6,210,253.7z" style="fill: rgb(2, 2, 2);"></path>
	<path class="st2" d="M212,258.9c-6.8,4.3-10.6,11.8-13.8,18.9c-0.2,0.5,0.4,1.1,0.8,0.6C204.5,272.7,205.5,263.9,212,258.9
		C212.1,258.9,212.1,258.9,212,258.9z" style="fill: rgb(2, 2, 2);"></path>
	<path class="st2" d="M216.5,262.2c-7.7,2.5-11.7,10.7-12.9,18.2c-0.1,0.4,0.5,0.6,0.6,0.2c2.5-7,5.4-14.5,12.4-18.1
		C216.7,262.4,216.6,262.2,216.5,262.2z" style="fill: rgb(2, 2, 2);"></path>
	<path class="st2" d="M217.4,267.7c-6.1,3.4-10,10-11.1,16.8c-0.1,0.6,0.8,1.1,1,0.4c2.6-6.1,4.5-12.8,10.2-16.9
		C217.8,267.9,217.7,267.5,217.4,267.7z" style="fill: rgb(2, 2, 2);"></path>
	<path class="st2" d="M216.1,276.6c-4.1,3.8-7.2,8.9-8.1,14.4c-0.1,0.3,0.4,0.6,0.6,0.2c2.5-5,3.6-10.3,7.7-14.4
		C216.4,276.7,216.2,276.5,216.1,276.6z" style="fill: rgb(2, 2, 2);"></path>
	<path class="st2" d="M223,277.3c-5.2,0.7-9.2,7.6-9.6,12.4c0,0.4,0.6,0.5,0.7,0.2c2.7-4.3,3.7-10.3,8.9-12.4
		C223.2,277.5,223.2,277.3,223,277.3z" style="fill: rgb(2, 2, 2);"></path>
	<path class="st2" d="M221.5,283.1c-2.9,2.7-5.3,6.4-5.7,10.4c0,0.4,0.5,0.4,0.6,0.1c1.2-3.8,2.7-7.2,5.3-10.2
		C221.9,283.2,221.7,283,221.5,283.1z" style="fill: rgb(2, 2, 2);"></path>
	<path class="st2" d="M226.4,286.6c-4.7,3-7.7,8.6-8.4,14c0,0.4,0.4,0.5,0.5,0.1c2.1-5.1,3.6-10.3,8-14.1
		C226.5,286.7,226.5,286.6,226.4,286.6z" style="fill: rgb(2, 2, 2);"></path>
	<path class="st2" d="M229.4,292.3c-3.5,1.8-7.2,4.9-7.7,9c-0.1,0.4,0.4,0.6,0.6,0.3c0.9-1.4,1.7-2.9,2.6-4.4
		c1.2-1.9,2.9-3.3,4.7-4.5C229.9,292.5,229.7,292.2,229.4,292.3z" style="fill: rgb(2, 2, 2);"></path>
	<path class="st2" d="M229.2,296.6c-2.3,2.3-3.8,5-4.7,8.1c-0.1,0.3,0.4,0.4,0.5,0.1c1.1-2.8,2.7-5.5,4.9-7.6
		C230.2,296.8,229.6,296.3,229.2,296.6z" style="fill: rgb(2, 2, 2);"></path>
	<path class="st2" d="M235.9,312.5c-6,5.7-5.6,14.9-4.3,22.5c0,0.3,0.5,0.3,0.6,0c0.5-3.2,0.6-6.3,1-9.5c0.5-4.2,0.2-9.2,3-12.7
		C236.3,312.6,236.1,312.4,235.9,312.5z" style="fill: rgb(2, 2, 2);"></path>
	<path class="st2" d="M240.6,322.2c-1.2,5.9-2.9,11.6-5.2,17.1c-0.1,0.3,0.4,0.5,0.6,0.2c3.2-5.2,4.3-11.2,5.1-17.2
		C241.1,322,240.6,321.9,240.6,322.2z" style="fill: rgb(2, 2, 2);"></path>
	<path class="st2" d="M244,325.6c-1.4,4.3-3.3,8.6-4.5,13c-0.1,0.3,0.4,0.6,0.6,0.2c2.2-4,3.2-8.7,4.5-13.1
		C244.6,325.4,244.1,325.3,244,325.6z" style="fill: rgb(2, 2, 2);"></path>
	<path class="st2" d="M247.3,327.3c-1.5,5.3-3.7,10.3-5.8,15.4c-0.1,0.4,0.4,0.6,0.6,0.3c2.8-4.8,4.6-10,5.9-15.5
		C248.2,327,247.4,326.8,247.3,327.3z" style="fill: rgb(2, 2, 2);"></path>
	<path class="st2" d="M249.4,331.1c-1,4.9-3.7,9.1-4.4,14.1c0,0.3,0.3,0.4,0.4,0.1c1.6-4.6,3.8-9.1,4.5-14
		C250.1,330.9,249.5,330.7,249.4,331.1z" style="fill: rgb(2, 2, 2);"></path>
	<path class="st2" d="M251.1,337.6c-1.1,3.9-3.1,8-3.7,12c0,0.3,0.4,0.5,0.6,0.2c2.1-3.5,3-8.1,3.9-12
		C251.9,337.3,251.2,337.1,251.1,337.6z" style="fill: rgb(2, 2, 2);"></path>
	<path class="st2" d="M251.7,344.9c-0.1,3.7-1.5,7-2.2,10.6c-0.1,0.2,0.3,0.3,0.4,0.1c1.4-3.4,2.5-6.9,2.6-10.7
		C252.5,344.4,251.7,344.4,251.7,344.9z" style="fill: rgb(2, 2, 2);"></path>
	<path class="st2" d="M253.8,351.3c-0.7,2.5-1.1,5.1-1.9,7.6c-0.1,0.2,0.3,0.3,0.4,0.1c1.1-2.4,1.5-5,2.2-7.5
		C254.6,351,254,350.9,253.8,351.3z" style="fill: rgb(2, 2, 2);"></path>
	<path class="st2" d="M255.8,356.9c-0.1,1.7-0.5,3.4-0.9,5.1c-0.1,0.3,0.4,0.5,0.6,0.2c0.9-1.6,1.2-3.4,1.2-5.3
		C256.7,356.3,255.8,356.3,255.8,356.9z" style="fill: rgb(2, 2, 2);"></path>
	<path class="st2" d="M187.9,439.2c-0.2-0.2-0.6,0.1-0.3,0.3c1.5,1.5,2.9,3.2,4,5c1,1.7,1.2,3.7,2.2,5.3c0.2,0.3,0.8,0.3,0.9-0.1
		C195.4,445.7,190.7,441.5,187.9,439.2z" style="fill: rgb(2, 2, 2);"></path>
	<path class="st2" d="M191.8,436.6c-0.1,0-0.1,0-0.1-0.1c0.6,0.9,1.3,1.7,2,2.5c0.2,0.2,0.4,0.4,0.7,0.7c1.2,1.4,2.1,3.1,2.5,4.8
		c0,0.1,0,0.2,0,0.4c0.7,2,1.2,4.2,1.6,6.5c0.1,0.4,0.7,0.4,0.8,0C200.5,445.9,196.5,439.4,191.8,436.6z" style="fill: rgb(2, 2, 2);"></path>
	<path class="st2" d="M199.8,439.2c-0.2-0.5-0.9-0.1-0.7,0.4c1.4,2.9,1.8,6,2.5,9.1c0.1,0.3,0.5,0.2,0.5-0.1
		C202.1,445.4,201.2,442.1,199.8,439.2z" style="fill: rgb(2, 2, 2);"></path>
	<path class="st2" d="M202.5,435.7c-0.3-0.5-1.1-0.1-0.8,0.5c3.1,6.1,2.2,12.3,3.5,18.7c0.1,0.3,0.6,0.3,0.7,0
		C207.1,448.5,205.8,441.3,202.5,435.7z" style="fill: rgb(2, 2, 2);"></path>
	<path class="st2" d="M209.4,454.4c-0.1,0.4,0.5,0.7,0.8,0.6c0.2-0.6,0.4-1.1,0.6-1.7c0.6-1.9,1.1-4.1,1.5-6.4
		c-0.1-0.7-0.2-1.4-0.3-2c-0.9-4.6-3.1-8.8-5.8-12.6c-0.2-0.3-0.7,0-0.5,0.3c1.5,3.5,3,7.2,4,10.9
		C210.7,447.6,209.9,450.6,209.4,454.4z" style="fill: rgb(2, 2, 2);"></path>
	<path class="st2" d="M212.7,432.7c-0.2-0.4-0.7,0-0.6,0.3c1.7,3.4,2.8,7,3.5,10.7c0.7,3.7,0.1,7.3,0.2,11c0,0.4,0.5,0.4,0.7,0.1
		C219.2,447.9,216.4,438.8,212.7,432.7z" style="fill: rgb(2, 2, 2);"></path>
	<path class="st2" d="M220.1,455.7c0.2-1,0.4-2.1,0.6-3.1c0.3-1.8,0.4-3.8,0.7-5.8c-0.3-4.4-1.2-8.8-2.8-12.7
		c-0.2-0.4-0.9-0.3-0.7,0.2C220.4,441.4,219.2,448.5,220.1,455.7z" style="fill: rgb(2, 2, 2);"></path>
	<path class="st2" d="M223.7,432.8c-0.5-0.5-1-1-1.5-1.4c0,0,0,0.1,0,0.1c3.3,6.4,3.1,13.2,3.7,20.1c0.4-1,0.9-2,1.3-2.9
		c0.1-5.3-0.6-10.5-2.8-15.3C224.1,433.1,223.9,432.9,223.7,432.8z" style="fill: rgb(2, 2, 2);"></path>
	<path class="st2" d="M233,443c-0.6-4.2-1.8-8.5-4.3-11.9c-0.8-0.7-1.7-1.3-2.6-1.8c0,0,0,0,0,0.1c3.5,3.8,4.8,8.9,5.4,13.9
		c0.3,2.4,0.2,4.9,0.1,7.3c-0.1,1.4-0.6,2.9-0.7,4.3c0.2-0.3,0.4-0.7,0.5-1c1-1.8,1.6-3.5,2.1-5.3C233.4,446.5,233.2,444.5,233,443z
		" style="fill: rgb(2, 2, 2);"></path>
	<path class="st2" d="M236.3,442.8c0.1,3.1-0.4,6.1-0.8,9.1c1.1-2.1,1.9-4.3,2.4-6.6c0-0.5,0-0.9,0-1.4c0-1.8-0.2-3.7-0.4-5.5
		c-0.2-0.3-0.3-0.6-0.4-0.9c-0.5-1.3-0.8-2.6-1.3-3.9c-0.4-0.9-0.7-1.7-1-2.6c0,0,0,0,0,0C235.6,434.9,236.1,438.8,236.3,442.8z" style="fill: rgb(2, 2, 2);"></path>
	<path class="st2" d="M241.7,434.5c-0.3-1.6-0.2-3.1-0.5-4.7c-0.2-1.3-0.4-2.8-0.6-4.3c-0.2,0.1-0.4,0.2-0.3,0.5
		c0.9,7.9-0.1,15.7,0.1,23.6c0,0.4,0.7,0.6,0.8,0.1c0.9-4.4,1.1-8.9,1-13.4C242,435.6,241.8,434.9,241.7,434.5z" style="fill: rgb(2, 2, 2);"></path>
	<path class="st2" d="M245.3,445c0.5-2.1,0.8-4.3,1-6.5c-0.2-1.6-0.5-3.3-0.7-4.7c-0.2-1.8-0.3-3.7-0.5-5.6c0,2.4,0,4.8-0.2,7.1
		c-0.3,4.5-1.3,8.8-2.1,13.2C243.6,447.3,244.5,446.2,245.3,445z" style="fill: rgb(2, 2, 2);"></path>
</g>
<g>
	<path class="st3" d="M475.9,294.7c0,0-14-84.1,75.8-109.5c0,0,107.2-19.6,132.8,103.5c0,0,19.1,77.9-53.7,158.4
		c-72.8,80.5-104.4,99-133.8,79.5c-29.4-19.6,8.1-45.2-9.6-87.9c0,0,14.3,18,8,49.2c-6.3,31.2,15.1,53.2,51.5,28.6
		c0,0,91.7-75.3,112-122.3c0,0,59.9-110.1-26.3-179.8c0,0-56.1-44.8-110.5-7.9C522,206.4,480.1,226.2,475.9,294.7z" style="fill: rgb(125, 73, 33);"></path>
	<path class="st3" d="M551.4,376.2c0,0-4.8,0.2-18.1-31.5c0,0-7.9-20.9-16.5-26.8c0,0-26.8-32.5-10-66.9c0,0,38.4-61.9,109.8-14.1
		c0,0,31.4,21.2,33.1,99.8c0,0,10,72.4-53.7,110.4c0,0,64.3-38.3,41.6-134.3c0,0-6.7-107.8-91.2-81.4c0,0-14.5,3.3-14.8,12.3
		c0,0-0.1,15.5-10,22.2c0,0-16.2,10.5-2.7,31c13.5,20.5,33.9,23.3,52.3,48.5c0,0,45.8,56.4,12.4,75.7c0,0-8.4,5.9-21.5,3.5
		c0,0-12.1-4.9-26.7,10.2c0,0-18.5,14.7-31.5-3.8c0,0-8-11.5,2.3-22.5c10.3-11.1,9.2-11-1-23.5c-10.1-12.6-0.6-30.3,10.6-20
		c11.2,10.3,23.7,27.3,28.3,28.3c0,0-11.6-5.5-18.2-14c-6.6-8.6-20.9-15.4-15.5-2c5.3,13.4,26,16,14,33c0,0-3.3,3.7-9,7.8
		c0,0-8.8,3.8-1.5,10.8c7.4,7,18.1-3.8,26.8-10.2c0,0,6.3-5.7,18.9-3.8c0,0,26.7,4.8,26.6-14.5c0,0-0.5-24.4-21-52.2
		c0,0-19.9-24.7-29-24.4c-9.1,0.3-1.8,5.8,0.7,14.1C536.8,337.6,541.1,361.7,551.4,376.2z" style="fill: rgb(125, 73, 33);"></path>
</g>
<g>
	<path class="st2" d="M788.8,299.6c0,0-14-84.1,75.8-109.5c0,0,107.2-19.6,132.8,103.5c0,0,19.1,77.9-53.7,158.4
		c-72.8,80.5-104.4,99-133.8,79.5c-29.4-19.6,8.1-45.2-9.6-87.9c0,0,14.3,18,8,49.2c-6.3,31.2,15.1,53.2,51.5,28.6
		c0,0,91.7-75.3,112-122.3c0,0,59.9-110.1-26.3-179.8c0,0-56.1-44.8-110.6-7.9C834.9,211.4,793,231.1,788.8,299.6z" style="fill: rgb(2, 2, 2);"></path>
	<path class="st2" d="M864.3,381.1c0,0-4.8,0.2-18.1-31.5c0,0-7.9-20.9-16.5-26.8c0,0-26.8-32.5-10-66.9c0,0,38.4-61.9,109.8-14.1
		c0,0,31.4,21.2,33.1,99.8c0,0,10,72.4-53.7,110.4c0,0,64.3-38.3,41.6-134.3c0,0-6.7-107.8-91.2-81.4c0,0-14.5,3.3-14.8,12.3
		c0,0-0.1,15.5-10,22.2c0,0-16.2,10.5-2.7,31c13.5,20.5,33.9,23.3,52.3,48.5c0,0,45.8,56.4,12.4,75.7c0,0-8.4,5.9-21.5,3.5
		c0,0-12.1-4.9-26.7,10.2c0,0-18.5,14.7-31.5-3.8c0,0-8-11.5,2.3-22.5c10.3-11.1,9.2-11-1-23.5c-10.1-12.6-0.6-30.3,10.6-20
		C839.9,380,852.3,397,857,398c0,0-11.6-5.5-18.2-14c-6.6-8.6-20.9-15.4-15.5-2c5.3,13.4,26,16,14,33c0,0-3.3,3.7-9,7.8
		c0,0-8.8,3.8-1.5,10.8c7.4,7,18.1-3.8,26.8-10.2c0,0,6.3-5.7,18.9-3.8c0,0,26.7,4.8,26.6-14.5c0,0-0.5-24.4-21-52.2
		c0,0-19.9-24.7-29-24.4c-9.1,0.3-1.8,5.8,0.7,14.1C849.7,342.6,854,366.6,864.3,381.1z" style="fill: rgb(2, 2, 2);"></path>
</g>
<path class="st4" d="M488.2,381.6c2.6,4.2,11.9,10.1,12.2,15.2c0.3,7-11.7,11.7-8.9,21c-13.9,3.5-10.5-20.4-12.7-27.4
	c-1.7-5.4-3.7-11.2-3.6-16.9c0.1-6,3.3-11,4.8-16.6c1.8-7,1.1-31.2,15.3-19.9c4,3.2,6.4,7.4,10.5,10.5c2.9,2.1,6.3,2.9,8.2,6
	c-1.7,1.3-3.6,1.4-5.8,1.5c-5.7,0.3-13.6-1.5-18.5,2.1C482.2,362.5,484.1,374.8,488.2,381.6z" style="fill: rgb(245, 224, 205);"></path>
<path class="st4" d="M538.9,208.9c-16.5,8.3-36.4,22.1-41,41.2c7.4,1.1,17.4-17.2,22.3-22c8.3-8,22.1-14,33-14.9
	c12.9-1.1,24.3-1.3,36.3,3.4c10.2,4,19.2,11,29.4,15.1c1.8,0.7,2.7,1.8,4.8,2c-2-0.2-10-12-12.5-13.8c-4.2-3.1-9.4-6.3-14.1-8.8
	C579.6,201.8,556.8,199.8,538.9,208.9z" style="fill: rgb(245, 224, 205);"></path>
<path class="st4" d="M601.3,309.7c-2.2-13.7-4.8-42.9-21.9-46.7c-7.5-1.7-8.1,4.8-5.6,10.4c4.5,10.3,14.2,17.8,18,28.6
	c2.1,6,1.2,11.9,2.7,18c1.4,5.6,4.8,10.8,7.2,15.9c2.5,5.4,4,11.1,5.8,16.9c3.2,10.6,8.1,8.9,5.5-2.2
	C609.8,336.9,603.5,323.3,601.3,309.7z" style="fill: rgb(245, 224, 205);"></path>
<path class="st4" d="M567.4,391.3c1.2,2.7,4.3,14.5,7.1,15.4c5,1.7,5-5.5,4.7-8.9c-0.7-7-4-12.1-8.4-17.6
	c-3.7-4.6-10.3-17.2-17-16.5c-6.5,0.8-1.6,2.7,0,5.8C557.9,377.5,563.8,383.4,567.4,391.3z" style="fill: rgb(245, 224, 205);"></path>
<path class="st4" d="M537.4,475.9c11-1.7,24.2-6.7,34.2-11.4c-2.5,9.2-19.4,12.5-26.1,17.5c-9.9,7.5-17.1,19-29.3,23.5
	c-18.9,7.1-7.9-19.6-7.5-28.4c0.2-5.4-1.5-12.8,1.5-17.3c1.6-2.4,13.3-11.2,15.7-11.1c0.6,0,1.2-0.6,1.9-0.6
	c2.5-0.1-7.2,13.4-7.5,14.3C515.6,474.1,529.1,477.3,537.4,475.9z" style="fill: rgb(245, 224, 205);"></path>
</g>

	
	
	
	
	
	
</defs><sodipodi:namedview
   pagecolor="#ffffff"
   bordercolor="#666666"
   borderopacity="1"
   objecttolerance="10"
   gridtolerance="10"
   guidetolerance="10"
   inkscape:pageopacity="0"
   inkscape:pageshadow="2"
   inkscape:window-width="1366"
   inkscape:window-height="716"
   id="namedview252"
   showgrid="false"
   inkscape:zoom="0.48"
   inkscape:cx="719.21206"
   inkscape:cy="490"
   inkscape:window-x="-8"
   inkscape:window-y="-8"
   inkscape:window-maximized="1"
   inkscape:current-layer="Layer_1" />
   <path
   d="M 0,0 H 1400 V 980 H 0 Z"
   id="XMLID_1_"
   inkscape:connector-curvature="0"
   style="fill:#3ea0c3" /><text
   id="XMLID_40_"
   style="white-space:pre"
   x="704.27838"
   y="182.2382"><tspan
     x="704.27838"
     y="182.2382"
     font-size="58.3881px"
     id="tspan3"
     style="font-size:58.38809967px;font-family:TitilliumWeb-Bold;fill:#ffffff">CUIDA TUS OJOS</tspan></text>
<path
   d="M 676.79999,205.7 H 1193.5 v 73.69999 H 676.79999 Z"
   id="XMLID_42_"
   inkscape:connector-curvature="0"
   style="fill:none" /><g
   id="XMLID_35_">
		<path
   d="m 1211,584.09998 a 275.89999,275.89999 0 0 1 -275.90002,275.89999 275.89999,275.89999 0 0 1 -275.9,-275.89999 275.89999,275.89999 0 0 1 275.9,-275.9 275.89999,275.89999 0 0 1 275.90002,275.9 z"
   id="XMLID_34_"
   inkscape:connector-curvature="0"
   style="fill:#007898" />
		<g
   id="XMLID_2_">
			<path
   id="XMLID_4_"
   d="m 866.3,435.9 3.1,-2.1 c -1.1,0.5 -2.2,1.3 -3.1,2.1 z"
   inkscape:connector-curvature="0"
   style="fill:none" />
			<path
   id="XMLID_366_"
   d="m 909.7,407.9 -0.2,2.7 c 0.1,-0.9 0.2,-1.8 0.2,-2.7 z"
   inkscape:connector-curvature="0"
   style="fill:none" />
			<path
   id="XMLID_367_"
   d="m 977.1,410.6 -0.2,-2.7 c 0,0.9 0.1,1.8 0.2,2.7 z"
   inkscape:connector-curvature="0"
   style="fill:none" />
			<path
   id="XMLID_368_"
   d="m 1017.2,433.7 3.1,2.1 c -1,-0.7 -2,-1.5 -3.1,-2.1 z"
   inkscape:connector-curvature="0"
   style="fill:none" />
			<path
   id="XMLID_369_"
   d="m 897.2,436.5 c 2.5,0 4.5,-2 4.5,-4.5 0,-2.5 -2,-4.5 -4.5,-4.5 -2.5,0 -4.5,2 -4.5,4.5 0,2.5 2,4.5 4.5,4.5 z"
   inkscape:connector-curvature="0"
   style="fill:#e0eaef" />
			<path
   id="XMLID_370_"
   d="m 993.9,431.9 c 0,-2.5 -2,-4.5 -4.5,-4.5 -2.5,0 -4.5,2 -4.5,4.5 0,2.5 2,4.5 4.5,4.5 2.5,0.1 4.5,-1.9 4.5,-4.5 z"
   inkscape:connector-curvature="0"
   style="fill:#e0eaef" />
			<path
   d="m 1004.9,363.10001 h 15 v -7.4 h -15 v 3.69998 z"
   id="XMLID_371_"
   inkscape:connector-curvature="0"
   style="fill:#cddce5" />
			<path
   d="m 866.59998,355.70001 v 7.4 h 15.10003 v -3.70002 -3.69998 z"
   id="XMLID_372_"
   inkscape:connector-curvature="0"
   style="fill:#cddce5" />
			<path
   id="XMLID_375_"
   d="m 956,363.1 v 4.8 11.5 h 42.4 l 4.3,-17.5 v -2.6 h 2.2 v -3.7 h -2.2 -46.7 -4.9 v 7.5 z m 10.8,-5.4 h 17 v 15.4 h -17 z"
   inkscape:connector-curvature="0"
   style="fill:#343e4b" />
			<path
   d="M 930.59998,363.10001 V 368 H 938.5 943.29999 948.09998 956 v -4.89999 h -4.90002 v -7.4 H 943.29999 935.5 v 7.4 z"
   id="XMLID_376_"
   inkscape:connector-curvature="0"
   style="fill:#1f2630" />
			<path
   id="XMLID_379_"
   d="m 952.5,398.3 c 1,-5.4 2.3,-12.7 3.6,-18.8 V 368 h -7.9 -4.8 -4.8 -7.9 v 11.5 c 1.2,6.1 2.6,13.5 3.6,18.9 0.8,4.4 4.7,7.6 9.1,7.6 4.4,0 8.2,-3.2 9.1,-7.7 z m -9.2,5.6 c -4.2,0 -7.5,-3.4 -7.5,-7.5 0,-4.2 3.4,-7.5 7.5,-7.5 4.2,0 7.5,3.4 7.5,7.5 0,4.2 -3.3,7.5 -7.5,7.5 z"
   inkscape:connector-curvature="0"
   style="fill:#2a333f" />
			<path
   id="XMLID_380_"
   d="m 1039.7,402.6 c -3.1,2.1 -6.9,3.4 -11,3.4 -2.3,0 -4.6,-0.4 -6.7,-1.2 0,10.4 0,21.9 0,32.9 2.6,3 4.1,6.8 4.1,11.1 0,4.2 -1.5,8.1 -4.1,11.1 0,10.1 0,18.2 0,22.3 29.3,-11.1 32.1,-38 32.1,-46.2 0.1,-6.1 -1.9,-22 -14.4,-33.4 z"
   inkscape:connector-curvature="0"
   style="fill:#2a333f" />
			<path
   id="XMLID_381_"
   d="m 1009.2,465.7 c -2.3,0 -4.6,-0.5 -6.6,-1.3 -3.8,-1.6 -6.9,-4.6 -8.7,-8.3 l -10.1,-13.8 c 0,0.1 0,0.2 0,0.3 0,9.4 -7.6,17 -17,17 -4.7,0 -9,-1.9 -12.1,-5 5.4,15.6 14.8,30.6 25.7,39.7 -2.7,-3.2 -4.3,-7.4 -4.3,-11.9 0,-10.2 8.3,-18.5 18.5,-18.5 2.7,0 5.2,0.6 7.5,1.6 6.5,2.9 11,9.4 11,16.9 0,10.2 -8.3,18.5 -18.5,18.5 -1.8,0 -3.6,-0.3 -5.3,-0.8 1.1,0.5 2.2,1 3.3,1.4 21.3,7.8 29.4,-1.8 29.4,-19.4 0,-4 0,-12.2 0,-22.3 -3,3.6 -7.6,5.9 -12.8,5.9 z"
   inkscape:connector-curvature="0"
   style="fill:#343e4b" />
			<path
   id="XMLID_384_"
   d="m 1020.3,435.9 v 0 l -3.1,-2.2 c -2.4,-1.3 -5.1,-2 -8,-2 -9.4,0 -17,7.6 -17,17 0,2.6 0.6,5.1 1.6,7.3 1.8,3.7 4.9,6.7 8.7,8.3 2,0.9 4.3,1.3 6.6,1.3 5.2,0 9.8,-2.3 12.9,-5.9 2.6,-3 4.1,-6.8 4.1,-11.1 0,-4.2 -1.5,-8.1 -4.1,-11.1 -0.5,-0.5 -1,-1.1 -1.7,-1.6 z m -11.1,23.6 c -5.9,0 -10.7,-4.8 -10.7,-10.7 0,-5.9 4.8,-10.7 10.7,-10.7 5.9,0 10.7,4.8 10.7,10.7 0,5.8 -4.8,10.7 -10.7,10.7 z"
   inkscape:connector-curvature="0"
   style="fill:#cddce5" />
			<path
   id="XMLID_387_"
   d="m 1009.2,386.4 c 0,8.5 5.4,15.7 12.9,18.4 2.1,0.8 4.3,1.2 6.7,1.2 4.1,0 7.8,-1.3 11,-3.4 5.2,-3.5 8.6,-9.5 8.6,-16.2 0,-10.8 -8.8,-19.6 -19.6,-19.6 -3.9,0 -7.6,1.1 -10.6,3.1 -5.4,3.5 -9,9.6 -9,16.5 z m 12.9,-8.4 c 1.8,-1.5 4.2,-2.3 6.7,-2.3 5.9,0 10.7,4.8 10.7,10.7 0,5 -3.3,9.1 -7.9,10.4 -0.9,0.3 -1.9,0.4 -2.9,0.4 -2.5,0 -4.9,-0.9 -6.7,-2.3 -2.5,-2 -4.1,-5 -4.1,-8.4 0,-3.4 1.7,-6.5 4.2,-8.5 z"
   inkscape:connector-curvature="0"
   style="fill:#cddce5" />
			<path
   id="XMLID_388_"
   d="m 1022.1,394.8 c 1.8,1.5 4.2,2.3 6.7,2.3 1,0 2,-0.1 2.9,-0.4 4.6,-1.3 7.9,-5.4 7.9,-10.4 0,-5.9 -4.8,-10.7 -10.7,-10.7 -2.5,0 -4.9,0.9 -6.7,2.3 -2.5,2 -4.1,5 -4.1,8.4 0,3.4 1.5,6.5 4,8.5 z"
   inkscape:connector-curvature="0"
   style="fill:#e0eaef" />
			<path
   id="XMLID_391_"
   d="m 1009.2,431.7 c 2.9,0 5.6,0.7 8,2 l -9.6,-6.6 1.6,-11.9 c -2.7,5.7 -8.6,9.7 -15.3,9.7 -8.4,0 -15.5,-6.2 -16.8,-14.2 l 1.6,19.8 c 3,3 5,7.2 5,11.8 l 10.1,13.8 c -1.1,-2.2 -1.6,-4.7 -1.6,-7.3 0,-9.5 7.6,-17.1 17,-17.1 z m -24.4,0.2 c 0,-2.5 2,-4.5 4.5,-4.5 2.5,0 4.5,2 4.5,4.5 0,2.5 -2,4.5 -4.5,4.5 -2.4,0.1 -4.5,-1.9 -4.5,-4.5 z"
   inkscape:connector-curvature="0"
   style="fill:#96b2c0" />
			<path
   d="m 1019.9,448.70001 a 10.7,10.7 0 0 1 -10.7,10.7 10.7,10.7 0 0 1 -10.69999,-10.7 10.7,10.7 0 0 1 10.69999,-10.7 10.7,10.7 0 0 1 10.7,10.7 z"
   id="XMLID_392_"
   inkscape:connector-curvature="0"
   style="fill:#003d61" />
			<path
   id="XMLID_395_"
   d="m 993.9,424.9 c 6.8,0 12.6,-4 15.3,-9.7 1.1,-2.2 1.6,-4.7 1.6,-7.3 0,-9.4 -7.6,-17 -17,-17 -0.9,0 -1.7,0.1 -2.6,0.2 -8.2,1.3 -14.4,8.3 -14.4,16.8 l 0.2,2.7 c 1.4,8.1 8.4,14.3 16.9,14.3 z m 0,-27.8 c 5.9,0 10.7,4.8 10.7,10.7 0,5.9 -4.8,10.8 -10.7,10.8 -5.9,0 -10.7,-4.8 -10.7,-10.8 -0.1,-5.9 4.7,-10.7 10.7,-10.7 z"
   inkscape:connector-curvature="0"
   style="fill:#cddce5" />
			<path
   id="XMLID_398_"
   d="m 1013.1,482.3 c 0,-7.5 -4.5,-14 -11,-16.9 -2.3,-1 -4.8,-1.6 -7.5,-1.6 -10.2,0 -18.5,8.3 -18.5,18.5 0,4.5 1.6,8.7 4.3,11.9 2.9,2.4 5.8,4.4 8.9,5.9 1.7,0.5 3.5,0.8 5.3,0.8 10.2,-0.1 18.5,-8.4 18.5,-18.6 z m -30.2,0 c 0,-6.5 5.2,-11.7 11.7,-11.7 6.5,0 11.7,5.2 11.7,11.7 0,6.5 -5.2,11.7 -11.7,11.7 -6.4,0 -11.7,-5.2 -11.7,-11.7 z"
   inkscape:connector-curvature="0"
   style="fill:#cddce5" />
			<path
   id="XMLID_399_"
   d="m 991.2,390.7 c 1.8,-0.3 3.7,-0.6 5.7,-0.8 3.6,-0.4 6.5,-2.8 7.7,-5.9 h -45.8 v 22 c 7.2,-7.7 18.3,-12.8 32.4,-15.3 z"
   inkscape:connector-curvature="0"
   style="fill:#2a333f" />
			<path
   id="XMLID_400_"
   d="m 1006.3,482.3 c 0,-6.5 -5.2,-11.7 -11.7,-11.7 -6.5,0 -11.7,5.2 -11.7,11.7 0,6.5 5.2,11.7 11.7,11.7 6.5,0 11.7,-5.2 11.7,-11.7 z"
   inkscape:connector-curvature="0"
   style="fill:#e0eaef" />
			<path
   id="XMLID_401_"
   d="m 993.9,418.6 c 5.9,0 10.7,-4.8 10.7,-10.8 0,-5.9 -4.8,-10.7 -10.7,-10.7 -5.9,0 -10.7,4.8 -10.7,10.7 -0.1,6 4.7,10.8 10.7,10.8 z"
   inkscape:connector-curvature="0"
   style="fill:#003d61" />
			<path
   id="XMLID_402_"
   d="m 966.8,425.5 c 4.6,0 8.9,1.9 11.9,4.9 l -1.6,-19.8 c -0.2,-0.9 -0.2,-1.8 -0.2,-2.7 0,-8.5 6.2,-15.5 14.4,-16.8 0.8,-0.1 1.7,-0.2 2.6,-0.2 9.4,0 17,7.6 17,17 0,2.6 -0.6,5.1 -1.6,7.3 l -1.6,11.9 9.6,6.6 c 1.1,0.6 2.1,1.3 3.1,2.1 v 0 c 0.6,0.5 1.2,1.1 1.7,1.8 0,-11 0,-22.5 0,-32.9 -7.5,-2.7 -12.9,-9.9 -12.9,-18.4 0,-6.9 3.6,-13 9,-16.4 h -3.5 c -5.4,0 -9.6,4.5 -9.4,9.8 0,0.1 0,0.2 0,0.3 0.1,1.4 -0.2,2.7 -0.7,3.8 -1.2,3.2 -4.2,5.5 -7.7,5.9 -1.9,0.2 -3.8,0.5 -5.7,0.8 -14.1,2.5 -25.2,7.6 -32.4,15.3 -6.6,7.1 -9.9,16.3 -8.8,27.6 0.1,1.4 0.3,2.7 0.5,4.1 2.1,-6.9 8.6,-12 16.3,-12 z"
   inkscape:connector-curvature="0"
   style="fill:#343e4b" />
			<path
   d="m 966.79999,357.70001 h 17 v 15.4 h -17 z"
   id="XMLID_403_"
   inkscape:connector-curvature="0"
   style="fill:#cddce5" />
			<path
   id="XMLID_406_"
   d="m 983.7,442.5 c 0,-0.1 0,-0.2 0,-0.3 -0.1,-4.6 -2,-8.8 -5,-11.8 -3.1,-3 -7.3,-4.9 -11.9,-4.9 -7.7,0 -14.2,5.1 -16.3,12.1 -0.5,1.5 -0.7,3.2 -0.7,4.8 0,4.7 1.9,8.9 4.9,11.9 3.1,3.1 7.4,5 12.1,5 9.3,0.2 16.9,-7.4 16.9,-16.8 z m -27.7,0 c 0,-5.9 4.8,-10.7 10.8,-10.7 5.9,0 10.7,4.8 10.7,10.7 0,5.9 -4.8,10.7 -10.7,10.7 -6,0 -10.8,-4.8 -10.8,-10.7 z"
   inkscape:connector-curvature="0"
   style="fill:#cddce5" />
			<path
   id="XMLID_407_"
   d="m 977.5,442.5 c 0,-5.9 -4.8,-10.7 -10.7,-10.7 -5.9,0 -10.8,4.8 -10.8,10.7 0,5.9 4.8,10.7 10.8,10.7 5.9,0 10.7,-4.8 10.7,-10.7 z"
   inkscape:connector-curvature="0"
   style="fill:#003d61" />
			<path
   id="XMLID_408_"
   d="m 943.3,388.9 c -4.2,0 -7.5,3.4 -7.5,7.5 0,4.2 3.4,7.5 7.5,7.5 4.2,0 7.5,-3.4 7.5,-7.5 0,-4.2 -3.3,-7.5 -7.5,-7.5 z"
   inkscape:connector-curvature="0"
   style="fill:#cddce5" />
			<path
   id="XMLID_409_"
   d="m 927.8,406 v 0 c -7.2,-7.7 -18.3,-12.8 -32.4,-15.3 -1.8,-0.3 -3.7,-0.6 -5.7,-0.8 -3.6,-0.4 -6.5,-2.8 -7.7,-5.9 -0.5,-1.2 -0.7,-2.5 -0.7,-3.8 0,-0.1 0,-0.2 0,-0.3 0.2,-5.4 -4.1,-9.8 -9.4,-9.8 h -3.5 c 5.4,3.5 9,9.5 9,16.4 0,8.5 -5.4,15.7 -12.9,18.4 0,10.3 0,21.9 0,32.9 0.5,-0.6 1.1,-1.2 1.7,-1.8 0.9,-0.8 2,-1.6 3.1,-2.1 l 9.6,-6.6 -1.6,-11.9 v 0 c -1.1,-2.2 -1.7,-4.7 -1.7,-7.3 0,-9.4 7.6,-17 17,-17 0.9,0 1.7,0.1 2.6,0.2 8.2,1.3 14.4,8.3 14.4,16.8 0,0.9 -0.1,1.8 -0.2,2.7 l -1.6,19.8 c 3.1,-3 7.3,-4.9 11.9,-4.9 7.7,0 14.2,5.1 16.3,12.2 0.2,-1.4 0.4,-2.8 0.5,-4.1 1.2,-11.5 -2.1,-20.8 -8.7,-27.8 z"
   inkscape:connector-curvature="0"
   style="fill:#343e4b" />
			<path
   id="XMLID_412_"
   d="m 919.8,425.5 c -4.6,0 -8.9,1.9 -11.9,4.9 -3,3 -5,7.2 -5,11.8 0,0.1 0,0.2 0,0.3 0,9.4 7.6,17 17,17 4.7,0 9,-1.9 12.1,-5.1 3,-3.1 4.9,-7.3 4.9,-11.9 0,-1.7 -0.2,-3.3 -0.7,-4.8 -2.2,-7.1 -8.7,-12.2 -16.4,-12.2 z m 0,27.7 c -5.9,0 -10.8,-4.8 -10.8,-10.7 0,-5.9 4.8,-10.7 10.8,-10.7 5.9,0 10.7,4.8 10.7,10.7 0.1,5.9 -4.7,10.7 -10.7,10.7 z"
   inkscape:connector-curvature="0"
   style="fill:#cddce5" />
			<path
   id="XMLID_413_"
   d="m 902.8,442.5 c 0,-0.1 0,-0.2 0,-0.3 L 892.7,456 c -1.8,3.7 -4.9,6.7 -8.7,8.3 -2,0.9 -4.3,1.3 -6.6,1.3 -5.2,0 -9.8,-2.3 -12.9,-5.9 0,10.1 0,18.2 0,22.3 0,17.6 8.1,27.1 29.4,19.4 1.1,-0.4 2.2,-0.9 3.3,-1.4 -1.7,0.5 -3.4,0.8 -5.3,0.8 -10.2,0 -18.5,-8.3 -18.5,-18.5 0,-7.5 4.5,-14 11,-16.9 2.3,-1 4.8,-1.6 7.5,-1.6 10.2,0 18.5,8.3 18.5,18.5 0,4.5 -1.6,8.7 -4.3,11.9 11,-9.1 20.4,-24.1 25.8,-39.8 -3.1,3.1 -7.4,5.1 -12.1,5.1 -9.4,0 -17,-7.6 -17,-17 z"
   inkscape:connector-curvature="0"
   style="fill:#343e4b" />
			<path
   id="XMLID_416_"
   d="m 930.6,363.1 h 4.9 v -7.5 h -4.9 -46.7 -2.2 v 3.7 h 2.2 v 2.6 l 4.3,17.5 h 42.4 v 0 -11.4 z m -10.8,10 h -17 v -15.4 h 17 z"
   inkscape:connector-curvature="0"
   style="fill:#343e4b" />
			<path
   id="XMLID_417_"
   d="m 889.7,389.9 c 1.9,0.2 3.8,0.5 5.7,0.8 14.1,2.5 25.2,7.6 32.4,15.3 V 384 H 882 c 1.2,3.1 4.1,5.4 7.7,5.9 z"
   inkscape:connector-curvature="0"
   style="fill:#2a333f" />
			<path
   id="XMLID_418_"
   d="m 919.8,431.7 c -5.9,0 -10.8,4.8 -10.8,10.7 0,5.9 4.8,10.7 10.8,10.7 5.9,0 10.7,-4.8 10.7,-10.7 0.1,-5.9 -4.7,-10.7 -10.7,-10.7 z"
   inkscape:connector-curvature="0"
   style="fill:#003d61" />
			<path
   d="m 902.79999,357.70001 h 17 v 15.4 h -17 z"
   id="XMLID_420_"
   inkscape:connector-curvature="0"
   style="fill:#cddce5" />
			<path
   id="XMLID_423_"
   d="m 892.7,424.9 c 8.4,0 15.5,-6.2 16.8,-14.3 l 0.2,-2.7 c 0,-8.5 -6.2,-15.5 -14.4,-16.8 -0.8,-0.1 -1.7,-0.2 -2.6,-0.2 -9.4,0 -17,7.6 -17,17 0,2.6 0.6,5.1 1.7,7.3 v 0 c 2.7,5.7 8.6,9.7 15.3,9.7 z m 0,-27.8 c 5.9,0 10.7,4.8 10.7,10.7 0,5.9 -4.8,10.8 -10.7,10.8 -5.9,0 -10.8,-4.8 -10.8,-10.8 0.1,-5.9 4.9,-10.7 10.8,-10.7 z"
   inkscape:connector-curvature="0"
   style="fill:#cddce5" />
			<path
   id="XMLID_426_"
   d="m 894.4,448.7 c 0,2.6 -0.6,5.1 -1.6,7.3 l 10.1,-13.8 c 0.1,-4.6 2,-8.8 5,-11.8 l 1.6,-19.8 c -1.3,8.1 -8.3,14.3 -16.8,14.3 -6.8,0 -12.6,-3.9 -15.3,-9.7 l 1.6,11.9 -9.6,6.6 c 2.4,-1.3 5.1,-2 8,-2 9.4,0 17,7.6 17,17 z m 2.8,-21.3 c 2.5,0 4.5,2 4.5,4.5 0,2.5 -2,4.5 -4.5,4.5 -2.5,0 -4.5,-2 -4.5,-4.5 0,-2.5 2,-4.5 4.5,-4.5 z"
   inkscape:connector-curvature="0"
   style="fill:#96b2c0" />
			<path
   id="XMLID_429_"
   d="m 892,463.8 c -2.7,0 -5.2,0.6 -7.5,1.6 -6.5,2.9 -11,9.4 -11,16.9 0,10.2 8.3,18.5 18.5,18.5 1.8,0 3.6,-0.3 5.3,-0.8 3.5,-1 6.6,-3.1 8.9,-5.9 2.7,-3.2 4.3,-7.3 4.3,-11.9 0,-10.1 -8.3,-18.4 -18.5,-18.4 z m 0,30.2 c -6.5,0 -11.7,-5.2 -11.7,-11.7 0,-6.5 5.2,-11.7 11.7,-11.7 6.5,0 11.7,5.2 11.7,11.7 0,6.5 -5.3,11.7 -11.7,11.7 z"
   inkscape:connector-curvature="0"
   style="fill:#cddce5" />
			<path
   id="XMLID_430_"
   d="m 892.7,418.6 c 5.9,0 10.7,-4.8 10.7,-10.8 0,-5.9 -4.8,-10.7 -10.7,-10.7 -5.9,0 -10.8,4.8 -10.8,10.7 0.1,6 4.9,10.8 10.8,10.8 z"
   inkscape:connector-curvature="0"
   style="fill:#003d61" />
			<path
   d="m 903.7,482.29999 a 11.7,11.7 0 0 1 -11.7,11.7 11.7,11.7 0 0 1 -11.7,-11.7 11.7,11.7 0 0 1 11.7,-11.7 11.7,11.7 0 0 1 11.7,11.7 z"
   id="XMLID_431_"
   inkscape:connector-curvature="0"
   style="fill:#e0eaef" />
			<path
   id="XMLID_432_"
   d="m 877.4,459.5 c 5.9,0 10.7,-4.8 10.7,-10.7 0,-5.9 -4.8,-10.7 -10.7,-10.7 -5.9,0 -10.8,4.8 -10.8,10.7 0,5.8 4.9,10.7 10.8,10.7 z"
   inkscape:connector-curvature="0"
   style="fill:#003d61" />
			<path
   id="XMLID_433_"
   d="m 860.4,448.7 c 0,-4.2 1.5,-8.1 4.1,-11.1 0,-11 0,-22.5 0,-32.9 -2.1,0.8 -4.3,1.2 -6.7,1.2 -4.1,0 -7.9,-1.3 -11,-3.4 -9.7,8.9 -13.1,20.5 -14.1,28 -0.3,2.1 -0.4,3.9 -0.4,5.3 0,1.3 0.1,3.1 0.3,5.3 1.3,11.2 7.2,31.6 31.8,40.9 0,-4 0,-12.2 0,-22.3 -2.4,-2.9 -4,-6.8 -4,-11 z"
   inkscape:connector-curvature="0"
   style="fill:#2a333f" />
			<path
   id="XMLID_436_"
   d="m 864.5,459.8 c 3.1,3.6 7.7,5.9 12.9,5.9 2.3,0 4.6,-0.5 6.6,-1.3 3.8,-1.6 6.9,-4.6 8.7,-8.3 1.1,-2.2 1.6,-4.7 1.6,-7.3 0,-9.4 -7.6,-17 -17,-17 -2.9,0 -5.6,0.7 -8,2 l -3.1,2.1 c -0.6,0.5 -1.2,1.1 -1.7,1.8 -2.6,3 -4.1,6.8 -4.1,11.1 0,4.1 1.6,8 4.1,11 z M 877.4,438 c 5.9,0 10.7,4.8 10.7,10.7 0,5.9 -4.8,10.7 -10.7,10.7 -5.9,0 -10.8,-4.8 -10.8,-10.7 0,-5.9 4.9,-10.7 10.8,-10.7 z"
   inkscape:connector-curvature="0"
   style="fill:#cddce5" />
			<path
   id="XMLID_439_"
   d="m 864.5,404.8 c 7.5,-2.7 12.9,-9.9 12.9,-18.4 0,-6.9 -3.6,-13 -9,-16.4 -3,-2 -6.7,-3.1 -10.6,-3.1 -10.8,0 -19.6,8.8 -19.6,19.6 0,6.7 3.4,12.7 8.6,16.2 3.1,2.1 6.9,3.4 11,3.4 2.4,-0.1 4.6,-0.6 6.7,-1.3 z m -17.4,-18.4 c 0,-5.9 4.8,-10.7 10.7,-10.7 2.5,0 4.8,0.9 6.7,2.3 2.5,2 4.1,5 4.1,8.4 0,3.4 -1.6,6.4 -4.1,8.4 -1.8,1.5 -4.2,2.3 -6.7,2.3 -1,0 -2,-0.1 -2.9,-0.4 -4.5,-1.2 -7.8,-5.4 -7.8,-10.3 z"
   inkscape:connector-curvature="0"
   style="fill:#cddce5" />
			<path
   id="XMLID_440_"
   d="m 864.5,394.8 c 2.5,-2 4.1,-5 4.1,-8.4 0,-3.4 -1.6,-6.4 -4.1,-8.4 -1.8,-1.5 -4.2,-2.3 -6.7,-2.3 -5.9,0 -10.7,4.8 -10.7,10.7 0,5 3.3,9.1 7.9,10.4 0.9,0.3 1.9,0.4 2.9,0.4 2.5,-0.1 4.8,-0.9 6.6,-2.4 z"
   inkscape:connector-curvature="0"
   style="fill:#e0eaef" />
			<path
   id="XMLID_441_"
   d="m 832.8,430.6 h -7 v 10.5 h 7 c -0.2,-2.1 -0.3,-3.9 -0.3,-5.3 -0.1,-1.2 0,-3 0.3,-5.2 z"
   inkscape:connector-curvature="0"
   style="fill:#cddce5" />
		</g>
		<g
   id="XMLID_9_">
			<path
   id="XMLID_6_"
   d="m 1023.2,612.3 c 0,0 -34.6,28.2 -80.8,24 -46.2,-4.2 -78.8,-40.2 -86.4,-46.5 -7.6,-6.2 88,9 88,9 z"
   inkscape:connector-curvature="0"
   style="fill:#2a333f" />
			<g
   id="XMLID_5_">
				<path
   id="XMLID_17_"
   d="m 1023.2,612.3 c 0,0 -131.6,-4.5 -167.2,-22.4 3,-2.4 6.1,-4.7 9.1,-6.8 30.8,-18.1 59.3,-23.6 76.6,-22.1 28.2,2.5 59.7,17.1 78.1,44.2 1.2,2.3 2.3,4.7 3.4,7.1 z"
   inkscape:connector-curvature="0"
   style="fill:#2a333f" />
				<path
   id="XMLID_19_"
   d="m 1019.7,605.2 c -18.4,-27 -49.9,-41.7 -78.1,-44.2 -17.3,-1.5 -45.8,4 -76.6,22.1 31.6,-22.3 61.5,-29 79,-27.4 27.9,2.7 59.2,19.1 75.7,49.5 z"
   inkscape:connector-curvature="0"
   style="fill:#e3a064" />
				<path
   id="XMLID_24_"
   d="m 1013.2,617.6 c -22.1,10.8 -42.7,15 -61.9,14.5 -2.9,-0.1 -5.8,-0.2 -8.6,-0.5 -34,-3.3 -63.1,-21.1 -86.8,-41.7 15.5,-6.6 37.1,-17.4 61.2,-22 22.2,-4.2 46.6,-3.2 70.5,11.3 8.6,5.2 17.2,12.2 25.6,21.2 1,5.6 1,11.6 0,17.2 z"
   inkscape:connector-curvature="0"
   style="fill:#e0eaef" />
				<path
   id="XMLID_14_"
   d="m 1013.2,600.4 c 1,5.7 1,11.6 0,17.3 3.3,-1.6 6.6,-3.4 10,-5.3 -3.3,-4.4 -6.6,-8.4 -10,-12 z"
   inkscape:connector-curvature="0"
   style="fill:#dda5a2" />
				<path
   id="XMLID_22_"
   d="m 989.7,591.9 c 0,21.6 -17,39.3 -38.4,40.2 -0.6,0 -1.2,0 -1.8,0 -2.3,0 -4.6,-0.2 -6.8,-0.6 -19,-3.2 -33.5,-19.8 -33.5,-39.7 0,-9 3,-17.4 8,-24.1 22.2,-4.2 46.6,-3.2 70.5,11.3 1.3,4.1 2,8.4 2,12.9 z"
   inkscape:connector-curvature="0"
   style="fill:#343e4b" />
				<path
   d="m 974,591.90002 a 24.5,24.5 0 0 1 -24.5,24.5 24.5,24.5 0 0 1 -24.5,-24.5 24.5,24.5 0 0 1 24.5,-24.5 24.5,24.5 0 0 1 24.5,24.5 z"
   id="XMLID_7_"
   inkscape:connector-curvature="0"
   style="fill:#2a333f" />
				<path
   d="M 976.6,605.5 A 13.6,13.6 0 0 1 963,619.1 13.6,13.6 0 0 1 949.4,605.5 13.6,13.6 0 0 1 963,591.9 13.6,13.6 0 0 1 976.6,605.5 Z"
   id="XMLID_8_"
   inkscape:connector-curvature="0"
   style="fill:#e0eaef" />
			</g>
		</g>
		<g
   id="XMLID_10_">
			<path
   id="XMLID_18_"
   d="m 1083.4,714.3 c 0,0 -174.4,15.8 -214.2,21.5 -39.8,5.7 -47.6,50.3 -51.7,62.7 -4.1,12.4 12.4,6 14.5,-3.2 2.1,-9.3 11.9,-48.1 30.5,-50.7 18.6,-2.6 133.4,-10.3 145.3,-7.9 11.9,2.4 9.3,9.2 22.3,9.2 12.9,0 53.4,-6 53.4,-6 v -25.6 z"
   inkscape:connector-curvature="0"
   style="fill:#2a333f" />
			<path
   id="XMLID_16_"
   d="m 802.8,708.1 c 0,0 174.4,15.8 214.2,21.5 39.8,5.7 47.6,50.3 51.7,62.7 4.1,12.4 -12.4,6 -14.5,-3.2 -2.1,-9.3 -11.9,-48.1 -30.5,-50.7 -18.6,-2.6 -133.4,-10.3 -145.3,-7.9 -11.9,2.4 -9.3,9.2 -22.3,9.2 -13,0 -53.4,-6 -53.4,-6 v -25.6 z"
   inkscape:connector-curvature="0"
   style="fill:#2a333f" />
			<path
   id="XMLID_37_"
   d="m 1083.4,714.3 c -9.4,-1.5 -13.3,-4.3 -21.2,-7.6 -3.1,-1.3 -6.8,-2.7 -11.6,-4.1 -5.9,-1.7 -15,-3 -24.9,-4 -19.2,-1.9 -41,-2.5 -46.1,-2.1 -7.6,0.6 -18.6,5.1 -23.8,6.1 -2.3,0.4 -6,1.1 -10.2,1.3 -5.3,0.3 -11.6,-0.1 -17.2,-2.5 -2.5,-1.1 -6.4,-2 -11,-2.6 -10.9,-1.6 -26.2,-2.2 -38.5,-2.1 -3.4,0 -6.6,0.1 -9.4,0.2 -17.3,0.8 -40.3,5.6 -49,8.2 -8.6,2.6 -17.7,2.9 -17.7,2.9 v 28 c 0,0 4.2,1.2 8.4,13.8 4.2,12.6 8.3,26.5 17.2,35.4 3.9,3.9 10.2,6.9 19,8.5 9.9,1.9 22.9,2.1 39.1,0.1 2.1,-0.2 4.2,-0.5 6.4,-0.9 34.3,-5.2 39.1,-40.7 40.3,-48.8 1.2,-8.1 6,-12.9 12,-12.1 0.1,0 0.2,0.1 0.4,0.1 5.7,1.1 9,9.2 9.4,12 0.4,2.8 4,32.7 16.9,44.3 4.9,4.4 12.8,6.8 22,7.9 12.1,1.5 26.4,0.7 39.4,-0.6 3.2,-0.3 6.2,-0.7 9.2,-1.1 24.2,-3.2 26.6,-25 29.8,-32.3 3.2,-7.3 10.5,-17.3 10.5,-17.3 0,0 1.8,-10.7 0.6,-30.7 z m -157.8,9.5 c -2.5,36 -11.1,48.2 -17.3,54.6 -3.4,3.5 -10.2,5.9 -19.3,7.2 -7.6,1.1 -16.6,1.5 -26.5,1.2 -4.8,-0.1 -8.9,-0.7 -12.6,-1.6 -12.8,-3.2 -19.3,-10.9 -25.1,-21.9 -7.4,-14.2 -13.6,-42.1 0,-49.8 7.9,-4.5 30.4,-7.2 51,-8 14.8,-0.6 28.8,-0.2 35.8,1 1,0.2 1.9,0.4 2.8,0.7 14,4.1 11.2,16.6 11.2,16.6 z m 136.7,40.8 c -5.9,11.4 -12.6,19.2 -26.2,22.2 -3.4,0.8 -7.2,1.2 -11.5,1.3 -10.4,0.3 -19.9,-0.2 -27.6,-1.4 -8.5,-1.4 -14.9,-3.7 -18.2,-7 -6.2,-6.4 -14.8,-18.7 -17.3,-54.7 0,0 -3.1,-17.3 13.9,-20.4 9,-1.6 29,-0.8 47.8,1.4 15,1.8 29.2,4.5 36.7,7.6 0.9,0.4 1.7,0.8 2.4,1.2 13.6,7.7 7.5,35.5 0,49.8 z"
   inkscape:connector-curvature="0"
   style="fill:#343e4b" />
			<path
   id="XMLID_27_"
   d="m 914.5,711.5 -25.5,70 c -7.6,1 -16.6,1.3 -26.5,1.1 -4.8,-0.1 -8.9,-0.6 -12.6,-1.4 L 875.8,710 c 14.8,-0.5 28.8,-0.2 35.8,0.9 1.1,0.1 2,0.3 2.9,0.6 z"
   inkscape:connector-curvature="0"
   style="fill:#ffffff" />
			<path
   id="XMLID_26_"
   d="m 1059.9,717.2 -23.8,65.4 c -3.4,0.7 -7.2,1.1 -11.5,1.2 -10.4,0.3 -19.9,-0.1 -27.6,-1.2 l 26.2,-72.1 c 15,1.4 29.3,3.9 36.7,6.7 z"
   inkscape:connector-curvature="0"
   style="fill:#ffffff" />
		</g>
		<g
   id="XMLID_13_">
			<path
   id="XMLID_12_"
   d="m 726.1,518.7 h 55.2 c 3.3,0 6,-2.7 6,-6 v -27.4 c 0,-3.3 -2.7,-6 -6,-6 h -55.2 c -3.3,0 -6,2.7 -6,6 v 27.4 c 0,3.3 2.7,6 6,6 z"
   inkscape:connector-curvature="0"
   style="fill:#cddce5" />
			<path
   id="XMLID_28_"
   d="m 724.2,518.7 c 13.4,0 29.5,0 29.5,0 0,0 16.1,0 29.5,0 1.4,2.5 2.8,5 4.1,7.5 -25.8,6.3 -51.4,14 -77.2,21.1 3.7,-9 8.4,-18.6 14.1,-28.6 z"
   inkscape:connector-curvature="0"
   style="fill:#b7cdd8" />
			<path
   id="XMLID_29_"
   d="m 787.3,526.2 c 41.2,78 19.4,122.9 6.4,122.9 -13.4,0 -40,0 -40,0 0,0 -26.6,0 -40,0 -11.8,0 -30.8,-36.9 -3.6,-101.8 25.8,-7.1 51.3,-14.9 77.2,-21.1 z"
   inkscape:connector-curvature="0"
   style="fill:#cddce5" />
			<path
   id="XMLID_30_"
   d="m 788.1,640 c -11.6,0 -34.5,0 -34.5,0 0,0 -22.9,0 -34.5,0 -8.8,0 -22.2,-23.7 -10.5,-66.3 29.7,-0.2 59.4,-1.4 89.2,-3 13.1,44.5 -0.7,69.3 -9.7,69.3 z"
   inkscape:connector-curvature="0"
   style="fill:#8eabc1" />
			<path
   id="XMLID_21_"
   d="m 753.7,447.3 v 0 c 0,0 0,0 0,0 0,0 0,0 0,0 v 0 c 8,0 12,23.7 12,32 -6.6,0 -12,0 -12,0 0,0 0,0 0,0 0,0 -5.4,0 -12,0 0,-8.4 3.9,-32 12,-32 z"
   inkscape:connector-curvature="0"
   style="fill:#b7cdd8" />
		</g>
		<g
   id="XMLID_33_">
			<g
   id="XMLID_181_">
				<path
   id="XMLID_84_"
   d="m 1174.4,570.4 c -2.7,-8.1 -9.2,-14.8 -18.1,-17.2 -13.6,-3.7 -27.5,4 -31.9,17.2 h -1.3 v 8.2 0 c 0,1.2 0.1,2.4 0.3,3.6 1.4,10.1 8.7,18.9 19.1,21.7 14,3.8 28.4,-4.5 32.2,-18.5 0.3,-1.1 0.5,-2.2 0.7,-3.3 0.2,-1.2 0.3,-2.4 0.3,-3.6 v 0 -8.2 h -1.3 z"
   inkscape:connector-curvature="0"
   style="fill:#d1d3d4" />
				<path
   id="XMLID_112_"
   d="m 1175.4,574 c -0.1,1.1 -0.4,2.2 -0.7,3.3 -3.8,14 -18.2,22.3 -32.2,18.5 -10.5,-2.9 -17.7,-11.6 -19.1,-21.7 -0.3,-2.4 -0.4,-4.8 0,-7.3 0.1,-1.1 0.4,-2.2 0.7,-3.3 3.8,-14 18.2,-22.3 32.2,-18.5 10.5,2.8 17.7,11.6 19.1,21.7 0.4,2.4 0.4,4.9 0,7.3 z"
   inkscape:connector-curvature="0"
   style="fill:#ffffff" />
				<path
   id="XMLID_99_"
   d="m 1175.4,574 h -52 c -0.3,-2.4 -0.4,-4.8 0,-7.3 h 52 c 0.4,2.4 0.4,4.9 0,7.3 z"
   inkscape:connector-curvature="0"
   style="fill:#d1d3d4" />
			</g>
			<g
   id="XMLID_15_">
				<path
   id="XMLID_32_"
   d="m 1136.5,520.7 0.1,-0.1 -3,-3.7 -1.7,1.4 c -3.1,-0.8 -6.5,-0.2 -9.2,2 l -13,10.4 -4.5,3.6 -13,10.4 c -2.7,2.2 -4.1,5.3 -4,8.6 l -1.6,1.3 3,3.7 v 0 c 0.3,0.5 0.6,1 1,1.4 v 0 c 3.7,4.6 10.4,5.4 15,1.7 l 13,-10.4 4.5,-3.6 13,-10.4 c 4.6,-3.7 5.4,-10.4 1.7,-15 v 0 c -0.5,-0.6 -0.9,-1 -1.3,-1.3 z"
   inkscape:connector-curvature="0"
   style="fill:#e5d0af" />
				<g
   id="XMLID_20_">
					<path
   id="XMLID_31_"
   d="m 1114.5,545.8 -15.3,12.2 c -3.3,2.7 -8.2,2.1 -10.9,-1.2 l -3.6,-4.6 c -2.7,-3.3 -2.1,-8.2 1.2,-10.9 l 15.3,-12.2 z"
   inkscape:connector-curvature="0"
   style="fill:#f2ecbf" />
					<path
   id="XMLID_25_"
   d="m 1119,542.2 15.3,-12.2 c 3.3,-2.7 3.9,-7.5 1.2,-10.9 l -3.6,-4.6 c -2.7,-3.3 -7.5,-3.9 -10.9,-1.2 l -15.3,12.2 z"
   inkscape:connector-curvature="0"
   style="fill:#f2ecbf" />
					
						<path
   d="m 1107.2,525 h 5.7 v 21.4 h -5.7 z"
   id="XMLID_23_"
   transform="matrix(0.7822,-0.6231,0.6231,0.7822,-91.9294,808.3474)"
   inkscape:connector-curvature="0"
   style="fill:#e5d0af" />
				</g>
			</g>
			<g
   id="XMLID_85_">
				<path
   id="XMLID_129_"
   d="m 1165.1,604.9 c 0,8.1 -6.6,14.7 -14.7,14.7 0,0 0,0 0,0 l -29.4,-0.1 v -9.8 h 29.4 0.1 c 8,0 14.5,-2.1 14.6,-4.8 z"
   inkscape:connector-curvature="0"
   style="fill:#920412" />
				<path
   id="XMLID_133_"
   d="m 1165.1,604.8 c 0,0 0,0 0,0 v 0.1 c -0.1,2.6 -6.7,4.8 -14.7,4.8 h -0.1 -29.4 v -4.9 -4.9 -9.8 l 29.4,0.1 c 8.3,0 14.8,6.5 14.8,14.6 z"
   inkscape:connector-curvature="0"
   style="fill:#c21424" />
				<path
   id="XMLID_109_"
   d="m 1121,609.7 v 9.8 l -29.5,-0.1 c -8.1,0 -14.6,-6.6 -14.7,-14.6 0,2.7 6.6,4.8 14.7,4.8 z"
   inkscape:connector-curvature="0"
   style="fill:#e0e1e2" />
				<path
   id="XMLID_130_"
   d="m 1121,590.1 v 9.8 4.9 4.9 0 h -29.5 c -8.1,0 -14.6,-2.2 -14.7,-4.8 0,0 0,0 0,0 v 0 c 0,0 0,0 0,0 v -0.1 c 0,-8.1 6.6,-14.7 14.8,-14.7 z"
   inkscape:connector-curvature="0"
   style="fill:#ffffff" />
			</g>
		</g>
	</g><g
   id="XMLID_38_">
		<defs
   id="defs166">
			<path
   d="M 99,91 H 499 V 980 H 99 Z"
   id="XMLID_36_"
   inkscape:connector-curvature="0" />
		</defs>
		<clipPath
   id="XMLID_47_">
			<use
   overflow="visible"
   href="#XMLID_36_"
   id="use168"
   style="overflow:visible"
   x="0"
   y="0"
   width="100%"
   height="100%" />
		</clipPath>
		<g
   id="XMLID_105_"
   clip-path="url(#XMLID_47_)">
			<path
   id="XMLID_282_"
   d="m 267.4,1191.6 c -7.4,-2.7 -17.5,-7 -24.8,-2.7 -6.6,3.9 -8.3,13.1 -13.2,18.7 -6.9,7.9 -19.3,14 -28,19.5 -14.8,9.5 -31,19.2 -38.2,35.4 -1.2,2.8 -2.1,6.3 0,8.6 1.5,1.7 4.1,1.9 6.4,1.9 23.6,-0.2 47.2,-6.5 67.9,-18.1 7,-3.9 13.7,-8.5 21.3,-10.9 6.1,-1.9 13.2,-2.9 16.8,-8.2 2.7,-4 2.5,-9.2 2,-14 -0.7,-7.1 -1.6,-14.1 -2.9,-21.1 -0.4,-2.2 -0.9,-4.6 -2.4,-6.3 -1.2,-1.3 -3.1,-2.1 -4.9,-2.8 z"
   inkscape:connector-curvature="0" />
			<path
   id="XMLID_281_"
   d="m 347.6,1191.6 c 7.4,-2.7 17.5,-7 24.8,-2.7 6.6,3.9 8.3,13.1 13.2,18.7 6.9,7.9 19.3,14 28,19.5 14.8,9.5 31,19.2 38.2,35.4 1.2,2.8 2.1,6.3 0,8.6 -1.5,1.7 -4.1,1.9 -6.4,1.9 -23.6,-0.2 -47.2,-6.5 -67.9,-18.1 -7,-3.9 -13.7,-8.5 -21.3,-10.9 -6.1,-1.9 -13.2,-2.9 -16.8,-8.2 -2.7,-4 -2.5,-9.2 -2,-14 0.7,-7.1 1.6,-14.1 2.9,-21.1 0.4,-2.2 0.9,-4.6 2.4,-6.3 1.2,-1.3 3.1,-2.1 4.9,-2.8 z"
   inkscape:connector-curvature="0" />
			<path
   id="XMLID_280_"
   d="M 339.2,412.4 H 323.1 305 276 259.1 l 1.6,-5.9 1.8,-6.8 c 0,0 -0.1,-0.4 0,-1.1 v 0 c 0.4,-1.8 2.6,-5 13.6,-5.3 0.9,0 1.8,0 2.8,0 3.8,0.1 8.4,-0.2 13.3,-0.4 3,-0.2 6.1,-0.4 9.3,-0.6 5.4,-0.3 10.8,-0.5 15.7,-0.3 1,0.1 2,0.1 3,0.2 1.4,0.1 2.8,0.3 4.1,0.5 0,0 0,0 0,0 2.3,0.4 4.3,0.9 6,1.7 2.8,1.2 4.7,3 5.4,5.5 l 2.4,9 z"
   inkscape:connector-curvature="0"
   style="fill:#c0968f" />
			<path
   id="XMLID_205_"
   d="m 385.1,1188.5 c -17.7,11.5 -52.8,12.9 -52.8,12.9 0,0 1.4,-59.2 2.1,-129.3 15.5,-8.8 30.4,-19.2 45.1,-30 -1.3,59.7 -0.3,112.4 5.6,146.4 z"
   inkscape:connector-curvature="0"
   style="fill:#004b73" />
			<path
   id="XMLID_239_"
   d="m 229,1117.3 c 14.8,-5.7 29.6,-11.6 44.3,-17.6 2.6,59.1 5.2,105.5 5.2,105.5 0,0 -15.5,1.9 -50.2,-9.5 2.3,-14.2 2.2,-43 0.7,-78.4 z"
   inkscape:connector-curvature="0"
   style="fill:#004b73" />
			<path
   id="XMLID_248_"
   d="m 206,834.8 c -4.6,-35.8 -5.9,-96.4 -5.9,-96.4 0,0 60.5,-9.5 195,0 -4.6,86.2 -13.4,204.7 -15.6,303.6 -14.7,10.8 -29.6,21.2 -45.1,30 1,-95.5 0.7,-211.1 -6,-224.4 -9.6,-19.2 -46.4,-25.7 -56.9,10.1 -6.5,22 -2.4,147.9 1.8,241.9 -14.7,6.1 -29.5,11.9 -44.3,17.6 -4.2,-100.8 -19.6,-255.9 -23,-282.4 z"
   inkscape:connector-curvature="0"
   style="fill:#003b5e" />
			<path
   id="XMLID_226_"
   d="m 399.6,617.6 c 0.2,18.6 0.7,38 1.2,55.6 -51.4,30.3 -104.9,55.6 -160.3,75.1 -24.7,-2.4 -43.8,-6.8 -49.2,-13.2 -0.3,-0.4 -0.6,-0.8 -0.9,-1.2 0,0 2.9,-58.1 4.7,-109.1 68.5,0.1 136.7,0.6 204.5,-7.2 z"
   inkscape:connector-curvature="0"
   style="fill:#c0968f" />
			<path
   id="XMLID_237_"
   d="m 196.2,554.4 c -1.1,-18.1 -7.9,-63.8 -10.1,-90.9 -0.5,-5.9 -0.7,-10.9 -0.6,-14.6 0.1,-6.8 4.4,-12.7 10.7,-14.9 l 68.5,-23.6 69.2,0.8 60.2,15.2 c 6.6,1.4 11.6,6.9 12.4,13.8 0.5,3.7 2.4,8 2,16.2 -1.4,27.5 -6.7,74.3 -8.1,101.5 -0.7,12.3 -0.8,29 -0.7,47.2 0,4.1 0.1,8.3 0.1,12.5 -67.8,7.9 -136,7.3 -204.4,7.1 0.6,-17.3 1.1,-33.8 1.2,-47 0,-10.2 -0.1,-18.4 -0.4,-23.3 z"
   inkscape:connector-curvature="0"
   style="fill:#d9a8a0" />
			<path
   id="XMLID_206_"
   d="m 400.8,673.1 c 1,33.9 2.2,60.7 2.2,60.7 -0.2,0.3 -0.5,0.5 -0.7,0.8 -14.1,14.1 -103.5,19.3 -161.7,13.6 55.3,-19.4 108.8,-44.7 160.2,-75.1 z"
   inkscape:connector-curvature="0"
   style="fill:#d9a8a0" />
			<path
   id="XMLID_277_"
   d="m 403,752.6 c -7,9.1 -44.9,14.7 -86.9,16.3 -12.8,0.5 -26,0.6 -38.8,0.3 -42.8,-1 -81.2,-6.3 -86.9,-16.5 0,0 0.3,-6.7 0.9,-17.6 7.9,9.4 45,14.4 86,15.3 12.8,0.3 26,0.2 38.8,-0.3 40.7,-1.5 77.6,-6.8 86.1,-15.5 0.5,11.1 0.8,18 0.8,18 z"
   inkscape:connector-curvature="0"
   style="fill:#414042" />
			<path
   id="XMLID_276_"
   d="m 347.3,414.1 -13.5,-2.9 -69.2,-0.9 -68.5,24.4 c -6.3,2.2 -10.5,8.4 -10.7,15.4 -0.4,21.4 9.4,86.3 10.7,109.2 0.9,14.5 -0.4,57.2 -2,98 68.1,-66.2 113.3,-155.7 153.2,-243.2 z"
   inkscape:connector-curvature="0"
   style="fill:#c0968f" />
			<path
   id="XMLID_275_"
   d="m 339.2,412.4 c 0,0 -23.9,27.7 -39.7,26.5 -0.7,-0.1 -1.3,-0.1 -1.9,-0.3 -2.8,-0.7 -5.6,-1.6 -8.2,-2.8 l -1.6,-0.7 c -1,-0.5 -2,-1 -3,-1.5 -0.6,-0.3 -1.2,-0.6 -1.7,-1 -0.9,-0.5 -1.8,-1.1 -2.7,-1.6 0,0 0,0 0,0 -0.1,-0.1 -0.2,-0.1 -0.2,-0.2 -0.5,-0.3 -0.9,-0.6 -1.4,-0.9 -2.4,-1.6 -4.6,-3.2 -6.6,-4.8 -0.4,-0.3 -0.8,-0.6 -1.2,-1 -1.5,-1.3 -3,-2.5 -4.2,-3.8 -4.3,-4.1 -7,-7.4 -7.4,-7.9 v 0 c 0,0 0,0 0,0 0,0 0,0 0,0 0,0 4,-1.8 8.8,-6.9 0.1,-0.2 0.3,-0.3 0.5,-0.5 0.4,-0.5 0.9,-1 1.3,-1.5 1.8,-2.1 3.6,-4.7 5.3,-7.8 0.4,-0.7 0.8,-1.5 1.1,-2.4 0.3,-0.6 0.5,-1.3 0.7,-2 4.4,-14.5 2.2,-42.6 2.2,-42.6 l 40.1,-5.9 c 0,0 -0.2,15.6 0,29.7 0,0.6 0,1.3 0,1.9 0,0.6 0,1.3 0,2 0,0.6 0,1.2 0.1,1.7 0,1.1 0.1,2.1 0.1,3.1 0,0.5 0,1 0.1,1.5 0,0.1 0,0.2 0,0.3 0,0.3 0,0.6 0,0.9 0.1,1.4 0.1,2.7 0.2,3.8 0.1,0.8 0.1,1.6 0.2,2.3 0.1,0.7 0.2,1.5 0.4,2.2 2.7,11.3 18.7,20.2 18.7,20.2 z"
   inkscape:connector-curvature="0"
   style="fill:#fcba7c" />
			<path
   id="XMLID_274_"
   d="m 319.7,387.5 c -0.8,1.4 -1.6,2.9 -2.4,4.3 -3.9,7 -8.1,13.8 -12.3,20.6 -3.6,5.7 -7.3,11.2 -11,16.8 -1.5,2.2 -3.1,4.5 -4.6,6.7 l -1.6,-0.7 c -1,-0.5 -2,-1 -3,-1.5 -0.6,-0.3 -1.2,-0.6 -1.7,-1 -0.9,-0.5 -1.8,-1.1 -2.7,-1.7 -0.1,-0.1 -0.2,-0.1 -0.2,-0.2 -0.5,-0.3 -0.9,-0.6 -1.4,-0.9 -2.4,-1.6 -4.5,-3.2 -6.6,-4.8 -0.4,-0.3 -0.8,-0.6 -1.2,-1 -1.5,-1.3 -2.9,-2.5 -4.2,-3.8 -4.3,-4.1 -7,-7.4 -7.4,-7.9 v 0 c 0,0 0,0 0,0 0,0 0,0 0,0 0,0 4,-1.8 8.8,-6.9 0.1,-0.2 0.3,-0.3 0.5,-0.5 0.4,-0.5 0.9,-1 1.3,-1.5 1.8,-2.1 3.6,-4.7 5.3,-7.8 0.4,-0.7 0.8,-1.5 1.1,-2.4 0.3,-0.6 0.5,-1.3 0.7,-2 4.4,-14.5 2.2,-42.6 2.2,-42.6 l 40.1,-5.9 c 0,0 -0.2,15.6 0,29.7 0,0.6 0,1.3 0,1.9 0,0.6 0,1.3 0,2 0,0.6 0,1.2 0.1,1.7 0,1.1 0.1,2.1 0.1,3.1 0,0.5 0,1 0.1,1.5 0,0.1 0,0.2 0,0.3 0,0.3 0,0.6 0,0.9 -0.2,1.1 -0.1,2.4 0,3.6 z"
   inkscape:connector-curvature="0"
   style="fill:#e3a064" />
			<path
   id="XMLID_273_"
   d="m 319.9,389.8 c -0.1,-0.7 -0.1,-1.5 -0.2,-2.3 -9.3,16.8 -19.6,32.8 -30.4,48.3 2.6,1.1 5.3,2.7 8.2,2.8 17.5,0.5 41.7,-26.2 41.7,-26.2 0,0 -18.1,-10 -19.3,-22.6 z"
   inkscape:connector-curvature="0"
   style="fill:#fcba7c" />
			<path
   id="XMLID_272_"
   d="m 291.2,362.1 c 1.9,0.1 3.9,0.2 5.9,0.2 -1.2,0 -3.2,-0.1 -5.9,-0.2 z"
   inkscape:connector-curvature="0"
   style="fill:#fdc07d" />
			<path
   id="XMLID_271_"
   d="m 298.1,362.3 v 0 c 0,0 -0.2,0 -0.6,0 0.2,0 0.4,0 0.6,0 z"
   inkscape:connector-curvature="0"
   style="fill:#4b361b" />
			<path
   id="XMLID_270_"
   d="m 259.1,412.3 3.4,-12.8 c 0,0 12.5,14.2 22.2,20.4 9.7,6.1 14.8,19 14.8,19 -5.9,0.2 -21.7,0.6 -40.4,-26.6 z"
   inkscape:connector-curvature="0"
   style="fill:#c0968f" />
			<path
   id="XMLID_269_"
   d="m 339.2,412.4 c 0,0 0,0 0,0 -6.9,10.9 -13.9,17.4 -20.1,21.2 -11.2,7 -19.6,5.4 -19.6,5.4 0,0 0,0 0,0 0,-0.1 0.1,-0.2 0.1,-0.4 0.8,-2.2 5.4,-13.1 14,-18.6 0,0 0.1,0 0.2,-0.1 3,-1.9 6.4,-4.7 9.5,-7.5 1.5,-1.4 2.9,-2.7 4.3,-4 l 0.3,-0.3 c 0.8,-0.8 1.5,-1.5 2.2,-2.2 0.2,-0.2 0.4,-0.4 0.5,-0.6 2.4,-2.5 4.2,-4.5 4.9,-5.3 0.1,-0.1 0.2,-0.2 0.3,-0.4 l 2.4,9 z"
   inkscape:connector-curvature="0"
   style="fill:#c0968f" />
			<path
   id="XMLID_268_"
   d="m 259.1,410.4 -64.2,22.5 c -6.4,2.2 -10.8,8.4 -10.9,15.5 -0.4,21.4 9.6,86.6 10.9,109.5 0.6,9.3 -1.5,53.6 -4.7,110.9 24.6,-25.9 47.3,-53.7 68.8,-82.1 V 410.4 Z"
   inkscape:connector-curvature="0"
   style="fill:#e6e7e8" />
			<path
   id="XMLID_207_"
   d="m 190.3,668.7 c 24.6,-25.9 47.3,-53.7 68.8,-82.1 v 154.9 c -24.5,9.2 -49.3,17.4 -74.4,24.3 2,-33.9 3.9,-67.2 5.6,-97.1 z"
   inkscape:connector-curvature="0"
   style="fill:#e6e7e8" />
			<path
   id="XMLID_212_"
   d="m 259.1,741.5 v 275.7 c -45.8,-1.5 -84,-6.7 -89.1,-16 0,0 7.8,-120 14.7,-235.5 25.1,-6.9 49.9,-15 74.4,-24.2 z"
   inkscape:connector-curvature="0"
   style="fill:#efeff0" />
			<path
   id="XMLID_221_"
   d="m 339.2,411.3 57.5,14.8 c 6.7,1.4 11.8,7.2 12.6,14.3 2,17.1 -6.2,80.6 -8.1,117.3 -0.8,15.3 1.4,58.5 4.9,112.3 -22.3,13.4 -45.1,25.8 -68.2,37.2 z"
   inkscape:connector-curvature="0"
   style="fill:#efeff0" />
			<path
   id="XMLID_224_"
   d="m 406.1,670 c 8.6,132.1 25.1,327.7 25.1,327.7 -6.5,8.6 -45.7,14.5 -94.6,21.7 l 1.3,-312.2 C 361,695.8 383.8,683.4 406.1,670 Z"
   inkscape:connector-curvature="0"
   style="fill:#ffffff" />
			<path
   id="XMLID_265_"
   d="m 284.6,419.9 c 0,0 -2.2,5.3 -4.4,11.1 0,0 0,0 0,0 -0.3,0.7 -0.6,1.5 -0.9,2.2 -1,2.5 -1.9,5 -2.6,7 -12.2,-14.7 -17.3,-27.1 -17.7,-27.8 0,0 0,0 0,0 l 1.4,-5.9 1.9,-8 v 0 c 1.6,1.9 3.3,3.7 5,5.6 0.3,0.3 0.6,0.6 0.9,0.9 2.6,2.7 5.3,5.3 7.6,7.4 4.8,4.2 8.4,7.2 8.8,7.5 0,0 0,0 0,0 z"
   inkscape:connector-curvature="0"
   style="fill:#d9a8a0" />
			<path
   id="XMLID_264_"
   d="m 339.2,412.4 c 0,0 0,0 0,0 -0.3,0.8 -5.5,13.2 -17.7,27.9 -0.6,-1.9 -1.5,-4.3 -2.4,-6.7 -0.3,-0.7 -0.5,-1.4 -0.8,-2.1 -0.1,-0.2 -0.2,-0.5 -0.3,-0.7 -2.2,-5.6 -4.4,-10.8 -4.4,-10.8 0,0 0.1,0 0.2,-0.1 0.8,-0.6 4.6,-3.4 9.3,-7.5 1.4,-1.2 3,-2.6 4.5,-4 l 0.3,-0.3 c 0.7,-0.7 1.5,-1.4 2.2,-2.2 0.2,-0.2 0.4,-0.4 0.6,-0.6 1.7,-1.7 3.3,-3.5 4.9,-5.3 0.1,-0.1 0.2,-0.2 0.3,-0.4 l 2.4,9 z"
   inkscape:connector-curvature="0"
   style="fill:#d9a8a0" />
			<path
   id="XMLID_263_"
   d="m 309.4,432.6 c -6.4,-1.7 -13.3,-1.7 -20.6,0 l -2.1,5.6 5.6,9.8 h 13.5 l 5.7,-9.8 z"
   inkscape:connector-curvature="0"
   style="fill:#003d61" />
			<path
   d="m 288.79999,432.60001 -6.9,-6 -2.6,6.6 7.40002,4.9 z"
   id="XMLID_262_"
   inkscape:connector-curvature="0"
   style="fill:#003050" />
			<path
   d="m 309.39999,432.60001 7.30002,-5.20002 2.69998,6.9 -7.79998,3.80002"
   id="XMLID_261_"
   inkscape:connector-curvature="0"
   style="fill:#003050" />
			<path
   id="XMLID_260_"
   d="m 305.8,448 h -6.7 -6.8 l -5.9,92.1 c 7.9,-12.2 16.2,-24.5 22.9,-37.5 z"
   inkscape:connector-curvature="0"
   style="fill:#003050" />
			<path
   id="XMLID_259_"
   d="m 309.4,502.6 c -6.7,13.1 -15,25.3 -22.9,37.5 l -9,139.5 21.7,29.1 21.7,-29.1 z"
   inkscape:connector-curvature="0"
   style="fill:#003d61" />
			<g
   id="XMLID_258_">
				<path
   id="XMLID_43_"
   d="m 293.5,770.3 c -3,0 -6,0 -8.9,-0.1 -1.8,0 -3.3,-1.9 -3.3,-4.2 v -12.4 c 0,-1.3 0.5,-2.5 1.3,-3.3 0.6,-0.6 1.4,-0.9 2.1,-0.9 7.8,0.2 15.8,0.1 23.9,-0.2 0.8,0 1.5,0.3 2.2,0.9 0.8,0.8 1.3,2 1.3,3.3 v 12.4 c 0,2.3 -1.4,4.1 -3.2,4.2 -5.1,0.1 -10.2,0.3 -15.4,0.3 z m -8.8,-18.9 c -0.3,0 -0.5,0.2 -0.7,0.3 -0.4,0.4 -0.7,1.1 -0.7,1.8 V 766 c 0,1.3 0.7,2.1 1.3,2.2 8,0.2 16.1,0.1 24.2,-0.2 0.6,0 1.3,-0.9 1.3,-2.2 v -12.4 c 0,-0.8 -0.3,-1.4 -0.7,-1.8 -0.2,-0.2 -0.4,-0.3 -0.7,-0.3 -8.1,0.2 -16.2,0.3 -24,0.1 0,0 0,0 0,0 z"
   inkscape:connector-curvature="0"
   style="fill:#d1d3d4" />
			</g>
			<g
   id="XMLID_257_">
				<path
   d="m 282.29999,759.20001 h 11.8 v 1 h -11.8 z"
   id="XMLID_39_"
   inkscape:connector-curvature="0"
   style="fill:#d1d3d4" />
			</g>
			<path
   id="XMLID_256_"
   d="m 374.3,251.7 c 0,10.1 1.2,73.8 -4.3,91.6 -5.4,17.8 -42.8,39.6 -69.9,39.9 -0.7,0 -1.4,0 -2.1,0 v -69.3 c 0,0 -17,-1.5 -9,-14.2 8,-12.7 9.8,-28.7 9.8,-28.7 L 298,204 277.3,184.4 228,195.7 c 0,0 0,0 0,0 16.2,-23.8 51.3,-25.8 73.3,-26.2 22,-0.4 63.7,19.5 68.2,25.5 11.6,15.2 4.8,46.6 4.8,56.7 z"
   inkscape:connector-curvature="0"
   style="fill:#fcba7c" />
			<path
   id="XMLID_255_"
   d="m 298,313.9 v 69.3 c -0.1,0 -0.3,0 -0.4,0 -0.1,0 -0.2,0 -0.3,0 -29.3,-2.7 -68.2,-15.3 -72.8,-39.9 -5.3,-28.6 -4.4,-94.9 -4.4,-94.9 -2.3,-37.8 5.6,-49.7 7.8,-52.8 l 49.3,-11.3 20.8,19.7 0.7,67.1 c 0,0 -1.8,16 -9.8,28.7 -7.9,12.6 9.1,14.1 9.1,14.1 z"
   inkscape:connector-curvature="0"
   style="fill:#e3a064" />
			<path
   id="XMLID_254_"
   d="m 370.2,280.8 c 0,0 -0.4,-19.1 14.3,-20.2 14.7,-1.1 13.4,15.9 9.1,27.3 -4.3,11.4 -24.1,15.5 -24.1,15.5 z"
   inkscape:connector-curvature="0"
   style="fill:#fcba7c" />
			<path
   id="XMLID_253_"
   d="m 225.5,275.7 c 0,0 0.4,-19.1 -14.3,-20.2 -14.7,-1.1 -13.4,15.9 -9.1,27.3 4.3,11.4 24.1,15.5 24.1,15.5 z"
   inkscape:connector-curvature="0"
   style="fill:#e3a064" />
			<path
   d="m 268.10001,279.39999 a 6.9,8.3 0 0 1 -6.9,8.3 6.9,8.3 0 0 1 -6.9,-8.3 6.9,8.3 0 0 1 6.9,-8.3 6.9,8.3 0 0 1 6.9,8.3 z"
   id="XMLID_252_"
   inkscape:connector-curvature="0" />
			<path
   d="m 265.99999,274.70001 a 2.2,2.7 0 0 1 -2.2,2.7 2.2,2.7 0 0 1 -2.2,-2.7 2.2,2.7 0 0 1 2.2,-2.7 2.2,2.7 0 0 1 2.2,2.7 z"
   id="XMLID_251_"
   inkscape:connector-curvature="0"
   style="fill:#ffffff" />
			<path
   d="m 344.60001,279.39999 a 6.9,8.3 0 0 1 -6.9,8.3 6.9,8.3 0 0 1 -6.9,-8.3 6.9,8.3 0 0 1 6.9,-8.3 6.9,8.3 0 0 1 6.9,8.3 z"
   id="XMLID_250_"
   inkscape:connector-curvature="0" />
			<path
   d="m 342.49999,274.70001 a 2.2,2.7 0 0 1 -2.2,2.7 2.2,2.7 0 0 1 -2.2,-2.7 2.2,2.7 0 0 1 2.2,-2.7 2.2,2.7 0 0 1 2.2,2.7 z"
   id="XMLID_249_"
   inkscape:connector-curvature="0"
   style="fill:#ffffff" />
			<path
   id="XMLID_247_"
   d="m 298.8,271 c 0,0 0.8,10.9 -5,25.2 -2.8,6.9 -3.5,14.4 -0.9,15.4 2.6,1 8,1.8 8,1.8 0,0 -15,2.7 -14.2,-5.4 1,-9.7 8.2,-16.3 12.1,-37 z"
   inkscape:connector-curvature="0"
   style="fill:#d58958" />
			<path
   id="XMLID_246_"
   d="m 274.3,247.7 c -5.9,0.1 -20.1,1.2 -37.7,7.5 -1.6,0.6 -3.4,-0.3 -3.9,-1.9 v 0 c -0.4,-1.3 0.1,-2.8 1.4,-3.5 4.8,-2.8 18.3,-9.5 39.9,-11.1 1.8,-0.1 3.3,1.3 3.3,3 v 2.9 c 0,1.8 -1.3,3.1 -3,3.1 z"
   inkscape:connector-curvature="0" />
			<path
   id="XMLID_245_"
   d="m 320.9,247.7 c 5.9,0.1 20.1,1.2 37.7,7.5 1.6,0.6 3.4,-0.3 3.9,-1.9 v 0 c 0.4,-1.3 -0.1,-2.8 -1.4,-3.5 -4.8,-2.8 -18.3,-9.5 -39.9,-11.1 -1.8,-0.1 -3.3,1.3 -3.3,3 v 2.9 c 0.1,1.8 1.4,3.1 3,3.1 z"
   inkscape:connector-curvature="0" />
			<path
   id="XMLID_3_"
   d="m 210.1,189.3 c 12.1,-39.7 95.7,-47.5 116.6,-48.1 59.9,-1.8 45.2,40.7 45.2,40.7 0,0 0.8,0.2 2.1,0.6 -1,0.4 -2,0.4 -2.8,-0.4 0.8,0.8 11.7,9.9 15.3,17.1 0,14.7 -12.5,96.8 -12.5,96.8 l -3.7,-68.7 c -0.7,-13.1 -11.9,-23.2 -25,-22.5 -16.6,0.9 -32.8,10 -47.9,9.8 -16.9,-0.2 -31.7,-7.9 -47.3,-9.7 -13.6,-1.6 -25.7,8.9 -26.3,22.6 l -3.1,68.5 c 0,0 -12.1,-85.9 -12.1,-96.8 0,-3.4 0.6,-6.8 1.5,-9.9 z"
   inkscape:connector-curvature="0" />
			<path
   id="XMLID_242_"
   d="m 259.1,410.4 c 0,2 -26.1,48.2 -26.1,48.2 l 13.1,13.3 -17.3,16.4 27,113.8 c 1.1,-1.8 2.2,-3.7 3.4,-5.5 z"
   inkscape:connector-curvature="0"
   style="fill:#f1f2f2" />
			<path
   id="XMLID_241_"
   d="m 259.1,596.5 c -1.2,1.8 -2.3,3.7 -3.4,5.5 l 3.4,14.2 z"
   inkscape:connector-curvature="0"
   style="fill:#ffffff" />
			<path
   id="XMLID_240_"
   d="m 339.2,410.4 c 0,2 26.1,48.2 26.1,48.2 l -13.1,13.3 17.3,16.4 -30.3,128 z"
   inkscape:connector-curvature="0"
   style="fill:#ffffff" />
			<g
   id="XMLID_231_">
				<path
   id="XMLID_232_"
   d="m 234.1,632.2 -1.2,-6.9 4.4,-0.7 c 13.4,-2.2 24.4,-14.9 27.6,-31.4 4.1,-21.5 7.9,-52.5 2.9,-77.6 l 6.9,-1.4 c 5.2,26.2 1.3,58.1 -2.9,80.3 -3.7,19.7 -16.8,34.3 -33.3,37.1 z"
   inkscape:connector-curvature="0"
   style="fill:#bcbec0" />
			</g>
			<g
   id="XMLID_227_">
				<path
   id="XMLID_228_"
   d="m 228,635.2 12.9,-2.2 c 0.9,-0.2 1.5,-1 1.3,-1.9 l -1.3,-7.4 c -0.2,-0.9 -1,-1.5 -1.9,-1.3 l -12.9,2.2 c -0.9,0.2 -1.5,1 -1.3,1.9 l 1.3,7.4 c 0.1,0.8 1,1.4 1.9,1.3 z"
   inkscape:connector-curvature="0"
   style="fill:#003050" />
			</g>
			<path
   id="XMLID_225_"
   d="m 276.8,391.1 c -0.2,0.7 -0.4,1.4 -0.7,2 -11,0.3 -13.2,3.5 -13.6,5.3 v 0 l -1.9,8 c -8.2,3.4 -14.9,8.2 -20.2,14.3 -17.3,20 -13.6,47.9 -13.5,48.1 0.4,2.9 -1.6,5.6 -4.5,6 -0.2,0 -0.5,0.1 -0.8,0.1 -2.6,0 -4.8,-1.9 -5.2,-4.5 -0.2,-1.3 -4.4,-33 16,-56.5 10.5,-12.2 25.3,-19.8 44.4,-22.8 z"
   inkscape:connector-curvature="0"
   style="fill:#003050" />
			<path
   id="XMLID_223_"
   d="m 377.8,470.3 c -0.4,2.6 -2.6,4.5 -5.2,4.5 -0.2,0 -0.5,0 -0.7,-0.1 -2.9,-0.4 -4.9,-3.1 -4.5,-6 0.1,-0.4 3.6,-28.4 -13.6,-48.2 -4.3,-4.9 -9.5,-8.9 -15.6,-12.1 l -2.4,-9 c -0.7,-2.5 -2.6,-4.3 -5.4,-5.5 12.9,4 23.4,10.5 31.4,19.7 20.4,23.8 16.2,55.4 16,56.7 z"
   inkscape:connector-curvature="0"
   style="fill:#003050" />
			<path
   d="m 377.79999,470.29999 -5,51.60003 h -11.19998 l 5.79998,-53.00003 z"
   id="XMLID_222_"
   inkscape:connector-curvature="0"
   style="fill:#003050" />
			<path
   d="m 385.29999,527.29999 a 19,19 0 0 1 -19,19 19,19 0 0 1 -19,-19 19,19 0 0 1 19,-19 19,19 0 0 1 19,19 z"
   id="XMLID_220_"
   inkscape:connector-curvature="0"
   style="fill:#bcbec0" />
			<path
   d="m 375.89999,527.29999 a 9.6,9.6 0 0 1 -9.6,9.6 9.6,9.6 0 0 1 -9.6,-9.6 9.6,9.6 0 0 1 9.6,-9.6 9.6,9.6 0 0 1 9.6,9.6 z"
   id="XMLID_219_"
   inkscape:connector-curvature="0"
   style="fill:#e6e7e8" />
			<path
   id="XMLID_210_"
   d="m 234.1,632.2 c 0,0 2.4,0.4 6.5,1.1 16,2.6 58.6,9.2 97.6,13.7 27.7,3.1 53.5,5.2 66.7,3.8 1.3,-0.1 2.5,-0.3 3.6,-0.5 16.8,-3.3 27.4,-7.2 32.2,-17 2.2,-4.4 3.2,-9.9 3,-17.1 -0.5,-21.7 -4.8,-131.6 -34.2,-172.7 1,20.5 -6.5,79.5 -8.3,114.4 0,0.5 0,1.1 -0.1,1.7 0,0.3 0,0.6 0,0.9 0,0 -2,7.7 1.2,45.1 v 0.1 c -16.6,2 -40.1,1.6 -64,0.1 -46.6,-2.9 -94.4,-9.6 -94.4,-9.6 z"
   inkscape:connector-curvature="0"
   style="fill:#ffffff" />
			<path
   id="XMLID_198_"
   d="m 328.8,330.4 c -19.2,11.2 -39.9,12.4 -62.7,0 21.4,5.9 42.3,5.8 62.7,0 z"
   inkscape:connector-curvature="0"
   style="fill:#d58958" />
			<path
   id="XMLID_217_"
   d="m 306.6,349.4 h -17.2 c 0,0 5.4,6.7 17.2,0 z"
   inkscape:connector-curvature="0"
   style="fill:#d58958" />
			<path
   id="XMLID_317_"
   d="m 402.3,605.5 c -1,-20.3 -1.5,-36.1 -1.2,-45.1 0,0 -2,7.7 1.2,45.1 z"
   inkscape:connector-curvature="0"
   style="fill:#efeff0" />
			<path
   id="XMLID_213_"
   d="m 338.1,605.2 c 0,0.2 0.1,0.4 0.1,0.6 h 0.1 c 12.7,0.8 25.3,1.3 36.8,1.2 -1,-0.3 -1.9,-0.7 -2.9,-1.1 -5.9,-2.2 -11.7,-4.6 -17.7,-6.6 -0.6,-0.2 -1.2,-0.4 -1.8,-0.6 -0.6,-0.2 -1.2,-0.4 -1.8,-0.6 -2.9,-0.8 -5.8,-1.6 -8.7,-2.1 l -0.4,7.2 c -1.2,0.8 -2.5,1.4 -3.7,2 z"
   inkscape:connector-curvature="0"
   style="fill:#e3a064" />
			<path
   id="XMLID_214_"
   d="m 332.6,588.9 c 1.4,3.1 3.4,8.2 5.5,16.3 1.3,-0.6 2.5,-1.2 3.8,-1.8 3.1,-1.5 6.2,-3 9.3,-4.6 0,0 0,-0.1 0,-0.1 0,-0.1 -0.1,-0.2 -0.1,-0.4 0.6,0.2 1.2,0.4 1.8,0.6 0.6,0.2 1.2,0.4 1.8,0.6 6,2 11.9,4.4 17.7,6.6 1,0.4 1.9,0.7 2.9,1.1 0,0 0,0 0,0 0.1,0 0.2,0.1 0.4,0.1 1.2,0.4 2.3,0.8 3.5,1.2 -0.4,-0.4 -0.8,-0.9 -1.2,-1.3 -6.8,-7.2 -15.3,-14.9 -22.8,-18.6 -7,-3.4 -12.1,-3.6 -12.1,-3.6 -3.8,1.2 -7.2,2.6 -10.5,3.9 z"
   inkscape:connector-curvature="0"
   style="fill:#fcba7c" />
			<path
   id="XMLID_211_"
   d="m 375.1,607 c 0.1,0 0.2,0.1 0.4,0.1 1.2,0.4 2.3,0.8 3.5,1.2 -0.4,-0.4 -0.8,-0.9 -1.2,-1.3 -0.9,0 -1.8,0 -2.7,0 z"
   inkscape:connector-curvature="0"
   style="fill:#ffffff" />
			<path
   id="XMLID_208_"
   d="m 240.6,633.3 c 16,2.6 58.6,9.2 97.6,13.7 27.7,3.1 53.5,5.2 66.7,3.8 1.3,-0.1 2.5,-0.3 3.6,-0.5 16.8,-3.3 27.4,-7.2 32.2,-17 -21.8,2.1 -76.9,6.2 -110.3,-1 8.2,-1.7 8.8,-3.5 8.8,-3.5 l -2.6,-14.1 z"
   inkscape:connector-curvature="0"
   style="fill:#e6e7e8" />
			<path
   id="XMLID_218_"
   d="m 148.6,619.9 c 3,17.6 13.5,25.1 42.9,25.5 3,0 6.1,0 9.5,-0.1 3.3,-0.1 7.1,-0.3 11.1,-0.6 40.1,-3.2 109.8,-16.7 129.2,-24.7 -1,-5.5 -2.1,-10.1 -3.1,-14.1 -4.2,-16.3 -7.8,-21 -7.8,-21 0,0 -36.1,8.5 -80.3,13.6 -18.1,2.1 -37.5,3.5 -56.4,3.6 1,-23.1 1.5,-39 1.2,-44.2 C 193.5,535 183.5,469.8 184,448.4 155.1,474.1 145.4,600.5 148.6,619.9 Z"
   inkscape:connector-curvature="0"
   style="fill:#ffffff" />
			<path
   id="XMLID_209_"
   d="m 148.6,619.9 c 3,17.6 13.5,25.1 42.9,25.5 3,0 6.1,0 9.5,-0.1 3.3,-0.1 7.1,-0.3 11.1,-0.6 40.1,-3.2 109.8,-16.7 129.2,-24.7 -1,-5.5 -2.1,-10.1 -3.1,-14.1 -4,0.8 -116,22.5 -150.2,18.1 5.7,-21.9 5.7,-21.9 5.7,-21.9 1,-23.1 1.5,-39 1.2,-44.2 C 193.5,535 183.5,469.8 184,448.4 155.1,474.1 145.4,600.5 148.6,619.9 Z"
   inkscape:connector-curvature="0"
   style="fill:#efeff0" />
			<g
   id="XMLID_233_">
				<path
   id="XMLID_234_"
   d="m 271.2,520.1 c -2.5,0 -4.7,-1.7 -5.2,-4.2 -5.5,-27.6 -20.1,-41 -44.5,-41 -24.5,0 -39,13.4 -44.5,41 -0.6,2.9 -3.3,4.7 -6.2,4.1 -2.9,-0.6 -4.7,-3.3 -4.1,-6.2 6.5,-32.3 25.4,-49.4 54.9,-49.4 29.5,0 48.4,17.1 54.9,49.4 0.6,2.9 -1.3,5.6 -4.1,6.2 -0.5,0.1 -0.8,0.1 -1.2,0.1 z"
   inkscape:connector-curvature="0"
   style="fill:#003050" />
			</g>
			<g
   id="XMLID_235_">
				<path
   id="XMLID_236_"
   d="m 209,632.2 -4.4,-0.7 c -16.5,-2.8 -29.6,-17.3 -33.3,-37.1 -4.2,-22.2 -8.1,-54.1 -2.9,-80.3 l 6.9,1.4 c -5,25.1 -1.2,56 2.9,77.6 3.1,16.5 14.2,29.2 27.6,31.4 l 4.4,0.7 z"
   inkscape:connector-curvature="0"
   style="fill:#bcbec0" />
			</g>
			<g
   id="XMLID_229_">
				<path
   id="XMLID_230_"
   d="M 215.1,635.2 202.2,633 c -0.9,-0.2 -1.5,-1 -1.3,-1.9 l 1.3,-7.4 c 0.2,-0.9 1,-1.5 1.9,-1.3 l 12.9,2.2 c 0.9,0.2 1.5,1 1.3,1.9 l -1.3,7.4 c -0.2,0.8 -1,1.4 -1.9,1.3 z"
   inkscape:connector-curvature="0"
   style="fill:#003050" />
			</g>
			<path
   id="XMLID_322_"
   d="m 167.8,596.5 23.9,0.3 2.1,3 1.6,2.2 c 6.7,-0.1 13.4,-0.3 20.2,-0.7 -4,-1.4 -7.9,-3.2 -11.5,-5.6 -3.1,-2.3 -6.5,-3.7 -9.9,-4.3 -8.2,-1.4 -17.2,1.1 -26.4,3.2 z"
   inkscape:connector-curvature="0"
   style="fill:#e3a064" />
			<path
   id="XMLID_320_"
   d="m 180.1,572.6 -16.7,5.2 0.2,5.5 15.2,-1.2 11.9,3.4 v 0.9 l -22.8,4.7 v 3.6 c 9.2,-2.1 18.2,-4.6 26.4,-3.2 3.5,0.6 6.8,1.9 9.9,4.3 3.6,2.4 7.5,4.2 11.5,5.6 8.7,-0.5 17.4,-1.2 25.8,-2 -2.8,-1 -5.6,-2 -8.4,-3.2 l -14.8,-26 -5.9,-9.6 -16,-8.1 -1.9,-0.5 -17.1,-4.5 -2,5.1 11.6,6 4.1,4.1 v 0.2 l -10.7,-3 -19.1,-0.6 -1.8,5.2 20,4.7 9.2,3.9 z"
   inkscape:connector-curvature="0"
   style="fill:#fcba7c" />
		</g>
	</g>
   </svg>