<?xml version="1.0" encoding="utf-8"?>
<!-- Generator: Adobe Illustrator 18.1.1, SVG Export Plug-In . SVG Version: 6.00 Build 0)  -->
<svg version="1.1"
	 id="Layer_1" xmlns:dc="http://purl.org/dc/elements/1.1/" xmlns:inkscape="http://www.inkscape.org/namespaces/inkscape" xmlns:svg="http://www.w3.org/2000/svg" xmlns:sodipodi="http://sodipodi.sourceforge.net/DTD/sodipodi-0.dtd" xmlns:rdf="http://www.w3.org/1999/02/22-rdf-syntax-ns#" xmlns:cc="http://creativecommons.org/ns#" sodipodi:docname="men_mooth.svg" inkscape:version="0.92.3 (2405546, 2018-03-11)"
	 xmlns="http://www.w3.org/2000/svg" xmlns:xlink="http://www.w3.org/1999/xlink" x="0px" y="0px" viewBox="569 -94 1911 694"
	 enable-background="new 569 -94 1911 694" xml:space="preserve">
<sodipodi:namedview  id="namedview4315" bordercolor="#666666" inkscape:cx="875" gridtolerance="10" inkscape:cy="633.32724" showgrid="false" inkscape:zoom="0.55816327" pagecolor="#ffffff" borderopacity="1" guidetolerance="10" objecttolerance="10" inkscape:pageshadow="2" inkscape:window-width="1366" inkscape:window-height="716" inkscape:window-y="-8" inkscape:pageopacity="0" inkscape:window-x="-8" inkscape:current-layer="Layer_1" inkscape:window-maximized="1">
	</sodipodi:namedview>
<g>
	
		<linearGradient id="rect4022_1_" gradientUnits="userSpaceOnUse" x1="1524.4954" y1="192.0098" x2="1524.4954" y2="886" gradientTransform="matrix(1 0 0 -1 0 792)">
		<stop  offset="0" style="stop-color:#9900CC"/>
		<stop  offset="1" style="stop-color:#021A40"/>
	</linearGradient>
	<rect id="rect4022" x="569" y="-94" fill="url(#rect4022_1_)" width="1911" height="694"/>
	<g id="g4116">
		<path id="path4024" fill="#FFFFFF" d="M1704.8,45.7c2.6,0,4.7,1.4,4.7,3c0,1.7-2.1,3-4.7,3s-4.7-1.3-4.7-3
			C1700.1,47.1,1702.3,45.7,1704.8,45.7L1704.8,45.7z"/>
		<path id="path4026" fill="#FFFFFF" d="M1010.8-54.6c2.6,0,4.7,1.4,4.7,3c0,1.6-2.2,3-4.7,3c-2.5,0-4.7-1.3-4.7-3
			C1006.1-53.2,1008.2-54.6,1010.8-54.6L1010.8-54.6z"/>
		<path id="path4028" fill="#FFFFFF" d="M667,64.3c2.6,0,4.7,1.3,4.7,3c0,1.7-2.1,3-4.7,3s-4.7-1.3-4.7-3
			C662.3,65.7,664.3,64.3,667,64.3L667,64.3z"/>
		<path id="path4030" fill="#FFFFFF" d="M1229.2,146.5c2.6,0,4.7,1.3,4.7,3s-2.2,3-4.7,3c-2.6,0-4.7-1.3-4.7-3
			C1224.5,147.9,1226.6,146.5,1229.2,146.5L1229.2,146.5z"/>
		<path id="path4032" fill="#FFFFFF" d="M1946.6-10.9c2.6,0,4.7,1.3,4.7,3s-2.1,3-4.7,3s-4.7-1.3-4.7-3S1943.9-10.9,1946.6-10.9
			L1946.6-10.9z"/>
		<path id="path4034" fill="#FFFFFF" d="M2221.6,139.5c2.6,0,4.7,1.3,4.7,3c0,1.7-2.1,3-4.7,3c-2.6,0-4.7-1.3-4.7-3
			C2216.8,140.9,2219,139.5,2221.6,139.5L2221.6,139.5z"/>
		<path id="path4036" fill="#FFFFFF" d="M1286.5,177.5c1.3,0,2.4,0.7,2.4,1.6s-1,1.6-2.4,1.6c-1.3,0-2.3-0.7-2.3-1.6
			S1285.2,177.5,1286.5,177.5L1286.5,177.5z"/>
		<path id="path4038" fill="#FFFFFF" d="M1411.3,70.6c1.3,0,2.3,0.6,2.3,1.5c0,0.8-1,1.6-2.3,1.6c-1.3,0-2.4-0.6-2.4-1.6
			C1408.9,71.3,1409.9,70.6,1411.3,70.6L1411.3,70.6z"/>
		<path id="path4040" fill="#FFFFFF" d="M1226.5,5.1c1.3,0,2.3,0.7,2.3,1.6s-1,1.5-2.3,1.5s-2.4-0.6-2.4-1.5
			C1224.2,5.7,1225.3,5.1,1226.5,5.1L1226.5,5.1z"/>
		<path id="path4042" fill="#FFFFFF" d="M1118.6,98.6c1.3,0,2.4,0.6,2.4,1.5s-1.1,1.6-2.4,1.6s-2.3-0.7-2.3-1.6
			S1117.3,98.6,1118.6,98.6L1118.6,98.6z"/>
		<path id="path4044" fill="#FFFFFF" d="M865.1-22.1c1.3,0,2.4,0.7,2.4,1.6c0,0.8-1.1,1.6-2.4,1.6s-2.4-0.7-2.4-1.6
			C862.7-21.3,863.8-22.1,865.1-22.1L865.1-22.1z"/>
		<path id="path4046" fill="#FFFFFF" d="M650.8-58.8c1.3,0,2.4,0.6,2.4,1.5c0,0.8-1.1,1.6-2.4,1.6s-2.4-0.7-2.4-1.6
			C648.4-58.1,649.5-58.8,650.8-58.8L650.8-58.8z"/>
		<path id="path4048" fill="#FFFFFF" d="M801.8,90.8c1.3,0,2.4,0.7,2.4,1.6s-1.1,1.6-2.4,1.6c-1.3,0-2.4-0.7-2.4-1.6
			S800.5,90.8,801.8,90.8L801.8,90.8z"/>
		<path id="path4050" fill="#FFFFFF" d="M618.5,159.8c1.3,0,2.4,0.7,2.4,1.6s-1.1,1.6-2.4,1.6c-1.3,0-2.3-0.7-2.3-1.6
			S617.2,159.8,618.5,159.8L618.5,159.8z"/>
		<path id="path4052" fill="#FFFFFF" d="M725.9,215.5c1.3,0,2.3,0.7,2.3,1.6s-1,1.5-2.3,1.5c-1.3,0-2.4-0.6-2.4-1.5
			C723.6,216.2,724.7,215.5,725.9,215.5L725.9,215.5z"/>
		<path id="path4054" fill="#FFFFFF" d="M1284.1-52.9c1.3,0,2.3,0.6,2.3,1.5c0,0.8-1,1.6-2.3,1.6c-1.3,0-2.4-0.6-2.4-1.6
			C1281.9-52.2,1282.8-52.9,1284.1-52.9L1284.1-52.9z"/>
		<path id="path4056" fill="#FFFFFF" d="M1607.7,180.6c1.3,0,2.4,0.7,2.4,1.6s-1.1,1.5-2.4,1.5s-2.3-0.6-2.3-1.5
			S1606.4,180.6,1607.7,180.6L1607.7,180.6z"/>
		<path id="path4058" fill="#FFFFFF" d="M1392,249.7c1.3,0,2.4,0.6,2.4,1.6c0,0.8-1.1,1.5-2.4,1.5s-2.4-0.6-2.4-1.5
			C1389.6,250.3,1390.7,249.7,1392,249.7L1392,249.7z"/>
		<path id="path4060" fill="#FFFFFF" d="M1849.1,217.3c1.3,0,2.4,0.6,2.4,1.5s-1.1,1.6-2.4,1.6s-2.4-0.7-2.4-1.6
			S1847.8,217.3,1849.1,217.3L1849.1,217.3z"/>
		<path id="path4062" fill="#FFFFFF" d="M1994.7,118.9c1.3,0,2.4,0.6,2.4,1.6c0,0.8-1.1,1.5-2.4,1.5c-1.3,0-2.4-0.6-2.4-1.5
			C1992.3,119.6,1993.4,118.9,1994.7,118.9L1994.7,118.9z"/>
		<path id="path4064" fill="#FFFFFF" d="M2388.4,220.3c1.3,0,2.4,0.7,2.4,1.6s-1.1,1.6-2.4,1.6c-1.3,0-2.4-0.7-2.4-1.6
			S2387.1,220.3,2388.4,220.3L2388.4,220.3z"/>
		<path id="path4066" fill="#FFFFFF" d="M2405.7,122.8c0.8,0,1.4,0.4,1.4,0.9c0,0.5-0.7,0.9-1.4,0.9c-0.8,0-1.4-0.4-1.4-0.9
			C2404.3,123.3,2405,122.8,2405.7,122.8L2405.7,122.8z"/>
		<path id="path4068" fill="#FFFFFF" d="M2420.8-12.8c0.8,0,1.4,0.4,1.4,0.9c0,0.5-0.7,0.9-1.4,0.9c-0.8,0-1.4-0.4-1.4-0.9
			C2419.4-12.3,2420-12.8,2420.8-12.8L2420.8-12.8z"/>
		<path id="path4070" fill="#FFFFFF" d="M2321.1-58.2c0.8,0,1.4,0.4,1.4,0.9s-0.7,0.9-1.4,0.9c-0.8,0-1.4-0.4-1.4-0.9
			C2319.6-57.9,2320.2-58.2,2321.1-58.2L2321.1-58.2z"/>
		<path id="path4072" fill="#FFFFFF" d="M2015,14.3c0.8,0,1.4,0.4,1.4,0.9c0,0.5-0.7,0.9-1.4,0.9s-1.4-0.4-1.4-0.9
			C2013.6,14.7,2014.3,14.3,2015,14.3L2015,14.3z"/>
		<path id="path4074" fill="#FFFFFF" d="M1812.8-49.5c0.8,0,1.4,0.4,1.4,0.9c0,0.5-0.7,0.9-1.4,0.9c-0.8,0-1.4-0.4-1.4-0.9
			C1811.3-49.1,1811.9-49.5,1812.8-49.5L1812.8-49.5z"/>
		<path id="path4076" fill="#FFFFFF" d="M1768.2,46.6c0.8,0,1.4,0.4,1.4,0.9s-0.7,0.9-1.4,0.9s-1.4-0.4-1.4-0.9
			C1766.8,47.1,1767.5,46.6,1768.2,46.6L1768.2,46.6z"/>
		<path id="path4078" fill="#FFFFFF" d="M1861.3,136.7c0.8,0,1.4,0.4,1.4,0.9s-0.7,0.9-1.4,0.9c-0.8,0-1.4-0.4-1.4-0.9
			S1860.5,136.7,1861.3,136.7L1861.3,136.7z"/>
		<path id="path4080" fill="#FFFFFF" d="M1752.1,219.8c0.8,0,1.4,0.4,1.4,0.9c0,0.5-0.7,0.9-1.4,0.9c-0.8,0-1.4-0.4-1.4-0.9
			S1751.3,219.8,1752.1,219.8L1752.1,219.8z"/>
		<path id="path4082" fill="#FFFFFF" d="M1888.1,309.8c0.8,0,1.4,0.4,1.4,0.9s-0.7,0.9-1.4,0.9c-0.8,0-1.4-0.4-1.4-0.9
			S1887.4,309.8,1888.1,309.8L1888.1,309.8z"/>
		<path id="path4084" fill="#FFFFFF" d="M2069,217.1c0.8,0,1.4,0.4,1.4,0.9c0,0.5-0.7,0.9-1.4,0.9c-0.8,0-1.4-0.4-1.4-0.9
			S2068.2,217.1,2069,217.1L2069,217.1z"/>
		<path id="path4086" fill="#FFFFFF" d="M1606.4,98.3c0.8,0,1.4,0.4,1.4,0.9c0,0.5-0.7,0.9-1.4,0.9s-1.4-0.4-1.4-0.9
			S1605.6,98.3,1606.4,98.3L1606.4,98.3z"/>
		<path id="path4088" fill="#FFFFFF" d="M1398.8,192.7c0.8,0,1.4,0.4,1.4,0.9c0,0.5-0.7,0.9-1.4,0.9s-1.4-0.4-1.4-0.9
			S1398,192.7,1398.8,192.7L1398.8,192.7z"/>
		<path id="path4090" fill="#FFFFFF" d="M1148.1,224.2c0.8,0,1.4,0.4,1.4,0.9c0,0.5-0.7,0.9-1.4,0.9s-1.4-0.4-1.4-0.9
			C1146.6,224.6,1147.2,224.2,1148.1,224.2L1148.1,224.2z"/>
		<path id="path4092" fill="#FFFFFF" d="M1145.4,157.7c0.8,0,1.4,0.4,1.4,0.9c0,0.5-0.7,0.9-1.4,0.9s-1.4-0.4-1.4-0.9
			C1143.9,158.1,1144.6,157.7,1145.4,157.7L1145.4,157.7z"/>
		<path id="path4094" fill="#FFFFFF" d="M1266.7,63.3c0.8,0,1.4,0.4,1.4,0.9s-0.7,0.9-1.4,0.9c-0.8,0-1.4-0.4-1.4-0.9
			C1265.3,63.7,1265.9,63.3,1266.7,63.3L1266.7,63.3z"/>
		<path id="path4096" fill="#FFFFFF" d="M1040.2,19.5c0.8,0,1.4,0.4,1.4,0.9s-0.7,0.9-1.4,0.9s-1.4-0.4-1.4-0.9
			C1038.8,19.9,1039.3,19.5,1040.2,19.5L1040.2,19.5z"/>
		<path id="path4098" fill="#FFFFFF" d="M754.3,0.3c0.8,0,1.4,0.4,1.4,0.9s-0.7,0.9-1.4,0.9s-1.4-0.4-1.4-0.9S753.5,0.3,754.3,0.3
			L754.3,0.3z"/>
		<path id="path4100" fill="#FFFFFF" d="M608.7,37c0.8,0,1.4,0.4,1.4,0.9s-0.7,0.9-1.4,0.9s-1.4-0.4-1.4-0.9
			C607.2,37.4,607.9,37,608.7,37L608.7,37z"/>
		<path id="path4102" fill="#FFFFFF" d="M794.7,192.7c0.8,0,1.4,0.4,1.4,0.9c0,0.5-0.7,0.9-1.4,0.9c-0.8,0-1.4-0.4-1.4-0.9
			C793.4,193.1,794,192.7,794.7,192.7L794.7,192.7z"/>
		<path id="path4104" fill="#FFFFFF" d="M686.9,276.6c0.8,0,1.4,0.4,1.4,0.9c0,0.5-0.7,0.9-1.4,0.9s-1.4-0.4-1.4-0.9
			C685.4,277.1,686.1,276.6,686.9,276.6L686.9,276.6z"/>
		<path id="path4106" fill="#FFFFFF" d="M786.6-53.9c0.8,0,1.4,0.4,1.4,0.9c0,0.5-0.7,0.9-1.4,0.9c-0.8,0-1.4-0.4-1.4-0.9
			C785.2-53.5,785.9-53.9,786.6-53.9L786.6-53.9z"/>
		<path id="path4108" fill="#FFFFFF" d="M1466.2-39.9c0.8,0,1.4,0.4,1.4,0.9c0,0.5-0.7,0.9-1.4,0.9s-1.4-0.4-1.4-0.9
			C1464.8-39.5,1465.4-39.9,1466.2-39.9L1466.2-39.9z"/>
		<path id="path4110" fill="#FFFFFF" d="M1625.3-66.2c0.8,0,1.4,0.4,1.4,0.9s-0.7,0.9-1.4,0.9s-1.4-0.4-1.4-0.9
			S1624.5-66.2,1625.3-66.2L1625.3-66.2z"/>
		<path id="path4112" fill="#FFFFFF" d="M2188.9,75.5c0.8,0,1.4,0.4,1.4,0.9s-0.7,0.9-1.4,0.9s-1.4-0.4-1.4-0.9
			S2188.1,75.5,2188.9,75.5L2188.9,75.5z"/>
		<path id="path4114" fill="#FFFFFF" d="M2121.5-45.1c0.8,0,1.4,0.4,1.4,0.9c0,0.5-0.7,0.9-1.4,0.9c-0.8,0-1.4-0.4-1.4-0.9
			C2120.1-44.7,2120.7-45.1,2121.5-45.1L2121.5-45.1z"/>
	</g>
	<g id="g4130">
		<path id="path4118" fill="#486C6C" d="M1559.8-44.5c27.2,0,49.1,14.3,49.1,31.9s-22.1,31.9-49.1,31.9s-49.2-14.3-49.2-31.9
			C1510.5-30.3,1532.6-44.5,1559.8-44.5L1559.8-44.5z"/>
		<path id="path4120" fill="#669999" d="M1559.8-44.5c27.2,0,49.1,14.3,49.1,31.9c0,6.4-2.9,12.3-7.9,17.3c-7.1,2.5-15.2,4-23.8,4
			c-27.2,0-49.1-14.3-49.1-31.9c0-6.4,2.9-12.3,7.9-17.3C1543-43.1,1551.1-44.5,1559.8-44.5L1559.8-44.5z"/>
		<path id="path4122" fill="#54A9A9" d="M1559.8-44.5c14.6,0,27.8,4.2,36.9,10.8c-22.3-0.6-44.6-2.1-66.7-4.2
			C1538.1-42.1,1548.5-44.5,1559.8-44.5L1559.8-44.5z M1608.7-15.8c0.1,1.1,0.2,2.1,0.2,3.2c0,3.8-1,7.5-2.9,10.9
			c-31.2-0.1-62.8-1.9-94.7-5.3c-0.5-1.8-0.8-3.7-0.8-5.5c0-7.6,4.1-14.7,11-20.2C1549.5-25,1578.7-19.6,1608.7-15.8L1608.7-15.8z
			 M1587.8,13.6c-8,3.6-17.7,5.7-28.2,5.7c-20,0-37.2-7.7-45-18.8C1538.8,5.9,1563.2,10.2,1587.8,13.6L1587.8,13.6z"/>
		<path id="path4124" fill="#99CCCC" d="M1559.8-44.5c14.6,0,27.8,4.2,36.9,10.8c-21.1-0.6-42.2-1.9-63.3-3.9c0.8-1,1.6-2,2.6-2.9
			C1543-43.1,1551.1-44.5,1559.8-44.5L1559.8-44.5z M1537.3-4.6c-5.8-5.2-9.2-11.7-9.2-18.6c0-2.5,0.4-5.1,1.3-7.4
			c25.6,6.7,52.1,11.5,79.3,14.9c0.1,1.1,0.2,2.1,0.2,3.2c0,3.8-1,7.5-2.9,10.9C1583.2-1.9,1560.3-2.8,1537.3-4.6L1537.3-4.6z"/>
		<path id="path4126" fill="#244848" d="M1598.6-32.1c2,1.6,3.7,3.5,5.2,5.4c-28.4,0.8-56.8-0.4-85.2-3.5c4.9-4.8,11.8-8.7,20-11.3
			C1558.7-36.9,1578.7-34,1598.6-32.1L1598.6-32.1z M1608.9-12.3c0,1.8-0.2,3.5-0.8,5.3c-32,1.6-64.4,0.6-97.5-3.1
			c-0.1-0.8-0.1-1.6-0.1-2.4c0-5.4,2.1-10.5,5.7-14.9C1545.4-18.9,1576.5-14.4,1608.9-12.3L1608.9-12.3z M1598.5,7
			c-1.9,1.6-3.9,3-6.2,4.3c-22.2,0.6-44.3,0.4-66.5-0.8c-7.1-4.5-12.2-10.3-14.3-16.8C1539.7,0.5,1568.7,4.9,1598.5,7L1598.5,7z
			 M1572.1,18.3c-3.9,0.6-8.2,1-12.4,1c-9,0-17.3-1.6-24.5-4.2C1547.4,16.5,1559.8,17.7,1572.1,18.3L1572.1,18.3z"/>
		<path id="path4128" fill="#336666" d="M1598.6-32.1c2,1.6,3.7,3.5,5.2,5.4c-25,0.8-50-0.1-75-2.4c1.2-4.1,3.6-8,7-11.4
			c0.9-0.4,1.7-0.6,2.7-0.9C1558.7-36.9,1578.7-34,1598.6-32.1L1598.6-32.1z M1594.4,6.7c-5.4,1.3-11.1,2-17.1,2
			c-12.7,0-24.2-3.1-33-8.2C1560.7,3.3,1577.5,5.4,1594.4,6.7L1594.4,6.7z M1534-8c-3.8-4.5-6-9.7-6-15.2c0-0.4,0-0.7,0-1.1
			c25.7,6.5,52.9,10.1,80.9,12c0,1.8-0.2,3.5-0.8,5.3C1583.8-5.8,1559.1-6.1,1534-8L1534-8z"/>
	</g>
	<g id="g4140">
		<path id="path4132" fill="#43614E" d="M2254.6-4.8c16.4,0,29.6,8.6,29.6,19.2s-13.2,19.2-29.6,19.2S2225,25,2225,14.4
			C2225.1,3.9,2238.3-4.8,2254.6-4.8L2254.6-4.8z"/>
		<path id="path4134" fill="#6F9B7F" d="M2254.6-4.8c16.4,0,29.6,8.6,29.6,19.2c0,3-1,5.8-2.9,8.4c-4.4,1.7-9.6,2.7-15.1,2.7
			c-16.4,0-29.6-8.6-29.6-19.2c0-3,1-5.8,2.9-8.4C2244-3.8,2249.1-4.8,2254.6-4.8L2254.6-4.8z"/>
		<path id="path4136" fill="#253B2D" d="M2267.8,21.1c2.9,0,5.4,1.6,5.4,3.5s-2.4,3.5-5.4,3.5c-2.9,0-5.4-1.6-5.4-3.5
			C2262.5,22.7,2264.9,21.1,2267.8,21.1L2267.8,21.1z M2243.4-0.1c0.4,0,0.8,0.2,0.8,0.5s-0.3,0.5-0.8,0.5c-0.4,0-0.8-0.2-0.8-0.5
			C2242.5,0.2,2242.9-0.1,2243.4-0.1L2243.4-0.1z M2265.9-0.2c0.4,0,0.8,0.2,0.8,0.5s-0.3,0.5-0.8,0.5s-0.8-0.2-0.8-0.5
			C2265.1,0,2265.4-0.2,2265.9-0.2L2265.9-0.2z M2276.7,12.1c0.4,0,0.8,0.2,0.8,0.5c0,0.3-0.3,0.5-0.8,0.5s-0.8-0.2-0.8-0.5
			C2275.9,12.3,2276.3,12.1,2276.7,12.1L2276.7,12.1z M2253.6,26.8c0.4,0,0.8,0.2,0.8,0.5s-0.3,0.5-0.8,0.5c-0.4,0-0.8-0.2-0.8-0.5
			C2252.9,27,2253.2,26.8,2253.6,26.8L2253.6,26.8z M2252.2,22.3c0.4,0,0.8,0.2,0.8,0.5c0,0.3-0.3,0.5-0.8,0.5
			c-0.4,0-0.8-0.2-0.8-0.5C2251.4,22.5,2251.9,22.3,2252.2,22.3L2252.2,22.3z M2238.2,19.4c1.4,0,2.6,0.8,2.6,1.7
			c0,0.9-1.2,1.7-2.6,1.7s-2.6-0.8-2.6-1.7C2235.6,20.2,2236.8,19.4,2238.2,19.4L2238.2,19.4z M2245.1,13.1c2.9,0,5.4,1.6,5.4,3.5
			s-2.4,3.5-5.4,3.5s-5.4-1.6-5.4-3.5S2242,13.1,2245.1,13.1L2245.1,13.1z M2250.7,9.7c0.4,0,0.8,0.2,0.8,0.5c0,0.3-0.3,0.5-0.8,0.5
			s-0.8-0.2-0.8-0.5C2249.9,9.9,2250.2,9.7,2250.7,9.7L2250.7,9.7z M2236,11.4c1.4,0,2.6,0.8,2.6,1.7c0,0.9-1.1,1.7-2.6,1.7
			c-1.4,0-2.6-0.7-2.6-1.7C2233.4,12.2,2234.6,11.4,2236,11.4L2236,11.4z M2230.8,17c0.4,0,0.8,0.2,0.8,0.5c0,0.3-0.3,0.5-0.8,0.5
			c-0.4,0-0.8-0.2-0.8-0.5C2230,17.2,2230.5,17,2230.8,17L2230.8,17z M2244.3,23.6c0.4,0,0.8,0.2,0.8,0.5c0,0.3-0.3,0.5-0.8,0.5
			c-0.4,0-0.8-0.2-0.8-0.5C2243.6,23.8,2243.9,23.6,2244.3,23.6L2244.3,23.6z M2248.8,28c1.4,0,2.6,0.8,2.6,1.7
			c0,0.9-1.1,1.7-2.6,1.7c-1.4,0-2.6-0.8-2.6-1.7C2246.2,28.8,2247.4,28,2248.8,28L2248.8,28z M2238.2,24.8c1.4,0,2.6,0.7,2.6,1.7
			c0,0.9-1.2,1.7-2.6,1.7s-2.6-0.8-2.6-1.7C2235.6,25.5,2236.8,24.8,2238.2,24.8L2238.2,24.8z"/>
		<path id="path4138" fill="#548667" d="M2267.8,21.1c2.9,0,5.4,1.6,5.4,3.5c0,0.1,0,0.2,0,0.4c-2.2,0.4-4.5,0.5-6.9,0.5
			c-1.3,0-2.5-0.1-3.7-0.1c-0.1-0.2-0.1-0.5-0.1-0.7C2262.5,22.7,2264.9,21.1,2267.8,21.1L2267.8,21.1z M2252.4,23.3
			c-0.3-0.1-0.7-0.2-0.9-0.4c0-0.1,0-0.1,0-0.1c0-0.3,0.3-0.5,0.8-0.5s0.8,0.2,0.8,0.5C2253,23,2252.7,23.2,2252.4,23.3L2252.4,23.3
			z M2245.8,20.1c-2.2-1.4-4.1-3-5.6-4.8c0.9-1.3,2.7-2.1,4.9-2.1c2.9,0,5.4,1.6,5.4,3.5C2250.5,18.4,2248.4,19.9,2245.8,20.1
			L2245.8,20.1z M2238.6,13.1c-0.2-0.4-0.3-0.6-0.5-0.9C2238.4,12.4,2238.6,12.7,2238.6,13.1L2238.6,13.1z M2243.4-0.1
			c0.4,0,0.8,0.2,0.8,0.5s-0.3,0.5-0.8,0.5c-0.4,0-0.8-0.2-0.8-0.5C2242.5,0.2,2242.9-0.1,2243.4-0.1L2243.4-0.1z M2265.9-0.2
			c0.4,0,0.8,0.2,0.8,0.5s-0.3,0.5-0.8,0.5s-0.8-0.2-0.8-0.5C2265.1,0,2265.4-0.2,2265.9-0.2L2265.9-0.2z M2276.7,12.1
			c0.4,0,0.8,0.2,0.8,0.5c0,0.3-0.3,0.5-0.8,0.5s-0.8-0.2-0.8-0.5C2275.9,12.3,2276.3,12.1,2276.7,12.1L2276.7,12.1z M2250.7,9.7
			c0.4,0,0.8,0.2,0.8,0.5c0,0.3-0.3,0.5-0.8,0.5s-0.8-0.2-0.8-0.5C2249.9,9.9,2250.2,9.7,2250.7,9.7L2250.7,9.7z"/>
	</g>
	<g id="g4148">
		<path id="path4142" fill="#FF6666" d="M2480,441.2V600H569V441.2c269-19.5,598.8-30.9,955.5-30.9S2211,421.7,2480,441.2
			L2480,441.2z"/>
		<path id="path4144" fill="#DB4646" d="M1305.7,600h-106.6l-36.1-6.5L1102,600H569V441.2c269-19.5,598.8-30.9,955.5-30.9
			c75.9,0,161.7,3.7,205.1,10.8l-386.2,5.7l226.6,7.2l-156.5,4.2l-194,8.9l-294,6.1l-83.6,12.3l55.3,7.9l27,13.1l196.9,14.9l71.4-7
			l68.8,7.9l152.3,6.1l-179.3,7.9l-83.5,17.5H988.9l-202.2,24.6l91.7,10.5l31,14.9l271-2.6L1305.7,600z M1293.2,531l-29-3.5
			l-45.2,2.6l35.1,2.6L1293.2,531z M1335.7,531.9l32.3-4l27,3l-45.2,2.6L1335.7,531.9z M1432.8,511.8l62.7,3l43.8-4l62,5.2
			l104.5-4.4l-71.5-2.6l-43.8,3.5l-66-7.4l-45.2,4.9L1432.8,511.8z M2337.5,506.2l-20.6-3.8l-35.8,3.8l23,3L2337.5,506.2z
			 M2217.5,462.8l-16.3-1.1l-28.3,1.1l18.2,0.8L2217.5,462.8z M2400.7,465.7l-5.6-1l-9.8,1.1l6.3,0.8L2400.7,465.7z M2257.7,523.7
			l-39.7-7.2l-69.1,7.4l44.4,5.7L2257.7,523.7z M840.1,490.8l-39.7-7.2l-69.1,7.4l44.4,5.7L840.1,490.8z M1341.8,565.4l90.3-7.9
			l163.1,9.6l-138.9,12.3L1341.8,565.4z M1058.7,550.6l27-1.7l18.9,2.2h-25.7L1058.7,550.6z M1598.6,600l136.8-22.7l78.2,13.1
			l16.8,5.7l70.1,3.9H1598.6z M916.4,565.5l38.4,6.1l17.6-1.3l-32.3-4.4L916.4,565.5z M947.4,476.6l47.8,5.7l42.2-3.5l-19.9-4.8
			L947.4,476.6z M1324.6,468.1l26.6-2.2l20.5,3.5l-32,0.6L1324.6,468.1z M1826.7,432.6l-10.8-0.4l-9.9,0.8l14,0.2L1826.7,432.6z
			 M1757.4,421.4l13.3-0.6l7.1,1L1757.4,421.4z M1626.3,434.7l40.5-0.9l20.9,0.9l-31.7,3.5L1626.3,434.7z M1238.6,459.1h29.7
			l22.3,6.1l24.2,2.2l-34.4,0.4h-2l-18.9-6.5L1238.6,459.1z M2043.5,481l-33.1-4.4l-26.3,4.8l-29.7,0.8l47.9,4L2043.5,481z
			 M1804.3,505.1l-45.9-2.6l33.7-0.9L1804.3,505.1z M1892.6,511.2l-39.1,6.1l58.6,3.5l50.6-7L1892.6,511.2z M1783.8,451.3
			l250.9,12.6l51.2,11.3l285.9,15.7l-66.1,1.8l-83.5,12.3l-160.5,9.7l-118.6,32.4l-172.6,15.7h151l110.6,12.3l138.9-24.5l229.2-7.9
			l-86.3,16.6l-45.9,21.9L2099.5,600H2480V441.2L1783.8,451.3z"/>
		<path id="path4146" fill="#A62A38" d="M920.4,439.9l-258.9,11.3l120,12.3l25.7,6.1l-76.9,7l-76.9,4.4l64.8,14.9l-118.7,2.2
			l183.3,16.2l78.2-15.7l109.2,10.5l68.8,2.6l-163.1,17.5l-89-5.2l-141.5,13H569V430.3L920.4,439.9z M2414.4,600l-39.7-10.4l-62,4
			l-36.5-4.4l-68,10.8H2414.4z M2480,556.8l-73.7,10.9l73.7,7.4V556.8z M2480,485.1l-46.7,2.2l-28.9,7l-33.7,7.4l-7.4,6.5l-86.3,14
			l100.5,1.7l45.9,12.3l34.4-7.9l22.5,3.5v-46.7H2480z M2094.7,452.3l44.4,6.5l110-3.5l78.2,11.8h-80.9l136.8,10.5l31-4.4l-78.2-8.8
			l80.3-5.2l63.7,6.1v-30.2L2094.7,452.3z M2469.9,594.4l-13.8-2.8l-21.6,1.5l18.2,3L2469.9,594.4z M2399.5,582.6l-50.9-5.2
			l-23.3,5.7L2399.5,582.6z M726.9,468.2l-13.9-2.8l-21.5,1.5l18.2,3L726.9,468.2z M656.5,456.4l-50.9-5.2l-23.3,5.7L656.5,456.4z
			 M2114.8,545.9l-5.7-1l-9.8,1.1l6.3,0.8L2114.8,545.9z M2092.7,536.5l-20.6-3.8l-35.8,3.9l23,2.9L2092.7,536.5z M2038.2,553.3
			l-16.3-1l-28.3,1.1l18.2,0.8L2038.2,553.3z M1117.3,516.4l35.7,2.8l27.3-1.1l-12.8-3.5L1117.3,516.4z M624.8,548.2l-18.6-3.5
			l-16.5,0.2l17.3,4.2L624.8,548.2z M664.2,552.2l33.4,3l33.7-2.6l43.1,6.1l-43.5-9.4l-30.4,2.4l-12.1-3L664.2,552.2z M797,456.7
			l29.7,5l28-6.1l-20.9-2L797,456.7z M760,450.6l11.5,1.3l-23.3-0.6L760,450.6z M569,558.4l120.9,26.2l106.5-4.8l79.5,20.2H569
			V558.4z"/>
	</g>
	<g id="g4156">
		<polygon id="polygon4150" fill="#FF6666" points="1729.6,421.1 1080.4,419.4 1112.2,373.9 1180.8,363 1215.2,315.8 1242.2,314.5 
			1268.5,282.6 1286,279.1 1291.5,261.1 1369,265 1400,335.9 1445.8,339.8 1449.1,368.3 1473.5,370 1482.9,297.8 1496.3,296.1 
			1509.2,213.5 1547.6,219.6 1558.3,348.2 1575.9,355.5 1576.6,391.4 1617.1,391.9 1618.4,323.7 1647.3,330.7 1651.4,279.5 
			1674.3,282.6 1694,370.9 1712.8,371.3 1715.5,408.9 1724.9,410.6 		"/>
		<polygon id="polygon4152" fill="#BF3E35" points="1080.4,419.4 1116.9,381.8 1139.8,380.9 1140.4,393.1 1155.9,374.4 
			1180.8,368.7 1168.7,390.1 1201.8,357.3 1219.3,324.1 1234.8,323.7 1228,358.7 1267.1,292.6 1283.4,289.1 1290,316.2 
			1298.9,277.8 1299.5,276 1321.1,270.8 1344,279.1 1365,276.4 1374.3,351.6 1378.4,313.6 1394.5,342.4 1405.4,391.4 1407.4,347.3 
			1435.7,347.3 1448.5,398.9 1452.5,377 1475.5,377.4 1481.6,410.3 1493,313.1 1503.7,307.5 1516,333.7 1520.7,234.4 1542.2,234.4 
			1553,372.6 1557,360.8 1566.5,365.2 1571.9,412.8 1576.6,401.1 1617.8,397.1 1631.2,410.6 1627.8,336.3 1645.4,339.4 1646,375.7 
			1659.6,310.1 1667.7,311 1690.5,399.7 1690.5,381.8 1701.3,381.4 1703.4,408.9 1716.1,414.6 1729.6,421.1 		"/>
		<polygon id="polygon4154" fill="#7A180D" points="1080.4,419.4 1109.4,402.3 1128.3,398.4 1130.4,415.1 1139.8,398.9 
			1174.8,379.4 1168.7,390.1 1151.3,401.9 1173.4,395.3 1198.4,373 1205.1,372.6 1205.1,388.3 1191,406.7 1205.9,397.1 
			1216.6,373.5 1214.6,349.4 1231.4,341.2 1228,358.7 1228.6,376.6 1250.3,395.8 1238.2,375.2 1242.2,358.7 1265.1,352.1 
			1251.6,352.5 1259.8,334.6 1259.8,325.4 1273.9,316.7 1291.5,324.5 1302.9,372.2 1304.2,353.4 1314.4,349.9 1321.8,316.7 
			1334.6,313.6 1352.2,301.8 1359.5,308.4 1372.2,334 1374.3,351.6 1385.2,365.2 1380.4,342 1396.6,351.8 1405.4,391.4 
			1387.1,390.5 1358.8,366.1 1377.7,397.1 1409.4,401.9 1427,413.3 1413.4,396.3 1417.5,373.5 1441.4,370.3 1448.5,398.9 
			1442.5,410.5 1464,392.7 1478.5,393.9 1481.6,410.3 1494.4,417.2 1500.5,366.5 1517.9,342.9 1538.9,387.9 1527.8,307.9 
			1532.8,276 1546.1,284.6 1553,372.6 1545.6,401.1 1556.4,380.5 1569.2,389 1571.9,412.8 1585.4,406.7 1627.8,410.6 1639,417.1 
			1637.3,388.3 1649.4,387.5 1665.6,410.9 1685.1,415.4 1666.9,402.3 1653.5,372.2 1664.3,352.5 1680.4,360.6 1690.5,399.7 
			1708.1,421.1 		"/>
	</g>
	<g id="g4174">
		<g id="g4164">
			<path id="path4158" fill="#FF6198" d="M569,349.9l63.8-20.1l105.2-1.8l36.4-36.8l45.9-9.6l27-103.2l28.3-3.5l8.1-55.9l35.1-10.5
				l4-55.9c8-1.3,6.7-0.9,14.9-0.9l53.9,3.5l12.2,80.5l29.7,4.4l21.6,85.7h37.8l24.2,84.8l83.5,23.6l16.2,39.4l117.3,30.6l9.4,22.7
				l70.1,11.3l-844.4,3V349.9z"/>
			<path id="path4160" fill="#A13A67" d="M569,374.2l54.4-29.3l-10.8,40.6l-33,30.2l70.8-34.6L628.7,371l61.4-26.7l39.1-3.5
				L705,366.3l33.7-15.3l22.9-27.5l36.5-18.8l18.9-7l-8.1,44.2l-28.3,12.7L766.4,375l-2.1,0.9L721.9,386c-3.1,1.3-2.9,0.8-6,2.2
				l-29.2,28.4l35.7-24.9l97.7-9.2l-20.3-9.1l4.7-18.8l41.8-17.1l10-46.3l25.7-9.2l28.3,53.8l34.4,18.8l16.8,31.1l-8.8-44.6l-2-0.4
				l-33.4-22.4l-13.5-66.9l-27.6-28.4l-6.8-34.1l10.8-4.4l23.6,40.2v-4.4l-6.8-39.3l6.8-48.5l17.5-7.9l8.1,37.2l15.5-86.1l32.3,17.9
				l22.3,87.9l-22.9,24.1l-18.2,81.3l20.2-60.8l43.8-2.6l28.3,29.7l16.8,59.9l-4-73.9l18.2,5.7l26.2,86.1l-38.4,35.4l-10.2,46
				l16.8-35.8l49.9-23.6l4-17.5l56.6,8.8l18.9,53.1l29.7,22.7l-16.8-37l106.5,24.5l10.2,21.4l31,9.6L569,441.2V374.2z"/>
			<polygon id="polygon4162" fill="#4A1330" points="569,398.2 592.4,380.3 614.9,376.6 612.6,385.5 579.6,415.7 587,431 587.6,417 
				663.8,393.4 670.6,371.1 712.3,358.6 705,366.3 694.8,389.5 719,365.4 748.7,365 766.3,344 810,335.1 808.8,341.8 780.4,354.5 
				766.3,375 715.8,388.1 686.7,416.6 640.9,430.1 714.3,417.4 731.9,399.9 794.6,389.5 809.5,403 841.8,410.8 866.7,433.6 
				846.5,401.7 829.7,395.1 820.3,382.4 810.1,377.8 815.5,360.6 847.9,347.5 854.6,376.8 866,337.4 861.3,317.8 896.4,308.8 
				910.6,335.7 945,354.5 961.8,385.5 941.7,421 964.4,390.7 987.3,380.3 978,353.1 961.8,339.6 955,316.4 934.2,302.4 920.6,261.4 
				896.4,230.3 915.3,237.3 918,177.9 928.6,158 928.7,166 925.3,193.6 946.9,164.8 946.3,125 967.9,125.4 988.1,193.4 976.6,205.4 
				958.4,286.7 975.9,252.6 1019.1,251.7 1046.1,282.7 1057.6,322.1 1012.3,368.9 1041.3,361.1 1047.4,419.6 1059.5,412.2 
				1076.3,376.4 1106,362.3 1139.1,376.4 1135.7,360.1 1172.8,357.5 1193.3,403.8 1226.6,413 1235.4,419.8 1242.2,432.3 
				1247.7,411.3 1300.9,417.4 1321.1,438.5 569,441.2 			"/>
		</g>
		<g id="g4172">
			<polygon id="polygon4166" fill="#FF6198" points="2480,274.7 2416.5,271.2 2401.8,300.9 2382.9,300.9 2360,354.3 2312.8,370.9 
				2307.3,395.3 2292.6,390.9 2288.6,339.4 2276.4,331.5 2273.7,247.6 2241.3,232.7 2238.7,212.6 2204.9,212.6 2195.5,259.8 
				2052.6,288.7 2049.9,313.1 2059.4,328 2035,343.8 2025.6,375.2 1968.9,374.4 1924.5,403.2 1894.8,405 1866.5,423.3 1759.9,451.3 
				2480,453.5 			"/>
			<polygon id="polygon4168" fill="#A13A67" points="1783.8,451.3 1868,428.7 1865.3,435.3 1892.3,414.5 1922,409.4 1913.2,431.3 
				1956.4,405.1 1973.9,379.3 2026.5,380.6 2025.1,415.2 2047.3,343 2071.6,332 2076.3,353.5 2084.5,327.7 2065.6,315 2072.3,298.9 
				2132.3,287.5 2133.6,344.8 2114.7,350.9 2113.4,404.5 2123.6,354.4 2176.7,350.9 2157.2,344.8 2152.5,290.5 2199,274.8 
				2205.8,297.5 2214.5,244.2 2233.4,241.6 2267.8,257.3 2263,362.7 2270.4,346.5 2281.2,353.5 2283.3,420 2291.4,405.1 
				2306.3,406.8 2310.9,440.5 2323.1,381.9 2356.8,364 2356.8,394.6 2384.4,319.4 2395.3,318.9 2404,378.8 2433.6,389.7 2445,427.3 
				2441,381.5 2421.6,366.2 2408.7,308 2426.9,281.8 2480,285.3 2480,453.5 			"/>
			<polygon id="polygon4170" fill="#4A1330" points="2135.2,374.8 2174,362.8 2184.8,385.9 2188.9,336.6 2181.4,309.4 2197.6,302 
				2208.4,327.4 2217.8,268.8 2254.9,279.7 2252.9,370.2 2223.9,406.9 2265,382 2273.1,398.2 2276.4,442.4 2283.3,420 2297.4,423.1 
				2310.9,440.5 2325,428.3 2327.8,396 2356.8,385.1 2356.8,394.6 2342.5,427.1 2377.6,380.7 2397.1,389.5 2403.2,419.2 
				2432.3,428.3 2444.3,448 2445,427.3 2455.1,416.1 2456.5,376.8 2432.8,353.6 2426.2,313.4 2445,298.1 2480,306.4 2480,453.5 
				1818.1,451.5 1865.3,435.3 1862.6,444 1891,421.3 1918.4,418.3 1913.2,431.3 1896.5,442 1957.6,422.8 1964.2,409.6 1989.9,400.9 
				1995.3,390 2026,391.7 2025.1,415.2 2007.7,421.3 1999.9,442 2011.9,427.3 2012.8,426.9 2033,422.5 2043.5,385.6 2060,383.4 
				2073.2,339.2 2076.3,353.5 2092.4,358.2 2098.4,378.8 2095.5,313.4 2112,313.4 2122.5,348.4 2114.7,350.9 2113.4,404.5 
				2133.2,425.1 			"/>
		</g>
	</g>
	<g id="g4200">
		<g id="g4182">
			<polygon id="polygon4176" fill="#FF6198" points="769.6,477.1 789,457.9 825,446.3 826.9,442.9 842.4,420.2 880.2,413.7 
				905.8,446 944.2,454.3 965.8,482.3 913.9,484 875.4,491 798,490.2 744,484 722.4,484 744,473.1 762.2,471.8 			"/>
			<polygon id="polygon4178" fill="#A13A67" points="751,476.1 761.8,477.7 765.9,481.4 787.5,471.1 797.1,458.6 830,454.6 
				841.6,474.1 841.8,454.1 834.4,448.4 842.1,438.8 868.8,437.9 894.6,450.1 907.8,474.4 912.9,459.8 935.1,469.8 939.8,483.1 
				913.9,484 875.4,491 798,490.2 744,484 733.2,484 			"/>
			<polygon id="polygon4180" fill="#4A1330" points="775.6,487.6 809,472.5 818.3,460.8 830.2,463.3 848,485.6 850,453.7 877.3,457 
				902.2,486.1 875.4,491 798,490.2 			"/>
		</g>
		<g id="g4190">
			<polygon id="polygon4184" fill="#FF6198" points="2344,478.1 2329.7,463.8 2303.1,455.2 2301.6,452.8 2290.1,435.9 2262.1,431.1 
				2243.1,455 2214.6,461.3 2198.6,482 2237.1,483.3 2265.6,488.5 2323.1,487.8 2363,483.3 2379.1,483.3 2363,475.1 2349.6,474.2 
							"/>
			<polygon id="polygon4186" fill="#A13A67" points="2357.8,477.5 2349.8,478.5 2346.9,481.4 2330.8,473.7 2323.6,464.4 
				2299.4,461.4 2290.7,475.9 2290.6,461.1 2296.1,456.9 2290.3,449.7 2270.5,449.1 2251.3,458.1 2241.6,476.1 2237.8,465.3 
				2221.4,472.7 2217.8,482.6 2237.1,483.3 2265.6,488.5 2323.1,487.8 2363,483.3 2371.1,483.3 			"/>
			<polygon id="polygon4188" fill="#4A1330" points="2339.7,485.9 2314.9,474.6 2308,466.1 2299.2,467.9 2285.9,484.4 2284.5,460.8 
				2264.2,463.2 2245.8,484.8 2265.6,488.5 2323.1,487.8 			"/>
		</g>
		<g id="g4198">
			<polygon id="polygon4192" fill="#FF6198" points="1041.6,452.8 1051.3,443.2 1069.4,437.4 1070.3,435.7 1078.1,424.4 1097,421 
				1109.8,437.3 1129,441.4 1139.8,455.4 1113.8,456.2 1094.6,459.8 1055.8,459.4 1028.8,456.2 1018,456.2 1028.8,450.8 
				1037.9,450.1 			"/>
			<polygon id="polygon4194" fill="#A13A67" points="1032.3,452.3 1037.8,453.1 1039.8,455 1050.6,449.8 1055.4,443.6 1071.9,441.5 
				1077.7,451.3 1077.8,441.3 1074,438.5 1077.9,433.6 1091.2,433.2 1104.2,439.3 1110.7,451.4 1113.3,444.1 1124.4,449.2 
				1126.8,455.8 1113.8,456.2 1094.6,459.8 1055.8,459.4 1028.8,456.2 1023.5,456.2 			"/>
			<polygon id="polygon4196" fill="#4A1330" points="1044.7,458.1 1061.4,450.5 1066,444.7 1072,445.9 1080.8,457.1 1081.8,441.1 
				1095.5,442.8 1107.9,457.3 1094.6,459.8 1055.8,459.4 			"/>
		</g>
	</g>
	<g id="g4262">
		<path id="path4202" fill="#FFFFFF" d="M1703.8,325.8c11.5-4.2,45.8-7.3,55.3-1.3c18.3,11.3,43.1,73.4,43.5,97
			c0.1,8.6-13,17.8-26,19.7c-26.8,4-62.4,8.8-82.1-3.5c-29.2-18.3-47.5-48.1-41.6-74C1657.2,344.8,1678.5,335.1,1703.8,325.8
			L1703.8,325.8z"/>
		<path id="path4204" fill="#B2BFDE" d="M1785.6,438.7c-2.9,1.1-6,2-9.1,2.5c-26.8,4-62.4,8.8-82.1-3.5
			c-29.2-18.3-47.5-48.1-41.6-74c3.6-15.9,19.7-25.4,39.9-33.6c23.4-2.5,47.3-5,54.3,0.1C1774.2,349.9,1782.8,406.6,1785.6,438.7
			L1785.6,438.7z"/>
		<path id="path4206" fill="#B2BFDE" d="M1689.7,359.6c36.3-5.7,86.9,42.5,59.1,80c-15.4,20.7-46.7,25.2-59.4,42.4
			c-8.5,11.5,6.8,23.1,0,38.2c-16.5,5.2-44.7,7.5-69.1,6.5c-3.6-7.9,10.2-15.6,28-15.9c-9.3-8.7-14.9-25.7-9.2-36.5
			c9.9-18.6,21.4-20.7,38.8-36.8c4.5-12.3-16.3-32.1-27-38.7c-33.1,11-53.2,16.1-81.2,16.9c-9.4-3.3-14.2-8.3-11.5-16.2
			c39.3-5,64.3-20,99.5-34.3C1665.3,362.2,1680.9,360.3,1689.7,359.6L1689.7,359.6z"/>
		<path id="path4208" fill="#9DABCC" d="M1577.2,415.5c-2.4,0.1-4.9,0.2-7.4,0.3c-9.4-3.3-14.2-8.3-11.5-16.2
			c2.9-0.4,5.7-0.8,8.4-1.3c0.3,0.1,0.7,0.2,0.9,0.3c7.3,2.2,15.5,8.1,13.3,13.1C1580.4,413.2,1579,414.5,1577.2,415.5L1577.2,415.5
			z"/>
		<path id="path4210" fill="#9DABCC" d="M1648.3,510.9c-7-6.4-11.8-17.6-11.5-27.3c10.5,2.9,20.2,4.6,33.6,2.3
			c7.3,13.7,8.1,20.8,6.3,30.7C1670.3,512,1660.3,510.5,1648.3,510.9L1648.3,510.9z"/>
		<path id="path4212" fill="#C25959" d="M1611.5,410.6c-2.4,0.6-4.7,1.1-7,1.5c1-9.7-4.1-16.3-11.9-20c2.8-0.9,5.6-1.8,8.3-2.8
			C1609.7,394,1612.5,402.3,1611.5,410.6L1611.5,410.6z"/>
		<path id="path4214" fill="#C25959" d="M1693.3,477.6c-1.4,1.3-2.7,2.8-3.9,4.4c-10.4-17.6-28.5-21.5-43.2-18c2-2.3,3.9-4.2,6-5.9
			C1671,454.6,1686.8,465.9,1693.3,477.6L1693.3,477.6z"/>
		<path id="path4216" fill="#C25959" d="M1701.8,471.1c-1.4,0.9-2.8,1.8-4,2.8c-7.6-17-21.6-23.7-35.1-23.9c2.2-1.6,4.4-3.3,6.8-5.1
			C1686.2,447,1698.8,460.1,1701.8,471.1L1701.8,471.1z"/>
		<path id="path4218" fill="#FFFFFF" d="M1672.5,307.1c-30.6,0-55.3,16.1-55.3,35.8s24.8,35.8,55.3,35.8c30.6,0,55.3-16.1,55.3-35.8
			S1703,307.1,1672.5,307.1L1672.5,307.1z"/>
		<path id="path4220" fill="#B2BFDE" d="M1669.1,307.2c-28.9,1.1-52,16.7-52,35.8c0,19.8,24.8,35.8,55.3,35.8
			c6.8,0,13.2-0.8,19.2-2.2c3.3-7.7,0.3-20,0.3-32.1C1692,329.5,1683.6,313.8,1669.1,307.2L1669.1,307.2z"/>
		<path id="path4222" fill="#FFFFFF" d="M1759.8,414.5c22.8,30.3,13.1,44.5,18.3,69.3c3.1,14.3,10.2,22.9,7.1,43.1
			c-3.5,8.8-46.2,8.5-56.7,3c-0.7-8.4,8.4-14.5,17.8-13.9c-1.1-18.6-34.9-31.7-26.6-59.6C1723.2,436.8,1737.4,421.3,1759.8,414.5
			L1759.8,414.5z"/>
		<path id="path4224" fill="#D0DAF2" d="M1746.4,516c-0.7-10.4-11.5-19.1-19.4-29.6c13.9,4,27.2,5.1,39.3-0.1
			c7.3,13.7,10.5,25.6,8.7,35.5C1768.3,517.2,1758.4,515.6,1746.4,516L1746.4,516z"/>
		<path id="path4226" fill="#FF9999" d="M1776.4,468.6c0,2,0.2,3.9,0.3,5.9c-19.9-14.4-41.5-6-54.2,5.5c-0.9-1.6-1.7-3.4-2.4-5.2
			C1740.6,457,1763.8,459.7,1776.4,468.6L1776.4,468.6z"/>
		<path id="path4228" fill="#FF9999" d="M1776.1,458.5c-0.1,1.9,0.2,4.2,0.2,6.1c-21.5-18.5-44.2-9.8-57.7,2.5c-0.2-2.4,0-5,0.5-7.6
			C1740.9,442.2,1764.4,447.7,1776.1,458.5L1776.1,458.5z"/>
		<path id="path4230" fill="#FFFFFF" d="M1716,361.4c17.5-12.2,56.9,13.8,54.7,36.7c-2.3,23.4-35.4,37.9-60.4,41.3
			c-17,2.3-34.3-10.2-19.5-16.2c28.4-11.5,40.2-20.8,36-31.2C1721.7,379,1699.7,372.8,1716,361.4L1716,361.4z"/>
		<path id="path4232" fill="#D0DAF2" d="M1710.4,439.4c-17,2.3-34.3-10.2-19.5-16.2c1.2-0.5,2.3-0.9,3.3-1.4c2,0.4,3.8,0.9,5.6,1.4
			c7.3,2.3,15.5,8.1,13.3,13.1C1712.4,437.5,1711.6,438.5,1710.4,439.4L1710.4,439.4z"/>
		<path id="path4234" fill="#9DABCC" d="M1752.2,367.6c2.6,1.9,5.1,4,7.4,6.2c-6.9,3.4-12.3,5.9-19.2,7.6c-2-2.3-5.2-5-7.1-7.4
			C1740.3,372.5,1746.2,370.8,1752.2,367.6L1752.2,367.6z"/>
		<path id="path4236" fill="#FF9999" d="M1758.5,419.3c-1.4,1.2-2.8,2.4-4.4,3.5c-7.5-12.3-18.9-17.8-30.1-18.6
			c1.5-1.8,2.6-3.5,3.2-5.4C1741.7,400.1,1753.3,409.6,1758.5,419.3L1758.5,419.3z"/>
		<path id="path4238" fill="#4D4D4D" d="M1617.5,338.6c15,7.6,57.2,8.4,86.4-3.8c8.8,10,7.8,19.8,4.4,29.5
			c-13.9,10.4-39.9,12.8-61.8,10.3c-17.5-6-29.4-17.9-29.4-31.7C1617.1,341.5,1617.2,340,1617.5,338.6L1617.5,338.6z"/>
		<path id="path4240" fill="#1A1A1A" d="M1617.5,338.6c13,6.6,46.4,8.1,74.1,0.4c0.2,1.8,0.3,3.6,0.3,5.5c0,9.8,2,19.7,1,27.1
			c-13.8,4.1-31.1,4.7-46.4,3c-17.5-6-29.4-17.9-29.4-31.7C1617.1,341.5,1617.2,340,1617.5,338.6L1617.5,338.6z"/>
		<path id="path4242" fill="#D0DAF2" d="M1746.2,472c-9.3,0-16.9,3.9-16.9,8.8c0,4.8,7.5,8.7,16.9,8.7c9.3,0,16.8-3.9,16.8-8.7
			C1763.1,475.9,1755.5,472,1746.2,472L1746.2,472z"/>
		<path id="path4244" fill="#D0DAF2" d="M1654.2,466.7c-9.3,0-16.8,3.9-16.8,8.8c0,4.8,7.5,8.7,16.8,8.7s16.9-3.9,16.9-8.7
			C1671,470.6,1663.5,466.7,1654.2,466.7L1654.2,466.7z"/>
		<path id="path4246" fill="#FFFFFF" d="M1752.1,368.4c-5,2.8-10.7,4.5-16.6,5.8c1.5,1.8,4,3.9,5.6,5.7c5.6-1.3,10.8-3.6,16.4-6.4
			C1755.8,371.8,1753.5,370.3,1752.1,368.4L1752.1,368.4z"/>
		<path id="path4248" fill="#FF9999" d="M1752.1,368.4c-5,2.8-10.7,4.5-16.6,5.8c0.9,1.1,2.1,2.1,3.2,3.3c5.5-1.5,10.8-3.7,16.3-6.4
			C1753.8,370.3,1752.8,369.4,1752.1,368.4L1752.1,368.4z"/>
		<path id="path4250" fill="#B2BFDE" d="M1696.7,325.8c-2.5,0-4.5,1.3-4.5,2.9c0,1.6,2.1,2.9,4.5,2.9c2.5,0,4.5-1.3,4.5-2.9
			C1701.2,327.1,1699.2,325.8,1696.7,325.8L1696.7,325.8z"/>
		<path id="path4252" fill="#FFFFFF" d="M1697,326.4c-1.7,0-3.2,0.9-3.2,2.1c0,1.1,1.4,2.1,3.2,2.1c1.7,0,3.2-0.9,3.2-2.1
			C1700.2,327.4,1698.8,326.4,1697,326.4L1697,326.4z"/>
		<path id="path4254" fill="#9DABCC" d="M1684.3,329.4c-2.5,0-4.5,1.3-4.5,2.9c0,1.6,2.1,2.9,4.5,2.9c2.5,0,4.5-1.3,4.5-2.9
			S1686.7,329.4,1684.3,329.4L1684.3,329.4z"/>
		<path id="path4256" fill="#FFFFFF" d="M1684.6,330c-1.7,0-3.2,0.9-3.2,2.1c0,1.1,1.4,2.1,3.2,2.1s3.2-0.9,3.2-2.1
			C1687.7,331,1686.3,330,1684.6,330L1684.6,330z"/>
		<path id="path4258" fill="#FFFFFF" d="M1693.1,424.8c7.3,2.2,15.5,8.1,13.3,13.1c-2.3,5.3-14,7.6-22.6,7.9
			c-8.8,0.3-20.3-1.3-24.7-6.4c-3.1-3.5,0.7-6.8,10.7-9.8c-8.2-0.4-12.1-4.1-8.6-5.6C1670.2,420.4,1683.5,421.9,1693.1,424.8
			L1693.1,424.8z"/>
		<path id="path4260" fill="#B2BFDE" d="M1561.3,399.2c7.3,2.2,15.5,8.1,13.3,13.1c-2.3,5.3-14,7.7-22.6,8
			c-8.8,0.3-20.3-1.4-24.7-6.4c-3.1-3.5,0.7-6.8,10.7-9.8c-8.2-0.4-12.1-4.1-8.6-5.6C1538.4,394.8,1551.7,396.3,1561.3,399.2
			L1561.3,399.2z"/>
	</g>
	<g id="g4296">
		<g id="g4270">
			<polygon id="polygon4264" fill="#A13A67" points="569,345.8 724.8,377.3 729.3,417.3 713.9,441.5 753.4,467.3 768.9,518.7 
				861.4,517.2 934.1,564.4 982.5,567.2 1028.7,597.2 1039.3,600 569,600 			"/>
			<path id="path4266" fill="#4A1330" d="M1009,600l-22.4-17.3l-48.4-8.2l10.2,25.4L1009,600L1009,600z M935.7,600l-53.6-32.6
				l-28.6-42.1l-85.8,2.1l2.2,56.4L733.5,466l-39.6-17.8l-7.6,35L673,441l30.8-20.7l-11-26.4l-98.1-18.6l-2.2,93.5l30.8,10l2.2,87.7
				l-16.5-82l-40-2.6v118H935.7z"/>
			<path id="path4268" fill="#30071D" d="M589.7,517.9l-20.7-6.4V600h24.1L589.7,517.9z M996.5,600l-7.6-6.2l-44.9-4.9l4.4,11
				L996.5,600L996.5,600z M891.8,600l-11.7-3.7l-11-21.5l-41.8-14.3l-8.8-17.8l-50.2,2.8l1.5,38.2l28.4,10l2.3,6.2L891.8,600
				L891.8,600z M775.4,600l-18.7-4l-17-60.3l-27-3.5l-21.5-72.3l-5.1,23.4l-26.3,7.6l-9.9,33.6l4.9-106.7h-27l-17,57.1l12.6,4
				l2.2,87.7L597.3,600H775.4z"/>
		</g>
		<g id="g4278">
			<path id="path4272" fill="#A13A67" d="M1315.8,600l-3.2-12.3l-28.3-3.5l-8.1-55.9l-35.1-10.5l-4-55.9c-8-1.3-6.7-0.8-14.9-0.8
				l-53.9,3.5l-12.1,80.4l-29.7,4.4l-12.9,50.7H1315.8z"/>
			<path id="path4274" fill="#4A1330" d="M1289.9,600l0.4-2.1l-10.8-4.4l-3.8,6.4L1289.9,600L1289.9,600z M1261,600l1.7-9.9
				l-6.8-48.5l-17.5-7.9l-8.1,37.2l-15.5-86.1l-32.3,17.9l-22.3,87.9l9.1,9.5L1261,600L1261,600z"/>
			<path id="path4276" fill="#30071D" d="M1242.3,600l-0.5-13l-10.7-19.8l-0.1,8l3.1,24.8L1242.3,600L1242.3,600z M1232.3,600
				l-19.5-26.1l0.7-39.8l-21.5,0.4l-19.4,65.5H1232.3z"/>
		</g>
		<g id="g4286">
			<polygon id="polygon4280" fill="#A13A67" points="2480,302.7 2457.7,306 2430.2,415.4 2382,415.4 2351,523.7 2244.3,553.7 
				2225.3,600 2480,600 			"/>
			<path id="path4282" fill="#4A1330" d="M2480,412.8l-8.5-0.5l-36.1,38l-21.5,76.4l5.1-94.3l-23.3,7.2l-33.5,109.9l49,45.2l1.2,5.2
				h67.5V412.8H2480z M2386.6,600l-47.6-22.5l-5.1-22.3l-72.3,11.2l-12,33.7L2386.6,600L2386.6,600z"/>
			<path id="path4284" fill="#30071D" d="M2480,448.7l-4.1-0.1l-34.4,39.6l-14.6,50.2l53.2,55.1V448.7L2480,448.7z M2480,596.9
				l-32.5-8.9l-1.3,12h33.9V596.9z M2386.6,600l-21.7-10.3l-24.4,10.3H2386.6z M2324.3,600l2.7-13l-47.3-3.4l-7.3,16.4H2324.3z"/>
		</g>
		<g id="g4294">
			<path id="path4288" fill="#A13A67" d="M2288.7,600l-32.9-40l-29.7-5.9l-9.2-30.3l-131.1,6.7l-30.5,69.5L2288.7,600L2288.7,600z
				 M1894.9,600l-1.9-14.1l-22.8-3l-21.6-139.8l-65,10.3L1771.3,600H1894.9z M1611.5,600l-3.6-45.2l-38.8,5.2l-8.8,40H1611.5z"/>
			<path id="path4290" fill="#4A1330" d="M2271.5,600l-13.6-22.9l-27.4-5.9l-7.1,28.8H2271.5z M2215.4,600l-10.9-48.1l-1.1-3
				l-36.5-8.9l-38.8,14l-35.4-4.5l-6.3,50.3L2215.4,600L2215.4,600z M1834.9,600l-5.8-121.3h-36.5l-9.4,121.3H1834.9z"/>
			<path id="path4292" fill="#30071D" d="M2125.3,600l-11-7.4l-8.4,7.4H2125.3z M1816.6,600l-8-51.1l-22.6,14.7l-2.7,36.3H1816.6z"
				/>
		</g>
	</g>
	<g id="g4312">
		<rect id="rect4298" x="1477.9" y="310.1" fill="#1A1A1A" width="5.4" height="224.7"/>
		<path id="path4300" fill="#FFFFFF" d="M1477.9,317.5c-42.4-10.5-79,19-107.9,1.7c-38.4-23-75.7-13-117.9-1.7
			c7.6,26.3,7.6,53.6,0,81.7c43.6-15.7,78.8-19.3,114.4-0.2c28.5,15.3,74.1-16.6,111.4,0.2C1474.7,372.8,1474.7,345.6,1477.9,317.5
			L1477.9,317.5z"/>
		<path id="path4302" fill="#B2BFDE" d="M1415.3,321.7c-14.7,3-28.3,5.1-40.6-0.1c3.5,28.5,2.8,55,0,80.5
			c11.9,2.8,25.9,0.1,40.6-2.8C1411.4,373.9,1410.2,348.1,1415.3,321.7L1415.3,321.7z"/>
		<path id="path4304" fill="#B2BFDE" d="M1304.3,306.2c-16.8,1.8-34.2,6.5-52.3,11.4c7.6,26.3,7.6,53.6,0,81.7
			c19.5-7,37.3-11.6,54.3-12.9C1311.7,357.8,1311,324.1,1304.3,306.2L1304.3,306.2z"/>
		<path id="path4306" fill="#FF9999" d="M1477.9,317.5c-42.4-10.5-79,19-107.9,1.7c-38.4-23-75.7-13-117.9-1.7
			c3.9,13.5,5.9,27.3,5.8,41.3c39-11.5,72-12.3,105.4,5.7c28.8,15.4,73.7-13.7,112.4-2.5C1475.4,347.3,1476.1,332.5,1477.9,317.5
			L1477.9,317.5z"/>
		<path id="path4308" fill="#C25959" d="M1415.3,321.7c-14.7,3-28.3,5.1-40.6-0.1c2.1,16.3,2.6,31.9,2.3,47.1
			c10.6,1.3,22.5-0.7,35.1-3.2C1411.6,351.1,1412.5,336.5,1415.3,321.7L1415.3,321.7z"/>
		<path id="path4310" fill="#C25959" d="M1304.3,306.2c-16.8,1.8-34.2,6.5-52.3,11.4c3.9,13.5,5.9,27.3,5.8,41.3
			c18.5-5.5,35.6-8.5,52.1-8.3C1310.1,333.1,1308.3,316.9,1304.3,306.2L1304.3,306.2z"/>
	</g>
</g>
</svg>
