<?xml version="1.0" encoding="UTF-8" standalone="no"?>
<!-- Generator: Adobe Illustrator 17.0.0, SVG Export Plug-In . SVG Version: 6.00 Build 0)  -->

<svg
   xmlns:dc="http://purl.org/dc/elements/1.1/"
   xmlns:cc="http://creativecommons.org/ns#"
   xmlns:rdf="http://www.w3.org/1999/02/22-rdf-syntax-ns#"
   xmlns:svg="http://www.w3.org/2000/svg"
   xmlns="http://www.w3.org/2000/svg"
   xmlns:sodipodi="http://sodipodi.sourceforge.net/DTD/sodipodi-0.dtd"
   xmlns:inkscape="http://www.inkscape.org/namespaces/inkscape"
   version="1.1"
   id="Layer_1"
   x="0px"
   y="0px"
   width="1750px"
   height="980px"
   viewBox="0 0 1400 980"
   enable-background="new 0 0 1400 980"
   xml:space="preserve"
   sodipodi:docname="tonka.svg"
   inkscape:version="0.92.3 (2405546, 2018-03-11)">
<g id="master-artboard" viewBox="0 0 1400 980" version="1.1" xmlns="http://www.w3.org/2000/svg" x="0px" y="0px" style="enable-background:new 0 0 1400 980;">

<g transform="matrix(1, 0, 0, 1, 0, -7.105427357601002e-15)">
		<path d="M 0 0 H 1400 V 980 H 0 V 0 Z" class="st0" style="fill: rgb(218, 223, 235);"></path>
		<path d="M 0 193 H 121 V 980 H 0 V 193 Z" class="st1" style="fill: rgb(180, 191, 214);"></path>
		<path d="M 479.100006 95 H 677.800003 V 980 H 479.100006 V 95 Z" class="st1" style="fill: rgb(180, 191, 214);"></path>
		<path d="M 224.100006 161 H 422.800003 V 980 H 224.100006 V 161 Z" class="st1" style="fill: rgb(180, 191, 214);"></path>
		<path d="M 876.299988 256.100006 H 1116.599991 V 980.000031 H 876.299988 V 256.100006 Z" class="st1" style="fill: rgb(180, 191, 214);"></path>
		<path d="M 1214.699951 186 H 1399.999954 V 980 H 1214.699951 V 186 Z" class="st1" style="fill: rgb(180, 191, 214);"></path>
		<path d="M 85.099998 366.399994 H 257.200005 V 979.999969 H 85.099998 V 366.399994 Z" class="st2" style="fill: rgb(206, 213, 228);"></path>
		<path d="M 731 366.399994 H 903.100006 V 979.999969 H 731 V 366.399994 Z" class="st2" style="fill: rgb(206, 213, 228);"></path>
		<path d="M 363.299988 247 H 561.999985 V 980 H 363.299988 V 247 Z" class="st2" style="fill: rgb(206, 213, 228);"></path>
		<path d="M 983.200012 437.700012 H 1181.900009 V 980 H 983.200012 V 437.700012 Z" class="st2" style="fill: rgb(206, 213, 228);"></path>
		<path d="M 1347.5 399.799988 H 1400 V 980 H 1347.5 V 399.799988 Z" class="st2" style="fill: rgb(206, 213, 228);"></path>
		<g>
			<path d="M 770.200012 172 H 891.300011 V 200.6 H 770.200012 V 172 Z" class="st3" style="fill: rgb(231, 234, 242);"></path>
			<path d="M 838.599976 143.399994 H 959.699974 V 171.999994 H 838.599976 V 143.399994 Z" class="st3" style="fill: rgb(231, 234, 242);"></path>
			<path d="M 884.599976 172 H 1005.699974 V 200.6 H 884.599976 V 172 Z" class="st3" style="fill: rgb(231, 234, 242);"></path>
		</g>
		<g>
			<path d="M 92.5 109.800003 H 213.599998 V 138.300003 H 92.5 V 109.800003 Z" class="st3" style="fill: rgb(231, 234, 242);"></path>
			<path d="M 160.899994 81.300003 H 281.999992 V 109.900003 H 160.899994 V 81.300003 Z" class="st3" style="fill: rgb(231, 234, 242);"></path>
			<path d="M 207 109.800003 H 235.4 V 138.300003 H 207 V 109.800003 Z" class="st3" style="fill: rgb(231, 234, 242);"></path>
		</g>
		<g>
			<path d="M 462.100006 345.799988 H 583.200005 V 374.299988 H 462.100006 V 345.799988 Z" class="st3" style="fill: rgb(231, 234, 242);"></path>
			<path d="M 530.5 317.200012 H 651.599998 V 345.800013 H 530.5 V 317.200012 Z" class="st3" style="fill: rgb(231, 234, 242);"></path>
			<path d="M 576.5 345.799988 H 604.9 V 374.299988 H 576.5 V 345.799988 Z" class="st3" style="fill: rgb(231, 234, 242);"></path>
		</g>
		<g>
			<path d="M 1099.800049 317.200012 H 1220.900047 V 345.700012 H 1099.800049 V 317.200012 Z" class="st3" style="fill: rgb(231, 234, 242);"></path>
			<path d="M 1168.099976 288.700012 H 1289.199974 V 317.300013 H 1168.099976 V 288.700012 Z" class="st3" style="fill: rgb(231, 234, 242);"></path>
			<path d="M 1214.199951 317.200012 H 1242.599951 V 345.700012 H 1214.199951 V 317.200012 Z" class="st3" style="fill: rgb(231, 234, 242);"></path>
		</g>
		<path d="M 0 755.400024 H 1400 V 980.000031 H 0 V 755.400024 Z" class="st1" style="fill: rgb(180, 191, 214);"></path>
	</g><path d="M 0 752.400024 H 1400 V 980.000031 H 0 V 752.400024 Z" class="st4" style="fill: rgb(114, 118, 143);" transform="matrix(1, 0, 0, 1, 0, -7.105427357601002e-15)"></path><path d="M 0 836.099976 H 502.600006 V 848.699976 H 0 V 836.099976 Z" class="st5" style="fill: rgb(87, 91, 114);" transform="matrix(1, 0, 0, 1, 0, -7.105427357601002e-15)"></path><g transform="matrix(1, 0, 0, 1, 0, -1.4210854715202004e-14)">
			<path d="M 899.799988 335 H 1101.199982 V 559.699997 H 899.799988 V 335 Z" class="st6" style="fill: rgb(134, 115, 100);"></path>
			<path d="M 899.799988 430.799988 H 1101.199982 V 463.899986 H 899.799988 V 430.799988 Z" class="st7" style="fill: rgb(167, 152, 140);"></path>
			<path d="M 899.799988 532.700012 H 1101.199982 V 559.600012 H 899.799988 V 532.700012 Z" class="st8" style="fill: rgb(111, 94, 82);"></path>
			<g>
				<path class="st9" d="M761.6,340.3c0,0,6.6,32,22.2,38.6c15.7,6.6,0,11.4,0,11.4s23.8,12,33,0c9.2-12,25.2-80.1,25.2-80.1h-25.2
					L761.6,340.3z" style="fill: rgb(86, 56, 23);"></path>
				<path class="st10" d="M868.5,304c0,0,18.3,26.2,18.9,41.9l-9.5,7.2c0,0,12.5,39.1-38.7,39.1c0,0-3.6,14.5,0,24.1l-42.8-12
					c0,0,19.9-16.9,17.5-39.8c0,0-17.5,0.6-17.5-19.9c0-20.5,24.7-12.6,24.7-1.8l6.6,4.8L838,304H868.5z" style="fill: rgb(246, 194, 132);"></path>
				<g>
					<path class="st11" d="M834.7,321.1l72.6-23.5c0,0,13.8-16.3-32.8-9.1L827.7,304L834.7,321.1z" style="fill: rgb(39, 73, 122);"></path>
					<path class="st12" d="M762.4,342.8l72.3-21.7l39.7-32.5c0,0-16.3-57.8-74.1-27.1C742.5,292.2,762.4,342.8,762.4,342.8z" style="fill: rgb(27, 54, 99);"></path>
				</g>
			</g>
			<path d="M 839.2999877929688 483.79998779296875 L 877.2000122070312 525.2999877929688 L 944.0999755859375 550.5999755859375 L 960.2999877929688 532.7000122070312 L 891.7000122070312 499.1000061035156 L 862.7999877929688 453.6000061035156 Z" class="st10" style="fill: rgb(246, 194, 132);"></path>
			<path d="M 627 836.099976 H 998.600006 V 848.699976 H 627 V 836.099976 Z" class="st5" style="fill: rgb(87, 91, 114);"></path>
			<g>
				<path d="M 652.4000244140625 774.7000122070312 L 630.7000122070312 785.5 L 662 849.2999877929688 L 709 849.2999877929688 L 709 836.0999755859375 L 689.7000122070312 821.5999755859375 L 680.0999755859375 796.2999877929688 Z" class="st13" style="fill: rgb(21, 21, 32);"></path>
				<path d="M 739.5999755859375 583.0999755859375 L 725.2000122070312 638.5999755859375 L 732.4000244140625 661.4000244140625 L 717.9000244140625 716.7999877929688 L 648.0999755859375 778.2999877929688 L 682.4000244140625 802.5999755859375 L 769.7000122070312 734.9000244140625 L 797.4000244140625 643.4000244140625 L 857.7000122070312 707.2000122070312 L 899.7999877929688 816.7999877929688 L 936 798.7999877929688 L 909.5 680.7000122070312 L 842 583.0999755859375 Z" class="st12" style="fill: rgb(27, 54, 99);"></path>
				<path d="M 899.7999877929688 816.7999877929688 L 910.7000122070312 848.7000122070312 L 998.5999755859375 804.7999877929688 L 989.5999755859375 794.5 L 931.0999755859375 796.2999877929688 Z" class="st13" style="fill: rgb(21, 21, 32);"></path>
				<path d="M 796.2000122070312 398.79998779296875 L 769.0999755859375 438.6000061035156 L 738.4000244140625 583.0999755859375 L 855.2000122070312 599.4000244140625 L 857.7000122070312 462.1000061035156 L 843.2000122070312 407.8999938964844 Z" class="st14" style="fill: rgb(236, 237, 236);"></path>
				<path d="M 810.7000122070312 401.20001220703125 L 810.7000122070312 463.8999938964844 L 846.7999877929688 506 L 857.5999755859375 493.6000061035156 Z" class="st2" style="fill: rgb(206, 213, 228);"></path>
				<path d="M 817.9000244140625 454.29998779296875 L 849.2000122070312 499.1000061035156 L 883 476.70001220703125 L 857.5999755859375 410.29998779296875 L 810.7000122070312 401.20001220703125 Z" class="st14" style="fill: rgb(236, 237, 236);"></path>
			</g>
			<path d="M 944.0999755859375 550.5999755859375 L 955.0999755859375 565.0999755859375 L 982.9000244140625 569.2999877929688 L 996.0999755859375 560 L 996.0999755859375 553 L 973.2000122070312 550.5999755859375 L 960.2999877929688 532.7000122070312 L 944.0999755859375 539.7999877929688 Z" class="st10" style="fill: rgb(246, 194, 132);"></path>
			<path d="M 956.4000244140625 532.7000122070312 L 970.0999755859375 532.7000122070312 L 979.7999877929688 539.7000122070312 L 975.5999755859375 543.5 L 960.2999877929688 543.5 Z" class="st10" style="fill: rgb(246, 194, 132);"></path>
		</g><path d="M 932.900024 359.799988 H 938.900024 V 396.399986 H 932.900024 V 359.799988 Z" class="st15" style="fill: rgb(75, 62, 51);" transform="matrix(1, 0, 0, 1, 0, -2.1316282072803006e-14)"></path><path d="M 927 354 H 933 V 376.799999 H 927 V 354 Z" transform="matrix(0.7071000337600708, 0.7071999907493591, -0.7071999907493591, 0.7071000337600708, 530.8300170898438, -550.6306762695312)" class="st15" style="fill: rgb(75, 62, 51);"></path><path d="M 938.900024 354 H 944.900024 V 376.799999 H 938.900024 V 354 Z" transform="matrix(0.7071999907493591, -0.7070000171661377, 0.7070000171661377, 0.7071999907493591, 17.423200607299805, 772.8685913085938)" class="st15" style="fill: rgb(75, 62, 51);"></path><path d="M 996.099976 355.200012 H 1070.799973 V 398.800011 H 996.099976 V 355.200012 Z" class="st14" style="fill: rgb(236, 237, 236);" transform="matrix(1, 0, 0, 1, 0, -1.4210854715202004e-14)"></path><path d="M 996.099976 482.899994 H 1070.799973 V 489.199994 H 996.099976 V 482.899994 Z" class="st15" style="fill: rgb(75, 62, 51);" transform="matrix(1, 0, 0, 1, 0, -1.4210854715202004e-14)"></path><defs>
			<path d="M 0 0 H 1400 V 975.5 H 0 V 0 Z" id="SVGID_1_"></path>
		</defs><clipPath id="SVGID_2_">
			<use style="overflow:visible;" href="#SVGID_1_"></use>
		</clipPath><g transform="matrix(1, 0, 0, 1, 0, -2.1316282072803006e-14)" style="clip-path: url(&quot;#SVGID_2_&quot;);">
				<g>
					<g>
						<g>
							<path class="st17" d="M-826.9,551.7c-7.8,0-14.2-2.7-18.9-8.2c-12.3-14.1-8.7-41.6-8.6-42.8l6.8,0.9c0,0.3-3.3,25.6,7,37.4
								c3.4,3.9,7.9,5.8,13.7,5.8V551.7z" style="fill: rgb(40, 41, 46);"></path>
						</g>
						<g>
							<path d="M -875.099976 403.700012 H -826.899975 V 505.200012 H -875.099976 V 403.700012 Z" class="st18" style="fill: rgb(58, 59, 59);"></path>
							<path d="M -875.099976 497.200012 H -826.899975 V 505.200012 H -875.099976 V 497.200012 Z" class="st19" style="fill: rgb(31, 32, 39);"></path>
						</g>
						<g>
							<g>
								<path d="M -885.400024 657.099976 H -846.200024 V 848.699982 H -885.400024 V 657.099976 Z" class="st13" style="fill: rgb(21, 21, 32);"></path>
								<path d="M -801.500023 752.900024 A 83.900002 95.800003 0 0 1 -885.400024 848.700027 A 83.900002 95.800003 0 0 1 -969.300026 752.900024 A 83.900002 95.800003 0 0 1 -885.400024 657.100021 A 83.900002 95.800003 0 0 1 -801.500023 752.900024 Z" class="st17" style="fill: rgb(40, 41, 46);"></path>
								<path d="M -762.300011 752.900024 A 83.900002 95.800003 0 0 1 -846.200012 848.700027 A 83.900002 95.800003 0 0 1 -930.100014 752.900024 A 83.900002 95.800003 0 0 1 -846.200012 657.100021 A 83.900002 95.800003 0 0 1 -762.300011 752.900024 Z" class="st13" style="fill: rgb(21, 21, 32);"></path>
								<path class="st13" d="M-897.2,752.9c0,32.1,22.8,58.2,51,58.2c28.1,0,51-26,51-58.2s-22.8-58.2-51-58.2
									C-874.4,694.8-897.2,720.8-897.2,752.9z" style="fill: rgb(21, 21, 32);"></path>
								<path d="M -817.299988 752.900024 A 25.5 29.1 0 0 1 -842.799988 782.000025 A 25.5 29.1 0 0 1 -868.299988 752.900024 A 25.5 29.1 0 0 1 -842.799988 723.800024 A 25.5 29.1 0 0 1 -817.299988 752.900024 Z" class="st13" style="fill: rgb(21, 21, 32);"></path>
								<path class="st13" d="M-857.5,752.9c0,10.9,7.7,19.7,17.2,19.7c9.5,0,17.2-8.8,17.2-19.7c0-10.9-7.7-19.7-17.2-19.7
									C-849.8,733.3-857.5,742.1-857.5,752.9z" style="fill: rgb(21, 21, 32);"></path>
								<path d="M -885.400024 739.200012 H -573.600037 V 772.600014 H -885.400024 V 739.200012 Z" class="st13" style="fill: rgb(21, 21, 32);"></path>
							</g>
							<g>
								<path class="st13" d="M-879.8,745.5c3.6,0,7-2.3,8.2-6c5.1-16.1,15.3-18.1,15.4-18.1c4.7-0.7,7.9-5,7.2-9.7
									c-0.7-4.7-5-7.9-9.7-7.2c-0.8,0.1-20.9,3.4-29.2,29.8c-1.4,4.5,1.1,9.3,5.6,10.7C-881.5,745.4-880.6,745.5-879.8,745.5z" style="fill: rgb(21, 21, 32);"></path>
							</g>
						</g>
						<g>
							<g>
								<path d="M -27.799999 657.099976 H 14.299999 V 848.699982 H -27.799999 V 657.099976 Z" class="st13" style="fill: rgb(21, 21, 32);"></path>
								<path class="st17" d="M-108.7,752.9c0,52.9,37.6,95.8,83.9,95.8c46.3,0,83.9-42.9,83.9-95.8s-37.6-95.8-83.9-95.8
									C-71.2,657.1-108.7,700-108.7,752.9z" style="fill: rgb(40, 41, 46);"></path>
								<path d="M 98.300001 752.900024 A 83.900002 95.800003 0 0 1 14.4 848.700027 A 83.900002 95.800003 0 0 1 -69.500002 752.900024 A 83.900002 95.800003 0 0 1 14.4 657.100021 A 83.900002 95.800003 0 0 1 98.300001 752.900024 Z" class="st13" style="fill: rgb(21, 21, 32);"></path>
								<path d="M 65.4 752.900024 A 51 58.200001 0 0 1 14.4 811.100025 A 51 58.200001 0 0 1 -36.6 752.900024 A 51 58.200001 0 0 1 14.4 694.700024 A 51 58.200001 0 0 1 65.4 752.900024 Z" class="st19" style="fill: rgb(31, 32, 39);"></path>
								<path class="st13" d="M-7.7,752.9C-7.7,769,3.7,782,17.8,782c14.1,0,25.5-13,25.5-29.1s-11.4-29.1-25.5-29.1
									C3.7,723.9-7.7,736.9-7.7,752.9z" style="fill: rgb(21, 21, 32);"></path>
								<path d="M 37.5 752.900024 A 17.200001 19.700001 0 0 1 20.299999 772.600025 A 17.200001 19.700001 0 0 1 3.099998 752.900024 A 17.200001 19.700001 0 0 1 20.299999 733.200024 A 17.200001 19.700001 0 0 1 37.5 752.900024 Z" class="st13" style="fill: rgb(21, 21, 32);"></path>
								<path d="M -24.799999 739.200012 H 286.999989 V 772.600014 H -24.799999 V 739.200012 Z" class="st13" style="fill: rgb(21, 21, 32);"></path>
							</g>
							<g>
								<path class="st13" d="M-19.2,745.5c3.6,0,7-2.3,8.2-6c5.1-16.1,15.3-18.1,15.4-18.1c4.7-0.7,7.9-5,7.2-9.7
									c-0.7-4.7-5-7.9-9.7-7.2c-0.8,0.1-20.9,3.4-29.2,29.8c-1.4,4.5,1.1,9.3,5.6,10.7C-20.9,745.4-20,745.5-19.2,745.5z" style="fill: rgb(21, 21, 32);"></path>
							</g>
						</g>
						<path d="M 160.5 607 H 389.300003 V 753 H 160.5 V 607 Z" class="st13" style="fill: rgb(21, 21, 32);"></path>
						<path d="M -672.799988 61.799999 H -270.799988 V 745.599987 H -672.799988 V 61.799999 Z" class="st12" style="fill: rgb(27, 54, 99);"></path>
						<g>
							<g>
								<path d="M -672.799988 99.699997 H -270.799988 V 107.999997 H -672.799988 V 99.699997 Z" class="st11" style="fill: rgb(39, 73, 122);"></path>
								<path d="M -672.799988 108 H -270.799988 V 137.1 H -672.799988 V 108 Z" class="st20" style="fill: rgb(21, 46, 81);"></path>
							</g>
							<g>
								<path d="M -672.799988 175 H -270.799988 V 183.3 H -672.799988 V 175 Z" class="st11" style="fill: rgb(39, 73, 122);"></path>
								<path d="M -672.799988 183.300003 H -270.799988 V 212.400003 H -672.799988 V 183.300003 Z" class="st20" style="fill: rgb(21, 46, 81);"></path>
							</g>
							<g>
								<path d="M -672.799988 250.399994 H -270.799988 V 258.699994 H -672.799988 V 250.399994 Z" class="st11" style="fill: rgb(39, 73, 122);"></path>
								<path d="M -672.799988 258.700012 H -270.799988 V 287.800013 H -672.799988 V 258.700012 Z" class="st20" style="fill: rgb(21, 46, 81);"></path>
							</g>
						</g>
						<path d="M -710.400024 607 H -435.000031 V 753 H -710.400024 V 607 Z" class="st13" style="fill: rgb(21, 21, 32);"></path>
						<path d="M -854.9000244140625 522.5 L -550.7000122070312 522.5 L -516.5 264.79998779296875 L -820.7000122070312 264.79998779296875 Z" class="st21" style="fill: rgb(49, 50, 53);"></path>
						<path d="M -821.5999755859375 497.20001220703125 L -577.2999877929688 497.20001220703125 L -549.7999877929688 290.20001220703125 L -794.0999755859375 290.20001220703125 Z" class="st22" style="fill: rgb(168, 179, 206);"></path>
						<g>
							<g>
								<path d="M -621.700012 657.099976 H -579.600014 V 848.699982 H -621.700012 V 657.099976 Z" class="st13" style="fill: rgb(21, 21, 32);"></path>
								<path d="M -534.899986 752.900024 A 83.900002 95.800003 0 0 1 -618.799988 848.700027 A 83.900002 95.800003 0 0 1 -702.699989 752.900024 A 83.900002 95.800003 0 0 1 -618.799988 657.100021 A 83.900002 95.800003 0 0 1 -534.899986 752.900024 Z" class="st13" style="fill: rgb(21, 21, 32);"></path>
								<path d="M -495.699974 752.900024 A 83.900002 95.800003 0 0 1 -579.599976 848.700027 A 83.900002 95.800003 0 0 1 -663.499977 752.900024 A 83.900002 95.800003 0 0 1 -579.599976 657.100021 A 83.900002 95.800003 0 0 1 -495.699974 752.900024 Z" class="st17" style="fill: rgb(40, 41, 46);"></path>
								<path d="M -528.599976 752.900024 A 51 58.200001 0 0 1 -579.599976 811.100025 A 51 58.200001 0 0 1 -630.599976 752.900024 A 51 58.200001 0 0 1 -579.599976 694.700024 A 51 58.200001 0 0 1 -528.599976 752.900024 Z" class="st18" style="fill: rgb(58, 59, 59);"></path>
								<path d="M -550.700012 752.900024 A 25.5 29.1 0 0 1 -576.200012 782.000025 A 25.5 29.1 0 0 1 -601.700012 752.900024 A 25.5 29.1 0 0 1 -576.200012 723.800024 A 25.5 29.1 0 0 1 -550.700012 752.900024 Z" class="st17" style="fill: rgb(40, 41, 46);"></path>
								<path class="st13" d="M-590.8,752.9c0,10.9,7.7,19.7,17.2,19.7c9.5,0,17.2-8.8,17.2-19.7c0-10.9-7.7-19.7-17.2-19.7
									C-583.1,733.3-590.8,742.1-590.8,752.9z" style="fill: rgb(21, 21, 32);"></path>
							</g>
							<g>
								<path class="st22" d="M-613.2,745.5c3.6,0,7-2.3,8.2-6c5.1-16.1,15.3-18.1,15.4-18.1c4.7-0.7,7.9-5,7.2-9.7
									c-0.7-4.7-5-7.9-9.7-7.2c-0.8,0.1-20.9,3.4-29.2,29.8c-1.4,4.5,1.1,9.3,5.6,10.7C-614.9,745.4-614,745.5-613.2,745.5z" style="fill: rgb(168, 179, 206);"></path>
							</g>
						</g>
						<path d="M -1066.800049 573.900024 H -762.300049 V 745.500031 H -1066.800049 V 573.900024 Z" class="st18" style="fill: rgb(58, 59, 59);"></path>
						<path class="st19" d="M-550.7,522.5l34.2-257.8h214.9v480.7h-171.9c-3.4-63.6-49.6-114.1-106.2-114.1
							c-54.7,0-99.8,53.4-105.7,114.1h-77V573.9L-550.7,522.5z" style="fill: rgb(31, 32, 39);"></path>
						<path d="M -550.7000122070312 522.5 L -762.2999877929688 573.9000244140625 L -1066.800048828125 573.9000244140625 L -854.9000244140625 522.5 Z" class="st17" style="fill: rgb(40, 41, 46);"></path>
						<path d="M -270.70001220703125 745.5 L -301.5 745.5 L -301.5 264.79998779296875 L -270.70001220703125 299 Z" class="st23" style="fill: rgb(223, 137, 38);"></path>
						<g>
							<g>
								<path d="M 244.399994 657.099976 H 283.599995 V 848.699982 H 244.399994 V 657.099976 Z" class="st13" style="fill: rgb(21, 21, 32);"></path>
								<path d="M 328.299995 752.900024 A 83.900002 95.800003 0 0 1 244.399994 848.700027 A 83.900002 95.800003 0 0 1 160.499992 752.900024 A 83.900002 95.800003 0 0 1 244.399994 657.100021 A 83.900002 95.800003 0 0 1 328.299995 752.900024 Z" class="st13" style="fill: rgb(21, 21, 32);"></path>
								<path d="M 367.500008 752.900024 A 83.900002 95.800003 0 0 1 283.600006 848.700027 A 83.900002 95.800003 0 0 1 199.700005 752.900024 A 83.900002 95.800003 0 0 1 283.600006 657.100021 A 83.900002 95.800003 0 0 1 367.500008 752.900024 Z" class="st17" style="fill: rgb(40, 41, 46);"></path>
								<path class="st12" d="M532.2,61.8v683.8H389.3c-6-60.6-51-114.1-105.7-114.1c-54.7,0-99.7,53.5-105.7,114.1h-448.6V61.8
									H532.2z" style="fill: rgb(27, 54, 99);"></path>
								<path d="M 334.600006 752.900024 A 51 58.200001 0 0 1 283.600006 811.100025 A 51 58.200001 0 0 1 232.600006 752.900024 A 51 58.200001 0 0 1 283.600006 694.700024 A 51 58.200001 0 0 1 334.600006 752.900024 Z" class="st18" style="fill: rgb(58, 59, 59);"></path>
								<path class="st17" d="M261.5,752.9c0,16.1,11.4,29.1,25.5,29.1c14.1,0,25.5-13,25.5-29.1s-11.4-29.1-25.5-29.1
									C272.9,723.9,261.5,736.9,261.5,752.9z" style="fill: rgb(40, 41, 46);"></path>
								<path class="st13" d="M272.3,752.9c0,10.9,7.7,19.7,17.2,19.7c9.5,0,17.2-8.8,17.2-19.7c0-10.9-7.7-19.7-17.2-19.7
									C280,733.3,272.3,742.1,272.3,752.9z" style="fill: rgb(21, 21, 32);"></path>
							</g>
							<g>
								<path class="st22" d="M250,745.5c3.6,0,7-2.3,8.2-6c5.1-16.1,15.3-18.1,15.4-18.1c4.7-0.7,7.9-5,7.2-9.7
									c-0.7-4.7-5-7.9-9.7-7.2c-0.8,0.1-20.9,3.4-29.2,29.8c-1.4,4.5,1.1,9.3,5.6,10.7C248.3,745.4,249.2,745.5,250,745.5z" style="fill: rgb(168, 179, 206);"></path>
							</g>
						</g>
						<path d="M -520.5 497.20001220703125 L -325.8999938964844 497.20001220703125 L -325.8999938964844 288.70001220703125 L -493.1000061035156 288.70001220703125 Z" class="st22" style="fill: rgb(168, 179, 206);"></path>
						<path d="M 389.299988 739.200012 H 541.899994 V 753.000012 H 389.299988 V 739.200012 Z" class="st17" style="fill: rgb(40, 41, 46);"></path>
						<path d="M -270.700012 739.200012 H 178.399994 V 753.000012 H -270.700012 V 739.200012 Z" class="st17" style="fill: rgb(40, 41, 46);"></path>
						<path d="M -301.5 739.200012 H -270.700001 V 753.000012 H -301.5 V 739.200012 Z" class="st13" style="fill: rgb(21, 21, 32);"></path>
						<path d="M -473.399994 739.200012 H -301.5 V 753.000012 H -473.399994 V 739.200012 Z" class="st17" style="fill: rgb(40, 41, 46);"></path>
						<path d="M -762.299988 739.200012 H -683.099991 V 753.000012 H -762.299988 V 739.200012 Z" class="st17" style="fill: rgb(40, 41, 46);"></path>
						<path d="M -1075.699951 739.200012 H -754.899963 V 753.000012 H -1075.699951 V 739.200012 Z" class="st17" style="fill: rgb(40, 41, 46);"></path>
						<path d="M -347.700012 288.700012 H -325.900013 V 497.100006 H -347.700012 V 288.700012 Z" class="st18" style="fill: rgb(58, 59, 59);"></path>
						<path d="M -672.799988 290.200012 H -649.399988 V 497.200012 H -672.799988 V 290.200012 Z" class="st18" style="fill: rgb(58, 59, 59);"></path>
						<path d="M -697.200012 290.200012 H -672.800013 V 497.200012 H -697.200012 V 290.200012 Z" class="st21" style="fill: rgb(49, 50, 53);"></path>
						<path d="M -343.70001220703125 352.6000061035156 L -343.70001220703125 497.20001220703125 L -520.5 497.20001220703125 L -501.5 352.6000061035156 Z" class="st24" style="fill: rgb(193, 62, 51);"></path>
						<path d="M -370 352.6000061035156 L -343.70001220703125 352.6000061035156 L -343.70001220703125 497.20001220703125 L -389.3999938964844 497.20001220703125 Z" class="st25" style="fill: rgb(170, 49, 36);"></path>
						<path d="M -558.0999755859375 352.6000061035156 L -672.7999877929688 352.6000061035156 L -690.7000122070312 497.20001220703125 L -577.2999877929688 497.20001220703125 Z" class="st24" style="fill: rgb(193, 62, 51);"></path>
						<g>
							<path d="M -388.799988 516.599976 H -343.699989 V 549.099976 H -388.799988 V 516.599976 Z" class="st13" style="fill: rgb(21, 21, 32);"></path>
							<path d="M -388.799988 516.599976 H -343.699989 V 535.999975 H -388.799988 V 516.599976 Z" class="st18" style="fill: rgb(58, 59, 59);"></path>
						</g>
						<path d="M -556.4000244140625 634.4000244140625 L -550.7000122070312 636 L -550.7000122070312 522.5 L -556.4000244140625 523.9000244140625 Z" class="st13" style="fill: rgb(21, 21, 32);"></path>
						<path class="st19" d="M-637,448.4c-17.9,0-32.4,14.5-32.4,32.4h-13.7c0-25.5,20.6-46.1,46.1-46.1c25.5,0,46.1,20.6,46.1,46.1
							h-13.7C-604.5,462.9-619,448.4-637,448.4z" style="fill: rgb(31, 32, 39);"></path>
						<path d="M -572.7000122070312 462.70001220703125 L -577.2999877929688 497.20001220703125 L -821.5999755859375 497.20001220703125 L -817 462.1000061035156 Z" class="st25" style="fill: rgb(170, 49, 36);"></path>
						<g>
							<path class="st17" d="M-497.7,551.7c7.8,0,14.2-2.7,18.9-8.2c12.3-14.1,8.7-41.6,8.6-42.8l-6.8,0.9c0,0.3,3.3,25.6-7,37.4
								c-3.4,3.9-7.9,5.8-13.7,5.8V551.7z" style="fill: rgb(40, 41, 46);"></path>
						</g>
						<g>
							<path d="M -497.700012 403.700012 H -458.100014 V 505.200012 H -497.700012 V 403.700012 Z" class="st18" style="fill: rgb(58, 59, 59);"></path>
							<path d="M -458.100006 403.700012 H -449.500006 V 505.200012 H -458.100006 V 403.700012 Z" class="st19" style="fill: rgb(31, 32, 39);"></path>
							<path d="M -497.700012 497.200012 H -449.500011 V 505.200012 H -497.700012 V 497.200012 Z" class="st19" style="fill: rgb(31, 32, 39);"></path>
						</g>
						<path d="M -343.70001220703125 288.70001220703125 L -343.70001220703125 352.6000061035156 L -501.5 352.6000061035156 L -493.1000061035156 288.70001220703125 Z" class="st17" style="fill: rgb(40, 41, 46);"></path>
						<path d="M -549.7999877929688 290.20001220703125 L -558.0999755859375 352.6000061035156 L -649.4000244140625 352.6000061035156 L -649.4000244140625 290.20001220703125 Z" class="st17" style="fill: rgb(40, 41, 46);"></path>
						<path d="M -697.2000122070312 290.20001220703125 L -697.2000122070312 462.1000061035156 L -817 462.1000061035156 L -794.0999755859375 290.20001220703125 Z" class="st22" style="fill: rgb(168, 179, 206);"></path>
						<path d="M -848.5 597 H -782.900002 V 666.599998 H -848.5 V 597 Z" class="st17" style="fill: rgb(40, 41, 46);"></path>
						<path d="M -1038.400024 597 H -972.800026 V 666.599998 H -1038.400024 V 597 Z" class="st17" style="fill: rgb(40, 41, 46);"></path>
						<path d="M -855.299988 597 H -789.699989 V 666.599998 H -855.299988 V 597 Z" class="st12" style="fill: rgb(27, 54, 99);"></path>
						<path d="M -1045.199951 597 H -979.599953 V 666.599998 H -1045.199951 V 597 Z" class="st12" style="fill: rgb(27, 54, 99);"></path>
						<path d="M -961.900024 635.5 H -868.400024 V 645.8 H -961.900024 V 635.5 Z" class="st13" style="fill: rgb(21, 21, 32);"></path>
						<path d="M -961.900024 657.099976 H -868.400024 V 667.399976 H -961.900024 V 657.099976 Z" class="st13" style="fill: rgb(21, 21, 32);"></path>
						<path d="M -961.900024 614.900024 H -868.400024 V 625.200025 H -961.900024 V 614.900024 Z" class="st13" style="fill: rgb(21, 21, 32);"></path>
						<path d="M -762.2999877929688 739.2000122070312 L -683.0999755859375 739.2000122070312 L -710.4000244140625 694.7999877929688 L -762.2999877929688 694.7999877929688 Z" class="st17" style="fill: rgb(40, 41, 46);"></path>
						<path d="M -1075.699951 694.799988 H -754.899963 V 739.199989 H -1075.699951 V 694.799988 Z" class="st21" style="fill: rgb(49, 50, 53);"></path>
						<path d="M 465.6000061035156 698.7999877929688 L 541.9000244140625 698.7999877929688 L 541.9000244140625 743.2000122070312 L 431.3999938964844 743.2000122070312 Z" class="st17" style="fill: rgb(40, 41, 46);"></path>
					</g>
				</g>
			</g><g transform="matrix(1, 0, 0, 1, 0, -2.842170943040401e-14)" style="clip-path: url(&quot;#SVGID_2_&quot;);">
					<path d="M -270.700012 99.699997 H 532.200012 V 107.999997 H -270.700012 V 99.699997 Z" class="st11" style="fill: rgb(39, 73, 122);"></path>
					<path d="M -270.700012 108 H 532.200012 V 137.1 H -270.700012 V 108 Z" class="st20" style="fill: rgb(21, 46, 81);"></path>
				</g><path d="M -270.700012 175 H 532.200012 V 183.3 H -270.700012 V 175 Z" class="st11" style="fill: rgb(39, 73, 122); clip-path: url(&quot;#SVGID_2_&quot;);" transform="matrix(1, 0, 0, 1, 0, -3.552713678800501e-14)"></path><path d="M -270.700012 183.300003 H 532.200012 V 212.400003 H -270.700012 V 183.300003 Z" class="st20" style="fill: rgb(21, 46, 81); clip-path: url(&quot;#SVGID_2_&quot;);" transform="matrix(1, 0, 0, 1, 0, -3.552713678800501e-14)"></path><path d="M -270.700012 250.399994 H 532.200012 V 258.699994 H -270.700012 V 250.399994 Z" class="st11" style="fill: rgb(39, 73, 122); clip-path: url(&quot;#SVGID_2_&quot;);" transform="matrix(1, 0, 0, 1, 0, -3.552713678800501e-14)"></path><path d="M -270.700012 258.700012 H 532.200012 V 287.800013 H -270.700012 V 258.700012 Z" class="st20" style="fill: rgb(21, 46, 81); clip-path: url(&quot;#SVGID_2_&quot;);" transform="matrix(1, 0, 0, 1, 0, -3.552713678800501e-14)"></path><path d="M -270.700012 325.700012 H 532.200012 V 334.000012 H -270.700012 V 325.700012 Z" class="st11" style="fill: rgb(39, 73, 122); clip-path: url(&quot;#SVGID_2_&quot;);" transform="matrix(1, 0, 0, 1, 0, -2.842170943040401e-14)"></path><path d="M -270.700012 334 H 532.200012 V 363.1 H -270.700012 V 334 Z" class="st20" style="fill: rgb(21, 46, 81); clip-path: url(&quot;#SVGID_2_&quot;);" transform="matrix(1, 0, 0, 1, 0, -2.842170943040401e-14)"></path><path d="M -270.700012 400.600006 H 532.200012 V 408.900006 H -270.700012 V 400.600006 Z" class="st11" style="fill: rgb(39, 73, 122); clip-path: url(&quot;#SVGID_2_&quot;);" transform="matrix(1, 0, 0, 1, 0, -2.842170943040401e-14)"></path><path d="M -270.700012 409 H 532.200012 V 438.1 H -270.700012 V 409 Z" class="st20" style="fill: rgb(21, 46, 81); clip-path: url(&quot;#SVGID_2_&quot;);" transform="matrix(1, 0, 0, 1, 0, -2.842170943040401e-14)"></path><path d="M -270.700012 478.399994 H 532.200012 V 486.699994 H -270.700012 V 478.399994 Z" class="st11" style="fill: rgb(39, 73, 122); clip-path: url(&quot;#SVGID_2_&quot;);" transform="matrix(1, 0, 0, 1, 0, -2.842170943040401e-14)"></path><path d="M -270.700012 486.799988 H 532.200012 V 515.899988 H -270.700012 V 486.799988 Z" class="st20" style="fill: rgb(21, 46, 81); clip-path: url(&quot;#SVGID_2_&quot;);" transform="matrix(1, 0, 0, 1, 0, -2.842170943040401e-14)"></path><path d="M 513.799988 61.799999 H 541.799988 V 516.400005 H 513.799988 V 61.799999 Z" class="st20" style="fill: rgb(21, 46, 81); clip-path: url(&quot;#SVGID_2_&quot;);" transform="matrix(1, 0, 0, 1, 0, -2.842170943040401e-14)"></path><path d="M 502.600006 61.799999 H 513.800006 V 516.400005 H 502.600006 V 61.799999 Z" class="st11" style="fill: rgb(39, 73, 122); clip-path: url(&quot;#SVGID_2_&quot;);" transform="matrix(1, 0, 0, 1, 0, -2.842170943040401e-14)"></path><path d="M -270.700012 61.799999 H -242.600012 V 516.599987 H -270.700012 V 61.799999 Z" class="st20" style="fill: rgb(21, 46, 81); clip-path: url(&quot;#SVGID_2_&quot;);" transform="matrix(1, 0, 0, 1, 0, -2.842170943040401e-14)"></path><path d="M -242.699997 61.799999 H -231.499997 V 516.599987 H -242.699997 V 61.799999 Z" class="st11" style="fill: rgb(39, 73, 122); clip-path: url(&quot;#SVGID_2_&quot;);" transform="matrix(1, 0, 0, 1, 0, -2.842170943040401e-14)"></path><path d="M -680.700012 61.799999 H -652.600012 V 264.799999 H -680.700012 V 61.799999 Z" class="st20" style="fill: rgb(21, 46, 81); clip-path: url(&quot;#SVGID_2_&quot;);" transform="matrix(1, 0, 0, 1, 0, -2.842170943040401e-14)"></path><path d="M -652.700012 61.799999 H -641.500012 V 264.799999 H -652.700012 V 61.799999 Z" class="st11" style="fill: rgb(39, 73, 122); clip-path: url(&quot;#SVGID_2_&quot;);" transform="matrix(1, 0, 0, 1, 0, -2.842170943040401e-14)"></path><path d="M -288 61.799999 H -242.700001 V 99.700001 H -288 V 61.799999 Z" class="st20" style="fill: rgb(21, 46, 81); clip-path: url(&quot;#SVGID_2_&quot;);" transform="matrix(1, 0, 0, 1, 0, -2.1316282072803006e-14)"></path><path d="M -680.700012 61.799999 H -635.400013 V 99.700001 H -680.700012 V 61.799999 Z" class="st20" style="fill: rgb(21, 46, 81); clip-path: url(&quot;#SVGID_2_&quot;);" transform="matrix(1, 0, 0, 1, 0, -2.1316282072803006e-14)"></path><path d="M -242.699997 61.799999 H -197.399998 V 99.700001 H -242.699997 V 61.799999 Z" class="st11" style="fill: rgb(39, 73, 122); clip-path: url(&quot;#SVGID_2_&quot;);" transform="matrix(1, 0, 0, 1, 0, -2.1316282072803006e-14)"></path><path d="M 496.600006 61.799999 H 541.900005 V 99.700001 H 496.600006 V 61.799999 Z" class="st11" style="fill: rgb(39, 73, 122); clip-path: url(&quot;#SVGID_2_&quot;);" transform="matrix(1, 0, 0, 1, 0, -2.1316282072803006e-14)"></path><path d="M 496.600006 478.399994 H 541.900005 V 516.299995 H 496.600006 V 478.399994 Z" class="st11" style="fill: rgb(39, 73, 122); clip-path: url(&quot;#SVGID_2_&quot;);" transform="matrix(1, 0, 0, 1, 0, -2.1316282072803006e-14)"></path><path d="M -242.699997 478.399994 H -197.399998 V 516.299995 H -242.699997 V 478.399994 Z" class="st11" style="fill: rgb(39, 73, 122); clip-path: url(&quot;#SVGID_2_&quot;);" transform="matrix(1, 0, 0, 1, 0, -2.1316282072803006e-14)"></path><path d="M -197.399994 614.900024 H -36.599991 V 739.200027 H -197.399994 V 614.900024 Z" class="st20" style="fill: rgb(21, 46, 81); clip-path: url(&quot;#SVGID_2_&quot;);" transform="matrix(1, 0, 0, 1, 0, -2.1316282072803006e-14)"></path><path d="M -189.300003 624.400024 H -44.600006 V 739.200027 H -189.300003 V 624.400024 Z" class="st12" style="fill: rgb(27, 54, 99); clip-path: url(&quot;#SVGID_2_&quot;);" transform="matrix(1, 0, 0, 1, 0, -2.1316282072803006e-14)"></path><g transform="matrix(1, 0, 0, 1, 0, -2.842170943040401e-14)" style="clip-path: url(&quot;#SVGID_2_&quot;);">
					<path d="M -338.100006 127.900002 H -287.200005 V 153.800001 H -338.100006 V 127.900002 Z" class="st25" style="fill: rgb(170, 49, 36);"></path>
					<path d="M -338.100006 119.599998 H -287.200005 V 145.499998 H -338.100006 V 119.599998 Z" class="st24" style="fill: rgb(193, 62, 51);"></path>
				</g><path d="M -625.799988 127.900002 H -574.899986 V 153.800001 H -625.799988 V 127.900002 Z" class="st25" style="fill: rgb(170, 49, 36); clip-path: url(&quot;#SVGID_2_&quot;);" transform="matrix(1, 0, 0, 1, 0, -3.552713678800501e-14)"></path><path d="M -625.799988 119.599998 H -574.899986 V 145.499998 H -625.799988 V 119.599998 Z" class="st24" style="fill: rgb(193, 62, 51); clip-path: url(&quot;#SVGID_2_&quot;);" transform="matrix(1, 0, 0, 1, 0, -3.552713678800501e-14)"></path><path d="M -605.299988 579.299988 H -576.399988 V 592.399988 H -605.299988 V 579.299988 Z" class="st12" style="fill: rgb(27, 54, 99); clip-path: url(&quot;#SVGID_2_&quot;);" transform="matrix(1, 0, 0, 1, 0, -2.1316282072803006e-14)"></path><path d="M -373 621.400024 A 51.5 51.5 0 0 1 -424.5 672.900024 A 51.5 51.5 0 0 1 -476 621.400024 A 51.5 51.5 0 0 1 -424.5 569.900024 A 51.5 51.5 0 0 1 -373 621.400024 Z" class="st12" style="fill: rgb(27, 54, 99); clip-path: url(&quot;#SVGID_2_&quot;);" transform="matrix(1, 0, 0, 1, 0, -2.1316282072803006e-14)"></path><path d="M -431.1000061035156 563.5 L -389.6000061035156 627.7999877929688 L -422.79998779296875 627.7999877929688 L -390.8999938964844 688.2000122070312 L -459.29998779296875 612.0999755859375 L -424.70001220703125 612.0999755859375 L -456.1000061035156 563.5 Z" class="st24" style="fill: rgb(193, 62, 51); clip-path: url(&quot;#SVGID_2_&quot;);" transform="matrix(1, 0, 0, 1, 0, -2.1316282072803006e-14)"></path>
</g>
</svg>