<?xml version="1.0" encoding="UTF-8" standalone="no"?>
<svg
   xmlns:dc="http://purl.org/dc/elements/1.1/"
   xmlns:cc="http://creativecommons.org/ns#"
   xmlns:rdf="http://www.w3.org/1999/02/22-rdf-syntax-ns#"
   xmlns:svg="http://www.w3.org/2000/svg"
   xmlns="http://www.w3.org/2000/svg"
   xmlns:sodipodi="http://sodipodi.sourceforge.net/DTD/sodipodi-0.dtd"
   xmlns:inkscape="http://www.inkscape.org/namespaces/inkscape"
   width="300"
   height="400"
   viewBox="0 0 67.904511 30.186661"
   preserveAspectRatio="xMinYMin meet"
   version="1.1"
   id="svg835"
   sodipodi:docname="logo.svg"
   inkscape:version="0.92.3 (2405546, 2018-03-11)">
  <metadata
     id="metadata841">
    <rdf:RDF>
      <cc:Work
         rdf:about="">
        <dc:format>image/svg+xml</dc:format>
        <dc:type
           rdf:resource="http://purl.org/dc/dcmitype/StillImage" />
        <dc:title></dc:title>
      </cc:Work>
    </rdf:RDF>
  </metadata>
  <defs
     id="defs839" />
  <sodipodi:namedview
     pagecolor="#ffffff"
     bordercolor="#666666"
     borderopacity="1"
     objecttolerance="10"
     gridtolerance="10"
     guidetolerance="10"
     inkscape:pageopacity="0"
     inkscape:pageshadow="2"
     inkscape:window-width="1366"
     inkscape:window-height="716"
     id="namedview837"
     showgrid="false"
     inkscape:zoom="0.5"
     inkscape:cx="464.69561"
     inkscape:cy="544.26027"
     inkscape:window-x="-8"
     inkscape:window-y="-8"
     inkscape:window-maximized="1"
     inkscape:current-layer="svg835" />
  <g
     id="g846"
     transform="matrix(0.20415537,0,0,0.15878022,7.6593507,-89.145085)"
     style="stroke-width:5.55419827">
    <path
       style="fill:#d34a47;stroke-width:5.55419827"
       inkscape:connector-curvature="0"
       id="path829"
       d="m 200.3835,1113.0122 5.427,-90.43 14.985,-25.58005 c 0,0 -34.106,13.95205 -91.205,13.95205 -57.100003,0 -90.689003,-13.69405 -90.689003,-13.69405 l 16.794,27.90405 5.941,87.848 c 0,9.418 31.059,17.052 69.374003,17.052 38.313,0 69.373,-7.634 69.373,-17.052 m -17.119,-422.29505 11.391,-45.02513 63.081,-66.37611 -16.626,-14.16101 -66.784,70.70706 -13.226,53.79319 a 886.14,886.14 0 0 0 -29.873,-0.497 c -70.336003,0 -127.3550032,8.016 -127.3550032,17.902 0,9.887 57.0190002,17.902 127.3550032,17.902 70.335,0 127.353,-8.015 127.353,-17.902 0,-7.28 -30.924,-13.546 -75.316,-16.343" />
    <path
       style="fill:#ffffff;stroke-width:5.55419827"
       inkscape:connector-curvature="0"
       id="path831"
       d="m 176.6385,715.93215 c 0,0 -2.467,0.553 -9.724,0.584 -7.259,0.03 -12.413,-0.047 -14.466,-1.917 -0.552,-0.502 -0.854,-1.499 -0.851,-2.174 0.006,-1.285 0.918,-2.042 2.08,-2.516 l 1.099,1.724 c -0.478,0.165 -0.751,0.36 -0.752,0.568 -0.004,0.976 7.422,1.644 13.102,1.572 5.681,-0.07 12.545,-0.538 12.551,-1.5 0,-0.291 -0.519,-0.565 -1.422,-0.781 l 1.094,-1.712 c 1.472,0.457 2.757,1.34 2.754,2.868 -0.014,2.598 -3.32,2.993 -5.465,3.284" />
    <path
       style="fill:#d34a47;stroke-width:5.55419827"
       inkscape:connector-curvature="0"
       id="path833"
       d="m 257.6125,579.44691 c 1.586,-1.832 -0.821,-6.518 -5.376,-10.46501 -4.557,-3.945 -9.537,-5.659 -11.126,-3.827 -1.587,1.832 0.821,6.51801 5.378,10.46301 4.555,3.946 9.537,5.662 11.124,3.829 m -60.263,312.68124 c -1.495,-14.384 31.462,-35.216 23.004,-35.883 -18.208,1.041 -27.27,21.338 -36.431,42.596 -3.357,7.791 -14.844,41.013 -22.378,36.923 -7.532,-4.088 9.765,-31.407 14.613,-47.631 -5.594,4.102 -26.109,20.041 -31.396,5.114 -8.5,7.219 -26.663,11.13 -24.614,-7.833 -4.522,8.01 -14.671,19.193 -26.853003,14.546 -15.998,-6.101 9.270003,-57.062 15.553003,-54.491 6.284,2.57 -1.268,14.179 -3.246,18.687 -4.35,9.921 -9.375003,22.393 -6.018003,24.946 5.751003,4.374 21.401003,-16.547 21.749003,-17.007 2.927,-3.867 11.266,-29.166 17.987,-26.261 6.721,2.905 -16.764,36.308 -7.983,42.937 1.771,1.338 9.017,-0.825 13.425,-5.594 2.852,-3.085 1.871,-9.918 11.378,-32.59 9.507,-22.671 17.98,-50.905 24.5,-48.754 6.52,2.15 1.146,16.641 -1.193,22.043 -10.976,25.354 -29.956,67.241 -21.005,64.07 8.951,-3.17 13.612,-3.356 22.377,-13.613 8.765,-10.257 8.361,-27.152 14.203,-26.793 5.844,0.36 4.863,5.777 3.446,9.902 5.75,-6.58 27.256,-20.438 32.448,-6.713 6.15,16.249 -30.769,39.72 -21.564,38.523 8.975,-1.167 23.515,-10.376 29.723,-18.749 l 17.088,-153.626 c 0,0 -17.195,14.23 -126.589,14.23 -109.395003,0 -124.8110032,-13.934 -124.8110032,-13.934 l 14.5480002,140.224 c 7.722,-21.947 26.059,-66.339 54.963,-64.849 13.148,0.678 30.700003,25.995 15.665,26.853 -6.364,0.362 -7.01,-12.637 -14.546,-14.546 -5.438,-1.378 -13.009,3.043 -17.902,7.833 -9.758,9.55 -30.745,47.229 -27.972,66.014 3.533,23.949 33.048,-8.322 38.042,-17.903 3.517,-6.749 5.893,-26.745 13.585,-24.647 7.693,2.098 -0.671,22.734 -6.247,40.979 -6.264,20.487 -9.557,42.098 -17.408,39.612 -7.852,-2.484 4.938,-28.932 4.475,-33.566 -7.38,6.809 -20.976,24.047 -38.37,15.515 l 9.035,87.078 c 0,0 24.013,18.97305 96.350003,18.97305 72.337,0 97.239,-18.67705 97.239,-18.67705 l 11.219,-100.857 c -9.179,8.938 -38.229,24.81 -40.089,6.919" />
  </g>
</svg>
