<?xml version="1.0" encoding="UTF-8" standalone="no"?>
<svg
   xmlns:dc="http://purl.org/dc/elements/1.1/"
   xmlns:cc="http://creativecommons.org/ns#"
   xmlns:rdf="http://www.w3.org/1999/02/22-rdf-syntax-ns#"
   xmlns:svg="http://www.w3.org/2000/svg"
   xmlns="http://www.w3.org/2000/svg"
   height="400"
   width="700"
   xml:space="preserve"
   enable-background="new 0 0 40 40"
   viewBox="0 0 700 400"
   y="0px"
   x="0px"
   id="Layer_1"
   version="1.1"><metadata
   id="metadata316"><rdf:RDF><cc:Work
       rdf:about=""><dc:format>image/svg+xml</dc:format><dc:type
         rdf:resource="http://purl.org/dc/dcmitype/StillImage" /><dc:title></dc:title></cc:Work></rdf:RDF></metadata><defs
   id="defs314">






</defs>
<rect
   y="2"
   x="2"
   height="397.91666"
   width="698"
   id="rect5536"
   style="fill:#ffd5d5;fill-opacity:1;stroke:#444444;stroke-width:0;stroke-linecap:butt;stroke-linejoin:bevel;stroke-miterlimit:4;stroke-dasharray:none;stroke-opacity:1;paint-order:markers stroke fill" /><path
   d="m 588.70259,236.48297 c 0.3964,-3.3254 2.77485,-4.94059 7.33353,-4.94059 2.37844,0 4.16227,0.19002 5.3515,0.57007 1.18922,0.38004 1.98203,0.95011 2.47754,1.90023 0.49551,0.8551 0.69371,1.7102 0.79281,2.37528 0.0991,0.66508 0.0991,1.7102 0.0991,3.04036 v 31.06871 c 0,1.33016 0,2.37528 -0.0991,3.04036 -0.0991,0.66508 -0.3964,1.42517 -0.79281,2.37529 -0.89192,1.52018 -2.97305,2.28027 -6.34251,2.28027 -3.36947,0 -5.64881,-0.38005 -6.73893,-1.23515 -1.18922,-0.76009 -1.78383,-1.99524 -1.98203,-3.51542 -2.27934,3.13537 -6.04521,4.75057 -11.39671,4.75057 -5.3515,0 -10.30659,-2.37529 -14.86527,-7.03084 -4.55868,-4.65556 -6.83802,-10.0712 -6.83802,-16.24694 0,-6.17574 2.27934,-11.59138 6.93712,-16.24694 4.55869,-4.65555 9.61288,-6.93583 15.16258,-6.93583 2.08114,0 3.96407,0.38005 5.7479,1.04513 1.68473,0.66508 2.97306,1.33016 3.56767,1.99524 0.59461,0.57006 1.18922,1.14013 1.58563,1.7102 z m -16.84731,18.4322 c 0,1.99524 0.79281,3.70544 2.37844,5.32063 1.58563,1.6152 3.56767,2.37529 5.84701,2.37529 2.27934,0 4.16227,-0.76009 5.6488,-2.37529 1.48653,-1.61519 2.27934,-3.32539 2.27934,-5.32063 0,-1.90023 -0.69371,-3.70544 -2.18024,-5.41565 -1.48652,-1.61519 -3.36946,-2.47029 -5.847,-2.47029 -2.47755,0 -4.45958,0.8551 -5.94611,2.47029 -1.38743,1.71021 -2.18024,3.51542 -2.18024,5.41565 z"
   id="path200-4"
   style="fill:#2aa7b6;stroke-width:1" /><path
   d="m 451.02542,82.447458 h -3.8 v -3.8 c 0,-0.8 -0.7,-1.5 -1.5,-1.5 -0.8,0 -1.5,0.7 -1.5,1.5 v 3.8 h -3.7 c -0.8,0 -1.5,0.7 -1.5,1.5 0,0.8 0.7,1.5 1.5,1.5 h 3.8 v 3.8 c 0,0.8 0.7,1.5 1.5,1.5 0.8,0 1.5,-0.7 1.5,-1.5 v -3.8 h 3.8 c 0.8,0 1.5,-0.7 1.5,-1.5 0,-0.8 -0.8,-1.5 -1.6,-1.5 z"
   id="path56"
   style="fill:#2c4557" /><path
   d="m 326.12542,173.84746 h -3.8 v -3.8 c 0,-0.8 -0.7,-1.5 -1.5,-1.5 -0.8,0 -1.5,0.7 -1.5,1.5 v 3.8 h -3.8 c -0.8,0 -1.5,0.7 -1.5,1.5 0,0.8 0.7,1.5 1.5,1.5 h 3.8 v 3.8 c 0,0.8 0.7,1.5 1.5,1.5 0.8,0 1.5,-0.7 1.5,-1.5 v -3.8 h 3.8 c 0.8,0 1.5,-0.7 1.5,-1.5 0,-0.8 -0.7,-1.5 -1.5,-1.5 z"
   id="path58"
   style="fill:#2c4557" /><path
   d="m 53.725423,188.64746 h -3.8 v -3.8 c 0,-0.8 -0.7,-1.5 -1.5,-1.5 -0.8,0 -1.5,0.7 -1.5,1.5 v 3.8 h -3.8 c -0.8,0 -1.5,0.7 -1.5,1.5 0,0.8 0.7,1.5 1.5,1.5 h 3.8 v 3.8 c 0,0.8 0.7,1.5 1.5,1.5 0.8,0 1.5,-0.7 1.5,-1.5 v -3.8 h 3.8 c 0.8,0 1.5,-0.7 1.5,-1.5 0,-0.8 -0.7,-1.5 -1.5,-1.5 z"
   id="path60"
   style="fill:#2c4557" /><path
   d="m 273.92542,24.547458 h -3.8 v -3.8 c 0,-0.8 -0.7,-1.5 -1.5,-1.5 -0.8,0 -1.5,0.7 -1.5,1.5 v 3.8 h -3.8 c -0.8,0 -1.5,0.7 -1.5,1.5 0,0.8 0.7,1.5 1.5,1.5 h 3.8 v 3.8 c 0,0.8 0.7,1.5 1.5,1.5 0.8,0 1.5,-0.7 1.5,-1.5 v -3.8 h 3.8 c 0.8,0 1.5,-0.7 1.5,-1.5 0,-0.8 -0.7,-1.5 -1.5,-1.5 z"
   id="path62"
   style="fill:#2c4557" /><path
   d="m 366.62542,64.847458 h -3.8 v -3.8 c 0,-0.8 -0.7,-1.5 -1.5,-1.5 -0.8,0 -1.5,0.7 -1.5,1.5 v 3.8 h -3.8 c -0.8,0 -1.5,0.7 -1.5,1.5 0,0.8 0.7,1.5 1.5,1.5 h 3.8 v 3.8 c 0,0.8 0.7,1.5 1.5,1.5 0.8,0 1.5,-0.7 1.5,-1.5 v -3.8 h 3.8 c 0.8,0 1.5,-0.7 1.5,-1.5 0,-0.8 -0.6,-1.5 -1.5,-1.5 z"
   id="path64"
   style="fill:#2c4557" /><path
   d="m 556.12542,178.64746 h -3.8 v -3.8 c 0,-0.8 -0.7,-1.5 -1.5,-1.5 -0.8,0 -1.5,0.7 -1.5,1.5 v 3.8 h -3.8 c -0.8,0 -1.5,0.7 -1.5,1.5 0,0.8 0.7,1.5 1.5,1.5 h 3.8 v 3.8 c 0,0.8 0.7,1.5 1.5,1.5 0.8,0 1.5,-0.7 1.5,-1.5 v -3.8 h 3.8 c 0.8,0 1.5,-0.7 1.5,-1.5 0,-0.8 -0.7,-1.5 -1.5,-1.5 z"
   id="path66"
   style="fill:#2c4557" /><path
   d="m 617.12542,56.247458 h -3.8 v -3.8 c 0,-0.8 -0.7,-1.5 -1.5,-1.5 -0.8,0 -1.5,0.7 -1.5,1.5 v 3.8 h -3.8 c -0.8,0 -1.5,0.7 -1.5,1.5 0,0.8 0.7,1.5 1.5,1.5 h 3.8 v 3.8 c 0,0.8 0.7,1.5 1.5,1.5 0.8,0 1.5,-0.7 1.5,-1.5 v -3.8 h 3.8 c 0.8,0 1.5,-0.7 1.5,-1.5 0,-0.8 -0.7,-1.5 -1.5,-1.5 z"
   id="path68"
   style="fill:#2c4557" /><path
   d="m 377.62542,51.747458 h -3.8 v -3.8 c 0,-0.8 -0.7,-1.5 -1.5,-1.5 -0.8,0 -1.5,0.7 -1.5,1.5 v 3.8 h -3.8 c -0.8,0 -1.5,0.7 -1.5,1.5 0,0.8 0.7,1.5 1.5,1.5 h 3.8 v 3.8 c 0,0.8 0.7,1.5 1.5,1.5 0.8,0 1.5,-0.7 1.5,-1.5 v -3.8 h 3.8 c 0.8,0 1.5,-0.7 1.5,-1.5 0,-0.8 -0.7,-1.5 -1.5,-1.5 z"
   id="path70"
   style="fill:#2c4557" /><path
   d="M 32.025423,279.04747 H 651.02542 v 7 H 32.025423 Z"
   id="path72"
   style="fill:#303e5c" /><g
   transform="translate(-8.4745767,-49.152542)"
   id="g134">
			<g
   id="g78">
				<path
   d="M 116.1,261.60001 H 133 v 12.5 h -16.9 z"
   id="path74"
   style="fill:#ffffff" />
				<path
   d="m 133,275.1 h -16.9 c -0.5,0 -1,-0.4 -1,-1 v -12.5 c 0,-0.5 0.4,-1 1,-1 H 133 c 0.5,0 1,0.4 1,1 v 12.5 c 0,0.5 -0.4,1 -1,1 z m -15.9,-2 h 15 v -10.5 h -15 z"
   id="path76"
   style="fill:#303e5c" />
			</g>
			<g
   id="g84">
				<path
   d="M 152.1,241.3 A 26.9,21.6 0 0 1 125.2,262.9 26.9,21.6 0 0 1 98.299997,241.3 26.9,21.6 0 0 1 125.2,219.7 a 26.9,21.6 0 0 1 26.9,21.6 z"
   id="path80"
   style="fill:#ffffff" />
				<path
   d="m 125.2,263.9 c -15.4,0 -28,-10.1 -28,-22.6 0,-12.5 12.6,-22.6 28,-22.6 15.4,0 28,10.1 28,22.6 0,12.5 -12.5,22.6 -28,22.6 z m 0,-43.2 c -14.3,0 -25.9,9.2 -25.9,20.6 0,11.3 11.6,20.5 25.9,20.5 14.3,0 25.9,-9.2 25.9,-20.5 0.1,-11.3 -11.6,-20.6 -25.9,-20.6 z"
   id="path82"
   style="fill:#303e5c" />
			</g>
			<g
   id="g88">
				<path
   d="m 111.2,250.6 c 0,1.3 -1,2.3 -2.3,2.3 -1.3,0 -2.3,-1 -2.3,-2.3 0,-1.3 1,-2.3 2.3,-2.3 1.3,0 2.3,1.1 2.3,2.3 z"
   id="path86"
   style="fill:#e9bfb3" />
			</g>
			<g
   id="g92">
				<path
   d="m 140.1,250.60001 a 2.3,2.3 0 0 1 -2.3,2.3 2.3,2.3 0 0 1 -2.3,-2.3 2.3,2.3 0 0 1 2.3,-2.3 2.3,2.3 0 0 1 2.3,2.3 z"
   id="path90"
   style="fill:#e9bfb3" />
			</g>
			<g
   id="g98">
				<path
   d="m 114.9,267.8 c 2.8,0.2 0,6.4 9.3,6.4 8.9,0 8.9,-6.4 8.9,-6.4 16.8,-1.1 10.4,61.1 10.4,61.1 l -40,0.1 c 0,0.1 -5.2,-62.3 11.4,-61.2 z"
   id="path94"
   style="fill:#817b73" />
				<path
   d="m 103.5,330.1 c -0.5,0 -1,-0.4 -1,-0.9 -0.2,-2 -3.9,-48.5 6.5,-59.8 1.7,-1.9 3.7,-2.7 6,-2.6 1.7,0.1 2.2,1.5 2.5,2.6 0.6,1.8 1.4,3.8 6.6,3.8 7.7,0 7.9,-5.1 7.9,-5.3 0,-0.5 0.4,-1 1,-1 2.3,-0.2 4.4,0.7 6.1,2.6 10.2,11.3 5.6,57.6 5.4,59.6 -0.1,0.5 -0.5,0.9 -1,0.9 l -40,0.1 c 0,0 0,0 0,0 z m 10.9,-61.2 c -1.5,0 -2.8,0.6 -4,1.9 -9,9.8 -6.5,50.5 -6,57.2 l 38.1,-0.1 c 0.6,-6.7 3.9,-47.3 -5,-57.1 -1.1,-1.2 -2.3,-1.8 -3.6,-1.9 -0.4,2 -2.3,6.4 -9.8,6.4 -6.7,0 -7.9,-3.2 -8.6,-5.2 -0.4,-1.1 -0.5,-1.2 -0.7,-1.2 -0.1,0 -0.2,0 -0.4,0 z"
   id="path96"
   style="fill:#303e5c" />
			</g>
			<g
   id="g104">
				<path
   d="m 151.1,221.2 c -6.4,-7.4 -20,-11.5 -34.3,-6.6 0.4,-3.4 3.4,-2.3 3.4,-2.3 -4.6,-3.7 -13,2.9 -13,2.9 l 0.5,-6.4 c -7.3,2.8 -4.5,10.2 -4.5,10.2 -9.2,-1.8 -9.8,3.7 -9.8,3.7 6,-1.9 5.5,4.4 4.9,10 -3.1,8.6 1.7,15.5 1.7,15.5 -3.5,-13.3 7.2,-18.9 9.2,-20.6 0,0 5.7,4.2 14.9,5.2 l -5.5,-6.7 c 2.1,0.4 12.2,9.6 18.6,7.9 0,0 -4.7,-4.8 -2.4,-4.5 2.9,0.4 10.8,6.4 10.8,6.4 0,0 -1.6,-5.8 -0.3,-4.9 2.3,1.4 6.8,10.2 4.6,18.5 0,0 6.6,-6.7 0.6,-18.4 2.7,3.3 4,7.1 3,10.8 0,0.2 4.9,-12.3 -2.4,-20.7 z"
   id="path100"
   style="fill:#c48e5f" />
				<path
   d="m 149.9,250.5 c -0.2,0 -0.3,0 -0.4,-0.1 -0.4,-0.2 -0.5,-0.6 -0.4,-1 1.8,-6.9 -1.2,-14 -3.3,-16.6 0.1,0.8 0.4,1.9 0.7,3 0.1,0.4 0,0.8 -0.4,1 -0.3,0.2 -0.7,0.2 -1.1,0 -1.9,-1.4 -6.9,-5 -9.5,-5.9 0.5,0.7 1.4,1.8 2.3,2.7 0.2,0.2 0.3,0.6 0.2,0.9 -0.1,0.3 -0.3,0.6 -0.6,0.6 -0.6,0.2 -1.3,0.3 -2,0.3 -4.2,0 -9.2,-3.1 -12.9,-5.5 l 2.2,2.7 c 0.2,0.3 0.3,0.7 0.1,1 -0.2,0.3 -0.5,0.5 -0.9,0.5 -7.8,-0.9 -13.1,-4 -14.7,-5 -0.1,0.1 -0.2,0.2 -0.4,0.3 -3.3,2.3 -10.9,7.6 -7.9,18.9 0.1,0.4 -0.1,0.9 -0.5,1.1 -0.4,0.2 -0.9,0.1 -1.1,-0.3 -0.2,-0.3 -5,-7.3 -1.9,-16.2 0.3,-2.9 0.7,-7.2 -0.6,-8.7 -0.6,-0.7 -1.6,-0.7 -3.2,-0.3 -0.3,0.1 -0.6,0 -0.8,-0.2 -0.2,-0.2 -0.4,-0.5 -0.3,-0.8 0,0 0.5,-4.9 7.3,-4.9 0.7,0 1.4,0 2.2,0.1 -0.3,-1.4 -0.4,-3.5 0.5,-5.6 0.9,-1.9 2.5,-3.4 4.9,-4.3 0.3,-0.1 0.6,-0.1 0.9,0.1 0.2,0.2 0.4,0.5 0.4,0.8 l -0.3,4.4 c 1.9,-1.3 5.3,-3.1 8.5,-3.1 1.6,0 2.9,0.4 4,1.3 0.3,0.2 0.4,0.5 0.3,0.8 2.7,-0.6 5.5,-0.9 8.2,-0.9 9.2,0 17.6,3.4 22.5,9.1 7.6,8.7 2.8,21.3 2.6,21.9 -0.1,0.2 -0.3,0.4 -0.5,0.5 -0.6,4.6 -3.1,7.2 -3.3,7.3 -0.3,0.1 -0.5,0.1 -0.8,0.1 z m -4.8,-20.4 c 0.2,0 0.5,0.1 0.7,0.2 2.1,1.3 5.7,7.9 5.6,15 1,-2.9 1.5,-7.5 -1.7,-13.7 -0.2,-0.4 -0.1,-0.9 0.3,-1.2 0.4,-0.3 0.9,-0.2 1.2,0.2 1.3,1.6 2.2,3.2 2.8,4.8 0.4,-4.1 0,-9.5 -3.6,-13.7 -4.6,-5.3 -12.5,-8.4 -21.2,-8.4 -4.1,0 -8.2,0.7 -12.2,2.1 -0.3,0.1 -0.6,0 -0.9,-0.2 -0.2,-0.2 -0.4,-0.5 -0.3,-0.8 0.1,-1.1 0.5,-1.9 1,-2.4 0,0 -0.1,0 -0.1,0 -4.1,0 -9,3.8 -9,3.9 -0.3,0.2 -0.7,0.3 -1,0.1 -0.3,-0.2 -0.5,-0.5 -0.5,-0.9 l 0.4,-4.8 c -1.2,0.7 -2,1.6 -2.5,2.7 -1.2,2.7 -0.1,5.6 -0.1,5.7 0.1,0.3 0.1,0.7 -0.2,0.9 -0.2,0.3 -0.5,0.4 -0.9,0.3 -1.2,-0.2 -2.3,-0.3 -3.2,-0.3 -2.9,0 -4.3,1.1 -4.9,2 1.4,-0.1 2.5,0.3 3.3,1.1 1.7,1.9 1.5,5.8 1.1,10.2 0,0.1 0,0.1 0,0.2 -1.2,3.3 -1.1,6.3 -0.7,8.7 0.6,-8.1 6.7,-12.3 9.3,-14.2 0.3,-0.2 0.6,-0.4 0.8,-0.6 0.3,-0.3 0.8,-0.3 1.1,0 0.1,0 4.7,3.4 12.2,4.7 l -4,-4.9 c -0.2,-0.3 -0.3,-0.7 -0.1,-1 0.2,-0.3 0.6,-0.5 0.9,-0.4 0.8,0.1 1.8,0.8 3.9,2.2 3.4,2.3 8.6,5.8 12.7,5.8 -2.5,-2.8 -2.1,-3.7 -2,-4 0.1,-0.2 0.4,-0.7 1.2,-0.7 0.1,0 0.2,0 0.3,0 2.2,0.3 6.6,3.2 9.2,5.1 -0.5,-2.6 -0.1,-3.1 0.1,-3.3 0.3,-0.2 0.6,-0.4 1,-0.4 z"
   id="path102"
   style="fill:#303e5c" />
			</g>
			<g
   id="g108">
				<path
   d="m 129.5,251.8 c -0.6,0 -1.1,0.4 -1.1,0.8 0,0.4 -1.5,0.9 -3.8,0.9 -2.3,0 -3.8,-0.5 -3.8,-0.9 0,-0.5 -0.5,-0.8 -1.1,-0.8 -0.6,0 -1.1,0.4 -1.1,0.8 0,0.5 0.3,1.4 2.2,2 1,0.3 2.4,0.5 3.8,0.5 2.8,0 6,-0.7 6,-2.5 -0.1,-0.5 -0.5,-0.8 -1.1,-0.8 z"
   id="path106"
   style="fill:#303e5c" />
			</g>
			<g
   id="g112">
				<path
   d="m 131.3,227.9 c -1.2,-2 -3.1,-3.4 -5.5,-3.5 -0.9,0 -1.1,1.2 -0.2,1.5 1.7,0.6 2.8,2 4.1,3.1 0.8,0.8 2.2,-0.1 1.6,-1.1 z"
   id="path110"
   style="fill:#303e5c" />
			</g>
			<g
   id="g118">
				<path
   d="m 137.5,268.7 5.2,7.7 c 1.6,-0.1 33.5,4.6 33.5,4.6 l 4.5,-4.7 c -14.2,-2.2 -43.2,-7.6 -43.2,-7.6 z"
   id="path114"
   style="fill:#fec459" />
				<path
   d="m 176.1,282.1 c -0.1,0 -0.1,0 -0.2,0 -8.6,-1.3 -31.4,-4.6 -33.3,-4.6 -0.3,0 -0.8,-0.2 -0.9,-0.5 l -5.2,-7.7 c -0.2,-0.3 -0.2,-0.8 0,-1.1 0.2,-0.3 0.6,-0.5 1.1,-0.4 0.3,0.1 29.2,5.4 43.1,7.6 0.4,0.1 0.7,0.3 0.8,0.7 0.1,0.4 0,0.8 -0.2,1 l -4.5,4.7 c -0.1,0.2 -0.4,0.3 -0.7,0.3 z m -32.9,-6.7 c 4.2,0.3 27.8,3.8 32.6,4.5 l 2.8,-2.9 c -12,-1.9 -32,-5.6 -38.8,-6.8 z"
   id="path116"
   style="fill:#303e5c" />
			</g>
			<g
   id="g122">
				<path
   d="m 117.1,243.3 c -0.5,0 -0.9,-0.4 -0.9,-1 0,-0.4 -1.2,-1.1 -3.1,-1.1 -1.9,0 -3.1,0.7 -3.1,1.1 0,0.6 -0.4,1 -0.9,1 -0.5,0 -0.9,-0.4 -0.9,-1 0,-0.6 0.2,-1.8 1.8,-2.5 0.8,-0.4 1.9,-0.6 3.1,-0.6 2.2,0 4.8,0.8 4.8,3.1 0,0.6 -0.3,1 -0.8,1 z"
   id="path120"
   style="fill:#303e5c" />
			</g>
			<g
   id="g126">
				<path
   d="m 140.5,243.3 c -0.5,0 -0.9,-0.4 -0.9,-1 0,-0.4 -1.2,-1.1 -3.1,-1.1 -1.9,0 -3.1,0.7 -3.1,1.1 0,0.6 -0.4,1 -0.9,1 -0.5,0 -0.9,-0.4 -0.9,-1 0,-0.6 0.2,-1.8 1.8,-2.5 0.8,-0.4 1.9,-0.6 3.1,-0.6 2.2,0 4.8,0.8 4.8,3.1 0,0.6 -0.4,1 -0.8,1 z"
   id="path124"
   style="fill:#303e5c" />
			</g>
			<g
   id="g132">
				<path
   d="m 111.2,268.8 -5.2,7.7 c -1.6,-0.1 -33.5,4.6 -33.5,4.6 L 68,276.4 c 14.2,-2.2 43.2,-7.6 43.2,-7.6 z"
   id="path128"
   style="fill:#fec459" />
				<path
   d="m 72.5,282.1 c -0.3,0 -0.6,-0.1 -0.7,-0.3 l -4.5,-4.7 c -0.3,-0.3 -0.4,-0.7 -0.2,-1 0.1,-0.4 0.4,-0.6 0.8,-0.7 14,-2.2 42.9,-7.5 43.1,-7.6 0.4,-0.1 0.8,0.1 1.1,0.4 0.2,0.3 0.2,0.8 0,1.1 l -5.2,7.7 c -0.2,0.3 -0.6,0.5 -0.9,0.5 -1.9,0 -24.6,3.3 -33.3,4.6 -0.1,0 -0.1,0 -0.2,0 z m -2.4,-5 2.8,2.9 c 4.7,-0.7 28.3,-4.2 32.6,-4.5 l 3.5,-5.2 c -6.9,1.2 -26.9,4.9 -38.9,6.8 z"
   id="path130"
   style="fill:#303e5c" />
			</g>
		</g><g
   transform="translate(-8.4745767,-49.152542)"
   id="g140">
				<path
   d="m 404.60001,261.60001 h 16.9 v 12.5 h -16.9 z"
   id="path136"
   style="fill:#ffffff" />
				<path
   d="m 421.5,275.1 h -16.9 c -0.5,0 -1,-0.4 -1,-1 v -12.5 c 0,-0.5 0.4,-1 1,-1 h 16.9 c 0.5,0 1,0.4 1,1 v 12.5 c 0,0.5 -0.5,1 -1,1 z m -16,-2 h 15 v -10.5 h -15 z"
   id="path138"
   style="fill:#303e5c" />
			</g><path
   d="m 432.12543,192.14746 a 26.9,21.6 0 0 1 -26.9,21.6 26.9,21.6 0 0 1 -26.9,-21.6 26.9,21.6 0 0 1 26.9,-21.6 26.9,21.6 0 0 1 26.9,21.6 z"
   id="path142"
   style="fill:#ffffff" /><path
   d="m 405.22542,214.74746 c -15.4,0 -28,-10.1 -28,-22.6 0,-12.5 12.6,-22.6 28,-22.6 15.4,0 28,10.1 28,22.6 0,12.5 -12.6,22.6 -28,22.6 z m 0,-43.2 c -14.3,0 -25.9,9.2 -25.9,20.6 0,11.3 11.6,20.5 25.9,20.5 14.3,0 25.9,-9.2 25.9,-20.5 0,-11.3 -11.6,-20.6 -25.9,-20.6 z"
   id="path144"
   style="fill:#303e5c" /><path
   d="m 391.22542,201.44746 c 0,1.3 -1,2.3 -2.3,2.3 -1.3,0 -2.3,-1 -2.3,-2.3 0,-1.3 1,-2.3 2.3,-2.3 1.2,0 2.3,1.1 2.3,2.3 z"
   id="path146"
   style="fill:#e9bfb3" /><path
   d="m 420.02543,201.44747 a 2.3,2.3 0 0 1 -2.3,2.3 2.3,2.3 0 0 1 -2.3,-2.3 2.3,2.3 0 0 1 2.3,-2.3 2.3,2.3 0 0 1 2.3,2.3 z"
   id="path148"
   style="fill:#e9bfb3" /><g
   transform="translate(-8.4745767,-49.152542)"
   id="g152">
					<path
   d="m 403.3,267.8 c 2.8,0.2 0,6.4 9.3,6.4 8.9,0 8.9,-6.4 8.9,-6.4 16.8,-1.1 10.4,61.1 10.4,61.1 l -40,0.1 c 0,0.1 -5.2,-62.3 11.4,-61.2 z"
   id="path150"
   style="fill:#fec459" />
				</g><path
   d="m 383.42542,280.94746 c -0.5,0 -1,-0.4 -1,-0.9 -0.2,-2 -3.9,-48.5 6.5,-59.8 1.7,-1.9 3.7,-2.7 6,-2.6 1.7,0.1 2.2,1.5 2.5,2.6 0.6,1.8 1.4,3.8 6.6,3.8 7.7,0 7.9,-5.1 7.9,-5.3 0,-0.5 0.4,-1 1,-1 2.3,-0.2 4.4,0.7 6.1,2.6 10.2,11.3 5.6,57.6 5.4,59.6 -0.1,0.5 -0.5,0.9 -1,0.9 l -40,0.1 c 0,0 0,0 0,0 z m 11,-61.2 c -1.5,0 -2.8,0.6 -4,1.9 -9,9.8 -6.5,50.5 -6,57.2 l 38.1,-0.1 c 0.6,-6.7 3.9,-47.3 -5,-57.1 -1.1,-1.2 -2.3,-1.8 -3.6,-1.9 -0.4,2 -2.3,6.4 -9.8,6.4 -6.7,0 -7.9,-3.2 -8.6,-5.2 -0.4,-1.1 -0.5,-1.2 -0.7,-1.2 -0.2,0 -0.3,0 -0.4,0 z"
   id="path154"
   style="fill:#303e5c" /><path
   d="m 409.42542,202.64746 c -0.6,0 -1.1,0.4 -1.1,0.8 0,0.4 -1.5,0.9 -3.8,0.9 -2.3,0 -3.8,-0.5 -3.8,-0.9 0,-0.5 -0.5,-0.8 -1.1,-0.8 -0.6,0 -1.1,0.4 -1.1,0.8 0,0.5 0.3,1.4 2.2,2 1,0.3 2.4,0.5 3.8,0.5 2.8,0 6,-0.7 6,-2.5 0,-0.5 -0.5,-0.8 -1.1,-0.8 z"
   id="path156"
   style="fill:#303e5c" /><path
   d="m 417.42542,219.54746 5.2,7.7 c 1.6,-0.1 33.5,4.6 33.5,4.6 l 4.5,-4.7 c -14.2,-2.2 -43.2,-7.6 -43.2,-7.6 z"
   id="path158"
   style="fill:#fec459" /><path
   d="m 456.12542,232.94746 c -0.1,0 -0.1,0 -0.2,0 -8.6,-1.3 -31.4,-4.6 -33.3,-4.6 -0.3,0 -0.8,-0.2 -0.9,-0.5 l -5.2,-7.7 c -0.2,-0.3 -0.2,-0.8 0,-1.1 0.2,-0.3 0.6,-0.5 1.1,-0.4 0.3,0.1 29.2,5.4 43.1,7.6 0.4,0.1 0.7,0.3 0.8,0.7 0.1,0.4 0,0.8 -0.2,1 l -4.5,4.7 c -0.2,0.2 -0.4,0.3 -0.7,0.3 z m -33,-6.7 c 4.2,0.3 27.8,3.8 32.6,4.5 l 2.8,-2.9 c -12,-1.9 -32,-5.6 -38.8,-6.8 z"
   id="path160"
   style="fill:#303e5c" /><path
   d="m 397.02542,194.14746 c -0.5,0 -0.9,-0.4 -0.9,-1 0,-0.4 -1.2,-1.1 -3.1,-1.1 -1.9,0 -3.1,0.7 -3.1,1.1 0,0.6 -0.4,1 -0.9,1 -0.5,0 -0.9,-0.4 -0.9,-1 0,-0.6 0.2,-1.8 1.8,-2.5 0.8,-0.4 1.9,-0.6 3.1,-0.6 2.2,0 4.8,0.8 4.8,3.1 0.1,0.6 -0.3,1 -0.8,1 z"
   id="path162"
   style="fill:#303e5c" /><path
   d="m 420.42542,194.14746 c -0.5,0 -0.9,-0.4 -0.9,-1 0,-0.4 -1.2,-1.1 -3.1,-1.1 -1.9,0 -3.1,0.7 -3.1,1.1 0,0.6 -0.4,1 -0.9,1 -0.5,0 -0.9,-0.4 -0.9,-1 0,-0.6 0.2,-1.8 1.8,-2.5 0.8,-0.4 1.9,-0.6 3.1,-0.6 2.2,0 4.8,0.8 4.8,3.1 0.1,0.6 -0.3,1 -0.8,1 z"
   id="path164"
   style="fill:#303e5c" /><path
   d="m 391.22542,219.64746 -5.2,7.7 c -1.6,-0.1 -33.5,4.6 -33.5,4.6 l -4.5,-4.7 c 14.1,-2.2 43.2,-7.6 43.2,-7.6 z"
   id="path166"
   style="fill:#fec459" /><path
   d="m 352.52542,232.94746 c -0.3,0 -0.6,-0.1 -0.7,-0.3 l -4.5,-4.7 c -0.3,-0.3 -0.4,-0.7 -0.2,-1 0.1,-0.4 0.4,-0.6 0.8,-0.7 14,-2.2 42.9,-7.5 43.1,-7.6 0.4,-0.1 0.8,0.1 1.1,0.4 0.2,0.3 0.2,0.8 0,1.1 l -5.2,7.7 c -0.2,0.3 -0.6,0.5 -0.9,0.5 -1.9,0 -24.6,3.3 -33.3,4.6 -0.1,0 -0.2,0 -0.2,0 z m -2.4,-5 2.8,2.9 c 4.7,-0.7 28.3,-4.2 32.6,-4.5 l 3.5,-5.2 c -6.9,1.2 -26.9,4.9 -38.9,6.8 z"
   id="path168"
   style="fill:#303e5c" /><path
   d="m 431.12542,170.34746 c -6.4,-7.4 -20,-11.5 -34.3,-6.6 -31.5,1 -16.7,33.8 -16.7,33.8 -3.5,-13.3 7.2,-18.9 9.2,-20.6 0,0 5.7,4.2 14.9,5.2 l -5.5,-6.7 c 2.1,0.4 12.2,9.6 18.6,7.9 0,0 -4.7,-4.8 -2.4,-4.5 2.9,0.4 10.8,6.4 10.8,6.4 0,0 -1.6,-5.8 -0.3,-4.9 2.3,1.4 6.8,10.2 4.6,18.5 0,0 6.7,-6.7 0.6,-18.4 2.7,3.3 4,7.1 3,10.9 -0.2,-0.1 4.7,-12.6 -2.5,-21 z"
   id="path170"
   style="fill:#a89996" /><path
   d="m 429.92542,199.74746 c -0.2,0 -0.3,0 -0.5,-0.1 -0.4,-0.2 -0.5,-0.6 -0.4,-1 1.8,-6.9 -1.2,-14 -3.3,-16.6 0.1,0.8 0.4,1.9 0.7,3 0.1,0.4 0,0.8 -0.4,1 -0.3,0.2 -0.7,0.2 -1.1,0 -1.9,-1.4 -6.9,-5 -9.5,-5.9 0.5,0.7 1.4,1.8 2.3,2.7 0.2,0.2 0.3,0.6 0.2,0.9 -0.1,0.3 -0.3,0.6 -0.6,0.6 -0.6,0.2 -1.3,0.3 -2,0.3 -4.2,0 -9.2,-3.1 -12.9,-5.5 l 2.2,2.7 c 0.2,0.3 0.3,0.7 0.1,1 -0.2,0.3 -0.5,0.5 -0.9,0.5 -7.8,-0.9 -13.1,-4 -14.7,-5 -0.1,0.1 -0.2,0.2 -0.4,0.3 -3.3,2.3 -10.9,7.6 -7.9,18.9 0.1,0.5 -0.1,0.9 -0.6,1.1 -0.4,0.2 -0.9,-0.1 -1.1,-0.5 -0.3,-0.7 -7.3,-16.4 -0.9,-26.7 3.3,-5.3 9.4,-8.1 18.2,-8.4 4.2,-1.4 8.4,-2.1 12.7,-2.1 9.2,0 17.6,3.4 22.5,9.1 7.6,8.7 2.8,21.3 2.6,21.9 -0.1,0.2 -0.3,0.4 -0.5,0.5 -0.6,4.6 -3.1,7.2 -3.3,7.3 0,-0.1 -0.2,0 -0.5,0 z m -4.8,-20.5 c 0.2,0 0.5,0.1 0.7,0.2 2.1,1.3 5.7,7.9 5.6,15 1,-2.9 1.5,-7.5 -1.7,-13.7 -0.2,-0.4 -0.1,-0.9 0.3,-1.2 0.4,-0.3 0.9,-0.2 1.2,0.2 1.3,1.6 2.2,3.2 2.8,4.8 0.4,-4.1 0,-9.5 -3.6,-13.7 -4.6,-5.3 -12.5,-8.4 -21.2,-8.4 -4.1,0 -8.2,0.7 -12.2,2.1 -0.1,0 -0.2,0 -0.3,0 -8.3,0.3 -14,2.8 -16.9,7.5 -3.4,5.4 -2.6,12.7 -1.3,18 1,-7.5 6.7,-11.5 9.2,-13.3 0.4,-0.2 0.6,-0.4 0.8,-0.6 0.3,-0.3 0.8,-0.3 1.1,0 0.1,0 4.7,3.4 12.2,4.7 l -4,-4.9 c -0.2,-0.3 -0.3,-0.7 -0.1,-1 0.2,-0.3 0.6,-0.5 0.9,-0.4 0.8,0.1 1.8,0.8 3.9,2.2 3.4,2.3 8.6,5.8 12.7,5.8 -2.5,-2.8 -2.1,-3.7 -2,-4 0.1,-0.2 0.4,-0.7 1.2,-0.7 0.1,0 0.2,0 0.3,0 2.2,0.3 6.6,3.2 9.2,5.1 -0.5,-2.6 -0.1,-3.1 0.1,-3.3 0.4,-0.2 0.7,-0.4 1.1,-0.4 z"
   id="path172"
   style="fill:#303e5c" /><g
   transform="translate(-8.4745767,-49.152542)"
   id="g178">
				<path
   d="m 79.2,285.5 c 2.9,-4.4 6.4,-6.6 10.6,-6.6 6.4,0 11.1,2.7 14.2,8.1 0.7,-0.9 1.5,-1.9 2.5,-2.9 1,-1 2.5,-2.1 4.6,-3.4 2.1,-1.2 4.3,-1.8 6.5,-1.8 5,0 9.2,1.9 12.5,5.7 3.3,3.8 5,10.2 5,19 V 320 c 0,1.4 0,2.5 -0.1,3.2 -0.1,0.7 -0.4,1.5 -0.9,2.5 -0.8,1.7 -3.2,2.5 -7.2,2.5 -3.9,0 -6.3,-0.9 -7.2,-2.6 -0.4,-0.9 -0.7,-1.8 -0.8,-2.5 -0.1,-0.7 -0.1,-1.8 -0.1,-3.2 v -16.3 c 0,-5.4 -1.9,-8.1 -5.8,-8.1 -2.2,0 -3.7,0.7 -4.4,2.1 -0.8,1.4 -1.2,3.5 -1.2,6.1 V 320 c 0,1.5 0,2.6 -0.1,3.3 -0.1,0.7 -0.4,1.5 -0.9,2.4 -0.9,1.7 -3.3,2.5 -7.3,2.5 -3.9,0 -6.3,-0.9 -7.2,-2.6 -0.4,-0.9 -0.7,-1.8 -0.8,-2.5 C 91,322.4 91,321.3 91,319.9 v -16.3 c 0,-5.4 -1.9,-8.1 -5.8,-8.1 -3.7,0 -5.6,2.7 -5.6,8.1 v 16.5 c 0,1.4 0,2.5 -0.1,3.2 -0.1,0.7 -0.4,1.5 -0.9,2.5 -0.9,1.6 -3.4,2.4 -7.3,2.4 -3.9,0 -6.3,-0.8 -7.2,-2.5 -0.4,-0.9 -0.7,-1.7 -0.8,-2.4 -0.1,-0.7 -0.1,-1.8 -0.1,-3.3 v -32.9 c 0,-1.4 0,-2.5 0.1,-3.2 0.1,-0.7 0.4,-1.5 0.9,-2.4 0.9,-1.7 3.1,-2.5 6.6,-2.5 3.5,0 5.8,0.6 6.8,1.7 1.1,1.1 1.6,2.7 1.6,4.8 z"
   id="path174"
   style="fill:#2aa7b6" />
				<path
   d="m 127,329.2 c -4.4,0 -7,-1 -8.1,-3.2 -0.5,-1.1 -0.8,-2 -0.9,-2.8 -0.1,-0.8 -0.1,-1.9 -0.1,-3.4 v -16.3 c 0,-6.4 -2.7,-7.1 -4.8,-7.1 -1.8,0 -2.9,0.5 -3.5,1.6 -0.7,1.3 -1,3.1 -1,5.6 V 320 c 0,1.6 0,2.7 -0.1,3.4 -0.1,0.8 -0.4,1.7 -1,2.8 -1.1,2.1 -3.8,3.1 -8.2,3.1 -4.4,0 -7,-1 -8.1,-3.2 -0.5,-1.1 -0.8,-2 -0.9,-2.8 -0.1,-0.8 -0.1,-1.9 -0.1,-3.4 v -16.3 c 0,-6.4 -2.7,-7.1 -4.8,-7.1 -2,0 -4.6,0.7 -4.6,7.1 v 16.5 c 0,1.5 0,2.6 -0.1,3.4 -0.1,0.8 -0.4,1.8 -1,2.8 -1.2,2 -3.8,3 -8.2,3 -4.4,0 -7,-1 -8.1,-3.1 -0.5,-1.1 -0.8,-2 -0.9,-2.8 -0.1,-0.7 -0.1,-1.8 -0.1,-3.4 v -32.9 c 0,-1.5 0,-2.6 0.1,-3.4 0.1,-0.8 0.5,-1.8 1,-2.8 1.1,-2 3.7,-3 7.5,-3 3.8,0 6.3,0.7 7.6,2 0.7,0.8 1.2,1.7 1.6,2.9 2.8,-3.3 6.1,-5 9.8,-5 6.2,0 11,2.5 14.3,7.4 0.5,-0.6 1,-1.2 1.6,-1.8 1,-1.1 2.6,-2.3 4.9,-3.6 2.3,-1.3 4.6,-2 7.1,-2 5.3,0 9.7,2 13.3,6.1 3.5,4 5.3,10.6 5.3,19.7 V 320 c 0,1.5 0,2.6 -0.1,3.4 -0.1,0.8 -0.4,1.8 -1,2.8 -1.3,2 -4,3 -8.4,3 z m -13.9,-34.8 c 3.1,0 6.8,1.6 6.8,9.2 v 16.3 c 0,1.4 0,2.4 0.1,3.1 0.1,0.6 0.3,1.3 0.7,2.2 0.8,1.7 3.9,2 6.3,2 3.5,0 5.6,-0.7 6.3,-1.9 0.5,-0.9 0.7,-1.6 0.8,-2.2 0.1,-0.7 0.1,-1.7 0.1,-3.1 v -16.3 c 0,-8.5 -1.6,-14.7 -4.8,-18.3 -3.2,-3.6 -7,-5.4 -11.7,-5.4 -2,0 -4.1,0.6 -6,1.7 -2,1.2 -3.5,2.2 -4.4,3.2 -0.9,1 -1.7,1.9 -2.4,2.8 -0.2,0.3 -0.5,0.4 -0.9,0.4 -0.3,0 -0.7,-0.2 -0.8,-0.5 -2.9,-5.1 -7.3,-7.6 -13.3,-7.6 -3.8,0 -6.9,2 -9.7,6.2 -0.3,0.4 -0.7,0.6 -1.2,0.4 -0.4,-0.1 -0.7,-0.5 -0.7,-1 0,-1.8 -0.4,-3.2 -1.3,-4.1 -0.6,-0.6 -2.1,-1.4 -6.1,-1.4 -3.1,0 -5,0.7 -5.7,2 -0.4,0.8 -0.7,1.4 -0.8,2 -0.1,0.7 -0.1,1.7 -0.1,3.1 V 320 c 0,1.4 0,2.5 0.1,3.1 0.1,0.6 0.3,1.3 0.7,2.1 0.6,1.2 2.8,1.9 6.3,1.9 3.5,0 5.7,-0.7 6.4,-1.9 0.4,-0.8 0.7,-1.5 0.8,-2.1 0.1,-0.7 0.1,-1.7 0.1,-3.1 v -16.5 c 0,-7.6 3.6,-9.2 6.6,-9.2 3.1,0 6.8,1.6 6.8,9.2 v 16.3 c 0,1.4 0,2.4 0.1,3.1 0.1,0.6 0.3,1.3 0.7,2.2 0.8,1.7 3.9,2 6.3,2 3.5,0 5.7,-0.7 6.4,-2 0.4,-0.8 0.7,-1.5 0.8,-2.1 0.1,-0.6 0.1,-1.7 0.1,-3.1 v -16.3 c 0,-2.8 0.4,-5 1.3,-6.6 0.9,-1.7 2.7,-2.6 5.3,-2.6 z"
   id="path176"
   style="fill:#303e5c" />
			</g><path
   d="m 166.12542,235.04746 c 0.4,-3.5 2.8,-5.2 7.4,-5.2 2.4,0 4.2,0.2 5.4,0.6 1.2,0.4 2,1 2.5,2 0.5,0.9 0.7,1.8 0.8,2.5 0.1,0.7 0.1,1.8 0.1,3.2 v 32.7 c 0,1.4 0,2.5 -0.1,3.2 -0.1,0.7 -0.4,1.5 -0.8,2.5 -0.9,1.6 -3,2.4 -6.4,2.4 -3.4,0 -5.7,-0.4 -6.8,-1.3 -1.2,-0.8 -1.8,-2.1 -2,-3.7 -2.3,3.3 -6.1,5 -11.5,5 -5.4,0 -10.4,-2.5 -15,-7.4 -4.6,-4.9 -6.9,-10.6 -6.9,-17.1 0,-6.5 2.3,-12.2 7,-17.1 4.6,-4.9 9.7,-7.3 15.3,-7.3 2.1,0 4,0.4 5.8,1.1 1.7,0.7 3,1.4 3.6,2.1 0.6,0.6 1.2,1.2 1.6,1.8 z m -17,19.4 c 0,2.1 0.8,3.9 2.4,5.6 1.6,1.7 3.6,2.5 5.9,2.5 2.3,0 4.2,-0.8 5.7,-2.5 1.5,-1.7 2.3,-3.5 2.3,-5.6 0,-2 -0.7,-3.9 -2.2,-5.7 -1.5,-1.7 -3.4,-2.6 -5.9,-2.6 -2.5,0 -4.5,0.9 -6,2.6 -1.4,1.8 -2.2,3.7 -2.2,5.7 z"
   id="path180"
   style="fill:#008080" /><path
   d="m 175.02542,279.94746 c -3.7,0 -6.1,-0.5 -7.4,-1.5 -0.8,-0.6 -1.5,-1.4 -1.9,-2.3 -2.5,2.5 -6.2,3.8 -11,3.8 -5.7,0 -11,-2.6 -15.7,-7.7 -4.8,-5.1 -7.2,-11.1 -7.2,-17.8 0,-6.7 2.4,-12.7 7.2,-17.8 4.8,-5.1 10.2,-7.7 16,-7.7 2.2,0 4.3,0.4 6.2,1.2 1.9,0.8 3.2,1.6 3.9,2.3 0.2,0.2 0.3,0.3 0.5,0.5 0.9,-2.1 3,-4.1 7.9,-4.1 2.6,0 4.4,0.2 5.7,0.6 1.5,0.5 2.5,1.3 3.1,2.5 0.5,1 0.8,2 0.9,2.8 0.1,0.8 0.1,1.9 0.1,3.4 v 32.7 c 0,1.5 0,2.6 -0.1,3.4 -0.1,0.8 -0.4,1.7 -0.9,2.8 -1,1.9 -3.5,2.9 -7.3,2.9 z m -8.8,-7.1 c 0.1,0 0.2,0 0.3,0 0.4,0.1 0.7,0.5 0.8,0.9 0.2,1.3 0.7,2.3 1.6,3 0.7,0.5 2.3,1.1 6.2,1.1 3,0 4.8,-0.6 5.5,-1.9 0.4,-0.8 0.6,-1.5 0.7,-2.1 0.1,-0.7 0.1,-1.7 0.1,-3.1 v -32.7 c 0,-1.4 0,-2.4 -0.1,-3.1 -0.1,-0.6 -0.3,-1.3 -0.7,-2.1 -0.3,-0.7 -0.9,-1.1 -1.9,-1.4 -1.1,-0.3 -2.8,-0.5 -5.1,-0.5 -5.3,0 -6.2,2.5 -6.4,4.3 0,0.4 -0.4,0.8 -0.8,0.9 -0.4,0.1 -0.9,-0.1 -1.1,-0.4 -0.4,-0.6 -0.9,-1.2 -1.5,-1.8 -0.4,-0.4 -1.3,-1 -3.3,-1.9 -1.6,-0.7 -3.4,-1 -5.4,-1 -5.2,0 -10.1,2.4 -14.5,7 -4.4,4.7 -6.7,10.2 -6.7,16.4 0,6.2 2.2,11.7 6.6,16.4 4.4,4.7 9.2,7.1 14.2,7.1 5.1,0 8.6,-1.5 10.7,-4.5 0.1,-0.4 0.5,-0.6 0.8,-0.6 z m -8.8,-9.3 c -2.6,0 -4.8,-0.9 -6.6,-2.8 -1.8,-1.8 -2.7,-4 -2.7,-6.3 0,-2.3 0.9,-4.4 2.5,-6.4 1.7,-2 4,-3 6.8,-3 2.8,0 5,1 6.7,3 1.6,1.9 2.4,4.1 2.4,6.3 0,2.3 -0.9,4.4 -2.6,6.3 -1.7,1.9 -3.9,2.9 -6.5,2.9 z m 0,-16.3 c -2.2,0 -3.9,0.7 -5.2,2.3 -1.4,1.6 -2,3.2 -2,5 0,1.8 0.7,3.4 2.1,4.8 1.4,1.5 3.1,2.2 5.1,2.2 2,0 3.6,-0.7 5,-2.2 1.4,-1.5 2,-3.1 2,-4.9 0,-1.8 -0.6,-3.4 -2,-5 -1.2,-1.5 -2.9,-2.2 -5,-2.2 z"
   id="path182"
   style="fill:#303e5c" /><path
   d="m 218.42542,246.34746 -6.1,-0.4 v 12.9 c 0,1.7 0.3,2.9 0.8,3.6 0.5,0.7 1.5,1.1 3,1.1 1.5,0 2.6,0 3.4,0.1 0.8,0.1 1.6,0.4 2.5,0.9 1.4,0.8 2.1,2.9 2.1,6.3 0,3.9 -0.9,6.3 -2.6,7.2 -0.9,0.4 -1.8,0.7 -2.5,0.8 -0.7,0.1 -1.8,0.1 -3.1,0.1 -6.5,0 -11.4,-1.5 -14.8,-4.4 -3.4,-2.9 -5,-7.9 -5,-14.8 v -13.8 c -1.2,0.2 -2.5,0.3 -3.8,0.3 -1.4,0 -2.5,-0.5 -3.4,-1.6 -0.9,-1.1 -1.4,-2.9 -1.4,-5.4 0,-2.6 0.2,-4.4 0.5,-5.6 0.3,-1.2 0.7,-2 1.3,-2.5 1,-0.8 2.2,-1.2 3.7,-1.2 l 3.1,0.4 v -9.6 c 0,-1.4 0,-2.5 0.1,-3.2 0.1,-0.7 0.4,-1.4 0.9,-2.2 0.8,-1.6 3.2,-2.3 7.2,-2.3 4.2,0 6.8,1.2 7.6,3.5 0.3,1 0.5,2.6 0.5,4.8 v 9.2 c 2.7,-0.2 4.8,-0.4 6.2,-0.4 1.4,0 2.5,0 3.2,0.1 0.7,0.1 1.5,0.4 2.5,0.9 1.6,0.8 2.4,3.2 2.4,7.2 0,3.9 -0.8,6.3 -2.5,7.2 -0.9,0.4 -1.8,0.7 -2.5,0.8 -0.8,0 -1.9,0 -3.3,0 z"
   id="path184"
   style="fill:#2aa7b6" /><path
   d="m 215.92542,280.04746 c -6.7,0 -11.9,-1.6 -15.4,-4.6 -3.6,-3.1 -5.4,-8.4 -5.4,-15.6 v -12.6 c -0.9,0.1 -1.8,0.1 -2.8,0.1 -1.7,0 -3.1,-0.7 -4.2,-2 -1.1,-1.3 -1.6,-3.3 -1.6,-6.1 0,-2.7 0.2,-4.6 0.5,-5.8 0.4,-1.4 0.9,-2.3 1.6,-3 1.2,-1 2.7,-1.5 4.4,-1.5 0,0 0.1,0 0.1,0 l 1.9,0.2 v -8.5 c 0,-1.5 0,-2.6 0.1,-3.3 0.1,-0.8 0.5,-1.7 1,-2.6 1,-1.9 3.6,-2.8 8.1,-2.8 4.7,0 7.6,1.4 8.5,4.1 0.4,1.1 0.5,2.8 0.5,5.1 v 8 c 2.2,-0.2 3.9,-0.3 5.2,-0.3 1.5,0 2.5,0 3.3,0.1 0.8,0.1 1.8,0.4 2.8,1 2,1 3,3.7 3,8.1 0,4.4 -1,7 -3.1,8.1 -1.1,0.5 -2,0.8 -2.8,0.9 -0.8,0.1 -1.9,0.1 -3.4,0.1 l -5,-0.3 v 12 c 0,1.8 0.3,2.7 0.6,3 0.4,0.6 1.4,0.7 2.1,0.7 1.5,0 2.7,0 3.5,0.1 0.9,0.1 1.9,0.4 2.9,1 1.8,1 2.7,3.4 2.7,7.2 0,4.4 -1,7 -3.2,8.1 -1.1,0.5 -2,0.8 -2.8,0.9 -0.6,0.2 -1.7,0.2 -3.1,0.2 z m -19.8,-35.1 c 0.2,0 0.5,0.1 0.7,0.2 0.2,0.2 0.4,0.5 0.4,0.8 v 13.9 c 0,6.6 1.6,11.4 4.7,14.1 3.2,2.7 7.9,4.1 14.1,4.1 1.3,0 2.3,0 3,-0.1 0.6,-0.1 1.3,-0.3 2.2,-0.7 1.7,-0.8 2,-3.9 2,-6.3 0,-2.9 -0.6,-4.8 -1.6,-5.4 -0.8,-0.4 -1.5,-0.7 -2.1,-0.8 -0.7,-0.1 -1.8,-0.1 -3.2,-0.1 -1.8,0 -3.1,-0.5 -3.8,-1.6 -0.7,-0.9 -1,-2.3 -1,-4.2 v -12.9 c 0,-0.3 0.1,-0.6 0.3,-0.8 0.2,-0.2 0.5,-0.3 0.8,-0.3 l 6.1,0.4 c 1.3,0 2.4,0 3,-0.1 0.6,-0.1 1.3,-0.3 2.2,-0.7 1.2,-0.6 1.9,-2.8 1.9,-6.3 0,-3.5 -0.6,-5.7 -1.9,-6.3 -0.8,-0.4 -1.6,-0.7 -2.1,-0.8 -0.7,-0.1 -1.7,-0.1 -3,-0.1 -1.3,0 -3.4,0.1 -6.1,0.4 -0.3,0 -0.6,-0.1 -0.8,-0.3 -0.2,-0.2 -0.3,-0.5 -0.3,-0.8 v -9.2 c 0,-2.1 -0.1,-3.6 -0.4,-4.5 -0.6,-1.8 -2.9,-2.7 -6.6,-2.7 -3.5,0 -5.7,0.6 -6.3,1.8 -0.5,0.7 -0.7,1.4 -0.8,1.9 -0.1,0.6 -0.1,1.7 -0.1,3 v 9.6 c 0,0.3 -0.1,0.6 -0.3,0.8 -0.2,0.2 -0.5,0.3 -0.8,0.3 l -3,-0.4 c -1.2,0 -2.2,0.3 -3,1 -0.4,0.3 -0.7,1 -1,1.9 -0.3,1.1 -0.4,2.8 -0.4,5.3 0,2.3 0.4,3.9 1.1,4.7 0.7,0.8 1.6,1.2 2.6,1.2 1.3,0 2.5,-0.1 3.7,-0.3 -0.3,0.3 -0.3,0.3 -0.2,0.3 z"
   id="path186"
   style="fill:#303e5c" /><path
   d="m 279.72542,248.54746 c 0,3.8 -0.9,6.7 -2.8,8.5 -1.9,1.8 -4,2.8 -6.3,2.8 h -22.1 c 0,1.7 1,3.2 3.1,4.4 2.1,1.2 4.1,1.8 6.2,1.8 3.6,0 6.4,-0.4 8.5,-1.1 l 1,-0.4 c 1.5,-0.7 2.7,-1 3.7,-1 2,0 3.7,1.4 5.1,4.2 0.8,1.7 1.2,3.1 1.2,4.3 0,5.5 -6.6,8.3 -19.9,8.3 -4.6,0 -8.7,-0.8 -12.3,-2.4 -3.6,-1.6 -6.4,-3.7 -8.4,-6.3 -3.9,-5 -5.9,-10.7 -5.9,-16.9 0,-7.8 2.5,-14.1 7.6,-18.8 5.1,-4.7 11.4,-7.1 19,-7.1 8.7,0 15,3.1 19.1,9.2 2.1,3.2 3.2,6.7 3.2,10.5 z m -19.7,2.8 c 2.4,0 3.5,-1 3.5,-3 0,-1.4 -0.5,-2.6 -1.6,-3.5 -1.1,-0.9 -2.6,-1.3 -4.7,-1.3 -2,0 -4,0.8 -6,2.5 -2,1.7 -3,3.4 -3,5.3 z"
   id="path192"
   style="fill:#ff5555" /><path
   d="m 257.42542,281.34746 c -4.7,0 -9,-0.8 -12.7,-2.5 -3.7,-1.7 -6.7,-3.9 -8.8,-6.6 -4,-5.2 -6.1,-11.1 -6.1,-17.5 0,-8.1 2.7,-14.7 7.9,-19.6 5.2,-4.9 11.9,-7.3 19.7,-7.3 9,0 15.7,3.2 19.9,9.6 2.2,3.4 3.3,7.2 3.3,11.2 0,4.1 -1.1,7.2 -3.2,9.2 -2.1,2 -4.5,3 -7,3 h -20.9 c 0.3,0.9 1.1,1.7 2.4,2.5 1.9,1.1 3.8,1.6 5.6,1.6 3.5,0 6.2,-0.4 8.1,-1.1 l 1,-0.4 c 1.6,-0.7 2.9,-1.1 4.1,-1.1 2.4,0 4.4,1.6 6.1,4.8 0.9,1.9 1.3,3.4 1.3,4.8 0.2,9.4 -15.5,9.4 -20.7,9.4 z m 0.1,-51.5 c -7.3,0 -13.4,2.3 -18.3,6.8 -4.8,4.5 -7.3,10.6 -7.3,18.1 0,6 1.9,11.4 5.7,16.3 1.9,2.5 4.6,4.5 8,6 3.4,1.5 7.4,2.3 11.9,2.3 12.5,0 18.9,-2.4 18.9,-7.3 0,-1 -0.4,-2.3 -1.1,-3.8 -1.2,-2.4 -2.6,-3.6 -4.2,-3.6 -0.8,0 -2,0.3 -3.3,0.9 l -1.3,0.3 c -2.2,0.8 -5.1,1.2 -8.9,1.2 -2.2,0 -4.5,-0.6 -6.7,-1.9 -2.4,-1.4 -3.6,-3.2 -3.6,-5.3 0,-0.6 0.5,-1 1,-1 h 22.2 c 2,0 3.9,-0.8 5.6,-2.5 1.7,-1.6 2.5,-4.2 2.5,-7.8 0,-3.6 -1,-7 -3,-10 -3.8,-5.9 -9.8,-8.7 -18.1,-8.7 z m 2.5,22.5 h -11.8 c -0.6,0 -1,-0.5 -1,-1 0,-2.2 1.1,-4.2 3.4,-6.1 2.2,-1.8 4.4,-2.7 6.7,-2.7 2.3,0 4,0.5 5.3,1.5 1.3,1.1 2,2.5 2,4.3 0,1.5 -0.6,4 -4.6,4 z m -10.6,-2.1 h 10.6 c 2.3,0 2.5,-1 2.5,-2 0,-1.1 -0.4,-2 -1.2,-2.6 -0.9,-0.7 -2.2,-1.1 -4,-1.1 -1.8,0 -3.6,0.8 -5.4,2.2 -1.4,1.2 -2.2,2.4 -2.5,3.5 z"
   id="path194"
   style="fill:#303e5c" /><path
   d="m 309.82542,236.34746 c 2.9,-4.4 6.4,-6.6 10.6,-6.6 6.4,0 11.1,2.7 14.2,8.1 0.7,-0.9 1.5,-1.9 2.5,-2.9 1,-1 2.5,-2.1 4.6,-3.4 2.1,-1.2 4.3,-1.8 6.5,-1.8 5,0 9.2,1.9 12.5,5.7 3.4,3.8 5,10.2 5,19 v 16.4 c 0,1.4 0,2.5 -0.1,3.2 -0.1,0.7 -0.4,1.5 -0.9,2.5 -0.8,1.7 -3.2,2.5 -7.2,2.5 -3.9,0 -6.3,-0.9 -7.2,-2.6 -0.4,-0.9 -0.7,-1.8 -0.8,-2.5 -0.1,-0.7 -0.1,-1.8 -0.1,-3.2 v -16.3 c 0,-5.4 -1.9,-8.1 -5.8,-8.1 -2.2,0 -3.7,0.7 -4.4,2.1 -0.8,1.4 -1.2,3.5 -1.2,6.1 v 16.3 c 0,1.5 0,2.6 -0.1,3.3 -0.1,0.7 -0.4,1.5 -0.9,2.4 -0.9,1.7 -3.3,2.5 -7.3,2.5 -3.9,0 -6.3,-0.9 -7.2,-2.6 -0.4,-0.9 -0.7,-1.8 -0.8,-2.5 -0.1,-0.7 -0.1,-1.8 -0.1,-3.2 v -16.3 c 0,-5.4 -1.9,-8.1 -5.8,-8.1 -3.7,0 -5.6,2.7 -5.6,8.1 v 16.5 c 0,1.4 0,2.5 -0.1,3.2 -0.1,0.7 -0.4,1.5 -0.9,2.5 -0.9,1.6 -3.4,2.4 -7.3,2.4 -3.9,0 -6.3,-0.8 -7.2,-2.5 -0.4,-0.9 -0.7,-1.7 -0.8,-2.4 -0.1,-0.7 -0.1,-1.8 -0.1,-3.3 v -32.9 c 0,-1.4 0,-2.5 0.1,-3.2 0.1,-0.7 0.4,-1.5 0.9,-2.4 0.9,-1.7 3.1,-2.5 6.6,-2.5 3.5,0 5.8,0.6 6.8,1.7 1.1,1.1 1.6,2.7 1.6,4.8 z"
   id="path196"
   style="fill:#d2d2d2;fill-opacity:1" /><path
   d="m 357.62542,280.04746 c -4.4,0 -7,-1 -8.1,-3.2 -0.5,-1.1 -0.8,-2 -0.9,-2.8 -0.1,-0.8 -0.1,-1.9 -0.1,-3.4 v -16.3 c 0,-6.4 -2.7,-7.1 -4.8,-7.1 -1.8,0 -2.9,0.5 -3.5,1.6 -0.7,1.3 -1,3.1 -1,5.6 v 16.4 c 0,1.6 0,2.7 -0.1,3.4 -0.1,0.8 -0.4,1.7 -1,2.8 -1.1,2.1 -3.8,3.1 -8.2,3.1 -4.4,0 -7,-1 -8.1,-3.2 -0.5,-1.1 -0.8,-2 -0.9,-2.8 -0.1,-0.8 -0.1,-1.9 -0.1,-3.4 v -16.3 c 0,-6.4 -2.7,-7.1 -4.8,-7.1 -2,0 -4.6,0.7 -4.6,7.1 v 16.5 c 0,1.5 0,2.6 -0.1,3.4 -0.1,0.8 -0.4,1.8 -1,2.8 -1.2,2 -3.8,3 -8.2,3 -4.4,0 -7,-1 -8.1,-3.1 -0.5,-1.1 -0.8,-2 -0.9,-2.8 -0.1,-0.7 -0.2,-1.9 -0.2,-3.4 v -32.9 c 0,-1.5 0,-2.6 0.1,-3.4 0.1,-0.8 0.5,-1.8 1,-2.8 1.1,-2 3.7,-3 7.5,-3 3.8,0 6.3,0.7 7.6,2 0.7,0.8 1.2,1.7 1.5,2.9 2.8,-3.3 6.1,-5 9.8,-5 6.2,0 11,2.5 14.3,7.4 0.5,-0.6 1,-1.2 1.6,-1.8 1,-1.1 2.6,-2.3 4.9,-3.6 2.3,-1.3 4.6,-2 7.1,-2 5.3,0 9.7,2 13.3,6.1 3.5,4 5.3,10.6 5.3,19.7 v 16.4 c 0,1.5 0,2.6 -0.1,3.4 -0.1,0.8 -0.4,1.8 -1,2.8 -1.1,2 -3.8,3 -8.2,3 z m -14,-34.8 c 3.1,0 6.8,1.6 6.8,9.2 v 16.3 c 0,1.4 0,2.4 0.1,3.1 0.1,0.6 0.3,1.3 0.7,2.2 0.8,1.7 3.9,2 6.3,2 3.5,0 5.7,-0.7 6.3,-1.9 0.5,-0.9 0.7,-1.6 0.8,-2.2 0.1,-0.7 0.1,-1.7 0.1,-3.1 v -16.3 c 0,-8.5 -1.6,-14.7 -4.8,-18.3 -3.2,-3.6 -7,-5.4 -11.7,-5.4 -2,0 -4.1,0.6 -6,1.7 -2,1.2 -3.5,2.2 -4.4,3.2 -0.9,1 -1.7,1.9 -2.4,2.8 -0.2,0.3 -0.5,0.4 -0.9,0.4 -0.3,0 -0.7,-0.2 -0.8,-0.5 -2.9,-5.1 -7.3,-7.6 -13.3,-7.6 -3.8,0 -6.9,2 -9.7,6.2 -0.3,0.4 -0.7,0.6 -1.2,0.4 -0.4,-0.1 -0.7,-0.5 -0.7,-1 0,-1.8 -0.4,-3.2 -1.3,-4.1 -0.6,-0.6 -2.1,-1.4 -6.1,-1.4 -3.1,0 -5,0.7 -5.7,2 -0.4,0.8 -0.7,1.4 -0.8,2 -0.1,0.7 -0.1,1.7 -0.1,3.1 v 32.8 c 0,1.4 0,2.5 0.1,3.1 0.1,0.6 0.3,1.3 0.7,2.1 0.6,1.2 2.8,1.9 6.3,1.9 3.5,0 5.7,-0.7 6.4,-1.9 0.4,-0.8 0.7,-1.5 0.8,-2.1 0.1,-0.7 0.1,-1.7 0.1,-3.1 v -16.5 c 0,-7.6 3.6,-9.2 6.6,-9.2 3.1,0 6.8,1.6 6.8,9.2 v 16.3 c 0,1.4 0,2.4 0.1,3.1 0.1,0.6 0.3,1.3 0.7,2.2 0.8,1.7 3.9,2 6.3,2 3.5,0 5.7,-0.7 6.4,-2 0.4,-0.8 0.7,-1.5 0.8,-2.1 0.1,-0.6 0.1,-1.7 0.1,-3.1 v -16.3 c 0,-2.8 0.4,-5 1.3,-6.6 1,-1.7 2.8,-2.6 5.3,-2.6 z"
   id="path198"
   style="fill:#303e5c" /><path
   d="m 407.22542,235.04746 c 0.4,-3.5 2.8,-5.2 7.4,-5.2 2.4,0 4.2,0.2 5.4,0.6 1.2,0.4 2,1 2.5,2 0.5,0.9 0.7,1.8 0.8,2.5 0.1,0.7 0.1,1.8 0.1,3.2 v 32.7 c 0,1.4 0,2.5 -0.1,3.2 -0.1,0.7 -0.4,1.5 -0.8,2.5 -0.9,1.6 -3,2.4 -6.4,2.4 -3.4,0 -5.7,-0.4 -6.8,-1.3 -1.2,-0.8 -1.8,-2.1 -2,-3.7 -2.3,3.3 -6.1,5 -11.5,5 -5.4,0 -10.4,-2.5 -15,-7.4 -4.6,-4.9 -6.9,-10.6 -6.9,-17.1 0,-6.5 2.3,-12.2 7,-17.1 4.6,-4.9 9.7,-7.3 15.3,-7.3 2.1,0 4,0.4 5.8,1.1 1.7,0.7 3,1.4 3.6,2.1 0.6,0.6 1.2,1.2 1.6,1.8 z m -17,19.4 c 0,2.1 0.8,3.9 2.4,5.6 1.6,1.7 3.6,2.5 5.9,2.5 2.3,0 4.2,-0.8 5.7,-2.5 1.5,-1.7 2.3,-3.5 2.3,-5.6 0,-2 -0.7,-3.9 -2.2,-5.7 -1.5,-1.7 -3.4,-2.6 -5.9,-2.6 -2.5,0 -4.5,0.9 -6,2.6 -1.4,1.8 -2.2,3.7 -2.2,5.7 z"
   id="path200"
   style="fill:#2aa7b6" /><path
   d="m 416.12542,279.94746 c -3.7,0 -6.1,-0.5 -7.4,-1.5 -0.8,-0.6 -1.5,-1.4 -1.9,-2.3 -2.5,2.5 -6.2,3.8 -11,3.8 -5.7,0 -11,-2.6 -15.7,-7.7 -4.8,-5.1 -7.2,-11.1 -7.2,-17.8 0,-6.7 2.4,-12.7 7.2,-17.8 4.8,-5.1 10.2,-7.7 16,-7.7 2.2,0 4.3,0.4 6.2,1.2 1.9,0.8 3.2,1.6 3.9,2.3 l 0.5,0.5 c 0.9,-2.1 3,-4.1 7.9,-4.1 2.6,0 4.4,0.2 5.7,0.6 1.5,0.5 2.5,1.3 3.1,2.5 0.5,1 0.8,2 0.9,2.8 0.1,0.8 0.1,1.9 0.1,3.4 v 32.7 c 0,1.5 0,2.6 -0.1,3.4 -0.1,0.8 -0.4,1.7 -0.9,2.8 -1,1.9 -3.5,2.9 -7.3,2.9 z m -8.8,-7.1 h 0.3 c 0.4,0.1 0.7,0.5 0.8,0.9 0.2,1.3 0.7,2.3 1.6,3 0.7,0.5 2.3,1.1 6.2,1.1 3,0 4.8,-0.6 5.5,-1.9 0.4,-0.8 0.6,-1.5 0.7,-2.1 0.1,-0.7 0.1,-1.7 0.1,-3.1 v -32.7 c 0,-1.4 0,-2.4 -0.1,-3.1 -0.1,-0.6 -0.3,-1.3 -0.7,-2.1 -0.3,-0.7 -0.9,-1.1 -1.9,-1.4 -1.1,-0.3 -2.8,-0.5 -5.1,-0.5 -5.3,0 -6.2,2.5 -6.3,4.3 0,0.4 -0.4,0.8 -0.8,0.9 -0.4,0.1 -0.9,-0.1 -1.1,-0.4 -0.4,-0.6 -0.9,-1.2 -1.5,-1.8 -0.4,-0.4 -1.3,-1 -3.3,-1.9 -1.6,-0.7 -3.4,-1 -5.4,-1 -5.2,0 -10.1,2.4 -14.5,7 -4.4,4.7 -6.7,10.2 -6.7,16.4 0,6.2 2.2,11.7 6.6,16.4 4.4,4.7 9.2,7.1 14.2,7.1 5.1,0 8.6,-1.5 10.7,-4.5 0,-0.4 0.4,-0.6 0.7,-0.6 z m -8.8,-9.3 c -2.6,0 -4.8,-0.9 -6.6,-2.8 -1.8,-1.8 -2.7,-4 -2.7,-6.3 0,-2.3 0.9,-4.4 2.5,-6.4 1.7,-2 4,-3 6.8,-3 2.8,0 5,1 6.7,3 1.6,1.9 2.4,4.1 2.4,6.3 0,2.3 -0.9,4.4 -2.6,6.3 -1.7,1.9 -3.9,2.9 -6.5,2.9 z m 0,-16.3 c -2.2,0 -3.9,0.7 -5.2,2.3 -1.4,1.6 -2,3.2 -2,5 0,1.8 0.7,3.4 2.1,4.8 1.4,1.5 3.1,2.2 5.1,2.2 2,0 3.6,-0.7 5,-2.2 1.4,-1.5 2,-3.1 2,-4.9 0,-1.8 -0.6,-3.4 -2,-5 -1.2,-1.5 -2.9,-2.2 -5,-2.2 z"
   id="path202"
   style="fill:#303e5c" /><path
   d="m 465.52542,246.34746 -6.1,-0.4 v 12.9 c 0,1.7 0.3,2.9 0.8,3.6 0.5,0.7 1.5,1.1 3,1.1 1.5,0 2.6,0 3.4,0.1 0.8,0.1 1.6,0.4 2.5,0.9 1.4,0.8 2.1,2.9 2.1,6.3 0,3.9 -0.9,6.3 -2.6,7.2 -0.9,0.4 -1.8,0.7 -2.5,0.8 -0.7,0.1 -1.8,0.1 -3.1,0.1 -6.5,0 -11.4,-1.5 -14.8,-4.4 -3.4,-2.9 -5,-7.9 -5,-14.8 v -13.8 c -1.2,0.2 -2.5,0.3 -3.8,0.3 -1.4,0 -2.5,-0.5 -3.4,-1.6 -0.9,-1.1 -1.4,-2.9 -1.4,-5.4 0,-2.6 0.2,-4.4 0.5,-5.6 0.3,-1.2 0.7,-2 1.3,-2.5 1,-0.8 2.2,-1.2 3.7,-1.2 l 3.1,0.4 v -9.6 c 0,-1.4 0,-2.5 0.1,-3.2 0.1,-0.7 0.4,-1.4 0.9,-2.2 0.8,-1.6 3.2,-2.3 7.2,-2.3 4.2,0 6.8,1.2 7.6,3.5 0.3,1 0.5,2.6 0.5,4.8 v 9.2 c 2.7,-0.2 4.8,-0.4 6.2,-0.4 1.4,0 2.5,0 3.2,0.1 0.7,0.1 1.5,0.4 2.5,0.9 1.6,0.8 2.4,3.2 2.4,7.2 0,3.9 -0.8,6.3 -2.5,7.2 -0.9,0.4 -1.8,0.7 -2.5,0.8 -0.8,0 -1.9,0 -3.3,0 z"
   id="path204"
   style="fill:#2aa7b6" /><path
   d="m 463.02542,280.04746 c -6.7,0 -11.9,-1.6 -15.4,-4.6 -3.6,-3.1 -5.4,-8.4 -5.4,-15.6 v -12.6 c -0.9,0.1 -1.8,0.1 -2.8,0.1 -1.7,0 -3.1,-0.7 -4.2,-2 -1.1,-1.3 -1.6,-3.3 -1.6,-6.1 0,-2.7 0.2,-4.6 0.5,-5.8 0.4,-1.4 0.9,-2.3 1.6,-3 1.2,-1 2.7,-1.5 4.4,-1.5 0,0 0.1,0 0.1,0 l 1.9,0.2 v -8.5 c 0,-1.5 0,-2.6 0.1,-3.3 0.1,-0.8 0.5,-1.7 1,-2.6 1,-1.9 3.6,-2.8 8.1,-2.8 4.7,0 7.6,1.4 8.5,4.1 0.4,1.1 0.5,2.8 0.5,5.1 v 8 c 2.2,-0.2 3.9,-0.3 5.2,-0.3 1.5,0 2.5,0 3.3,0.1 0.8,0.1 1.8,0.4 2.8,1 2,1 3,3.7 3,8.1 0,4.4 -1,7 -3.1,8.1 -1.1,0.5 -2,0.8 -2.8,0.9 -0.8,0.1 -1.9,0.1 -3.4,0.1 l -5,-0.3 v 12 c 0,1.8 0.3,2.7 0.6,3 0.4,0.6 1.4,0.7 2.1,0.7 1.5,0 2.7,0 3.5,0.1 0.9,0.1 1.9,0.4 2.9,1 1.8,1 2.7,3.4 2.7,7.2 0,4.4 -1,7 -3.2,8.1 -1.1,0.5 -2,0.8 -2.8,0.9 -0.6,0.2 -1.7,0.2 -3.1,0.2 z m -19.8,-35.1 c 0.2,0 0.5,0.1 0.7,0.2 0.2,0.2 0.4,0.5 0.4,0.8 v 13.9 c 0,6.6 1.6,11.4 4.7,14.1 3.2,2.7 7.9,4.1 14.1,4.1 1.3,0 2.3,0 3,-0.1 0.6,-0.1 1.3,-0.3 2.2,-0.7 1.7,-0.8 2,-3.9 2,-6.3 0,-2.9 -0.6,-4.8 -1.6,-5.4 -0.8,-0.4 -1.5,-0.7 -2.1,-0.8 -0.7,-0.1 -1.8,-0.1 -3.2,-0.1 -1.8,0 -3.1,-0.5 -3.8,-1.6 -0.7,-0.9 -1,-2.3 -1,-4.2 v -12.9 c 0,-0.3 0.1,-0.6 0.3,-0.8 0.2,-0.2 0.5,-0.3 0.8,-0.3 l 6.1,0.4 c 1.3,0 2.4,0 3,-0.1 0.6,-0.1 1.3,-0.3 2.2,-0.7 1.2,-0.6 1.9,-2.8 1.9,-6.3 0,-3.5 -0.6,-5.7 -1.9,-6.3 -0.8,-0.4 -1.6,-0.7 -2.1,-0.8 -0.7,-0.1 -1.7,-0.1 -3,-0.1 -1.3,0 -3.4,0.1 -6.1,0.4 -0.3,0 -0.6,-0.1 -0.8,-0.3 -0.2,-0.2 -0.3,-0.5 -0.3,-0.8 v -9.2 c 0,-2.1 -0.1,-3.6 -0.4,-4.5 -0.6,-1.8 -2.9,-2.7 -6.6,-2.7 -3.5,0 -5.7,0.6 -6.3,1.8 -0.5,0.7 -0.7,1.4 -0.8,1.9 -0.1,0.6 -0.1,1.7 -0.1,3 v 9.6 c 0,0.3 -0.1,0.6 -0.3,0.8 -0.2,0.2 -0.5,0.3 -0.8,0.3 l -3,-0.4 c -1.2,0 -2.2,0.3 -3,1 -0.4,0.3 -0.7,1 -1,1.9 -0.3,1.1 -0.4,2.8 -0.4,5.3 0,2.3 0.4,3.9 1.1,4.7 0.7,0.8 1.6,1.2 2.6,1.2 1.3,0 2.5,-0.1 3.7,-0.3 -0.3,0.3 -0.3,0.3 -0.2,0.3 z"
   id="path206"
   style="fill:#550000;fill-opacity:1" /><path
   d="m 498.22542,220.74746 c -0.5,0.9 -1.3,1.5 -2.5,1.9 -1.2,0.4 -2.8,0.6 -4.7,0.6 -2,0 -3.5,-0.2 -4.7,-0.6 -1.2,-0.4 -2,-1 -2.5,-2 -0.5,-0.9 -0.7,-1.8 -0.8,-2.5 -0.1,-0.7 -0.1,-1.8 -0.1,-3.2 0,-1.4 0,-2.5 0.1,-3.2 0.1,-0.7 0.4,-1.5 0.8,-2.4 0.9,-1.7 3.3,-2.5 7.3,-2.5 3.9,0 6.3,0.8 7.1,2.5 0.5,0.9 0.8,1.8 0.9,2.5 0.1,0.7 0.1,1.8 0.1,3.2 0,1.4 0,2.5 -0.1,3.2 -0.1,0.8 -0.4,1.6 -0.9,2.5 z m -15.4,17.3 c 0,-1.4 0,-2.5 0.1,-3.2 0.1,-0.7 0.4,-1.5 0.8,-2.5 0.9,-1.6 3.3,-2.4 7.3,-2.4 3,0 5.1,0.5 6.4,1.6 1.1,0.9 1.6,2.2 1.7,4 0.1,0.6 0.1,1.5 0.1,2.7 v 32.7 c 0,1.4 0,2.5 -0.1,3.2 -0.1,0.7 -0.4,1.5 -0.9,2.5 -0.8,1.6 -3.2,2.4 -7.2,2.4 -3.9,0 -6.3,-0.8 -7.2,-2.5 -0.4,-0.9 -0.7,-1.7 -0.8,-2.4 -0.1,-0.7 -0.1,-1.8 -0.1,-3.3 v -32.8 z"
   id="path208"
   style="fill:#2aa7b6" /><path
   d="m 491.02542,280.04746 c -4.4,0 -7,-1 -8.1,-3.1 -0.5,-1.1 -0.8,-2 -0.9,-2.8 -0.1,-0.7 -0.2,-1.9 -0.2,-3.4 v -32.8 c 0,-1.5 0,-2.6 0.1,-3.4 0.1,-0.8 0.4,-1.8 0.9,-2.8 1.1,-2.1 3.8,-3 8.2,-3 3.3,0 5.6,0.6 7,1.8 1.3,1.1 2,2.7 2,4.8 0.1,0.6 0.1,1.5 0.1,2.7 v 32.7 c 0,1.5 0,2.6 -0.1,3.4 -0.1,0.8 -0.4,1.8 -1,2.8 -0.9,2.2 -3.6,3.1 -8,3.1 z m 0.1,-49.1 c -3.5,0 -5.7,0.7 -6.4,1.9 -0.4,0.8 -0.6,1.5 -0.7,2.1 -0.1,0.7 -0.1,1.7 -0.1,3.1 v 32.8 c 0,1.4 0,2.5 0.1,3.1 0.1,0.6 0.3,1.3 0.7,2.1 0.6,1.2 2.8,1.9 6.3,1.9 3.5,0 5.7,-0.6 6.3,-1.9 0.5,-0.8 0.7,-1.6 0.8,-2.1 0.1,-0.7 0.1,-1.7 0.1,-3.1 v -32.7 c 0,-1.1 0,-2 -0.1,-2.6 -0.1,-1.6 -0.5,-2.6 -1.3,-3.3 -1.1,-0.8 -3,-1.3 -5.7,-1.3 z m -0.1,-6.7 c -2.1,0 -3.7,-0.2 -5,-0.6 -1.5,-0.5 -2.5,-1.3 -3.1,-2.5 -0.5,-1 -0.8,-2 -0.9,-2.8 -0.1,-0.8 -0.1,-1.9 -0.1,-3.4 0,-1.5 0,-2.6 0.1,-3.4 0.1,-0.8 0.4,-1.7 0.9,-2.7 1.1,-2.1 3.8,-3.1 8.2,-3.1 4.4,0 7,1 8,3.1 0.5,1 0.9,1.9 1,2.8 0.1,0.8 0.1,1.9 0.1,3.4 0,1.5 0,2.6 -0.1,3.4 -0.1,0.8 -0.4,1.8 -0.9,2.8 -0.6,1.2 -1.6,2 -3.1,2.4 -1.4,0.4 -3,0.6 -5.1,0.6 z m 0.1,-16.4 c -3.5,0 -5.7,0.7 -6.4,2 -0.4,0.8 -0.6,1.4 -0.7,2 -0.1,0.7 -0.1,1.7 -0.1,3.1 0,1.4 0,2.4 0.1,3.1 0.1,0.6 0.3,1.3 0.7,2.1 0.3,0.7 0.9,1.2 1.9,1.4 1.1,0.3 2.6,0.5 4.4,0.5 1.8,0 3.3,-0.2 4.4,-0.5 0.9,-0.3 1.5,-0.7 1.9,-1.4 0.4,-0.8 0.7,-1.5 0.7,-2.1 0.1,-0.7 0.1,-1.7 0.1,-3.1 0,-1.4 0,-2.4 -0.1,-3.1 -0.1,-0.6 -0.3,-1.3 -0.8,-2.1 -0.6,-1.2 -2.7,-1.9 -6.1,-1.9 z"
   id="path210"
   style="fill:#303e5c" /><path
   d="m 526.12542,254.44746 c 0,2.6 0.9,4.7 2.6,6.2 1.7,1.5 3.6,2.2 5.6,2.2 2,0 3.8,-0.6 5.5,-1.7 1.7,-1.2 3.1,-1.7 4.2,-1.7 1.9,0 4.1,1.7 6.8,5 1.4,1.8 2.1,3.4 2.1,4.9 0,2.4 -1.7,4.6 -5.1,6.6 -3.5,2.5 -7.9,3.7 -13.1,3.7 -5.8,0 -11.4,-2.1 -16.7,-6.3 -2.6,-2 -4.6,-4.7 -6.3,-8 -1.6,-3.3 -2.4,-7 -2.4,-11 0,-4 0.8,-7.7 2.4,-10.9 1.6,-3.3 3.7,-5.9 6.3,-7.9 5.2,-4.1 10.7,-6.2 16.5,-6.2 2.4,0 4.7,0.3 6.9,1 2.2,0.7 3.9,1.3 5,1.9 l 1.5,0.9 c 1.1,0.7 2,1.3 2.6,1.8 1.6,1.2 2.4,2.7 2.4,4.2 0,1.5 -0.7,3.4 -2,5.4 -2.2,3.4 -4.4,5.1 -6.4,5.1 -1.2,0 -2.9,-0.7 -5,-2.1 -1.1,-1.1 -2.7,-1.6 -4.8,-1.6 -2.1,0 -4,0.7 -5.8,2.2 -1.9,1.6 -2.8,3.7 -2.8,6.3 z"
   id="path212"
   style="fill:#ffff00" /><path
   d="m 534.72542,280.54746 c -6,0 -11.8,-2.2 -17.4,-6.5 -2.7,-2.1 -4.9,-4.9 -6.6,-8.3 -1.7,-3.5 -2.5,-7.3 -2.5,-11.5 0,-4.2 0.9,-8 2.5,-11.4 1.7,-3.4 3.9,-6.2 6.5,-8.2 5.3,-4.2 11.1,-6.4 17.2,-6.4 2.5,0 4.9,0.3 7.2,1 2.3,0.7 4,1.3 5.2,2 l 1.5,0.9 c 1.2,0.8 2,1.4 2.7,1.8 1.9,1.5 2.9,3.2 2.9,5.1 0,1.8 -0.7,3.8 -2.1,5.9 -2.5,3.8 -4.9,5.6 -7.3,5.6 -1.4,0 -3.2,-0.7 -5.6,-2.2 -0.1,0 -0.1,-0.1 -0.2,-0.1 -0.9,-0.9 -2.3,-1.3 -4.1,-1.3 -1.9,0 -3.5,0.7 -5.2,2 -1.6,1.3 -2.3,3.1 -2.3,5.4 0,2.3 0.7,4.1 2.2,5.4 1.6,1.3 3.2,2 4.9,2 1.8,0 3.4,-0.5 4.9,-1.6 1.9,-1.3 3.5,-1.9 4.7,-1.9 2.2,0 4.7,1.7 7.6,5.3 1.6,2 2.4,3.8 2.4,5.5 0,2.7 -1.9,5.3 -5.6,7.5 -3.6,2.7 -8.2,4 -13.5,4 z m -0.2,-50.2 c -5.6,0 -10.9,2 -15.9,5.9 -2.4,1.9 -4.4,4.4 -6,7.5 -1.5,3.1 -2.3,6.6 -2.3,10.5 0,3.8 0.8,7.4 2.3,10.6 1.5,3.2 3.5,5.7 6,7.6 5.1,4 10.6,6 16.1,6 4.9,0 9.1,-1.2 12.5,-3.5 3.1,-1.9 4.7,-3.8 4.7,-5.8 0,-1.2 -0.6,-2.6 -1.9,-4.2 -3.1,-3.8 -5,-4.6 -6,-4.6 -0.6,0 -1.7,0.3 -3.6,1.6 -1.9,1.3 -3.9,1.9 -6.1,1.9 -2.2,0 -4.3,-0.8 -6.2,-2.4 -2,-1.7 -3,-4 -3,-7 0,-3 1,-5.3 3.1,-7 2,-1.6 4.2,-2.5 6.5,-2.5 2.3,0 4.1,0.6 5.4,1.8 2.4,1.5 3.7,1.8 4.4,1.8 1.7,0 3.6,-1.6 5.6,-4.7 1.2,-1.8 1.8,-3.4 1.8,-4.8 0,-1.3 -0.7,-2.4 -2,-3.4 -0.6,-0.4 -1.4,-1 -2.6,-1.7 l -1.5,-0.9 c -1,-0.6 -2.5,-1.2 -4.7,-1.8 -2.1,-0.6 -4.4,-0.9 -6.6,-0.9 z"
   id="path214"
   style="fill:#303e5c" /><path
   d="m 616.42542,274.64746 c -1.2,-0.7 -1.8,-1.9 -1.8,-3.5 0,-1.6 1.2,-4.1 3.5,-7.4 0.7,-1.1 1.8,-1.6 3.3,-1.6 1.5,0 3.6,0.8 6.2,2.3 2.6,1.5 5,2.3 7.1,2.3 3.8,0 5.7,-0.7 5.7,-2.2 0,-1.2 -2.1,-2.1 -6.3,-2.6 -3.9,-0.6 -7.8,-2 -11.7,-4.4 -1.8,-1.1 -3.3,-2.9 -4.5,-5.3 -1.2,-2.4 -1.8,-5.2 -1.8,-8.5 0,-9.8 6.8,-14.8 20.3,-14.8 4.4,0 9,1.1 13.6,3.2 2.2,1 3.3,2.2 3.3,3.7 0,1.5 -0.7,3.3 -2.1,5.5 -1.4,2.2 -2.8,3.3 -4.2,3.3 -0.7,0 -2.1,-0.5 -4.2,-1.4 -2,-0.9 -4.2,-1.4 -6.6,-1.4 -3.7,0 -5.5,0.7 -5.5,2.1 0,1.9 2.1,3.1 6.4,3.6 4.1,0.4 8.1,1.6 12,3.5 1.8,0.9 3.3,2.4 4.5,4.5 1.2,2.1 1.8,4.8 1.8,8.1 0,3.2 -0.6,6 -1.8,8.3 -1.2,2.3 -2.9,4 -5.1,5.1 -4,1.9 -9,2.9 -15,2.9 -5.8,-0.1 -11.6,-1.8 -17.1,-5.3 z"
   id="path216"
   style="fill:#ffffff" /><path
   d="m 633.72542,280.94746 c -6.2,0 -12.2,-1.8 -17.9,-5.4 -1.5,-0.9 -2.3,-2.5 -2.3,-4.4 0,-1.9 1.2,-4.5 3.7,-8 0.6,-0.9 1.8,-2 4.2,-2 1.7,0 3.9,0.8 6.7,2.4 2.4,1.4 4.7,2.1 6.6,2.1 3.4,0 4.7,-0.7 4.7,-1.2 v 0 c 0,0 -0.4,-0.9 -5.4,-1.6 -4.1,-0.6 -8.1,-2.1 -12.1,-4.5 -2,-1.2 -3.6,-3.1 -4.9,-5.7 -1.2,-2.5 -1.9,-5.6 -1.9,-9 0,-10.5 7.2,-15.8 21.3,-15.8 4.5,0 9.3,1.1 14.1,3.3 2.6,1.2 3.9,2.8 3.9,4.7 0,1.7 -0.7,3.7 -2.2,6.1 -1.6,2.5 -3.3,3.8 -5.1,3.8 -0.6,0 -1.7,-0.2 -4.6,-1.5 -1.9,-0.9 -3.9,-1.3 -6.2,-1.3 -3.5,0 -4.5,0.7 -4.5,1 0,1.6 3.4,2.3 5.5,2.6 4.2,0.4 8.3,1.7 12.3,3.6 2,1 3.7,2.6 5,4.9 1.3,2.3 2,5.2 2,8.6 0,3.4 -0.7,6.3 -1.9,8.8 -1.3,2.4 -3.2,4.3 -5.5,5.5 -4.2,2 -9.4,3 -15.5,3 z m -12.2,-17.8 c -1.5,0 -2.1,0.6 -2.4,1.1 -2.8,3.9 -3.4,5.9 -3.4,6.8 0,1.3 0.4,2.1 1.3,2.7 5.3,3.4 11,5.1 16.8,5.1 5.8,0 10.7,-0.9 14.5,-2.8 2,-1 3.5,-2.6 4.6,-4.6 1.1,-2.1 1.7,-4.7 1.7,-7.8 0,-3 -0.6,-5.6 -1.7,-7.6 -1.1,-1.9 -2.5,-3.3 -4.1,-4.1 -3.7,-1.9 -7.6,-3 -11.6,-3.5 -1.8,-0.2 -7.3,-1 -7.3,-4.7 0,-3.1 4.9,-3.1 6.5,-3.1 2.5,0 4.9,0.5 7,1.5 2.6,1.2 3.5,1.3 3.7,1.3 1.3,0 2.5,-1.5 3.3,-2.8 1.3,-2 1.9,-3.7 1.9,-5 0,-1 -0.9,-2 -2.7,-2.8 -4.5,-2 -9,-3.1 -13.2,-3.1 -12.9,0 -19.2,4.5 -19.2,13.7 0,3.1 0.6,5.8 1.7,8.1 1.1,2.2 2.5,3.8 4.1,4.9 3.7,2.3 7.5,3.7 11.3,4.2 3.3,0.4 7.1,1.3 7.1,3.6 0,3.3 -5.1,3.3 -6.7,3.3 -2.3,0 -4.9,-0.8 -7.6,-2.4 -2.4,-1.2 -4.3,-2 -5.6,-2 z"
   id="path218"
   style="fill:#303e5c" /><path
   d="m 168.12542,230.74746 c -0.2,0.6 -0.7,1.8 0.5,2.4 1.2,0.6 1.6,-0.6 1.8,-1.3 0,0 3.8,3.6 5.7,1.9 2,-1.7 -4,-7.6 -5,-6.7 -0.6,0.5 -2.9,3.1 -3,3.7 z"
   id="path220"
   style="fill:#ffffff" /><path
   d="m 174.82542,235.24746 c -1.5,0 -3,-1 -4.1,-1.8 -0.3,0.4 -0.8,0.8 -1.5,0.8 v 0 c -0.3,0 -0.7,-0.1 -1.1,-0.3 -2,-1 -1.3,-3 -1.1,-3.6 0.3,-1 3,-3.9 3.3,-4.1 0.2,-0.2 0.5,-0.4 1,-0.4 1.8,0 5.1,3.4 5.9,5.7 0.6,1.7 0,2.6 -0.5,3 -0.5,0.5 -1.1,0.7 -1.9,0.7 z m -4.4,-4.4 c 0.2,0 0.4,0.1 0.6,0.2 0,0 0.1,0.1 0.1,0.1 0.9,0.8 2.6,2.1 3.7,2.1 0.3,0 0.5,-0.1 0.6,-0.2 0.1,0 0,-0.2 0,-0.5 -0.4,-1.6 -2.9,-4 -3.9,-4.4 -0.7,0.8 -2.3,2.6 -2.5,3 -0.3,0.9 -0.2,1 0,1.1 0,0 0.1,0 0.1,0 0.1,-0.1 0.2,-0.4 0.2,-0.6 v -0.1 c 0.1,-0.3 0.3,-0.5 0.6,-0.6 0.3,-0.1 0.4,-0.1 0.5,-0.1 z"
   id="path222"
   style="fill:#303e5c" /><path
   d="m 63.625423,230.74746 c 0.2,0.6 0.7,1.8 -0.5,2.4 -1.2,0.6 -1.6,-0.6 -1.8,-1.3 0,0 -3.8,3.6 -5.7,1.9 -2,-1.7 4,-7.7 5,-6.7 0.5,0.6 2.8,3.2 3,3.7 z"
   id="path224"
   style="fill:#ffffff" /><path
   d="m 56.825423,235.34746 c -0.7,0 -1.4,-0.2 -1.9,-0.7 -0.5,-0.4 -1.1,-1.3 -0.5,-3 0.8,-2.2 4.1,-5.7 5.9,-5.7 0.5,0 0.8,0.2 1,0.4 0.3,0.2 3,3.2 3.3,4.1 0.6,1.8 0.3,3 -1,3.7 -0.4,0.2 -0.7,0.3 -1.1,0.3 -0.7,0 -1.2,-0.4 -1.5,-0.8 -1.1,0.7 -2.7,1.7 -4.2,1.7 0,0 0,0 0,0 z m 3.3,-7.2 c -1,0.4 -3.4,2.8 -3.9,4.5 -0.1,0.2 -0.1,0.4 0,0.5 0.1,0.1 0.3,0.2 0.6,0.2 1.2,0 3,-1.4 3.7,-2.1 0.1,-0.1 0.2,-0.1 0.3,-0.2 0.3,-0.1 0.6,-0.1 0.8,0 0.3,0.1 0.5,0.3 0.6,0.6 v 0.1 c 0.1,0.2 0.1,0.4 0.2,0.6 0,0 0,0 0.1,0 0.3,-0.1 0.4,-0.2 0.1,-1.1 -0.2,-0.5 -1.7,-2.3 -2.5,-3.1 z"
   id="path226"
   style="fill:#303e5c" /><path
   d="m 456.52542,230.74746 c -0.2,0.6 -0.7,1.8 0.5,2.4 1.2,0.6 1.6,-0.6 1.8,-1.3 0,0 3.8,3.6 5.7,1.9 2,-1.7 -4,-7.6 -5,-6.7 -0.5,0.5 -2.8,3.1 -3,3.7 z"
   id="path228"
   style="fill:#ffffff" /><path
   d="m 463.32542,235.24746 c -1.5,0 -3,-1 -4.1,-1.8 -0.3,0.4 -0.8,0.8 -1.5,0.8 v 0 c -0.3,0 -0.7,-0.1 -1.1,-0.3 -1.3,-0.7 -1.7,-1.9 -1.1,-3.6 0.3,-1 3,-3.9 3.3,-4.1 0.2,-0.2 0.5,-0.4 1,-0.4 1.8,0 5.1,3.4 5.9,5.7 0.6,1.7 0,2.6 -0.5,3 -0.5,0.5 -1.2,0.7 -1.9,0.7 z m -4.5,-4.4 c 0.2,0 0.4,0.1 0.6,0.2 0,0 0.1,0 0.1,0.1 0.9,0.8 2.6,2.1 3.7,2.1 0.3,0 0.5,-0.1 0.6,-0.2 0.1,0 0,-0.2 0,-0.5 -0.4,-1.6 -2.9,-4 -3.9,-4.4 -0.7,0.8 -2.3,2.6 -2.5,3 -0.3,0.9 -0.2,1 0,1.1 0,0 0.1,0 0.1,0 0.1,-0.1 0.2,-0.4 0.2,-0.6 v -0.1 c 0.1,-0.3 0.4,-0.6 0.7,-0.6 0.2,-0.1 0.3,-0.1 0.4,-0.1 z"
   id="path230"
   style="fill:#303e5c" /><path
   d="m 352.12542,230.74746 c 0.2,0.6 0.7,1.8 -0.5,2.4 -1.2,0.6 -1.6,-0.6 -1.8,-1.3 0,0 -3.8,3.6 -5.7,1.9 -2,-1.7 4,-7.7 5,-6.7 0.5,0.6 2.8,3.2 3,3.7 z"
   id="path232"
   style="fill:#ffffff" /><path
   d="m 345.32542,235.34746 c -0.7,0 -1.4,-0.2 -1.9,-0.7 -0.5,-0.4 -1.1,-1.3 -0.5,-3 0.8,-2.2 4.1,-5.7 5.9,-5.7 0.5,0 0.8,0.2 1,0.4 0.3,0.2 3,3.2 3.3,4.1 0.3,0.7 0.9,2.7 -1,3.7 -0.4,0.2 -0.7,0.3 -1.1,0.3 -0.7,0 -1.2,-0.4 -1.5,-0.8 -1.2,0.7 -2.8,1.7 -4.2,1.7 z m 3.3,-7.2 c -1,0.4 -3.4,2.8 -3.9,4.5 -0.1,0.2 -0.1,0.4 0,0.5 0.1,0.1 0.3,0.2 0.6,0.2 1,0 2.7,-1.1 3.7,-2.1 0.1,-0.1 0.2,-0.2 0.3,-0.2 0.3,-0.1 0.6,-0.1 0.8,0 0.3,0.1 0.5,0.3 0.5,0.6 v 0.1 c 0.1,0.2 0.1,0.4 0.2,0.6 0,0 0,0 0.1,0 0.3,-0.1 0.4,-0.2 0.1,-1.1 -0.1,-0.5 -1.7,-2.3 -2.4,-3.1 z"
   id="path234"
   style="fill:#303e5c" /><g
   transform="translate(-8.4745767,-49.152542)"
   id="g242">
		<g
   id="g240">
			<path
   d="m 289,313.7 c 1.6,-1.6 3.3,-2.4 5.2,-2.4 1.9,0 3.3,0.2 4.4,0.5 1,0.3 1.8,0.7 2.4,1.1 0.6,0.4 1,1.1 1.3,2 0.3,1 0.5,2.7 0.5,4.9 v 51.1 c 0,1.4 0,2.5 -0.1,3.2 -0.1,0.7 -0.4,1.5 -0.9,2.4 -0.9,1.7 -3.2,2.5 -7.2,2.5 -3.8,0 -6.1,-0.8 -7.1,-2.4 -0.5,-0.9 -0.8,-1.8 -0.9,-2.5 -0.1,-0.8 -0.1,-1.9 -0.1,-3.3 v -32.7 l -1.2,1.1 c -2.5,1.9 -4.6,2.8 -6.4,2.8 -1.8,0 -3.6,-1.1 -5.5,-3.2 -1.9,-2.1 -2.9,-4 -2.9,-5.7 0,-1.7 1.1,-3.5 3.3,-5.4 l 15,-13.6 z"
   id="path236"
   style="fill:#fca7ad" />
			<path
   d="m 294.5,379.7 c -4.2,0 -6.7,-0.9 -7.8,-2.8 -0.6,-1 -0.9,-2 -1,-2.9 -0.1,-0.8 -0.1,-1.9 -0.1,-3.5 v -30.7 c -2.6,1.9 -4.8,2.8 -6.7,2.8 -2,0 -4.1,-1.2 -6.2,-3.5 -2.1,-2.3 -3.1,-4.4 -3.1,-6.3 0,-1.9 1.2,-3.9 3.6,-6.1 l 15,-13.6 c 0,0 0.1,-0.1 0.1,-0.1 l 0.2,-0.1 c 1.7,-1.7 3.7,-2.6 5.8,-2.6 2,0 3.5,0.2 4.6,0.5 1.2,0.3 2,0.7 2.7,1.2 0.7,0.5 1.2,1.3 1.6,2.4 0.3,1.2 0.5,2.8 0.5,5.1 v 51.1 c 0,1.5 0,2.5 -0.1,3.3 -0.1,0.8 -0.4,1.7 -1,2.7 -1.2,2.1 -3.8,3.1 -8.1,3.1 z m -8.1,-42.8 c 0.1,0 0.2,0 0.4,0.1 0.3,0.1 0.5,0.5 0.5,0.8 v 32.7 c 0,1.4 0,2.5 0.1,3.2 0.1,0.7 0.3,1.4 0.8,2.2 0.7,1.2 2.9,1.9 6.3,1.9 3.5,0 5.7,-0.7 6.4,-2 0.4,-0.8 0.7,-1.5 0.8,-2.1 0.1,-0.7 0.1,-1.7 0.1,-3 v -51.1 c 0,-2.1 -0.1,-3.7 -0.4,-4.6 -0.2,-0.7 -0.6,-1.2 -0.9,-1.5 -0.5,-0.3 -1.2,-0.6 -2.1,-0.9 -1,-0.3 -2.3,-0.4 -4.1,-0.4 -1.6,0 -3.1,0.7 -4.5,2.1 0,0 -0.1,0.1 -0.1,0.1 l -0.2,0.1 -15,13.5 c -2,1.8 -3,3.4 -3,4.7 0,1.4 0.9,3.1 2.7,5.1 1.7,1.9 3.4,2.9 4.9,2.9 1.6,0 3.5,-0.9 5.9,-2.7 l 1.1,-1 c -0.2,0 0.1,-0.1 0.3,-0.1 z"
   id="path238"
   style="fill:#303e5c" />
		</g>
	</g><g
   transform="translate(-8.4745767,-49.152542)"
   id="g248">
			<path
   d="m 156.9,362.1 c 2.2,0.4 3.8,0.9 4.6,1.6 0.9,0.7 1.4,1.6 1.5,2.7 0.1,1.1 0,2.5 -0.3,4.2 -0.3,1.7 -0.7,3.1 -1.3,4 -0.5,1 -1.2,1.6 -2.1,1.8 -1.3,0.4 -3.1,0.5 -5.2,0.1 l -31.9,-5.7 c -2,-0.4 -3.5,-1.4 -4.7,-3.1 -1.2,-1.7 -1.5,-3.6 -1.2,-5.5 0.5,-2.9 2,-5.5 4.5,-7.6 2.5,-2.1 5.3,-3.8 8.5,-5 3.2,-1.2 6.4,-2.5 9.6,-3.7 3.2,-1.2 6,-2.7 8.4,-4.5 2.4,-1.8 3.9,-3.9 4.3,-6.4 0.1,-0.5 0,-1.2 -0.2,-2.2 -0.2,-1 -0.5,-1.8 -0.9,-2.4 -0.4,-0.7 -1,-1.3 -1.9,-2 -0.9,-0.7 -2.2,-1.2 -3.9,-1.5 -1.7,-0.3 -3.4,0.1 -4.9,1.1 -1.5,1 -2.5,2.2 -2.8,3.4 l -0.7,1.8 -0.1,0.5 c -0.2,1.2 -0.4,2.1 -0.6,2.7 -0.2,0.6 -0.6,1.2 -1.1,1.9 -1,1.2 -3.3,1.4 -6.7,0.8 -3.8,-0.7 -5.9,-2.1 -6.2,-4.3 -0.1,-0.9 0,-2.3 0.3,-4.2 1,-5.7 4,-10.4 8.8,-14.1 4.9,-3.8 10.6,-5 17.1,-3.9 6.5,1.2 11.5,4.4 14.7,9.7 3.3,5.3 4.4,10.8 3.3,16.6 -0.6,3.1 -1.8,5.9 -3.6,8.4 -1.9,2.5 -3.9,4.5 -6.1,5.8 -4.7,2.9 -8.7,4.6 -12.1,5.3 l -2.2,0.4 -0.1,0.4 z"
   id="path244"
   style="fill:#e89137" />
			<path
   d="m 157,377.7 c -0.9,0 -1.9,-0.1 -2.9,-0.3 l -31.9,-5.7 c -2.2,-0.4 -4,-1.6 -5.2,-3.5 -1.3,-1.9 -1.7,-4 -1.3,-6.2 0.6,-3.1 2.2,-5.9 4.8,-8.1 2.5,-2.2 5.5,-3.9 8.8,-5.2 3.2,-1.2 6.4,-2.5 9.6,-3.7 3.1,-1.2 5.9,-2.6 8.2,-4.4 2.2,-1.7 3.6,-3.6 4,-5.8 0,-0.2 0.1,-0.7 -0.2,-1.8 -0.2,-0.9 -0.5,-1.6 -0.8,-2.2 -0.3,-0.5 -0.8,-1.1 -1.6,-1.7 -0.8,-0.6 -2,-1 -3.6,-1.3 -1.5,-0.3 -2.9,0 -4.2,1 -1.3,0.9 -2.2,1.9 -2.5,2.9 l -0.6,1.8 -0.1,0.4 c -0.2,1.2 -0.4,2.2 -0.6,2.8 -0.2,0.7 -0.7,1.4 -1.3,2.2 -1.3,1.4 -3.8,1.8 -7.6,1.1 -4.2,-0.8 -6.5,-2.5 -6.9,-5.1 -0.1,-1 0,-2.5 0.3,-4.5 1.1,-5.9 4.1,-10.8 9.1,-14.7 5,-3.9 11,-5.3 17.8,-4 6.8,1.2 11.9,4.6 15.3,10.1 3.4,5.4 4.5,11.3 3.4,17.3 -0.6,3.2 -1.9,6.2 -3.8,8.8 -1.9,2.6 -4.1,4.6 -6.4,6 -4.2,2.6 -7.9,4.3 -11.1,5.2 l 11.4,2.1 c 2.4,0.4 4,1 5,1.8 1,0.8 1.7,1.9 1.8,3.3 0.1,1.2 0.1,2.7 -0.3,4.5 -0.3,1.8 -0.8,3.2 -1.4,4.3 -0.7,1.2 -1.6,1.9 -2.7,2.2 -0.6,0.3 -1.5,0.4 -2.5,0.4 z M 143.7,326 c 0.4,0 0.9,0 1.3,0.1 1.9,0.3 3.3,0.9 4.3,1.6 1,0.7 1.7,1.5 2.1,2.3 0.4,0.7 0.7,1.6 1,2.7 0.2,1.1 0.3,1.9 0.2,2.5 -0.5,2.7 -2,5 -4.7,6.9 -2.5,1.8 -5.4,3.4 -8.6,4.6 -3.2,1.2 -6.4,2.4 -9.6,3.7 -3.1,1.2 -5.9,2.8 -8.3,4.9 -2.3,2 -3.7,4.3 -4.2,7 -0.3,1.7 0,3.3 1.1,4.9 1,1.5 2.3,2.4 4.1,2.7 l 31.9,5.7 c 2,0.4 3.6,0.3 4.8,0 0.7,-0.2 1.2,-0.6 1.6,-1.4 0.5,-0.9 0.9,-2.1 1.2,-3.7 0.3,-1.6 0.4,-3 0.3,-4 -0.1,-0.9 -0.5,-1.6 -1.2,-2.1 -0.5,-0.4 -1.7,-1 -4.2,-1.4 l -14.9,-2.7 c -0.2,0 -0.4,-0.2 -0.6,-0.4 -0.1,-0.2 -0.2,-0.4 -0.1,-0.7 l 0.1,-0.4 c 0.1,-0.4 0.3,-0.6 0.7,-0.7 l 2.2,-0.4 c 3.3,-0.7 7.2,-2.4 11.8,-5.2 2.1,-1.3 4.1,-3.2 5.8,-5.6 1.8,-2.4 2.9,-5.1 3.5,-8.1 1,-5.6 -0.1,-10.9 -3.2,-16 -3.1,-5 -7.9,-8.1 -14.1,-9.3 -6.3,-1.1 -11.8,0.1 -16.4,3.7 -4.7,3.6 -7.5,8.2 -8.5,13.6 -0.3,1.8 -0.4,3.1 -0.3,4 0.3,1.7 2.1,2.9 5.5,3.5 3,0.5 5.1,0.4 5.9,-0.5 0.5,-0.6 0.8,-1.1 1,-1.6 0.2,-0.5 0.4,-1.4 0.6,-2.5 l 0.1,-0.5 c 0,-0.1 0,-0.1 0,-0.1 l 0.7,-1.8 c 0.4,-1.4 1.5,-2.7 3.2,-3.8 1,-1 2.4,-1.5 3.9,-1.5 z"
   id="path246"
   style="fill:#303e5c" />
		</g><g
   transform="translate(-8.4745767,-49.152542)"
   id="g254">
			<path
   d="m 453.4,323.3 c 3.9,3.9 5.9,8.3 5.9,13.1 0,4.9 -2.2,8.4 -6.5,10.5 v 0.6 c 0.6,0.3 1.4,0.9 2.5,1.8 1.1,0.9 2,1.8 2.6,2.7 1.8,2.3 2.8,5 2.8,8 0,5.9 -2.2,10.8 -6.7,14.7 -4.4,3.9 -10,5.8 -16.7,5.8 -6.7,0 -12.2,-1.9 -16.7,-5.8 -1.7,-1.5 -3.1,-3.5 -4.4,-5.9 -0.4,-0.9 -0.8,-1.6 -0.9,-2.2 l -0.2,-0.8 c -0.6,-1.8 -0.9,-3.3 -0.9,-4.5 0,-3.2 2.7,-4.8 8.2,-4.8 2.2,0 3.7,0.3 4.4,0.8 0.9,0.7 1.8,2.2 2.5,4.3 0.6,1.8 2.1,3.1 4.6,4 1.1,0.3 2.2,0.5 3.5,0.5 2.9,0 5.1,-0.6 6.5,-1.8 1.4,-1.2 2.1,-2.5 2.1,-4 0,-1.5 -0.7,-2.8 -2,-4 -1.4,-1.1 -3,-1.7 -4.8,-1.7 -1.9,0 -3.1,-0.1 -3.8,-0.2 -0.7,-0.1 -1.4,-0.4 -2.2,-0.8 -1.5,-0.7 -2.2,-2.9 -2.2,-6.4 0,-3.9 1,-6.2 3.1,-6.9 0.9,-0.3 2.4,-0.4 4.3,-0.4 4.2,0 6.3,-1.1 6.3,-3.2 0,-1.2 -0.6,-2.3 -1.7,-3.3 -1.1,-1.1 -2.7,-1.6 -4.6,-1.6 -2,0 -3.5,0.3 -4.7,1 -1.2,0.7 -1.9,1.3 -2.2,2 l -0.5,1 c -1.3,2.8 -3.1,4.2 -5.5,4.2 -1.4,0 -2.9,-0.5 -4.6,-1.5 -2.8,-1.6 -4.2,-3.5 -4.2,-5.6 0,-0.9 0.6,-2.8 1.9,-5.7 0.2,-0.5 0.8,-1.4 1.8,-2.6 1,-1.2 2.2,-2.3 3.5,-3.3 1.3,-0.9 3.1,-1.8 5.5,-2.6 2.4,-0.8 5,-1.2 7.9,-1.2 6.8,0 12.2,1.9 16.1,5.8 z"
   id="path250"
   style="fill:#ff7113" />
			<path
   d="m 437.3,381.6 c -6.9,0 -12.7,-2 -17.3,-6.1 -1.8,-1.6 -3.3,-3.7 -4.7,-6.2 -0.5,-1 -0.8,-1.7 -1,-2.3 l -0.2,-0.9 c -0.6,-1.9 -1,-3.5 -1,-4.8 0,-2.7 1.6,-5.9 9.2,-5.9 2.5,0 4.1,0.3 5,1 1.1,0.9 2.1,2.4 2.8,4.8 0.5,1.5 1.8,2.6 3.9,3.4 0.9,0.3 2,0.4 3.2,0.4 2.7,0 4.6,-0.5 5.8,-1.5 1.2,-1 1.7,-2.1 1.7,-3.3 0,-1.2 -0.5,-2.2 -1.7,-3.2 -1.2,-1 -2.5,-1.5 -4.2,-1.5 -1.9,0 -3.2,-0.1 -4,-0.2 -0.8,-0.1 -1.6,-0.5 -2.5,-1 -1.8,-0.9 -2.8,-3.3 -2.8,-7.3 0,-4.4 1.3,-7 3.8,-7.9 1.1,-0.3 2.6,-0.5 4.7,-0.5 3.5,0 5.3,-0.7 5.3,-2.2 0,-0.9 -0.4,-1.7 -1.3,-2.6 -0.9,-0.9 -2.2,-1.3 -3.9,-1.3 -1.8,0 -3.2,0.3 -4.2,0.9 -1.3,0.7 -1.6,1.2 -1.7,1.5 l -0.5,1.1 c -1.4,3.1 -3.6,4.7 -6.4,4.7 -1.6,0 -3.3,-0.6 -5.1,-1.6 -3.1,-1.8 -4.7,-4 -4.7,-6.5 0,-0.7 0.2,-2 2,-6.1 0.2,-0.4 0.5,-1.1 2,-2.9 1.1,-1.3 2.3,-2.5 3.7,-3.5 1.4,-1 3.3,-1.9 5.8,-2.7 2.5,-0.8 5.2,-1.2 8.2,-1.2 7.1,0 12.8,2.1 16.9,6.1 4.1,4.1 6.2,8.7 6.2,13.9 0,4.8 -2,8.5 -6,10.9 0.5,0.3 1,0.7 1.6,1.3 1.1,1 2.1,1.9 2.8,2.9 2,2.5 3,5.4 3,8.6 0,6.2 -2.4,11.4 -7,15.5 -4.6,4.1 -10.5,6.2 -17.4,6.2 z m -14.9,-24.1 c -7.1,0 -7.1,2.9 -7.1,3.8 0,1.1 0.3,2.5 0.9,4.2 0,0 0,0.1 0,0.1 l 0.2,0.8 c 0.1,0.4 0.4,1.1 0.8,1.9 1.2,2.3 2.6,4.2 4.2,5.6 4.2,3.7 9.6,5.6 16,5.6 6.4,0 11.8,-1.9 16.1,-5.5 4.2,-3.7 6.3,-8.2 6.3,-13.9 0,-2.8 -0.8,-5.2 -2.5,-7.4 -0.6,-0.8 -1.5,-1.7 -2.5,-2.6 -1.3,-1.1 -1.9,-1.5 -2.3,-1.7 -0.3,-0.2 -0.6,-0.5 -0.6,-0.9 v -0.6 c 0,-0.4 0.2,-0.8 0.6,-0.9 4,-2 5.9,-5.1 5.9,-9.6 0,-4.5 -1.9,-8.7 -5.6,-12.4 -3.7,-3.7 -8.9,-5.5 -15.4,-5.5 -2.8,0 -5.3,0.4 -7.5,1.1 -2.3,0.7 -4,1.6 -5.2,2.4 -1.2,0.9 -2.3,1.9 -3.3,3.1 -1.2,1.5 -1.6,2.2 -1.7,2.4 -1.6,3.7 -1.8,4.9 -1.8,5.2 0,1.7 1.2,3.3 3.7,4.7 4,2.4 6.8,1.7 8.6,-2.2 l 0.5,-1 c 0.3,-0.8 1.2,-1.6 2.6,-2.4 1.3,-0.8 3.1,-1.1 5.2,-1.1 2.2,0 4,0.6 5.3,1.9 1.3,1.3 2,2.6 2,4.1 0,2.8 -2.5,4.3 -7.4,4.3 -1.8,0 -3.2,0.1 -4,0.4 -1.5,0.5 -2.3,2.5 -2.3,5.9 0,3.1 0.6,5 1.7,5.5 0.7,0.4 1.3,0.7 1.9,0.7 0.6,0.1 1.8,0.2 3.6,0.2 2.1,0 3.9,0.7 5.5,1.9 1.6,1.3 2.4,2.9 2.4,4.8 0,1.8 -0.8,3.4 -2.4,4.8 -1.6,1.4 -3.9,2 -7.2,2 -1.4,0 -2.7,-0.2 -3.8,-0.5 -2.8,-1 -4.6,-2.6 -5.3,-4.7 -0.8,-2.4 -1.6,-3.4 -2.1,-3.8 -0.5,-0.3 -1.3,-0.7 -4,-0.7 z"
   id="path252"
   style="fill:#303e5c" />
		</g><g
   transform="translate(-8.4745767,-49.152542)"
   id="g266">
			<path
   d="m 77.5,321.3 c 0.1,-0.8 0.5,-1.5 1.3,-2.1 0.8,-0.6 1.8,-1.2 3.2,-1.8 1.4,-0.6 2.6,-0.9 3.5,-1 1,-0.1 1.8,0.1 2.4,0.6 0.6,0.5 1.1,1 1.4,1.5 0.3,0.5 0.7,1.3 1.1,2.3 l 16.1,36.9 c 0.8,1.7 1.1,3.1 1,4.1 -0.1,1 -0.5,1.8 -1.2,2.5 -0.7,0.6 -1.8,1.2 -3,1.8 -1.3,0.6 -2.3,0.9 -3.2,1 -0.8,0.1 -1.5,0.1 -2.1,0 -0.5,-0.1 -1,-0.5 -1.4,-1 -0.6,-0.6 -1.2,-1.7 -1.9,-3.3 l -3.5,-8.1 -18,7.8 c -3.1,1.3 -5.3,1.3 -6.6,-0.1 -0.5,-0.6 -1.1,-1.5 -1.6,-2.7 -0.5,-1.2 -0.8,-2.1 -1,-2.7 l -4.2,-24.6 c -0.2,-1.1 -0.3,-2 -0.3,-2.6 0,-0.6 0.1,-1.3 0.5,-2 0.4,-0.7 1,-1.3 2,-1.7 0.9,-0.4 2,-0.7 3.3,-0.9 3.5,-0.5 5.6,0.2 6.5,2.2 0.3,0.7 0.6,1.7 0.7,3 0,0.1 0,0.2 0,0.2 l 3,18 10.8,-4.7 -7.9,-18.1 c -0.4,-1 -0.7,-1.8 -0.9,-2.3 -0.1,-0.8 -0.1,-1.4 0,-2.2 z"
   id="path262"
   style="fill:#9fcd60" />
			<path
   d="m 99,368 c -0.5,0 -0.9,0 -1.3,-0.1 -0.7,-0.2 -1.4,-0.6 -2,-1.3 -0.7,-0.7 -1.3,-1.9 -2.1,-3.5 l -3.1,-7.1 -17,7.4 c -3.6,1.6 -6.2,1.4 -7.8,-0.4 -0.6,-0.7 -1.2,-1.7 -1.8,-3 -0.6,-1.3 -0.9,-2.2 -1,-3 l -4.2,-24.6 c -0.2,-1.2 -0.3,-2.1 -0.3,-2.7 0,-0.8 0.2,-1.7 0.6,-2.6 0.5,-1 1.3,-1.7 2.5,-2.2 1,-0.4 2.2,-0.8 3.5,-0.9 0.7,-0.1 1.4,-0.2 2.1,-0.2 3.5,0 4.9,1.6 5.5,3 0.3,0.8 0.6,1.9 0.8,3.2 0,0.1 0,0.1 0,0.2 0,0 0,0 0,0 l 2.8,16.6 8.7,-3.8 -7.5,-17.2 c -0.5,-1.1 -0.8,-1.9 -0.9,-2.4 -0.2,-0.6 -0.2,-1.4 -0.1,-2.3 0.1,-1 0.7,-2 1.6,-2.8 0.8,-0.7 2,-1.3 3.5,-2 1.5,-0.7 2.8,-1 3.9,-1.1 1.3,-0.1 2.3,0.2 3.1,0.8 0.7,0.6 1.3,1.2 1.7,1.8 0.3,0.5 0.7,1.3 1.2,2.4 l 16.1,36.9 c 0.8,1.9 1.2,3.4 1.1,4.6 -0.1,1.3 -0.6,2.4 -1.6,3.2 -0.8,0.7 -1.9,1.4 -3.3,2 -1.4,0.6 -2.5,1 -3.5,1.1 -0.5,0 -0.9,0 -1.2,0 z m -7.9,-14.5 c 0.1,0 0.3,0 0.4,0.1 0.3,0.1 0.5,0.3 0.6,0.5 l 3.5,8.1 c 0.8,1.8 1.4,2.6 1.7,3 0.3,0.4 0.6,0.6 0.9,0.7 0.4,0.1 1,0.1 1.7,0 0.7,-0.1 1.7,-0.4 2.9,-0.9 1.2,-0.5 2.1,-1.1 2.8,-1.6 0.5,-0.5 0.8,-1 0.9,-1.7 0,-0.6 -0.1,-1.7 -0.9,-3.6 L 89.5,321.2 c -0.4,-1 -0.8,-1.7 -1.1,-2.2 -0.2,-0.4 -0.6,-0.8 -1.1,-1.2 -0.4,-0.3 -1,-0.5 -1.7,-0.4 -0.8,0.1 -1.9,0.4 -3.2,0.9 -1.3,0.6 -2.3,1.1 -3,1.7 -0.5,0.4 -0.8,0.9 -0.9,1.4 -0.1,0.6 -0.1,1.2 0.1,1.5 0.1,0.5 0.4,1.2 0.8,2.2 l 7.9,18.1 c 0.2,0.5 0,1.1 -0.5,1.4 L 76,349.3 c -0.3,0.1 -0.6,0.1 -0.9,0 -0.3,-0.2 -0.5,-0.4 -0.5,-0.7 l -3,-17.9 c 0,-0.1 0,-0.3 0,-0.4 -0.2,-1.1 -0.4,-2 -0.7,-2.6 -0.2,-0.4 -0.8,-1.8 -3.6,-1.8 -0.5,0 -1.1,0 -1.8,0.1 -1.1,0.2 -2.2,0.4 -3,0.8 -0.7,0.3 -1.2,0.7 -1.5,1.3 -0.3,0.6 -0.4,1.1 -0.4,1.5 0,0.6 0.1,1.4 0.3,2.5 l 4.2,24.6 c 0.1,0.4 0.3,1.1 0.9,2.5 0.5,1.1 0.9,1.9 1.4,2.4 1,1 2.8,1 5.4,-0.1 l 18,-7.8 c 0,-0.1 0.1,-0.2 0.3,-0.2 z"
   id="path264"
   style="fill:#303e5c" />
		</g><g
   transform="translate(-8.4745767,-49.152542)"
   id="g272">
			<path
   d="m 542.2,331.3 c 3.4,1.1 5.1,2.7 5.1,4.7 0,0.9 -0.3,2.3 -0.9,4.2 -0.6,1.9 -2.1,4.2 -4.3,6.6 -2.2,2.5 -4.7,4.8 -7.4,7.1 -2.7,2.2 -5.4,4.5 -8.2,6.8 -6.6,5.6 -10.5,10.5 -11.9,14.7 -0.3,1.1 -0.7,1.8 -0.9,2.3 -0.3,0.5 -0.7,0.9 -1.3,1.4 -0.6,0.4 -1.3,0.6 -2.3,0.5 -1,-0.1 -2.2,-0.4 -3.8,-0.9 -1.6,-0.5 -2.8,-1 -3.6,-1.5 -0.8,-0.5 -1.4,-1.1 -1.6,-1.8 -0.2,-0.7 -0.2,-1.3 -0.2,-1.9 0,-0.6 0.3,-1.4 0.7,-2.5 1,-3.2 2.6,-6.2 4.8,-9.2 2.2,-3 4.4,-5.5 6.8,-7.7 2.4,-2.1 4.7,-4.1 6.9,-5.8 2.2,-1.7 4.1,-3.2 5.7,-4.4 1.6,-1.2 2.5,-2.2 2.7,-2.8 l -16.7,-5.4 c -1.9,-0.6 -3.3,-1.3 -4,-2.1 -0.7,-0.8 -1.1,-1.7 -1.1,-2.7 0,-1 0.3,-2.3 0.8,-3.8 0.5,-1.5 1,-2.7 1.6,-3.5 0.6,-0.8 1.3,-1.3 2,-1.4 1.2,-0.3 2.7,-0.1 4.5,0.5 z"
   id="path268"
   style="fill:#cb7ea2" />
			<path
   d="m 510.7,380.8 c -0.2,0 -0.4,0 -0.6,0 -1,-0.1 -2.4,-0.4 -4,-1 -1.6,-0.5 -2.9,-1.1 -3.8,-1.6 -1.1,-0.6 -1.8,-1.4 -2,-2.4 -0.2,-0.9 -0.3,-1.6 -0.2,-2.3 0.1,-0.6 0.3,-1.4 0.7,-2.6 1.1,-3.3 2.7,-6.5 4.9,-9.5 2.2,-3 4.5,-5.7 6.9,-7.8 2.4,-2.1 4.7,-4.1 7,-5.8 2.2,-1.7 4.1,-3.2 5.7,-4.4 0.8,-0.6 1.3,-1.1 1.7,-1.4 l -15.3,-5 c -2.1,-0.7 -3.6,-1.5 -4.4,-2.4 -0.9,-1 -1.3,-2.1 -1.3,-3.4 0,-1.1 0.3,-2.5 0.8,-4.1 0.5,-1.6 1.1,-2.9 1.8,-3.8 0.8,-1.1 1.6,-1.7 2.7,-1.9 1.3,-0.3 3.1,-0.1 5,0.5 l 26.3,8.6 c 3.9,1.3 5.8,3.2 5.8,5.7 0,1 -0.3,2.5 -0.9,4.5 -0.7,2.1 -2.2,4.4 -4.5,7 -2.2,2.5 -4.8,4.9 -7.5,7.2 -2.7,2.2 -5.4,4.5 -8.2,6.8 -6.4,5.4 -10.3,10.2 -11.6,14.2 -0.4,1.1 -0.7,2 -1,2.5 -0.3,0.6 -0.9,1.2 -1.5,1.7 -0.7,0.4 -1.5,0.7 -2.5,0.7 z m 1.8,-57.7 c -0.3,0 -0.7,0 -1,0.1 -0.5,0.1 -0.9,0.4 -1.4,1 -0.5,0.7 -1,1.8 -1.5,3.2 -0.5,1.4 -0.7,2.6 -0.7,3.5 0,0.8 0.2,1.4 0.8,2 0.4,0.4 1.4,1.1 3.6,1.8 l 16.7,5.4 c 0.3,0.1 0.5,0.3 0.6,0.5 0.1,0.2 0.1,0.5 0.1,0.8 -0.3,0.9 -1.2,1.9 -3,3.3 -1.6,1.2 -3.5,2.7 -5.7,4.4 -2.2,1.7 -4.5,3.6 -6.8,5.7 -2.3,2.1 -4.5,4.6 -6.6,7.5 -2.1,2.9 -3.7,5.9 -4.6,8.9 -0.3,1.1 -0.6,1.9 -0.7,2.3 -0.1,0.4 0,0.9 0.1,1.4 0.1,0.4 0.5,0.8 1.1,1.2 0.8,0.4 1.9,0.9 3.4,1.4 1.5,0.5 2.7,0.8 3.6,0.9 0.7,0.1 1.2,0 1.6,-0.3 0.5,-0.3 0.8,-0.7 1,-1 0.2,-0.3 0.4,-0.9 0.8,-2.1 1.5,-4.5 5.5,-9.4 12.2,-15.2 2.7,-2.3 5.5,-4.6 8.2,-6.8 2.6,-2.2 5.1,-4.5 7.3,-7 2.1,-2.4 3.5,-4.5 4.1,-6.3 0.7,-2.3 0.9,-3.4 0.8,-3.9 0,-1.6 -1.5,-2.8 -4.4,-3.8 l -26.3,-8.6 c -1.4,-0.1 -2.4,-0.3 -3.3,-0.3 z"
   id="path270"
   style="fill:#303e5c" />
		</g><g
   transform="translate(-8.4745767,-49.152542)"
   id="g278">
			<path
   d="m 379.2,315.4 9.3,6.9 5.8,4.2 c 1,0.7 1.7,1.3 2.1,1.7 0.4,0.4 0.8,1 1.2,1.8 0.7,1.4 0,3.4 -1.9,6.1 -1.8,2.5 -3.4,3.6 -4.8,3.4 -0.8,-0.1 -1.5,-0.3 -1.9,-0.5 -0.4,-0.2 -1.2,-0.7 -2.1,-1.4 l -10.8,-7.9 c -0.4,0.4 -1.8,1.8 -4,4.2 0.5,0.2 1.3,0.7 2.2,1.5 3.9,2.9 6.3,6.9 7.3,12.1 1,5.2 -0.1,9.9 -3.2,14.2 -3.1,4.2 -7.3,6.8 -12.4,7.7 -5.2,0.9 -10,-0.3 -14.4,-3.5 -3.8,-2.8 -6.5,-6.3 -8.2,-10.5 -0.4,-1 -0.6,-1.7 -0.7,-2.3 l -0.2,-0.8 c -0.6,-2.5 -0.4,-4.3 0.4,-5.4 0.8,-1.1 2.5,-1.9 5.2,-2.3 2.2,-0.5 3.9,-0.3 5.1,0.6 1.1,0.8 2,2.5 2.7,5 0.1,1.4 1.1,2.8 2.9,4.1 1.8,1.3 3.5,1.9 4.9,1.8 1.5,-0.1 2.7,-0.9 3.7,-2.3 1,-1.4 1.3,-2.8 0.9,-4.3 -0.4,-1.5 -1.2,-2.7 -2.4,-3.6 -1.2,-0.9 -2.5,-1.3 -3.8,-1.1 -1.8,0.1 -3.3,-0.2 -4.4,-1 -1.1,-0.8 -2.1,-2.2 -3,-4 -0.9,-1.8 -1.4,-3.2 -1.5,-4 -0.1,-0.8 0,-1.5 0.4,-2 0.4,-0.5 3.2,-3.5 8.5,-9 5.3,-5.5 8,-8.3 8.2,-8.5 0.2,-0.2 0.7,-0.5 1.4,-1 0.7,-0.4 1.4,-0.8 2.1,-1 0.7,-0.2 1.6,-0.3 2.6,-0.1 0.8,0.1 1.8,0.5 2.8,1.2 z"
   id="path274"
   style="fill:#94bdd1" />
			<path
   d="m 362.5,370.6 c -4.1,0 -8.1,-1.3 -11.7,-4 -4,-2.9 -6.8,-6.6 -8.6,-10.9 -0.4,-1.1 -0.6,-1.9 -0.7,-2.5 l -0.2,-0.7 c -0.6,-2.8 -0.5,-4.9 0.5,-6.2 1,-1.3 2.9,-2.2 5.9,-2.7 2.4,-0.5 4.4,-0.2 5.8,0.8 1.4,1 2.4,2.8 3.1,5.6 0,0.1 0,0.1 0,0.2 0.1,1.1 0.9,2.2 2.5,3.4 1.6,1.2 3,1.7 4.2,1.6 1.2,-0.1 2.1,-0.7 2.9,-1.8 0.8,-1.1 1.1,-2.3 0.8,-3.5 -0.3,-1.3 -1,-2.3 -2,-3 -1,-0.7 -2,-1 -3,-0.9 -0.4,0 -0.6,0 -0.9,0 -1.7,0 -3.1,-0.4 -4.3,-1.3 -1.3,-0.9 -2.4,-2.4 -3.3,-4.4 -0.9,-2 -1.5,-3.4 -1.6,-4.3 -0.1,-1.1 0.1,-2 0.6,-2.7 0.3,-0.4 1.5,-1.7 8.6,-9.1 7,-7.2 8.1,-8.4 8.3,-8.5 0.3,-0.3 0.8,-0.6 1.6,-1.1 0.8,-0.5 1.5,-0.8 2.3,-1.1 0.9,-0.3 1.9,-0.4 3,-0.2 1.2,0.2 2.3,0.6 3.4,1.4 l 15.1,11.2 c 1,0.8 1.7,1.3 2.2,1.8 0.5,0.5 0.9,1.1 1.4,2.1 0.9,1.8 0.2,4.1 -2,7.2 -2.1,2.8 -4,4.1 -5.8,3.8 -0.9,-0.1 -1.7,-0.3 -2.3,-0.6 -0.5,-0.3 -1.2,-0.8 -2.2,-1.5 l -10,-7.4 c -0.5,0.6 -1.4,1.4 -2.5,2.6 0.4,0.2 0.8,0.5 1.2,0.8 4.1,3 6.7,7.3 7.7,12.7 1,5.5 -0.1,10.5 -3.4,15 -3.3,4.4 -7.7,7.2 -13.1,8.1 -1.2,0 -2.4,0.1 -3.5,0.1 z m -12.4,-25.3 c -0.6,0 -1.2,0.1 -1.9,0.2 -3,0.5 -4.1,1.3 -4.6,1.9 -0.6,0.8 -0.7,2.4 -0.2,4.6 l 0.2,0.8 c 0.1,0.6 0.3,1.3 0.6,2.2 1.6,4 4.2,7.3 7.8,10 4.1,3 8.7,4.1 13.6,3.3 4.9,-0.8 8.9,-3.3 11.8,-7.3 3,-4 4,-8.4 3,-13.4 -0.9,-4.9 -3.2,-8.8 -6.9,-11.5 -1.2,-0.8 -1.8,-1.2 -2.1,-1.4 -0.3,-0.1 -0.5,-0.4 -0.6,-0.7 -0.1,-0.3 0,-0.7 0.3,-0.9 2.3,-2.4 3.6,-3.8 4.1,-4.2 0.4,-0.4 0.9,-0.4 1.3,-0.1 l 10.8,7.9 c 0.9,0.6 1.5,1.1 1.9,1.3 0.4,0.2 0.9,0.3 1.6,0.4 0.1,0 0.2,0 0.2,0 0.5,0 1.8,-0.4 3.6,-3 1.7,-2.3 2.3,-4.1 1.9,-5.1 -0.3,-0.7 -0.6,-1.2 -1,-1.5 -0.4,-0.4 -1,-0.9 -2,-1.6 l -5.8,-4.2 -9.3,-6.9 c -0.8,-0.6 -1.6,-0.9 -2.4,-1 -0.8,-0.1 -1.5,-0.1 -2.1,0.1 -0.6,0.2 -1.3,0.5 -1.9,0.9 -0.9,0.5 -1.1,0.8 -1.2,0.8 -0.3,0.3 -6.3,6.5 -8.2,8.5 -6.8,7.1 -8.2,8.6 -8.4,8.9 -0.2,0.3 -0.3,0.7 -0.2,1.3 0.1,0.5 0.4,1.5 1.4,3.7 0.8,1.7 1.7,2.9 2.7,3.6 0.9,0.7 2.2,1 3.7,0.8 0.2,0 0.5,-0.1 0.8,-0.1 1.3,0 2.5,0.4 3.7,1.3 1.4,1 2.4,2.5 2.8,4.2 0.5,1.8 0.1,3.6 -1.1,5.2 -1.2,1.6 -2.7,2.5 -4.4,2.7 -1.7,0.2 -3.6,-0.5 -5.6,-2 -2,-1.5 -3.1,-3.1 -3.3,-4.8 -0.6,-2.2 -1.3,-3.6 -2.3,-4.3 -0.6,-0.4 -1.4,-0.6 -2.3,-0.6 z"
   id="path276"
   style="fill:#303e5c" />
		</g><g
   transform="translate(-8.4745767,-49.152542)"
   id="g284">
			<path
   d="m 232.1,347.4 c 2.6,5 2.9,10 0.9,15 -2,5 -5.4,8.7 -10,11.1 -4.6,2.4 -9.5,3.1 -14.8,1.9 -5.3,-1.1 -9.2,-4.2 -11.9,-9.3 -1,-1.9 -1.5,-3.9 -1.5,-6.2 0,-2.3 0.2,-4 0.7,-5.3 l 0.7,-2 c -0.5,-0.1 -1,-0.3 -1.7,-0.5 -0.7,-0.2 -1.8,-0.9 -3.3,-2 -1.5,-1.1 -2.7,-2.5 -3.6,-4.1 -2.3,-4.4 -2.6,-8.9 -0.7,-13.5 1.8,-4.6 4.9,-8.1 9.3,-10.4 4.4,-2.3 9,-2.8 13.7,-1.6 4.8,1.2 8.3,4.1 10.7,8.6 0.7,1.3 1.1,2.9 1.2,4.6 0.1,1.7 0,3.1 -0.3,4.2 l -0.4,1.6 c 0.6,0.1 1.3,0.3 2.2,0.6 0.9,0.3 2.4,1.1 4.3,2.4 2,1.4 3.5,3 4.5,4.9 z M 208.5,335 c -0.5,-0.9 -1.3,-1.5 -2.5,-1.9 -1.2,-0.4 -2.5,-0.2 -4,0.6 -1.5,0.8 -2.4,1.8 -2.7,2.9 -0.3,1.1 -0.2,2.2 0.2,3.1 0.5,0.9 1.3,1.6 2.5,2 1.2,0.4 2.5,0.2 4,-0.6 1.5,-0.8 2.3,-1.7 2.7,-2.9 0.4,-1.2 0.3,-2.3 -0.2,-3.2 z m 3.2,27.9 c 1.6,0.5 3.4,0.3 5.4,-0.8 2,-1 3.2,-2.3 3.6,-3.9 0.4,-1.6 0.3,-3 -0.3,-4.2 -0.6,-1.2 -1.8,-2.1 -3.3,-2.7 -1.6,-0.5 -3.3,-0.3 -5.3,0.7 -1.9,1 -3.2,2.3 -3.6,3.9 -0.5,1.6 -0.4,3 0.3,4.3 0.5,1.2 1.6,2.1 3.2,2.7 z"
   id="path280"
   style="fill:#fec459" />
			<path
   d="m 213.1,377 c -1.7,0 -3.4,-0.2 -5.1,-0.6 -5.5,-1.2 -9.8,-4.5 -12.6,-9.8 -1.1,-2 -1.6,-4.3 -1.6,-6.7 0,-2.4 0.2,-4.2 0.8,-5.7 l 0.3,-1 c -0.2,-0.1 -0.4,-0.1 -0.7,-0.2 -0.8,-0.2 -2,-0.9 -3.6,-2.1 -1.6,-1.2 -3,-2.7 -3.9,-4.4 -2.4,-4.6 -2.7,-9.5 -0.8,-14.4 1.9,-4.8 5.2,-8.5 9.8,-10.9 4.6,-2.4 9.5,-3 14.5,-1.7 5,1.3 8.8,4.4 11.4,9.1 0.8,1.5 1.2,3.2 1.3,5 0.1,1.9 0,3.3 -0.4,4.5 l -0.2,0.6 c 0.4,0.1 0.8,0.2 1.3,0.4 1,0.3 2.5,1.1 4.6,2.5 2.1,1.4 3.7,3.1 4.8,5.2 2.8,5.3 3.1,10.6 0.9,15.9 -2.1,5.2 -5.6,9.1 -10.5,11.6 -3.2,1.8 -6.7,2.7 -10.3,2.7 z m -8,-56 c -2.8,0 -5.7,0.7 -8.4,2.1 -4.1,2.2 -7.1,5.5 -8.8,9.8 -1.7,4.4 -1.5,8.5 0.7,12.6 0.8,1.5 1.9,2.7 3.3,3.7 1.9,1.4 2.7,1.7 3,1.8 0.6,0.2 1.2,0.4 1.6,0.5 0.3,0.1 0.5,0.3 0.7,0.5 0.1,0.3 0.2,0.6 0.1,0.8 l -0.7,2 c -0.4,1.2 -0.6,2.8 -0.6,4.9 0,2.1 0.5,4 1.4,5.7 2.5,4.8 6.2,7.7 11.2,8.8 5,1.1 9.7,0.5 14.1,-1.8 4.4,-2.3 7.6,-5.9 9.5,-10.6 1.9,-4.7 1.7,-9.4 -0.8,-14.1 -0.9,-1.7 -2.3,-3.2 -4.1,-4.4 -2.3,-1.6 -3.5,-2.1 -4.1,-2.3 -0.9,-0.3 -1.6,-0.5 -2.1,-0.6 -0.3,-0.1 -0.5,-0.2 -0.7,-0.5 -0.2,-0.2 -0.2,-0.5 -0.1,-0.8 l 0.4,-1.6 c 0.3,-1 0.4,-2.3 0.3,-3.9 -0.1,-1.6 -0.4,-3 -1.1,-4.2 -2.3,-4.3 -5.5,-6.9 -10,-8.1 -1.8,-0.1 -3.3,-0.3 -4.8,-0.3 z m 8.3,43.2 c 0,0 0,0 0,0 -0.7,0 -1.4,-0.1 -2,-0.3 -1.8,-0.6 -3.2,-1.7 -4,-3.2 -0.8,-1.5 -0.9,-3.2 -0.3,-5.1 0.6,-1.9 2,-3.4 4.2,-4.5 2.2,-1.2 4.3,-1.4 6.1,-0.8 1.8,0.6 3.1,1.7 3.9,3.2 0.8,1.5 0.9,3.1 0.4,5 -0.5,1.9 -1.9,3.4 -4.1,4.6 -1.5,0.7 -2.9,1.1 -4.2,1.1 z m 1.9,-12.2 c -0.9,0 -2,0.3 -3.1,0.9 -1.7,0.9 -2.7,2 -3.1,3.3 -0.4,1.3 -0.3,2.5 0.2,3.5 0.5,1 1.4,1.7 2.8,2.2 0.4,0.1 0.9,0.2 1.4,0.2 0,0 0,0 0,0 1,0 2,-0.3 3.2,-0.9 1.7,-0.9 2.7,-2 3.1,-3.3 0.4,-1.3 0.3,-2.5 -0.3,-3.5 -0.5,-1 -1.4,-1.7 -2.8,-2.2 -0.5,-0.1 -0.9,-0.2 -1.4,-0.2 z m -11.9,-9.1 c -0.5,0 -1.1,-0.1 -1.6,-0.3 -1.5,-0.5 -2.5,-1.3 -3.1,-2.5 -0.6,-1.2 -0.7,-2.4 -0.3,-3.8 0.4,-1.4 1.5,-2.6 3.2,-3.5 1.7,-0.9 3.4,-1.1 4.8,-0.7 1.4,0.5 2.5,1.3 3.1,2.4 0.6,1.1 0.7,2.4 0.3,3.9 -0.4,1.5 -1.5,2.7 -3.2,3.6 -1.1,0.6 -2.2,0.9 -3.2,0.9 z m 1.5,-8.9 c -0.7,0 -1.5,0.2 -2.3,0.7 -1.2,0.6 -2,1.4 -2.2,2.2 -0.2,0.9 -0.2,1.6 0.2,2.3 0.4,0.7 1,1.2 1.9,1.5 0.9,0.3 2,0.1 3.2,-0.5 1.2,-0.6 1.9,-1.4 2.1,-2.3 0.2,-0.9 0.2,-1.7 -0.1,-2.4 -0.3,-0.7 -1,-1.1 -1.9,-1.4 -0.3,-0.1 -0.6,-0.1 -0.9,-0.1 z"
   id="path282"
   style="fill:#303e5c" />
		</g><path
   d="m 563.02542,133.84746 0.3,-2 4,0.5 -0.3,2 z m -28.3,-5.4 1.6,1.2 2.4,-3.2 -1.6,-1.2 z m 37.5,-40.200002 -1.5,-3.7 -1.9,0.8 1.5,3.7 z m 1.2,8.2 1.9,-0.8 -1.5,-3.7 -1.9,0.8 z m -5.3,-7.9 -1.6,-1.2 -2.4,3.2 1.6,1.2 z m -20.9,43.200002 4,0.5 0.3,-2 -4,-0.5 z m -0.3,-19.1 -2.4,3.2 1.6,1.2 2.4,-3.2 z m -7.7,18 4,0.5 0.3,-2 -4,-0.5 z m 0.4,-8.5 1.6,1.2 2.4,-3.2 -1.6,-1.2 z m 31.3,12.8 4,0.5 0.3,-2 -4,-0.5 z m 13.5,-11.4 -2.4,3.1 1.6,1.2 1.7,-2.2 0.2,0.4 1.9,-0.8 -1.5,-3.7 -1.9,0.8 z m 6,9.2 -1.5,-3.7 -1.9,0.8 1.5,3.7 z m 0.4,4.9 0.3,-2 -4,-0.5 -0.3,2 z m -7.7,-3.1 -4,-0.5 -0.3,2 4,0.5 z m -6.7,-30.7 1.9,-0.8 -1.5,-3.700002 -1.9,0.800002 z m 3,7.4 1.9,-0.8 -1.5,-3.7 -1.9,0.8 z m 3.1,7.4 1.9,-0.8 -1.5,-3.7 -1.9,0.8 z m -33.1,-9.2 1.6,1.2 2.4,-3.2 -1.6,-1.2 z m 12.2,-15.800002 -2.4,3.2 1.6,1.2 2.4,-3.2 z m -3.3,7.600002 -1.6,-1.2 -2.4,3.2 1.6,1.2 z m -3.2,31.5 4,0.5 0.3,-2 -4,-0.5 z m 35.8,-14.3 -1.6,-1.2 -2.4,3.2 1.6,1.2 z m 15.7,41.1 4,0.5 0.3,-2 -4,-0.5 z m 6.9,-14.4 -1.9,0.8 1.5,3.7 1.9,-0.8 z m -4.5,-11.1 -1.5,-3.7 -1.9,0.8 1.5,3.7 z m -29.4,-4.2 -2.4,3.2 1.6,1.2 2.4,-3.2 z m 36.6,27.1 1.9,-0.8 -1.5,-3.7 -1.9,0.8 z m -6,-14.8 1.9,-0.8 -1.5,-3.7 -1.9,0.8 z m -9.1,-22.2 1.9,-0.8 -1.5,-3.7 -1.9,0.8 z m 13.7,38.7 -0.3,2 4,0.5 0.3,-2 z m -10.4,-35.7 -1.9,0.8 1.5,3.7 1.9,-0.8 z m -37.1,22.7 1.6,1.2 2.4,-3.2 -1.6,-1.2 z m 7.4,-9.5 -2.4,3.2 1.6,1.2 2.4,-3.2 z m 24,22.3 4,0.5 0.3,-2 -4,-0.5 z m -36.3,-6.5 1.6,1.2 2.4,-3.2 -1.6,-1.2 z m 4.5,2.2 4,0.5 0.3,-2 -4,-0.5 z m 8,1.1 4,0.5 0.3,-2 -4,-0.5 z m 16.9,-41.2 1.6,1.2 2.4,-3.2 -1.6,-1.2 z m 6.6,-5.9 -1.9,0.7 1.5,3.7 1.9,-0.8 z m -15.6,48.2 4,0.5 0.3,-2 -4,-0.5 z m 7.9,1 4,0.5 0.3,-2 -4,-0.5 z"
   id="path286"
   style="fill:#303e5c" /><path
   d="m 269.72542,112.64746 h -5 v -2 h 3 v -0.3 h 2 z m -41.4,-41.600002 h 2 v -4 h -2 z m 39.4,19.3 h 2 v -4 h -2 z m -39.4,-11.3 h 2 v -4 h -2 z m 39.4,27.300002 h 2 v -4 h -2 z m 0,-8.000002 h 2 v -4 h -2 z m 1,-32 h 1 v -1 h -5 v 2 h 4 z m -28,1 h 4 v -2 h -4 z m 0,45.300002 h 4 v -2 h -4 z m 8,-45.300002 h 4 v -2 h -4 z m 0,45.300002 h 4 v -2 h -4 z m -16,0 h 4 v -2 h -4 z m 37,-34.300002 h -2 v 4 h 2 z m -41.4,8.7 h 2 v -4 h -2 z m 4.4,-19.7 h 4 v -2 h -4 z m 28,-2 h -4 v 2 h 4 z m -32.4,45.700002 h 2 v -4 h -2 z m 28.4,1.6 h 4 v -2 h -3.7 v -3.3 h -2 v 4 h 1.7 z m -28.4,-9.6 h 2 v -4.000002 h -2 z m 0,-8.000002 h 2 v -4 h -2 z m 41.4,-24.7 h -2 v 3.4 h -0.3 v 2 h 4 v -2 h -1.7 z m -12.7,21.1 h -2 v 4 h 2 z m 0,-8 h -2 v 4 h 2 z m 0,16 h -2 v 4.000002 h 2 z m 0,-24 h -2 v 4 h 2 z m 37.3,15.3 h 2 v -4 h -2 z m 0,16.000002 h 2 v -4 h -2 z m -10.9,-31.000002 h 4 v -2 h -4 z m 10.9,43.300002 h -3 v 2 h 5 v -2.3 h -2 z m 0,-4.3 h 2 v -4 h -2 z m -2.9,-41.000002 v 2 h 4 v -1 h 1 v -1 z m 2.9,25 h 2 v -4 h -2 z m 0,-16 h 2 v -4 h -2 z m -11,38.300002 h 4 v -2 h -4 z m -23.9,-45.300002 h 4 v -2 h -4 z m -4.4,43.700002 h 2 v -4 h -2 z m 4.3,1.6 h 4 v -2 h -4 z m 8,0 h 4 v -2 h -4 z m 8,0 h 4 v -2 h -4 z m 0.1,-45.300002 h 4 v -2 h -4 z"
   id="path288"
   style="fill:#303e5c" /><path
   d="m 70.225423,123.74746 c -1.4,0 -2.8,-0.2 -4.2,-0.6 l 0.5,-1.9 c 1.2,0.3 2.4,0.5 3.7,0.5 z m 4.2,-0.5 -0.5,-1.9 c 1.2,-0.3 2.4,-0.8 3.5,-1.4 l 1,1.7 c -1.3,0.7 -2.6,1.3 -4,1.6 z m -12.4,-1.8 c -1.2,-0.7 -2.3,-1.6 -3.3,-2.6 l 1.4,-1.4 c 0.9,0.9 1.8,1.7 2.9,2.3 z m 19.7,-2.3 -1.4,-1.4 c 0.9,-0.9 1.7,-1.9 2.3,-2.9 l 1.7,1 c -0.7,1.1 -1.6,2.3 -2.6,3.3 z m -25.5,-3.7 c -0.7,-1.2 -1.2,-2.6 -1.5,-4 l 1.9,-0.5 c 0.3,1.2 0.7,2.4 1.4,3.5 z m 29.8,-3.6 -1.9,-0.5 c 0.3,-1.2 0.5,-2.4 0.5,-3.7 h 2 c -0.1,1.4 -0.3,2.8 -0.6,4.2 z m -29.8,-4.6 h -2 c 0,-1.4 0.3,-2.8 0.7,-4.2 l 1.9,0.6 c -0.4,1.1 -0.6,2.4 -0.6,3.6 z m 28,-2.7 c -0.3,-1.2 -0.7,-2.4 -1.3,-3.5 l 1.8,-0.9 c 0.7,1.3 1.1,2.6 1.4,4 z m -25.9,-4.4 -1.7,-1.000002 c 0.7,-1.2 1.6,-2.3 2.7,-3.3 l 1.4,1.5 c -1,0.8 -1.8,1.8 -2.4,2.800002 z m 22.5,-2.100002 c -0.8,-0.9 -1.8,-1.7 -2.9,-2.4 l 1.1,-1.7 c 1.2,0.8 2.3,1.7 3.3,2.7 z m -17.1,-2.9 -0.9,-1.8 c 1.3,-0.7 2.6,-1.2 4,-1.5 l 0.4,1.9 c -1.3,0.4 -2.4,0.8 -3.5,1.4 z m 10.8,-1.1 c -1.2,-0.4 -2.4,-0.6 -3.7,-0.6 l 0.1,-2 c 1.4,0.1 2.8,0.3 4.2,0.7 z"
   id="path290"
   style="fill:#303e5c" /><g
   transform="translate(-8.4745767,-49.152542)"
   id="g294">
		<path
   stroke-miterlimit="10"
   d="m 371.6,177.2 h -14.7 c -1.8,0 -2.9,-0.5 -3.2,-1.6 -0.2,-0.6 -0.3,-1.3 -0.3,-2.2 0,-0.9 0.1,-1.6 0.3,-2.2 0.2,-0.6 0.5,-0.9 0.9,-1.1 0.6,-0.3 1.4,-0.5 2.4,-0.5 h 14.7 c 1.8,0 2.8,0.5 3.1,1.6 0.2,0.5 0.3,1.3 0.3,2.2 0,0.9 -0.1,1.6 -0.3,2.2 -0.2,0.6 -0.5,0.9 -0.9,1.2 -0.4,0.2 -0.8,0.3 -1,0.4 -0.3,-0.1 -0.7,0 -1.3,0 z m 0,-10.8 h -14.7 c -1.8,0 -2.8,-0.5 -3.1,-1.6 -0.2,-0.6 -0.3,-1.3 -0.3,-2.2 0,-0.9 0.1,-1.6 0.3,-2.2 0.2,-0.6 0.5,-0.9 0.9,-1.1 0.6,-0.3 1.4,-0.5 2.3,-0.5 h 14.7 c 1.8,0 2.9,0.5 3.2,1.6 0.2,0.5 0.3,1.3 0.3,2.2 0,0.9 -0.1,1.6 -0.3,2.2 -0.2,0.6 -0.5,0.9 -0.9,1.2 -0.4,0.2 -0.8,0.3 -1,0.4 -0.3,0 -0.8,0 -1.4,0 z"
   id="path292"
   style="fill:#fca7ad;stroke:#303e5c;stroke-width:1.79709995;stroke-linejoin:round;stroke-miterlimit:10" />
	</g><path
   stroke-miterlimit="10"
   d="m 477.92542,141.84746 h 4.1 c 1.2,0 2,0.1 2.6,0.4 0.6,0.3 0.9,0.7 1.1,1.3 0.2,0.6 0.3,1.3 0.3,2.3 0,1 -0.1,1.7 -0.3,2.3 -0.2,0.6 -0.5,1 -0.9,1.2 -0.6,0.3 -1.5,0.5 -2.6,0.5 h -4.4 v 4.1 c 0,1.2 -0.1,2 -0.4,2.6 -0.3,0.5 -0.7,0.9 -1.3,1.1 -0.6,0.2 -1.3,0.3 -2.3,0.3 -1,0 -1.7,-0.1 -2.3,-0.3 -0.6,-0.2 -1,-0.5 -1.2,-0.9 -0.3,-0.6 -0.5,-1.6 -0.5,-2.8 v -4 h -4.3 c -1.1,0 -1.9,-0.1 -2.4,-0.4 -0.5,-0.3 -0.8,-0.7 -1,-1.3 -0.2,-0.6 -0.3,-1.4 -0.3,-2.3 0,-0.9 0.1,-1.7 0.3,-2.3 0.2,-0.6 0.5,-1 1,-1.2 0.6,-0.3 1.6,-0.5 2.8,-0.5 h 4 v -4.1 c 0,-1.2 0.1,-2 0.4,-2.6 0.3,-0.5 0.7,-0.9 1.3,-1.1 0.6,-0.2 1.4,-0.3 2.3,-0.3 0.9,0 1.7,0.1 2.3,0.3 0.6,0.2 1,0.5 1.2,0.9 0.3,0.6 0.5,1.6 0.5,2.8 z"
   id="path296"
   style="fill:#a68d57;stroke:#303e5c;stroke-width:1.79709995;stroke-linejoin:round;stroke-miterlimit:10" /><path
   stroke-miterlimit="10"
   d="m 275.32542,176.34746 h -12.9 c -2,0 -3.2,-0.6 -3.6,-1.8 -0.2,-0.7 -0.3,-1.5 -0.3,-2.5 0,-1 0.1,-1.8 0.3,-2.4 0.2,-0.6 0.6,-1 1,-1.3 0.7,-0.3 1.5,-0.5 2.6,-0.5 h 12.9 c 2,0 3.2,0.6 3.6,1.8 0.2,0.7 0.3,1.5 0.3,2.5 0,1 -0.1,1.8 -0.3,2.5 -0.2,0.6 -0.5,1.1 -1,1.3 -0.6,0.3 -1.5,0.4 -2.6,0.4 z"
   id="path298"
   style="fill:#fec459;stroke:#303e5c;stroke-width:2.06760001;stroke-linejoin:round;stroke-miterlimit:10" /><path
   stroke-miterlimit="10"
   d="m 183.12542,139.24746 4.1,4.3 c 0.9,0.9 1.3,1.7 1.3,2.3 0,0.6 -0.5,1.4 -1.4,2.3 -0.9,0.9 -1.7,1.3 -2.3,1.3 -0.6,0 -1.4,-0.5 -2.3,-1.4 l -4,-4.2 -4.2,4.1 c -0.9,0.9 -1.7,1.3 -2.3,1.3 -0.6,0 -1.4,-0.5 -2.3,-1.4 -0.9,-0.9 -1.3,-1.7 -1.3,-2.3 0,-0.6 0.5,-1.4 1.4,-2.3 l 4.2,-4.1 -4.1,-4.3 c -0.9,-0.9 -1.3,-1.7 -1.3,-2.3 0,-0.6 0.5,-1.4 1.4,-2.3 0.9,-0.9 1.7,-1.3 2.3,-1.3 0.6,0 1.4,0.5 2.2,1.4 l 4.1,4.3 4.2,-4.1 c 0.9,-0.9 1.7,-1.3 2.3,-1.3 0.6,0 1.4,0.5 2.3,1.4 0.9,0.9 1.3,1.7 1.3,2.3 0,0.6 -0.5,1.4 -1.4,2.3 z"
   id="path300"
   style="fill:#cb7ea2;stroke:#303e5c;stroke-width:2.06760001;stroke-linejoin:round;stroke-miterlimit:10" /><path
   stroke-miterlimit="10"
   d="m 518.62542,53.847458 c 1.3,0.8 1.9,1.6 1.9,2.5 0,0.5 -0.2,1.2 -0.7,2.1 l -7.7,13.3 c -0.2,0.4 -0.6,0.8 -1.2,1.1 -0.6,0.3 -1.1,0.5 -1.6,0.5 -0.5,0 -1,-0.1 -1.5,-0.4 -0.5,-0.3 -0.8,-0.5 -1,-0.8 l -0.3,-0.4 -7.8,-13.3 c -0.5,-0.8 -0.7,-1.5 -0.7,-2 0,-0.9 0.6,-1.7 1.9,-2.5 0.9,-0.5 1.7,-0.8 2.2,-0.8 0.5,0 1,0.2 1.3,0.5 0.3,0.3 0.6,0.8 1,1.5 l 4.9,9.4 4.9,-9.4 c 0.3,-0.5 0.5,-0.8 0.6,-1 0.1,-0.2 0.4,-0.4 0.7,-0.6 0.3,-0.2 0.7,-0.3 1.2,-0.3 0.5,0 1,0.1 1.9,0.6 z"
   id="path302"
   style="fill:#fec459;stroke:#303e5c;stroke-width:2.06760001;stroke-linejoin:round;stroke-miterlimit:10" /><path
   stroke-miterlimit="10"
   d="m 518.62542,73.647458 c 1.3,0.8 1.9,1.6 1.9,2.5 0,0.5 -0.2,1.2 -0.7,2.1 l -7.7,13.3 c -0.2,0.4 -0.6,0.8 -1.2,1.1 -0.5,0.3 -1.1,0.5 -1.6,0.5 -0.5,0 -1,-0.1 -1.5,-0.4 -0.5,-0.3 -0.8,-0.5 -1,-0.8 l -0.3,-0.4 -7.8,-13.3 c -0.5,-0.8 -0.7,-1.5 -0.7,-2 0,-0.9 0.6,-1.7 1.9,-2.5 0.9,-0.5 1.7,-0.8 2.2,-0.8 0.5,0 1,0.2 1.3,0.5 0.3,0.3 0.6,0.8 1,1.5 l 4.9,9.4 4.9,-9.4 c 0.3,-0.5 0.5,-0.8 0.6,-1 0.1,-0.2 0.4,-0.4 0.7,-0.6 0.3,-0.2 0.7,-0.3 1.2,-0.3 0.5,0 1,0.1 1.9,0.6 z"
   id="path304"
   style="fill:#fec459;stroke:#303e5c;stroke-width:2.06760001;stroke-linejoin:round;stroke-miterlimit:10" /><path
   stroke-miterlimit="10"
   d="m 130.52542,65.847458 c 0,0.5 -0.1,0.9 -0.3,1.2 -0.2,0.3 -0.4,0.5 -0.6,0.6 -0.2,0.1 -0.5,0.3 -1,0.6 l -9.3,4.8 9.3,4.8 c 0.7,0.3 1.2,0.7 1.5,1 0.3,0.3 0.5,0.7 0.5,1.3 0,0.6 -0.3,1.3 -0.8,2.2 -0.8,1.3 -1.6,1.9 -2.5,1.9 -0.5,0 -1.2,-0.2 -2,-0.7 l -13.1,-7.7 -0.4,-0.3 c -0.3,-0.2 -0.5,-0.5 -0.8,-1 -0.3,-0.5 -0.4,-1 -0.4,-1.5 0,-0.5 0.2,-1.1 0.5,-1.6 0.3,-0.5 0.7,-0.9 1.1,-1.2 l 13.1,-7.6 c 0.9,-0.5 1.5,-0.7 2,-0.7 0.9,0 1.7,0.6 2.4,1.9 0.6,0.9 0.8,1.5 0.8,2 z"
   id="path306"
   style="fill:#a68d57;stroke:#303e5c;stroke-width:1.79709995;stroke-linejoin:round;stroke-miterlimit:10" /><path
   stroke-miterlimit="10"
   d="m 142.52542,63.847458 c 0.8,-1.3 1.6,-1.9 2.4,-1.9 0.5,0 1.2,0.2 2,0.7 l 13.1,7.6 c 0.4,0.2 0.8,0.6 1.1,1.2 0.3,0.5 0.5,1.1 0.5,1.6 0,0.5 -0.1,1 -0.4,1.5 -0.3,0.5 -0.5,0.8 -0.8,1 l -0.4,0.3 -13.1,7.7 c -0.8,0.5 -1.5,0.7 -2,0.7 -0.9,0 -1.7,-0.6 -2.5,-1.9 -0.5,-0.9 -0.8,-1.7 -0.8,-2.2 0,-0.5 0.2,-1 0.5,-1.3 0.3,-0.3 0.8,-0.6 1.5,-1 l 9.3,-4.8 -9.3,-4.8 c -0.5,-0.3 -0.8,-0.5 -1,-0.6 -0.2,-0.1 -0.4,-0.3 -0.6,-0.6 -0.2,-0.3 -0.3,-0.7 -0.3,-1.2 0,-0.5 0.3,-1.1 0.8,-2 z"
   id="path308"
   style="fill:#a68d57;stroke:#303e5c;stroke-width:1.79709995;stroke-linejoin:round;stroke-miterlimit:10" />
<path
   d="m 597.60169,280.54238 c -3.7,0 -6.1,-0.5 -7.4,-1.5 -0.8,-0.6 -1.5,-1.4 -1.9,-2.3 -2.5,2.5 -6.2,3.8 -11,3.8 -5.7,0 -11,-2.6 -15.7,-7.7 -4.8,-5.1 -7.2,-11.1 -7.2,-17.8 0,-6.7 2.4,-12.7 7.2,-17.8 4.8,-5.1 10.2,-7.7 16,-7.7 2.2,0 4.3,0.4 6.2,1.2 1.9,0.8 3.2,1.6 3.9,2.3 0.2,0.2 0.3,0.3 0.5,0.5 0.9,-2.1 3,-4.1 7.9,-4.1 2.6,0 4.4,0.2 5.7,0.6 1.5,0.5 2.5,1.3 3.1,2.5 0.5,1 0.80003,2 0.90003,2.8 0.1,0.8 0.1,1.9 0.1,3.4 v 32.7 c 0,1.5 0,2.6 -0.1,3.4 -0.1,0.8 -0.40003,1.7 -0.90003,2.8 -1,1.9 -3.5,2.9 -7.3,2.9 z m -8.8,-7.1 c 0.1,0 0.2,0 0.3,0 0.4,0.1 0.7,0.5 0.8,0.9 0.2,1.3 0.7,2.3 1.6,3 0.7,0.5 2.3,1.1 6.2,1.1 3,0 4.8,-0.6 5.5,-1.9 0.4,-0.8 0.6,-1.5 0.7,-2.1 0.1,-0.7 0.1,-1.7 0.1,-3.1 v -32.7 c 0,-1.4 0,-2.4 -0.1,-3.1 -0.1,-0.6 -0.3,-1.3 -0.7,-2.1 -0.3,-0.7 -0.9,-1.1 -1.9,-1.4 -1.1,-0.3 -2.8,-0.5 -5.1,-0.5 -5.3,0 -6.2,2.5 -6.3,4.3 0,0.4 -0.4,0.8 -0.8,0.9 -0.4,0.1 -0.9,-0.1 -1.1,-0.4 -0.4,-0.6 -0.9,-1.2 -1.5,-1.8 -0.4,-0.4 -1.3,-1 -3.3,-1.9 -1.6,-0.7 -3.4,-1 -5.4,-1 -5.2,0 -10.1,2.4 -14.5,7 -4.4,4.7 -6.7,10.2 -6.7,16.4 0,6.2 2.2,11.7 6.6,16.4 4.4,4.7 9.2,7.1 14.2,7.1 5.1,0 8.6,-1.5 10.7,-4.5 0,-0.4 0.4,-0.6 0.7,-0.6 z m -8.8,-9.3 c -2.6,0 -4.8,-0.9 -6.6,-2.8 -1.8,-1.8 -2.7,-4 -2.7,-6.3 0,-2.3 0.9,-4.4 2.5,-6.4 1.7,-2 4,-3 6.8,-3 2.8,0 5,1 6.7,3 1.6,1.9 2.4,4.1 2.4,6.3 0,2.3 -0.9,4.4 -2.6,6.3 -1.7,1.9 -3.9,2.9 -6.5,2.9 z m 0,-16.3 c -2.2,0 -3.9,0.7 -5.2,2.3 -1.4,1.6 -2,3.2 -2,5 0,1.8 0.7,3.4 2.1,4.8 1.4,1.5 3.1,2.2 5.1,2.2 2,0 3.6,-0.7 5,-2.2 1.4,-1.5 2,-3.1 2,-4.9 0,-1.8 -0.6,-3.4 -2,-5 -1.2,-1.5 -2.9,-2.2 -5,-2.2 z"
   id="path202-0"
   style="fill:#303e5c" /><g
   transform="translate(-8.4745767,-49.152542)"
   id="g260">
			<path
   d="m 598.3,361.2 c -3.5,3.4 -7.7,5.1 -12.5,4.9 -4.8,-0.2 -9,-2.1 -12.5,-5.6 -4.4,-4.5 -6.3,-9.3 -5.7,-14.5 0.6,-5.2 3.2,-10 7.8,-14.5 6.6,-6.5 14,-10.1 22.1,-10.7 8.1,-0.6 15.4,2.3 21.8,8.9 1.3,1.3 2.1,2.4 2.3,3.4 0.3,0.9 0.2,1.8 -0.3,2.7 -0.5,0.9 -1.2,1.8 -2.2,2.8 -1,1 -1.9,1.7 -2.6,2.1 -0.8,0.4 -1.4,0.6 -2,0.7 -0.6,0.1 -1.1,-0.1 -1.7,-0.4 -0.8,-0.4 -1.9,-1.3 -3.3,-2.7 -1.4,-1.4 -3,-2.6 -4.8,-3.4 -1.8,-0.9 -3.4,-1.3 -4.9,-1.4 -2.9,-0.1 -5.1,0.2 -6.6,1 l -1,0.5 c 1.9,0.7 3.4,1.7 4.7,3 3.4,3.4 5.1,7.5 5.3,12.2 0.3,4.4 -1.1,8.2 -3.9,11 z m -16.7,-9.4 c 2.6,2.7 5.1,2.9 7.4,0.6 0.8,-0.8 1.2,-1.8 1.3,-3.1 0.1,-1.3 -0.5,-2.6 -1.8,-3.9 -1.3,-1.3 -2.6,-2 -4,-2.1 -1.3,-0.1 -2.3,0.2 -3,0.9 -0.7,0.6 -1.1,1.2 -1.4,1.6 -0.3,0.4 -0.5,1 -0.7,1.6 -0.2,1.2 0.5,2.7 2.2,4.4 z"
   id="path256"
   style="fill:#ef7880" />
			<path
   d="m 586.6,367 c -0.3,0 -0.5,0 -0.8,0 -5,-0.2 -9.5,-2.2 -13.1,-5.9 -4.6,-4.7 -6.6,-9.8 -5.9,-15.2 0.7,-5.3 3.4,-10.4 8.1,-15 6.7,-6.6 14.4,-10.3 22.7,-10.9 8.4,-0.6 16,2.5 22.5,9.1 1.4,1.4 2.3,2.7 2.6,3.8 0.3,1.2 0.2,2.3 -0.3,3.3 -0.5,0.9 -1.3,1.9 -2.3,3 -1.1,1.1 -2,1.8 -2.9,2.2 -0.9,0.5 -1.6,0.7 -2.3,0.8 -0.7,0.1 -1.5,-0.1 -2.2,-0.5 -0.9,-0.4 -2,-1.4 -3.5,-2.9 -1.3,-1.3 -2.8,-2.4 -4.5,-3.2 -1.7,-0.8 -3.2,-1.2 -4.5,-1.3 -2.2,-0.1 -4.1,0.1 -5.4,0.5 1.2,0.6 2.2,1.4 3.1,2.3 3.5,3.6 5.4,7.9 5.5,12.8 0.1,4.9 -1.3,8.9 -4.3,11.9 -3.6,3.4 -7.8,5.2 -12.5,5.2 z m 13,-45.4 c -0.7,0 -1.3,0 -2,0.1 -7.9,0.6 -15.1,4.1 -21.6,10.4 -4.4,4.3 -6.9,9 -7.6,13.9 -0.6,4.8 1.2,9.4 5.4,13.7 3.3,3.4 7.3,5.2 11.9,5.4 4.5,0.2 8.5,-1.4 11.8,-4.6 2.6,-2.6 3.9,-6.1 3.8,-10.5 -0.1,-4.4 -1.8,-8.3 -5,-11.6 -1.2,-1.2 -2.6,-2.1 -4.3,-2.8 -0.3,-0.1 -0.6,-0.4 -0.6,-0.8 0,-0.4 0.2,-0.7 0.5,-0.8 l 1,-0.5 c 1.6,-0.8 3.9,-1.2 7,-1.1 1.6,0.1 3.3,0.6 5.2,1.5 1.9,0.9 3.6,2.1 5,3.6 1.6,1.7 2.6,2.3 3,2.5 0.5,0.2 0.8,0.3 1.2,0.3 0.4,-0.1 1,-0.3 1.6,-0.6 0.7,-0.4 1.5,-1 2.4,-1.9 0.9,-0.9 1.6,-1.8 2,-2.5 0.3,-0.6 0.4,-1.3 0.2,-2 -0.2,-0.5 -0.6,-1.5 -2.1,-3 -5.3,-5.7 -11.8,-8.7 -18.8,-8.7 z m -13.9,33.3 v 0 c -1.6,0 -3.2,-0.8 -4.8,-2.4 -2,-2 -2.7,-3.7 -2.3,-5.4 0.2,-0.8 0.5,-1.4 0.8,-1.9 0.3,-0.5 0.8,-1.1 1.5,-1.8 0.8,-0.8 2.1,-1.2 3.7,-1.1 1.6,0.1 3.1,0.9 4.6,2.4 1.5,1.5 2.2,3.1 2.1,4.6 -0.1,1.5 -0.7,2.7 -1.6,3.7 -1.3,1.2 -2.6,1.9 -4,1.9 z m -1.6,-10.8 c -0.9,0 -1.5,0.2 -1.9,0.6 -0.6,0.6 -1,1.1 -1.2,1.4 -0.2,0.4 -0.4,0.8 -0.6,1.4 -0.3,1.2 0.8,2.6 1.9,3.6 1.2,1.3 2.4,1.9 3.5,1.9 v 0 c 0.9,0 1.8,-0.4 2.7,-1.3 0.6,-0.6 1,-1.5 1.1,-2.5 0.1,-1 -0.5,-2.1 -1.6,-3.2 -1.1,-1.2 -2.3,-1.8 -3.4,-1.9 -0.2,0 -0.3,0 -0.5,0 z"
   id="path258"
   style="fill:#303e5c" />
		</g><path
   style="fill:#f90ba4;fill-opacity:1"
   id="path5048"
   d="m 465.52542,246.34746 -6.1,-0.4 v 12.9 c 0,1.7 0.3,2.9 0.8,3.6 0.5,0.7 1.5,1.1 3,1.1 1.5,0 2.6,0 3.4,0.1 0.8,0.1 1.6,0.4 2.5,0.9 1.4,0.8 2.1,2.9 2.1,6.3 0,3.9 -0.9,6.3 -2.6,7.2 -0.9,0.4 -1.8,0.7 -2.5,0.8 -0.7,0.1 -1.8,0.1 -3.1,0.1 -6.5,0 -11.4,-1.5 -14.8,-4.4 -3.4,-2.9 -5,-7.9 -5,-14.8 v -13.8 c -1.2,0.2 -2.5,0.3 -3.8,0.3 -1.4,0 -2.5,-0.5 -3.4,-1.6 -0.9,-1.1 -1.4,-2.9 -1.4,-5.4 0,-2.6 0.2,-4.4 0.5,-5.6 0.3,-1.2 0.7,-2 1.3,-2.5 1,-0.8 2.2,-1.2 3.7,-1.2 l 3.1,0.4 v -9.6 c 0,-1.4 0,-2.5 0.1,-3.2 0.1,-0.7 0.4,-1.4 0.9,-2.2 0.8,-1.6 3.2,-2.3 7.2,-2.3 4.2,0 6.8,1.2 7.6,3.5 0.3,1 0.5,2.6 0.5,4.8 v 9.2 c 2.7,-0.2 4.8,-0.4 6.2,-0.4 1.4,0 2.5,0 3.2,0.1 0.7,0.1 1.5,0.4 2.5,0.9 1.6,0.8 2.4,3.2 2.4,7.2 0,3.9 -0.8,6.3 -2.5,7.2 -0.9,0.4 -1.8,0.7 -2.5,0.8 -0.8,0 -1.9,0 -3.3,0 z" /></svg>