<?xml version="1.0" encoding="utf-8"?>
<!-- Generator: Adobe Illustrator 18.1.1, SVG Export Plug-In . SVG Version: 6.00 Build 0)  -->
<svg version="1.1"
	 id="svg815" sodipodi:docname="metropanama_working2.svg" inkscape:version="0.92.3 (2405546, 2018-03-11)" xmlns:sodipodi="http://sodipodi.sourceforge.net/DTD/sodipodi-0.dtd" xmlns:svg="http://www.w3.org/2000/svg" xmlns:cc="http://creativecommons.org/ns#" xmlns:rdf="http://www.w3.org/1999/02/22-rdf-syntax-ns#" xmlns:inkscape="http://www.inkscape.org/namespaces/inkscape" xmlns:dc="http://purl.org/dc/elements/1.1/"
	 xmlns="http://www.w3.org/2000/svg" xmlns:xlink="http://www.w3.org/1999/xlink" x="0px" y="0px" viewBox="-326.4 -34.5 1720 560"
	 enable-background="new -326.4 -34.5 1720 560" xml:space="preserve">
<linearGradient id="SVGID_1_" gradientUnits="userSpaceOnUse" x1="-326.3525" y1="129.5093" x2="1394.1377" y2="129.5093">
	<stop  offset="0.3842" style="stop-color:#15ADFF"/>
	<stop  offset="0.7783" style="stop-color:#AAEFFF"/>
</linearGradient>
<rect x="-326.4" y="-31.2" fill="url(#SVGID_1_)" width="1720.5" height="321.4"/>
<linearGradient id="SVGID_2_" gradientUnits="userSpaceOnUse" x1="533.8926" y1="282.1169" x2="533.8926" y2="513.8492">
	<stop  offset="0.3842" style="stop-color:#AAFFAA"/>
	<stop  offset="0.7783" style="stop-color:#AAEFFF"/>
</linearGradient>
<rect x="-326.4" y="282.1" fill="url(#SVGID_2_)" width="1720.5" height="231.7"/>
<g>
	<path fill="#68AABC" d="M310,210.9c-15-9.3-50-30.2-87.6-48.9c-32.4,12.3-61.4,23.8-82.8,32.4"/>
	<path fill="#83DB77" d="M890.1,235.8c-30.1-10.7-69-63.4-77.9-76.8c-1.2-0.3-1.9-0.6-1.9-0.6c-21.8-1.4-53.1-1.3-72.7-4.8
		c-9,3.1-18.2,6.5-27.5,10.2c20,11.9,35.5,54.5,51.1,64.4"/>
	<g>
		<path fill="#3F9E4D" d="M624.7,201.2c23.8-11.4,54.7-25.5,85.4-37.5c-41-24.2-88.5-49.9-131.3-66.7c-15.9,1.8-33.2,3.1-48.3,2.7
			c-17.4-0.4-30.5-2.5-32.3-3.4c-1,0.2-2.2,0.4-3.6,0.6C498.2,123.4,522,165.7,624.7,201.2"/>
		<path fill="#C3DADD" d="M494.5,97c1.4-0.2,2.7-0.4,3.6-0.6c-0.6-0.3,0.2-0.5,2.8-0.5c0,0-1,0.2-2.8,0.5c1.6,0.9,14.9,3,32.4,3.4
			c15.1,0.4,32.4-1,48.3-2.7c-27.9-10.9-53.8-18.1-74.6-18.7c-2.8-0.1-5.8,0-9.2,0.3C494.2,83.1,493.4,89.4,494.5,97z"/>
		<path fill="#83DB77" d="M641,207.3c-70.9-37-142.8-83.9-146.5-110.3c-8.1,1.3-22.6,3.4-34.7,4.8c-31,2.9-48.7,1.9-61.8-1.1
			c-55.5,16.8-120.7,40.4-175.9,61.4c37.8,18.7,72.6,39.6,87.6,48.9"/>
		<path fill="#E5F5F9" d="M459.8,101.8c12-1.4,26.6-3.6,34.7-4.8c-1.1-7.6-0.5-13.8,0.5-18.3c-22.7,1.6-57.3,10.1-96.9,22
			C411.2,103.7,428.9,104.7,459.8,101.8z"/>
		<path fill="#83DB77" d="M158.7,275.1c0-29.7-51-111.2-52.1-124.7c-29.8-0.8-60.5-2.3-83.2-3.2c-48,14.5-156.6,124.4-189.2,136.3"
			/>
		<path fill="#E5F5F9" d="M111.1,126.8c-19.7,1.4-52.3,9.8-87.6,20.4c22.7,0.9,53.4,2.4,83.2,3.2
			C105.8,140.7,108.5,132.3,111.1,126.8z"/>
		<path fill="#C3DADD" d="M106.7,150.5c35.5,1,69.8,1.1,87.8-1.5c-28.5-12.5-56.3-21.9-76.3-22.4c-2.1-0.1-4.4,0-6.9,0.2
			C108.5,132.3,105.8,140.7,106.7,150.5z"/>
		<path fill="#3F9E4D" d="M139.5,194.5c21.4-8.6,50.5-20.1,82.8-32.4c-9.2-4.6-18.6-9-27.9-13.1c-18,2.6-52.3,2.4-87.8,1.5
			C107.7,163.9,115.5,179.9,139.5,194.5"/>
		<path fill="#E5F5F9" d="M812.3,159c-5.5-8.4-8.1-15.9-9.3-20.9c-17.2,0.8-40.4,6.9-65.3,15.5c19.7,3.5,51,3.4,72.7,4.8
			C810.3,158.4,811.1,158.6,812.3,159z"/>
		<path fill="#83DB77" d="M773.1,223.7c-15.5-9.9-42.9-48.1-63.1-60c-30.6,12-73.9,33.3-97.7,44.7"/>
		<path fill="#3F9E4D" d="M1080.8,252.9c-27.1-13.4-147.5-72.1-181.4-86.4c-39.1,4.9-78.1-5-87.1-7.6c8.8,13.4,47.7,84.2,114.3,84.5
			"/>
		<path fill="#C3DADD" d="M899.3,166.6c-37.1-15.7-72-28-90.8-28.6c-1.8,0-3.6,0-5.5,0.1c1.2,5,3.8,12.5,9.3,20.9
			C821.3,161.5,860.3,171.5,899.3,166.6z"/>
	</g>
</g>
<sodipodi:namedview  id="namedview817" inkscape:current-layer="g823" inkscape:window-y="-8" inkscape:window-x="-8" inkscape:window-height="716" inkscape:window-width="1366" inkscape:pageshadow="2" inkscape:pageopacity="0" pagecolor="#ffffff" guidetolerance="10" inkscape:cy="533.33337" gridtolerance="10" inkscape:cx="533.33337" inkscape:zoom="0.51281246" showgrid="false" objecttolerance="10" borderopacity="1" bordercolor="#666666" inkscape:window-maximized="1">
	</sodipodi:namedview>
<g id="g827">
	<g>
		<g>
			<defs>
				<path id="SVGID_3_" d="M-41.3,305.9l0.6-4.7L-41.3,305.9z"/>
			</defs>
			<clipPath id="SVGID_4_">
				<use xlink:href="#SVGID_3_"  overflow="visible"/>
			</clipPath>
			<g id="g829" clip-path="url(#SVGID_4_)">
				<g id="g835">
					<g id="g837">
					</g>
					<defs>
						<filter id="Adobe_OpacityMaskFilter" filterUnits="userSpaceOnUse" x="-41.3" y="301.2" width="0.6" height="4.7">
							<feColorMatrix  type="matrix" values="1 0 0 0 0  0 1 0 0 0  0 0 1 0 0  0 0 0 1 0"/>
						</filter>
					</defs>
					<mask maskUnits="userSpaceOnUse" x="-41.3" y="301.2" width="0.6" height="4.7" id="mask851">
						<g id="g861" filter="url(#Adobe_OpacityMaskFilter)">
							<g id="g859">
								<g id="g857">
									<g id="g855">
										
											<linearGradient id="path853_1_" gradientUnits="userSpaceOnUse" x1="-230465.2344" y1="-797.3182" x2="376741.9688" y2="-797.3182" gradientTransform="matrix(0.226 0 0 0.226 345.2004 95.7081)">
											<stop  offset="0" style="stop-color:#FFFFFF"/>
											<stop  offset="0.415" style="stop-color:#FFFFFF;stop-opacity:0"/>
											<stop  offset="1" style="stop-color:#FFFFFF;stop-opacity:0"/>
										</linearGradient>
										<path id="path853" inkscape:connector-curvature="0" fill="url(#path853_1_)" d="M-51733.9,20787.8H51175.9v-41744.5
											H-51733.9V20787.8z"/>
									</g>
								</g>
							</g>
						</g>
					</mask>
					<g id="g863" mask="url(#mask851)">
						<g id="g865">
							
								<linearGradient id="path875_1_" gradientUnits="userSpaceOnUse" x1="-1269.3728" y1="839.4767" x2="-1266.6357" y2="839.4767" gradientTransform="matrix(0.3013 0 0 -0.3013 341.1882 556.5377)">
								<stop  offset="0" style="stop-color:#231F20"/>
								<stop  offset="0.415" style="stop-color:#231F20"/>
								<stop  offset="1" style="stop-color:#231F20"/>
							</linearGradient>
							<path id="path875" inkscape:connector-curvature="0" fill="url(#path875_1_)" d="M-41.3,305.9l0.6-4.7L-41.3,305.9z"/>
						</g>
					</g>
				</g>
			</g>
		</g>
	</g>
</g>
<g>
	<defs>
		<rect id="SVGID_5_" x="-557.4" y="-197.4" width="2233.4" height="906"/>
	</defs>
	<clipPath id="SVGID_6_">
		<use xlink:href="#SVGID_5_"  overflow="visible"/>
	</clipPath>
	<g id="g879" clip-path="url(#SVGID_6_)">
		<g id="g885" transform="translate(787.665,362.8105)">
			<path id="path887_1_" inkscape:connector-curvature="0" fill="#2A56F4" d="M429.8-90l-989-125.5c0,0-139.3-2-224.4,35.1
				c0,0-80,34.7-103.4,70.9c0,0-35.9,34.8,48.3,30.1c283.8-11.8,988.5,16.7,1272.3,4.9"/>
		</g>
	</g>
</g>
<g id="g893">
	<g id="g895">
		<g id="g901">
			<g id="g903">
				
					<linearGradient id="path911_1_" gradientUnits="userSpaceOnUse" x1="342.7562" y1="584.8454" x2="345.4932" y2="584.8454" gradientTransform="matrix(-133.9808 0 0 133.9808 46169.5977 -78166.3359)">
					<stop  offset="0" style="stop-color:#FFFFFF"/>
					<stop  offset="1" style="stop-color:#231F20"/>
				</linearGradient>
				<path id="path911" inkscape:connector-curvature="0" fill="url(#path911_1_)" d="M-28.1,215c67.6,5.6,175.9-5.3,175.9-5.3l0,0
					c34.8-19.6,99-38,99-38l0,0c-25.3-3.5-49.2-5-71.4-5l0,0C48.6,166.8-28.1,215-28.1,215"/>
			</g>
		</g>
	</g>
</g>
<g id="g913">
	<g>
		<g>
			<defs>
				<rect id="SVGID_7_" x="-557.4" y="-197.4" width="2233.4" height="906"/>
			</defs>
			<clipPath id="SVGID_8_">
				<use xlink:href="#SVGID_7_"  overflow="visible"/>
			</clipPath>
			<g id="g915" clip-path="url(#SVGID_8_)">
				<g id="g921" transform="translate(81.6538,365.8425)">
					<path id="path923" inkscape:connector-curvature="0" fill="#DAE4EF" d="M-188.3-83c0,0,23.2,8.8,111.2,5c0,0,109.1-0.2,265.5,0
						c0,0,59.5-0.8,150.7-1.3c163.3,1.9,814.3,1.1,814.3,1.1l-892.8-39.2c0,0-86.3-2.6-198.3,9.9c0,0-52.8,13.6-144.3,17.7
						c0,0-83.9,0.4-106.7-1.1"/>
				</g>
				<g id="g925" transform="translate(240.0464,462.5728)">
					<path id="path927" inkscape:connector-curvature="0" fill="#EAEAEA" d="M-15.5-260.2c0,0,72.7-35,188.2-23.5l800.2,93.3
						l-800.6-89.9C172.3-280.3,80.2-293.2-15.5-260.2"/>
				</g>
			</g>
		</g>
	</g>
</g>
<g id="g929">
	<g id="g931">
		<g id="g937">
			<g id="g939">
				
					<linearGradient id="path947_1_" gradientUnits="userSpaceOnUse" x1="346.3748" y1="588.0411" x2="349.1118" y2="588.0411" gradientTransform="matrix(31.619 0 0 -31.619 -9936.2832 18858.0742)">
					<stop  offset="0" style="stop-color:#FFFFFF"/>
					<stop  offset="1" style="stop-color:#231F20"/>
				</linearGradient>
				<path id="path947" inkscape:connector-curvature="0" fill="url(#path947_1_)" d="M1015.9,269.5l64.9,3.3v-10.4l-64.9-5.6V269.5z
					"/>
			</g>
		</g>
	</g>
</g>
<g id="g949">
	<g id="g951">
		<g id="g957">
			<g id="g959">
				
					<linearGradient id="path967_1_" gradientUnits="userSpaceOnUse" x1="341.5363" y1="586.6558" x2="344.2733" y2="586.6558" gradientTransform="matrix(70.3778 0 0 -70.3778 -23198.6758 41542.0352)">
					<stop  offset="0" style="stop-color:#FFFFFF"/>
					<stop  offset="1" style="stop-color:#231F20"/>
				</linearGradient>
				<path id="path967" inkscape:connector-curvature="0" fill="url(#path967_1_)" d="M837.9,260.3l144.5,7.4v-13.9l-144.5-12.5
					V260.3z"/>
			</g>
		</g>
	</g>
</g>
<g id="g969">
	<g id="g971">
		<g id="g977">
			<g id="g979">
				
					<linearGradient id="path987_1_" gradientUnits="userSpaceOnUse" x1="339.4358" y1="586.1539" x2="342.1728" y2="586.1539" gradientTransform="matrix(127.496 0 0 -127.496 -42767.5313 74967.0469)">
					<stop  offset="0" style="stop-color:#FFFFFF"/>
					<stop  offset="1" style="stop-color:#231F20"/>
				</linearGradient>
				<path id="path987" inkscape:connector-curvature="0" fill="url(#path987_1_)" d="M509.2,243.4l261.7,13.4v-21.4l-261.7-22.8
					V243.4z"/>
			</g>
		</g>
	</g>
</g>
<g id="g989">
	<g>
		<g>
			<defs>
				<rect id="SVGID_9_" x="-557.4" y="-197.4" width="2233.4" height="906"/>
			</defs>
			<clipPath id="SVGID_10_">
				<use xlink:href="#SVGID_9_"  overflow="visible"/>
			</clipPath>
			<g id="g991" clip-path="url(#SVGID_10_)">
				<g id="g997" transform="translate(701,380.916)">
					<path id="path999" inkscape:connector-curvature="0" fill="#706E6E" d="M488.6-109.2l-20.9-1.9v7.3l20.9,1.1V-109.2z"/>
				</g>
			</g>
		</g>
	</g>
</g>
<g id="g1001">
	<g id="g1003">
		<g id="g1009">
			<g id="g1011">
				
					<linearGradient id="path1019_1_" gradientUnits="userSpaceOnUse" x1="352.3432" y1="589.4144" x2="355.0802" y2="589.4144" gradientTransform="matrix(20.3994 0 0 -20.3994 -6083.8623 12293.8975)">
					<stop  offset="0" style="stop-color:#FFFFFF"/>
					<stop  offset="1" style="stop-color:#231F20"/>
				</linearGradient>
				<path id="path1019" inkscape:connector-curvature="0" fill="url(#path1019_1_)" d="M1103.8,273.9l41.9,2.2V268l-41.9-3.7V273.9z
					"/>
			</g>
		</g>
	</g>
</g>
<g id="g1021">
	<g id="g1023">
		<g id="g1029">
			<g id="g1031">
				
					<linearGradient id="path1039_1_" gradientUnits="userSpaceOnUse" x1="336.8809" y1="586.5468" x2="339.6179" y2="586.5468" gradientTransform="matrix(81.0143 0 0 -81.0143 -27031.0781 47738.9141)">
					<stop  offset="0" style="stop-color:#FFFFFF"/>
					<stop  offset="1" style="stop-color:#231F20"/>
				</linearGradient>
				<path id="path1039" inkscape:connector-curvature="0" fill="url(#path1039_1_)" d="M261.1,230.8l166.2,8.6v-33.7l-40.4-3.6
					c0,0-6.3-0.8-17-0.8l0,0C346.9,201.2,303.6,205.2,261.1,230.8"/>
			</g>
		</g>
	</g>
</g>
<g id="g1041">
	<g>
		<g>
			<defs>
				<rect id="SVGID_11_" x="-557.4" y="-197.4" width="2233.4" height="906"/>
			</defs>
			<clipPath id="SVGID_12_">
				<use xlink:href="#SVGID_11_"  overflow="visible"/>
			</clipPath>
			<g id="g1043" clip-path="url(#SVGID_12_)">
				<g id="g1053" transform="translate(185.3684,392.6433)">
					<path id="path1055" inkscape:connector-curvature="0" fill="#F40B0B" d="M-75.3-130.8c0,0,78.9-21.1,194.9-17.4l911,37.4
						l-706.8-28C323.7-138.7,18.7-148.2-75.3-130.8"/>
				</g>
				<g id="g1057" transform="translate(170,412.8558)">
					<path id="path1059" inkscape:connector-curvature="0" fill="#F7F7F7" d="M-92.1-168.2c0,5.2-12.1,9.3-27.2,9.3
						s-27.2-4.2-27.2-9.3s12.1-9.3,27.2-9.3C-104.5-177.6-92.1-173.3-92.1-168.2"/>
				</g>
				<g id="g1061" transform="translate(115,409.8558)">
					<path id="path1063" inkscape:connector-curvature="0" fill="#F7F7F7" d="M-152.3-162.7c0,5.2-12.1,9.3-27.2,9.3
						s-27.6-5.9-20.9-11.9c0,0,5.9-6.8,20.9-6.8S-152.3-167.8-152.3-162.7"/>
				</g>
				<g id="g1065" transform="translate(185.3684,380.6433)">
					<path id="path1067" inkscape:connector-curvature="0" fill="#F9F7F7" d="M-75.3-108.6c0,0,78.9-21.1,194.9-17.4l913.5,29.3
						l-709.4-19.9C323.7-116.5,18.7-126-75.3-108.6"/>
				</g>
				<g id="g1069" transform="translate(106.96,409.5454)">
					<path id="path1071" inkscape:connector-curvature="0" fill="#070000" d="M-161.1-162.1c0,3.6-7.5,6.5-17,6.5s-17-2.9-17-6.5
						s7.5-6.5,17-6.5S-161.1-165.7-161.1-162.1"/>
				</g>
				<g id="g1073" transform="translate(106.96,409.5454)">
					<path id="path1075" inkscape:connector-curvature="0" fill="none" stroke="#231F20" stroke-miterlimit="10" d="M-161.1-162.1
						c0,3.6-7.5,6.5-17,6.5s-17-2.9-17-6.5s7.5-6.5,17-6.5S-161.1-165.7-161.1-162.1z"/>
				</g>
				<g id="g1077" transform="translate(159.96,412.5454)">
					<path id="path1079" inkscape:connector-curvature="0" fill="#020000" d="M-103.1-167.6c0,3.6-7.5,6.5-17,6.5s-17-2.9-17-6.5
						c0-3.6,7.5-6.5,17-6.5S-103.1-171.2-103.1-167.6"/>
				</g>
				<g id="g1081" transform="translate(159.96,412.5454)">
					<path id="path1083" inkscape:connector-curvature="0" fill="none" stroke="#231F20" stroke-miterlimit="10" d="M-103.1-167.6
						c0,3.6-7.5,6.5-17,6.5s-17-2.9-17-6.5c0-3.6,7.5-6.5,17-6.5S-103.1-171.2-103.1-167.6z"/>
				</g>
			</g>
		</g>
	</g>
</g>
<text transform="matrix(2.0117 -0.466 0.8153 0.5791 106.5052 241.2869)" fill="#F9F7F7" font-family="'ArialMT'" font-size="15.9647">METRO</text>
<text transform="matrix(4.3272 0.4197 -0.5079 0.8614 506.1736 204.9427)" fill="#FCFCFC" font-family="'ArialMT'" font-size="8.1705">PANAMA</text>
<linearGradient id="SVGID_13_" gradientUnits="userSpaceOnUse" x1="34.3234" y1="403.1749" x2="211.7676" y2="403.1749">
	<stop  offset="0.3842" style="stop-color:#D4D7FF"/>
	<stop  offset="0.7783" style="stop-color:#897A3D"/>
</linearGradient>
<rect x="34.3" y="300.4" fill="url(#SVGID_13_)" width="177.4" height="205.6"/>
<linearGradient id="SVGID_14_" gradientUnits="userSpaceOnUse" x1="615.3353" y1="366.2301" x2="737.3478" y2="366.2301">
	<stop  offset="0.3842" style="stop-color:#D4D7FF"/>
	<stop  offset="0.7783" style="stop-color:#897A3D"/>
</linearGradient>
<rect x="615.3" y="298" fill="url(#SVGID_14_)" width="122" height="136.5"/>
<linearGradient id="SVGID_15_" gradientUnits="userSpaceOnUse" x1="1108.4102" y1="328.2024" x2="1179.0737" y2="328.2024">
	<stop  offset="0.3842" style="stop-color:#D4D7FF"/>
	<stop  offset="0.7783" style="stop-color:#897A3D"/>
</linearGradient>
<rect x="1108.4" y="290.2" fill="url(#SVGID_15_)" width="70.7" height="76"/>
<polygon fill="#AAA5A5" points="-326.4,282.1 -91.9,285.3 1358.1,288.5 -0.8,315.1 -69.5,317 -326.4,318.6 "/>
<path fill="#F9F7F7" d="M21.5,268.3c0,3.8-23.6,6.9-52.7,6.9s-52.7-3.1-52.7-6.9"/>
<path fill="#FFFFFF" d="M-142.7,101.7c0,0,0-16.5,69.4-12.6c0,0,69.6-21.4,111.7,2.9c0,0,80.7-6.7,97.1,9.7H-142.7z"/>
<path fill="#FFFFFF" d="M1090.4,83.3c0,0,0-13.3,57.7-10c0,0,57.8-17.7,92.6,2.4c0,0,67-6,80.6,7.7H1090.4z"/>
<path opacity="0.4" fill="#FFEF78" enable-background="new    " d="M765.2,55.8c0,9.7-37.6,17.5-83.9,17.5
	c-46.4,0-83.9-7.9-83.9-17.5s37.6-17.5,83.9-17.5C727.6,38.3,765.2,46.1,765.2,55.8z"/>
<path fill="#FFFF73" d="M730,55.8c0,5.6-21.8,10.2-48.7,10.2l0,0c-26.9,0-48.7-4.6-48.7-10.2v0c0-5.6,21.8-10.2,48.7-10.2l0,0
	C708.1,45.7,730,50.2,730,55.8L730,55.8z"/>
<path fill="none" d="M1360,181.3c9.3-8.7,14.3-17.8,14.3-27c0-67.8-262.7-122.7-586.9-122.7S200.5,86.5,200.5,154.3
	c0,9.3,5,18.4,14.3,27"/>
<path fill="#63A0BA" d="M815.9,88.4c1.7-0.3,2.7-0.4,2.7-0.4C816.1,87.9,815.4,88.1,815.9,88.4z"/>
<path fill="#79D357" d="M1377.2,503.9c14.3-7.5-20.7-82.9-59.2-99.9c-12.5-61.9-951.4,96.8-1056.3,100"/>
<path fill="#99E25A" d="M719.4,469.8c84.9,22,190.4,30.7,296.3,21.1c120.8-11,216-43.5,266.5-85.3
	C1185.8,411.9,961.5,429.4,719.4,469.8z"/>
<line fill="#2A56F4" x1="809.5" y1="268.3" x2="853.6" y2="268.3"/>
</svg>
