<?xml version="1.0" encoding="UTF-8" standalone="no"?>
<!-- Generator: Adobe Illustrator 17.0.0, SVG Export Plug-In . SVG Version: 6.00 Build 0)  -->

<svg
   xmlns:dc="http://purl.org/dc/elements/1.1/"
   xmlns:cc="http://creativecommons.org/ns#"
   xmlns:rdf="http://www.w3.org/1999/02/22-rdf-syntax-ns#"
   xmlns:svg="http://www.w3.org/2000/svg"
   xmlns="http://www.w3.org/2000/svg"
   xmlns:sodipodi="http://sodipodi.sourceforge.net/DTD/sodipodi-0.dtd"
   xmlns:inkscape="http://www.inkscape.org/namespaces/inkscape"
   version="1.1"
   id="Layer_1"
   x="0px"
   y="0px"
   width="1750px"
   height="1200px"
   viewBox="0 0 1400 980"
   enable-background="new 0 0 1400 1200"
   xml:space="preserve"
   sodipodi:docname="tonka.svg"
   inkscape:version="0.92.3 (2405546, 2018-03-11)">
<g id="master-artboard" viewBox="0 0 1400 1200" version="1.1" xmlns="http://www.w3.org/2000/svg" x="0px" y="0px" style="enable-background:new 0 0 1400 1200;">

<path d="M 0 0 H 1400 V 1200 H 0 V 0 Z" class="st0" style="fill: rgb(182, 236, 242);" transform="matrix(1, 0, 0, 1, -2.842170943040401e-14, 0)"></path><path d="M 1269.299988 979.200012 A 559.5 46.900002 0 0 1 709.799988 1026.100014 A 559.5 46.900002 0 0 1 150.299988 979.200012 A 559.5 46.900002 0 0 1 709.799988 932.300011 A 559.5 46.900002 0 0 1 1269.299988 979.200012 Z" class="st1" style="fill: rgb(132, 203, 206);" transform="matrix(1, 0, 0, 1, -5.684341886080802e-14, 0)"></path><path class="st2" d="M842.9,910.1h-28.4c-49.7,0-59.5-78-60.9-92H641.9c-1.4,14-11.2,92-60.9,92h-28.4
				c-13.3,0-24.1,10.8-24.1,24.1v0c0,13.3,10.8,24.1,24.1,24.1h290.3c13.3,0,24.1-10.8,24.1-24.1v0
				C867,920.9,856.2,910.1,842.9,910.1z" style="fill: rgb(96, 96, 93);" transform="matrix(1, 0, 0, 1, -8.526512829121202e-14, 0)"></path><path class="st3" d="M758.7,847.1c-3.3-13.1-4.6-24.4-5.1-28.9H641.9c-0.4,4.5-1.8,15.8-5.1,28.9H758.7z" style="fill: rgb(53, 53, 49);" transform="matrix(1, 0, 0, 1, -8.526512829121202e-14, 0)"></path><path class="st2" d="M947.7,386.5H447.9c-23.8,0-43,19.3-43,43v357.8c0,23.8,19.3,43,43,43h499.8c23.8,0,43-19.3,43-43V429.6
				C990.7,405.8,971.4,386.5,947.7,386.5z" style="fill: rgb(96, 96, 93);" transform="matrix(1, 0, 0, 1, -8.526512829121202e-14, 0)"></path><path class="st4" d="M961.9,435.1v266.9c0,13.3-10.8,24.1-24.1,24.1h-480c-13.3,0-24.1-10.8-24.1-24.1V435.1
				c0-13.3,10.8-24.1,24.1-24.1h480C951.1,411,961.9,421.8,961.9,435.1z" style="fill: rgb(85, 182, 242);" transform="matrix(1, 0, 0, 1, -8.526512829121202e-14, 0)"></path><path class="st5" d="M407,415.9c-1.4,4.3-2.2,8.9-2.2,13.7v96.1h28.8v-90.6c0-3.7,0.8-7.2,2.3-10.3
				C431.8,423.2,418.3,419.2,407,415.9z" style="fill: rgb(56, 56, 54);" transform="matrix(1, 0, 0, 1, -8.526512829121202e-14, 0)"></path><path d="M 723.799988 776.5 A 26 26 0 0 1 697.799988 802.5 A 26 26 0 0 1 671.799988 776.5 A 26 26 0 0 1 697.799988 750.5 A 26 26 0 0 1 723.799988 776.5 Z" class="st6" style="fill: rgb(255, 255, 255);" transform="matrix(1, 0, 0, 1, -8.526512829121202e-14, 0)"></path><path class="st7" d="M913.2,411v250.2c0,8.6-7,15.5-15.5,15.5H541.8c-8.6,0-15.5-7-15.5-15.5V411H913.2z" style="fill: rgb(47, 152, 204);" transform="matrix(1, 0, 0, 1, -8.526512829121202e-14, 0)"></path><path class="st6" d="M875.7,318.8H519.8c-8.6,0-15.5,7-15.5,15.5v307.8c0,8.6,7,15.5,15.5,15.5h355.8c8.6,0,15.5-7,15.5-15.5
					V334.4C891.2,325.8,884.2,318.8,875.7,318.8z M697.8,370.1c-12.1,0-22-9.8-22-22c0-12.1,9.8-22,22-22c12.1,0,22,9.8,22,22
					C719.7,360.2,709.9,370.1,697.8,370.1z" style="fill: rgb(255, 255, 255);" transform="matrix(1, 0, 0, 1, -8.526512829121202e-14, 0)"></path><path class="st6" d="M678.3,337.9c-5-4.4-8.4-11-9.4-19h-13.7c1.5,15.6,9.5,27.9,21.2,34.1c-0.4-1.6-0.6-3.2-0.6-4.9
					C675.8,344.4,676.7,340.9,678.3,337.9z" style="fill: rgb(255, 255, 255);" transform="matrix(1, 0, 0, 1, -8.526512829121202e-14, 0)"></path><path class="st8" d="M541.5,633.3v-17.9c0-3.8,3.1-6.9,6.9-6.9h18.2c3.8,0,6.9,3.1,6.9,6.9v17.9c0,3.8-3.1,6.9-6.9,6.9h-18.2
						C544.6,640.2,541.5,637.1,541.5,633.3z" style="fill: rgb(234, 234, 234);" transform="matrix(1, 0, 0, 1, -8.526512829121202e-14, 0)"></path><path class="st9" d="M532.5,576v-32.9c0-7,5.7-12.8,12.8-12.8h305c7,0,12.8,5.7,12.8,12.8V576c0,7-5.7,12.8-12.8,12.8h-305
						C538.2,588.8,532.5,583.1,532.5,576z" style="fill: rgb(244, 135, 135);" transform="matrix(1, 0, 0, 1, -8.526512829121202e-14, 0)"></path><text transform="matrix(1, 0, 0, 1, 659.9229125976561, 571.279296875)" class="st6 st10 st11" style="white-space: pre;  fill: rgb(255, 255, 255);  font-family: &quot;OpenSans-SemiboldItalic&quot;;  font-size: 29.7633px; ;  font-weight: OpenSans-SemiboldItalic">Login</text><path class="st8" d="M532.5,425.1v-32.9c0-7,5.7-12.8,12.8-12.8h305c7,0,12.8,5.7,12.8,12.8v32.9c0,7-5.7,12.8-12.8,12.8h-305
							C538.2,437.9,532.5,432.2,532.5,425.1z" style="fill: rgb(234, 234, 234);" transform="matrix(1, 0, 0, 1, -8.526512829121202e-14, 0)"></path><path class="st9" d="M606.8,379.4h-61.6c-7,0-12.8,5.7-12.8,12.8v32.9c0,7,5.7,12.8,12.8,12.8h61.6V379.4z" style="fill: rgb(244, 135, 135);" transform="matrix(1, 0, 0, 1, -8.526512829121202e-14, 0)"></path><text transform="matrix(1, 0, 0, 1, 620.5043945312499, 419.7934875488281)" class="st12 st10 st11" style="white-space: pre;  font-family: &quot;OpenSans-SemiboldItalic&quot;;  font-size: 29.7633px;  fill: rgb(91, 90, 90); ;  font-weight: OpenSans-SemiboldItalic">Username</text><path class="st6" d="M573.6,406.4c2.1-1.3,3.5-3.7,3.5-6.4c0-4.1-3.4-7.5-7.5-7.5s-7.5,3.4-7.5,7.5c0,2.7,1.4,5,3.5,6.4
							c-5,2.2-8.7,8.2-9.5,15.7h27C582.3,414.7,578.6,408.6,573.6,406.4z" style="fill: rgb(255, 255, 255);" transform="matrix(1, 0, 0, 1, -8.526512829121202e-14, 0)"></path><text transform="matrix(1, 0, 0, 1, 583.5698242187499, 628.9766235351562)" class="st12 st10 st13" style="white-space: pre;  font-family: &quot;OpenSans-SemiboldItalic&quot;;  fill: rgb(91, 90, 90);  font-size: 14.0014px; ;  font-weight: OpenSans-SemiboldItalic">Remember me</text><g transform="matrix(1, 0, 0, 1, -8.526512829121202e-14, 0)">
							<path class="st8" d="M532.5,501.7v-32.9c0-7,5.7-12.8,12.8-12.8h305c7,0,12.8,5.7,12.8,12.8v32.9c0,7-5.7,12.8-12.8,12.8
								h-305C538.2,514.5,532.5,508.7,532.5,501.7z" style="fill: rgb(234, 234, 234);"></path>
							<path class="st9" d="M606.8,456h-61.6c-7,0-12.8,5.7-12.8,12.8v32.9c0,7,5.7,12.8,12.8,12.8h61.6V456z" style="fill: rgb(244, 135, 135);"></path>
						</g><g transform="matrix(1, 0, 0, 1, -8.526512829121202e-14, 0)">
								<path d="M 636.700025 486.899994 A 6.8 6.8 0 0 1 629.900024 493.699994 A 6.8 6.8 0 0 1 623.100024 486.899994 A 6.8 6.8 0 0 1 629.900024 480.099994 A 6.8 6.8 0 0 1 636.700025 486.899994 Z" class="st12" style="fill: rgb(91, 90, 90);"></path>
								<path d="M 661.899976 486.899994 A 6.8 6.8 0 0 1 655.099976 493.699994 A 6.8 6.8 0 0 1 648.299975 486.899994 A 6.8 6.8 0 0 1 655.099976 480.099994 A 6.8 6.8 0 0 1 661.899976 486.899994 Z" class="st12" style="fill: rgb(91, 90, 90);"></path>
								<path d="M 687.200025 486.899994 A 6.8 6.8 0 0 1 680.400024 493.699994 A 6.8 6.8 0 0 1 673.600024 486.899994 A 6.8 6.8 0 0 1 680.400024 480.099994 A 6.8 6.8 0 0 1 687.200025 486.899994 Z" class="st12" style="fill: rgb(91, 90, 90);"></path>
								<path d="M 712.399976 486.899994 A 6.8 6.8 0 0 1 705.599976 493.699994 A 6.8 6.8 0 0 1 698.799975 486.899994 A 6.8 6.8 0 0 1 705.599976 480.099994 A 6.8 6.8 0 0 1 712.399976 486.899994 Z" class="st12" style="fill: rgb(91, 90, 90);"></path>
								<path d="M 737.700025 486.899994 A 6.8 6.8 0 0 1 730.900024 493.699994 A 6.8 6.8 0 0 1 724.100024 486.899994 A 6.8 6.8 0 0 1 730.900024 480.099994 A 6.8 6.8 0 0 1 737.700025 486.899994 Z" class="st12" style="fill: rgb(91, 90, 90);"></path>
								<path d="M 762.899976 486.899994 A 6.8 6.8 0 0 1 756.099976 493.699994 A 6.8 6.8 0 0 1 749.299975 486.899994 A 6.8 6.8 0 0 1 756.099976 480.099994 A 6.8 6.8 0 0 1 762.899976 486.899994 Z" class="st12" style="fill: rgb(91, 90, 90);"></path>
								<path d="M 788.200025 486.899994 A 6.8 6.8 0 0 1 781.400024 493.699994 A 6.8 6.8 0 0 1 774.600024 486.899994 A 6.8 6.8 0 0 1 781.400024 480.099994 A 6.8 6.8 0 0 1 788.200025 486.899994 Z" class="st12" style="fill: rgb(91, 90, 90);"></path>
							</g><path class="st6" d="M578.7,481.7h-17.8c-1.9,0-3.4,1.5-3.4,3.4v13c0,1.9,1.5,3.4,3.4,3.4h17.8c1.9,0,3.4-1.5,3.4-3.4v-13
									C582,483.2,580.5,481.7,578.7,481.7z M571.5,491.5v3.8c0,0.9-0.8,1.7-1.7,1.7s-1.7-0.8-1.7-1.7v-3.8
									c-0.9-0.6-1.5-1.6-1.5-2.7c0-1.8,1.5-3.2,3.2-3.2s3.2,1.5,3.2,3.2C573,489.9,572.4,490.9,571.5,491.5z" style="fill: rgb(255, 255, 255);" transform="matrix(1, 0, 0, 1, -8.526512829121202e-14, 0)"></path><path class="st6" d="M563.7,479.1v-1.8c0-3.3,2.7-6.1,6.1-6.1s6.1,2.7,6.1,6.1v1.8h3.4v-1.8c0-5.2-4.2-9.4-9.4-9.4l0,0
									c-5.2,0-9.4,4.2-9.4,9.4v1.8H563.7z" style="fill: rgb(255, 255, 255);" transform="matrix(1, 0, 0, 1, -8.526512829121202e-14, 0)"></path><g transform="matrix(1, 0, 0, 1, -8.526512829121202e-14, 0)">
						<path class="st2" d="M745.2,258.3L745.2,258.3c-1.4-7.5-7-13.6-14.3-15.5c-1.7-0.5-3.4-0.7-5.2-0.7c-1.5,0-3,0.2-4.5,0.5
							c-8.7,2.1-15.1,10-15.1,19.3c0.1,8.4,5.5,15.6,13,18.3l1,32.9c0,0.1,0,0.1,0,0.1c0,1.9-0.1,3.7-0.3,5.5h13.8
							c0.2-2.8,0.2-4.9,0.2-5.6l-1-33c4.5-1.7,8.1-4.9,10.4-9.1c0,0,0,0,0.1,0c0.1-0.1,0.1-0.3,0.2-0.4c0.1-0.2,0.2-0.4,0.3-0.5
							c0.3-0.6,0.6-1.3,0.8-2c0.1-0.3,0.2-0.5,0.2-0.8c0.2-0.7,0.4-1.4,0.5-2.1c0-0.2,0.1-0.4,0.1-0.6c0.1-1,0.2-1.9,0.2-2.9
							C745.6,260.5,745.5,259.4,745.2,258.3z M737.3,264.4c0,0.2-0.1,0.3-0.1,0.5c-0.2,0.7-0.4,1.4-0.8,2c-0.1,0.1-0.1,0.3-0.2,0.4
							c-0.8,1.6-2,2.9-3.4,3.9c-2,1.4-4.3,2.2-6.8,2.3c-2.6,0-4.9-0.8-6.8-2.2c-3-2.1-4.9-5.5-4.9-9.4c0-6.5,5.1-11.8,11.6-11.8
							c4.5,0,8.3,2.5,10.4,6.1c0.3,0.5,0.5,1.1,0.8,1.7c0.1,0.4,0.3,0.8,0.4,1.2c0.2,0.7,0.3,1.5,0.3,2.2c0,0.1,0,0.3,0,0.4
							C737.6,262.7,737.5,263.6,737.3,264.4z M714.3,333.6c-4.5,6.3-11.4,10.1-19.7,10.2c-6.4,0-11.9-2.1-16.3-5.9
							c-5-4.4-8.4-11-9.4-19c-0.2-1.7-0.3-3.4-0.4-5.2l-0.2-22l14.1-0.1c-13.2-6.5-25.5-35.6-28-42.1l0.5,64.3
							c0,1.7,0.1,3.5,0.3,5.1c1.5,15.6,9.5,27.9,21.2,34.1c5.4,2.9,11.6,4.5,18.3,4.5c11.3,0,19.3-3.2,25-7.8c0-0.5,0.1-1,0.1-1.5
							C719.7,342.5,717.7,337.5,714.3,333.6z" style="fill: rgb(96, 96, 93);"></path>
					</g><path d="M 721.200012 103 H 730.900012 V 246.600006 H 721.200012 V 103 Z" class="st2" style="fill: rgb(96, 96, 93);" transform="matrix(1, 0, 0, 1, -8.526512829121202e-14, 0)"></path><path d="M 927 374.600006 H 1165.100006 V 532.700012 H 927 V 374.600006 Z" class="st6" style="fill: rgb(255, 255, 255);" transform="matrix(1, 0, 0, 1, -8.526512829121202e-14, 0)"></path><path class="st14" d="M927,374.6l119.1,99.5l119.1-99.5C1165.1,374.6,925.2,374.6,927,374.6z" style="fill: rgb(212, 214, 214);" transform="matrix(1, 0, 0, 1, -8.526512829121202e-14, 0)"></path><path class="st15" d="M927,374.6l119.1-96.2l119.1,96.2C1165.1,374.6,925.2,374.6,927,374.6z" style="fill: rgb(237, 239, 239);" transform="matrix(1, 0, 0, 1, -8.526512829121202e-14, 0)"></path><path class="st15" d="M1165.1,532.7L1046,433.2l-119.1,99.5C926.9,532.7,1166.8,532.7,1165.1,532.7z" style="fill: rgb(237, 239, 239);" transform="matrix(1, 0, 0, 1, -8.526512829121202e-14, 0)"></path><path class="st2" d="M1129.1,331.1c4.3-10.3,6.7-21.6,6.7-33.5c0-48.1-39-87.1-87.1-87.1c-48.1,0-87.1,39-87.1,87.1
					c0,11.9,2.4,23.2,6.7,33.5c-8.2,15.2-17.6,39.6-3.5,46.4c10.2,5,20.8,5.2,29.6,3.8v38.3c0,3.8,3.1,6.9,6.9,6.9h1.9
					c3.8,0,6.9-3.1,6.9-6.9v-14.2c0-4.3,3.3-8.1,7.7-8.3c4.6-0.2,8.4,3.5,8.4,8v14.5c0,3.8,3.1,6.9,6.9,6.9h1.8
					c3.8,0,6.9-3.1,6.9-6.9v-14.5c0-4.4,3.6-8.1,8.1-8.1s8.1,3.6,8.1,8.1v14.5c0,3.8,3.1,6.9,6.9,6.9s6.9-3.1,6.9-6.9v-13.9
					c0-4.4,3.6-8.1,8.1-8.1l0,0c4.4,0,8.1,3.6,8.1,8.1v13.9c0,3.8,3.1,6.9,6.9,6.9h1.9c3.8,0,6.9-3.1,6.9-6.9v-38.3
					c8.7,1.4,19.3,1.2,29.6-3.8C1146.6,370.6,1137.2,346.2,1129.1,331.1z" style="fill: rgb(96, 96, 93);" transform="matrix(1, 0, 0, 1, -8.526512829121202e-14, 0)"></path><path class="st16" d="M1039.9,309c0-12.7-8.2-38.3-35.3-38.3c-14.9,0-27.1,18.7-27.1,31.3s12.1,22.9,27.1,22.9
						S1039.9,321.7,1039.9,309z" style="fill: rgb(254, 254, 254);" transform="matrix(1, 0, 0, 1, -8.526512829121202e-14, 0)"></path><path class="st16" d="M1057.3,309c0-12.7,8.2-38.3,35.3-38.3c14.9,0,27.1,18.7,27.1,31.3s-12.1,22.9-27.1,22.9
						S1057.3,321.7,1057.3,309z" style="fill: rgb(254, 254, 254);" transform="matrix(1, 0, 0, 1, -8.526512829121202e-14, 0)"></path><path class="st16" d="M1070.6,371.3c0-12.2-9.9-32.6-22-32.6s-22,20.5-22,32.6c0,12.2,9.9,0.3,22,0.3S1070.6,383.4,1070.6,371.3
					z" style="fill: rgb(254, 254, 254);" transform="matrix(1, 0, 0, 1, -8.526512829121202e-14, 0)"></path><path class="st9" d="M1170.6,906.7l-132.7-209.5c-9.5-15.1-31.5-15.1-41,0L864.2,906.7c-10.2,16.2,1.4,37.3,20.5,37.3H1150
				C1169.2,944,1180.8,922.9,1170.6,906.7z" style="fill: rgb(244, 135, 135);" transform="matrix(1, 0, 0, 1, -8.526512829121202e-14, 0)"></path><path class="st16" d="M1125.2,909.3H909.6c-4.5,0-7.3-5-4.9-8.9l107.8-170.2c2.3-3.6,7.5-3.6,9.7,0L1130,900.5
				C1132.5,904.3,1129.7,909.3,1125.2,909.3z" style="fill: rgb(254, 254, 254);" transform="matrix(1, 0, 0, 1, -8.526512829121202e-14, 0)"></path><path class="st9" d="M1030.6,853.2h-26.4l-4.1-75.6h34.5L1030.6,853.2z M1000.4,881.2c0-4.8,1.4-8.6,4.3-11.3
					c2.9-2.7,7.1-4,12.5-4c5.4,0,9.6,1.3,12.3,4c2.8,2.7,4.2,6.5,4.2,11.3c0,4.8-1.5,8.5-4.4,11.2c-2.9,2.7-7,4-12.2,4
					c-5.3,0-9.4-1.3-12.4-4C1001.9,889.8,1000.4,886,1000.4,881.2z" style="fill: rgb(244, 135, 135);" transform="matrix(1, 0, 0, 1, -8.526512829121202e-14, 0)"></path><path class="st16" d="M1305.6,580.9v118.9c0,10.8-8.8,19.6-19.6,19.6h-197.4c-10.8,0-19.6-8.8-19.6-19.6V580.9
				c0-10.8,8.8-19.6,19.6-19.6H1286C1296.8,561.3,1305.6,570.1,1305.6,580.9z" style="fill: rgb(254, 254, 254);" transform="matrix(1, 0, 0, 1, -8.526512829121202e-14, 0)"></path><path d="M 1069 597.700012 H 1305.600006 V 633.800011 H 1069 V 597.700012 Z" class="st4" style="fill: rgb(85, 182, 242);" transform="matrix(1, 0, 0, 1, -8.526512829121202e-14, 0)"></path><path class="st4" d="M1278.7,696.3h-41.1c-3.8,0-6.9-3.1-6.9-6.9v-19.2c0-3.8,3.1-6.9,6.9-6.9h41.1c3.8,0,6.9,3.1,6.9,6.9v19.2
				C1285.6,693.3,1282.5,696.3,1278.7,696.3z" style="fill: rgb(85, 182, 242);" transform="matrix(1, 0, 0, 1, -8.526512829121202e-14, 0)"></path><path d="M 1089.400024 648.900024 H 1174.600021 V 659.200025 H 1089.400024 V 648.900024 Z" class="st2" style="fill: rgb(96, 96, 93);" transform="matrix(1, 0, 0, 1, -8.526512829121202e-14, 0)"></path><path d="M 1089.400024 670.599976 H 1142.500023 V 680.899976 H 1089.400024 V 670.599976 Z" class="st2" style="fill: rgb(96, 96, 93);" transform="matrix(1, 0, 0, 1, -8.526512829121202e-14, 0)"></path><path d="M 1089.400024 690.900024 H 1118.300024 V 701.200025 H 1089.400024 V 690.900024 Z" class="st2" style="fill: rgb(96, 96, 93);" transform="matrix(1, 0, 0, 1, -8.526512829121202e-14, 0)"></path><path class="st2" d="M1316,557.7l-5.6,3.8l-25.8-4.4c-1-0.2-2,0.2-2.6,1l-5,6.6c-2.9-2.2-5.9-4.1-9.1-5.5l3.2-11.1
			c0.9-3.1-0.3-6.4-2.9-8.3l-11.3-8.1c-0.9-0.6-1.2-1.8-0.8-2.8l1.9-4.4c0.6-1.3,0-2.9-1.4-3.5c-1.3-0.6-2.9,0-3.5,1.4l-1.9,4.4
			c-1.4,3.3-0.4,7.2,2.6,9.2l11.3,8.1c0.8,0.6,1.1,1.5,0.9,2.5l-3,10.7c-4.1-1.2-8.4-1.8-12.5-1.7c-0.3-0.3-0.6-0.6-0.9-0.9
			c-8.7-8.7-22.8-8.7-31.5,0c-8.7,8.7-8.7,22.8,0,31.5c0.3,0.3,0.6,0.6,0.9,0.9c-0.1,4.1,0.4,8.3,1.7,12.5l-10.7,3
			c-0.9,0.3-1.9-0.1-2.5-0.9l-8.1-11.3c-2.1-2.9-6-4-9.2-2.6l-4.4,1.9c-1.3,0.6-2,2.2-1.4,3.5c0.6,1.3,2.2,2,3.5,1.4l4.4-1.9
			c1-0.4,2.1-0.1,2.8,0.8l8.1,11.3c1.9,2.6,5.2,3.8,8.3,2.9l11.1-3.2c1.4,3.2,3.2,6.2,5.5,9.1l-6.6,5c-0.8,0.6-1.2,1.6-1,2.6
			l4.4,25.8l-3.8,5.6c-0.8,1.2-0.5,2.9,0.7,3.7c1.1,0.7,2.5,0.6,3.4-0.4c0.1-0.1,0.2-0.2,0.3-0.3l4.4-6.5c0.4-0.6,0.5-1.3,0.4-1.9
			l-4.4-25.3l5.6-4.2c0.1,0.1,0.1,0.1,0.2,0.2c4.2,4.2,8.9,7.3,13.9,9.5l-4.5,6.7c-0.6,0.8-0.6,1.9-0.1,2.8l12.5,23l-1.8,6.5
			c-0.4,1.4,0.4,2.9,1.9,3.3c1,0.3,2-0.1,2.6-0.7c0.3-0.3,0.5-0.7,0.6-1.1l2.1-7.6c0.2-0.7,0.1-1.4-0.2-2l-12.3-22.5l4.4-6.5
			c12.2,3.4,25,0.9,33.8-7.9c8.7-8.7,11.3-21.6,7.9-33.8l6.5-4.4l22.5,12.3c0.6,0.3,1.3,0.4,2,0.2l7.6-2.1c0.4-0.1,0.8-0.3,1.1-0.6
			c0.7-0.7,1-1.7,0.7-2.6c-0.4-1.4-1.9-2.3-3.3-1.9l-6.5,1.8l-23-12.5c-0.9-0.5-1.9-0.4-2.8,0.1l-6.7,4.5c-2.1-5-5.3-9.8-9.5-13.9
			c-0.1-0.1-0.1-0.1-0.2-0.2l4.2-5.6l25.3,4.4c0.7,0.1,1.4,0,1.9-0.4l6.5-4.4c0.1-0.1,0.2-0.2,0.3-0.3c0.9-0.9,1.1-2.3,0.4-3.4
			C1318.9,557.2,1317.2,556.9,1316,557.7z" style="fill: rgb(96, 96, 93);" transform="matrix(1, 0, 0, 1, -5.684341886080802e-14, 0)"></path><path class="st2" d="M369.1,811.9h-116v-65c0-21.1,17.2-38.4,38.4-38.4h39.3c21.1,0,38.4,17.2,38.4,38.4V811.9z M267.3,797.6
				h87.6v-50.8c0-13.3-10.8-24.1-24.1-24.1h-39.3c-13.3,0-24.1,10.8-24.1,24.1V797.6z" style="fill: rgb(96, 96, 93);" transform="matrix(1, 0, 0, 1, -8.526512829121202e-14, 0)"></path><path class="st4" d="M367.6,770.8H254.5c-11.6,0-21,9.4-21,21v108.8c0,11.6,9.4,21,21,21h113.1c11.6,0,21-9.4,21-21V791.8
				C388.7,780.2,379.2,770.8,367.6,770.8z" style="fill: rgb(85, 182, 242);" transform="matrix(1, 0, 0, 1, -8.526512829121202e-14, 0)"></path><path class="st2" d="M334.1,829.9c0-12.7-10.3-23-23-23s-23,10.3-23,23c0,7.1,3.2,13.4,8.3,17.7l-5.1,38.2h39.6l-5.1-38.2
				C330.9,843.4,334.1,837,334.1,829.9z" style="fill: rgb(96, 96, 93);" transform="matrix(1, 0, 0, 1, -8.526512829121202e-14, 0)"></path><path class="st6" d="M462.7,798.1c-16.1,0-29.7,11-33.7,25.9H317c-4.4,0-7.9,3.5-7.9,7.9s3.5,7.9,7.9,7.9h1.5v24
			c0,4.1,3.3,7.3,7.3,7.3h0c4.1,0,7.3-3.3,7.3-7.3v-24h15.7v24c0,4.1,3.3,7.3,7.3,7.3c4.1,0,7.3-3.3,7.3-7.3v-24h65
			c3.2,16,17.3,28,34.2,28c19.3,0,34.9-15.6,34.9-34.9S481.9,798.1,462.7,798.1z M462.7,848.9c-6.4,0-11.9-3.7-14.4-9.1
			c-1-2.1-1.5-4.4-1.5-6.8c0-3.3,1-6.4,2.8-9c2.9-4.2,7.7-7,13.2-7c8.8,0,16,7.1,16,16C478.7,841.8,471.5,848.9,462.7,848.9z" style="fill: rgb(255, 255, 255);" transform="matrix(1, 0, 0, 1, -5.684341886080802e-14, 0)"></path><path class="st2" d="M443.2,450.7c-8.8-10.6-61.4-18.7-61.4-18.7c9.4-24,31.7-37,31.7-37l-49.3-29.3l-57.5,25.7l-57.5-25.7
				L200,395.1c0,0,22.3,12.9,31.7,37c0,0-52.6,8.1-61.4,18.7c-8.8,10.6-29.9,55.4-29.9,55.4H306h1.6h165.6
				C473.1,506.1,452,461.3,443.2,450.7z" style="fill: rgb(96, 96, 93);" transform="matrix(1, 0, 0, 1, -8.526512829121202e-14, 0)"></path><path class="st17" d="M340.3,355.4v34.1c-9.4,6-20.6,9.4-32.6,9.4h-1.5c-12,0-23.2-3.5-32.6-9.4v-34.1H340.3z" style="fill: rgb(255, 204, 183);" transform="matrix(1, 0, 0, 1, -8.526512829121202e-14, 0)"></path><path class="st5" d="M235.4,461.6V505h-14.8v-28.7C220.6,468.2,227.2,461.6,235.4,461.6z" style="fill: rgb(56, 56, 54);" transform="matrix(1, 0, 0, 1, -8.526512829121202e-14, 0)"></path><path class="st5" d="M393.1,476.4V505h-14.8v-43.5C386.5,461.6,393.1,468.2,393.1,476.4z" style="fill: rgb(56, 56, 54);" transform="matrix(1, 0, 0, 1, -8.526512829121202e-14, 0)"></path><path class="st18" d="M340.3,382.1h-66.8v47.4l0,0c19.2,13.8,45,14.4,64.8,1.3l2-1.3V382.1z" style="fill: rgb(244, 212, 157);" transform="matrix(1, 0, 0, 1, -8.526512829121202e-14, 0)"></path><path class="st19" d="M340.3,382.1v34.1c-9.4,6-20.6,9.4-32.6,9.4h-1.5c-12,0-23.2-3.5-32.6-9.4v-34.1H340.3z" style="fill: rgb(226, 183, 121);" transform="matrix(1, 0, 0, 1, -8.526512829121202e-14, 0)"></path><path class="st17" d="M368.7,305.6H245v51.7c0,33.7,27.3,61.1,61.1,61.1h1.5c33.7,0,61.1-27.3,61.1-61.1V305.6z" style="fill: rgb(255, 204, 183);" transform="matrix(1, 0, 0, 1, -8.526512829121202e-14, 0)"></path><path class="st18" d="M368.7,305.6H245v51.7c0,33.7,27.3,61.1,61.1,61.1h1.5c33.7,0,61.1-27.3,61.1-61.1V305.6z" style="fill: rgb(244, 212, 157);" transform="matrix(1, 0, 0, 1, -8.526512829121202e-14, 0)"></path><path class="st2" d="M388.2,312.4H225.5c-5.8,0-10.5,4.7-10.5,10.5l0,0c0,5.8,4.7,10.5,10.5,10.5h162.6
						c5.8,0,10.5-4.7,10.5-10.5l0,0C398.7,317.1,394,312.4,388.2,312.4z" style="fill: rgb(96, 96, 93);" transform="matrix(1, 0, 0, 1, -8.526512829121202e-14, 0)"></path><path class="st2" d="M344.4,222.2l-30.8,9.8c-3.2,1-6.7,1-9.9,0.1l-33.4-10.2c-9.8-3-20,3.5-21.4,13.7L237.2,323h140.4
						L366,235.8C364.6,225.6,354.3,219,344.4,222.2z" style="fill: rgb(96, 96, 93);" transform="matrix(1, 0, 0, 1, -8.526512829121202e-14, 0)"></path><path class="st2" d="M335.6,340.2c-12.6,3-21.5,7.4-29.1,11.4c-7.6-4-16.5-8.4-29.1-11.4c-17-4.1-32.9,13.1-32.9,13.1
					s16.8,46.3,62,21.9c45.2,24.4,62-21.9,62-21.9S352.7,336.1,335.6,340.2z M276.9,366c-7.4-2.1-11.4-10.4-11.4-10.4
					s7.9-4.8,15.2-2.7c7.4,2.1,11.4,10.4,11.4,10.4S284.2,368.1,276.9,366z M336.2,366c-7.4,2.1-15.2-2.7-15.2-2.7
					s4.1-8.3,11.4-10.4c7.4-2.1,15.2,2.7,15.2,2.7S343.6,363.9,336.2,366z" style="fill: rgb(96, 96, 93);" transform="matrix(1, 0, 0, 1, -8.526512829121202e-14, 0)"></path><path class="st6" d="M345.4,544.7H91.5c-13.5,0-24.5,11-24.5,24.5v79c0,13.5,11,24.5,24.5,24.5h253.9c13.5,0,24.5-11,24.5-24.5
			v-79C369.9,555.6,358.9,544.7,345.4,544.7z" style="fill: rgb(255, 255, 255);" transform="matrix(1, 0, 0, 1, -5.684341886080802e-14, 0)"></path><path class="st2" d="M144.9,605v38.7c0,27.3,13.6,52.8,36.3,67.9l36.4,20.8v0.1l0.1,0l0.1,0v-0.1l36.4-20.8
			c22.7-15.1,36.3-40.6,36.3-67.9V605l-71.1-37.6L144.9,605z" style="fill: rgb(96, 96, 93);" transform="matrix(1, 0, 0, 1, -5.684341886080802e-14, 0)"></path><path class="st9" d="M165.4,617.7v27.8c0,19.6,9.8,37.9,26.1,48.8l26.1,14.9v0l0,0l0,0v0l26.1-14.9c16.3-10.9,26.1-29.2,26.1-48.8
			v-27.8l-51.1-27L165.4,617.7z" style="fill: rgb(244, 135, 135);" transform="matrix(1, 0, 0, 1, -5.684341886080802e-14, 0)"></path><path class="st20" d="M260,612.4v24.1c0,21.3-10.6,41.2-28.4,53l-24.3,13.8l10.3,5.9v0l0,0l0,0v0l26.1-14.9
			c16.3-10.9,26.1-29.2,26.1-48.8v-27.8L260,612.4z" style="fill: rgb(219, 99, 99);" transform="matrix(1, 0, 0, 1, -5.684341886080802e-14, 0)"></path><path d="M 245.60000610351562 633.0999755859375 L 233.10000610351562 620.5999755859375 L 218.5 635.2000122070312 L 203.89999389648438 620.5999755859375 L 191.39999389648438 633.0999755859375 L 206 647.7000122070312 L 191.39999389648438 662.2000122070312 L 203.89999389648438 674.7000122070312 L 218.5 660.2000122070312 L 233.10000610351562 674.7000122070312 L 245.60000610351562 662.2000122070312 L 231 647.7000122070312 Z" class="st6" style="fill: rgb(255, 255, 255);" transform="matrix(1, 0, 0, 1, -5.684341886080802e-14, 0)"></path>
</g>
</svg>