<?xml version="1.0" encoding="UTF-8" standalone="no"?>
<!-- Generator: Adobe Illustrator 17.0.0, SVG Export Plug-In . SVG Version: 6.00 Build 0)  -->

<svg
   xmlns:dc="http://purl.org/dc/elements/1.1/"
   xmlns:cc="http://creativecommons.org/ns#"
   xmlns:rdf="http://www.w3.org/1999/02/22-rdf-syntax-ns#"
   xmlns:svg="http://www.w3.org/2000/svg"
   xmlns="http://www.w3.org/2000/svg"
   xmlns:sodipodi="http://sodipodi.sourceforge.net/DTD/sodipodi-0.dtd"
   xmlns:inkscape="http://www.inkscape.org/namespaces/inkscape"
   version="1.1"
   id="Layer_1"
   x="0px"
   y="0px"
   width="1750px"
   height="980px"
   viewBox="0 0 1750 980"
   enable-background="new 0 0 1750 980"
   xml:space="preserve"
   sodipodi:docname="tonka.svg"
   inkscape:version="0.92.3 (2405546, 2018-03-11)">
   <g id="master-artboard" viewBox="0 0 1400 980" version="1.1" xmlns="http://www.w3.org/2000/svg" x="0px" y="0px" style="enable-background:new 0 0 1400 980;">

<path d="M 465 461 A 164 22 0 0 1 301 483 A 164 22 0 0 1 137 461 A 164 22 0 0 1 301 439 A 164 22 0 0 1 465 461 Z" class="st0" style="fill: rgb(241, 242, 242);" transform="matrix(1, 0, 0, 1, 0, 7.105427357601002e-15)"></path><path d="M 825 457 A 126 22 0 0 1 699 479 A 126 22 0 0 1 573 457 A 126 22 0 0 1 699 435 A 126 22 0 0 1 825 457 Z" class="st0" style="fill: rgb(241, 242, 242);" transform="matrix(1, 0, 0, 1, 0, 7.105427357601002e-15)"></path><path d="M 1319 467 A 184 22 0 0 1 1135 489 A 184 22 0 0 1 951 467 A 184 22 0 0 1 1135 445 A 184 22 0 0 1 1319 467 Z" class="st0" style="fill: rgb(241, 242, 242);" transform="matrix(1, 0, 0, 1, 0, 7.105427357601002e-15)"></path><path d="M 1333.699951 868.900024 A 184 31.6 0 0 1 1149.699951 900.500025 A 184 31.6 0 0 1 965.699951 868.900024 A 184 31.6 0 0 1 1149.699951 837.300024 A 184 31.6 0 0 1 1333.699951 868.900024 Z" class="st0" style="fill: rgb(241, 242, 242);" transform="matrix(1, 0, 0, 1, 0, 7.105427357601002e-15)"></path><path d="M 871.599976 862.900024 A 184 31.6 0 0 1 687.599976 894.500025 A 184 31.6 0 0 1 503.599976 862.900024 A 184 31.6 0 0 1 687.599976 831.300024 A 184 31.6 0 0 1 871.599976 862.900024 Z" class="st0" style="fill: rgb(241, 242, 242);" transform="matrix(1, 0, 0, 1, 0, 7.105427357601002e-15)"></path><path d="M 454.600006 850.900024 A 184 31.6 0 0 1 270.600006 882.500025 A 184 31.6 0 0 1 86.600006 850.900024 A 184 31.6 0 0 1 270.600006 819.300024 A 184 31.6 0 0 1 454.600006 850.900024 Z" class="st0" style="fill: rgb(241, 242, 242);" transform="matrix(1, 0, 0, 1, 0, 7.105427357601002e-15)"></path><path d="M149.9,257.2c5.8,4.2-7.5,15.9-4.2,26.7c3.3,10.9,17.5,14.2,20.9,22.5c3.3,8.3-9.2,10.9-1.7,16.7
			c7.5,5.8,50.1,21.7,66.8,45.9c11.7,16.9,29.4,33.4,61,39.2v60.9h35.1c0,0-4.2-19.2-23.4-13.4v-46c8.3,0.8,17.5,0.9,27.6,0.1v59.2
			H367c0,0-4.2-19.2-23.4-13.4v-47c63.3-8.4,99.3-70.3,90.2-119.2c-9.2-49.3-64.3-120.2-64.3-120.2s13.4-4.2,18.4-10.9l-16.7-8.3
			l17.5-8.3c0,0-7.5-7.5-17.5-5c0,0-2.5-26.7-14.2-34.2c-11.7-7.5-15-5-18.4,1.7c-3.3,6.7-10.9-8.3-18.4-4.2
			c-7.5,4.2-4.2,14.2-4.2,19.2c0,5-15,0-14.2,7.5c0.8,7.5,8.3,10,8.3,20c0,10,6.7,73.5,0.8,88.5c0,0-47.6,26.7-57.6,30.1
			c-10,3.3-92.7-43.4-107.7-40.1C130.7,228.8,144.1,253,149.9,257.2z M347,139.4c3.2,0,5.8,2.6,5.8,5.8c0,3.2-2.6,5.8-5.8,5.8
			c-3.2,0-5.8-2.6-5.8-5.8C341.1,142,343.7,139.4,347,139.4z M342.8,318.1c20-40.9-4.2-71-4.2-71c14.2,3.3,48.4,66,4.2,92.7
			c-44.3,26.7-74.3-11.7-74.3-11.7S322.8,359,342.8,318.1z" transform="matrix(1, 0, 0, 1, 0, 7.105427357601002e-15)"></path><path d="M465.5,738.3c-3.8-8.4-13-23.8-13-23.8s16.9-23.8,16.1-37.6c0,0-20.7,1.5-32.2,10c0,0-121.9-89.7-308.9-42.9
			c-13.2,3.3-24,8.8-31.6,19c-8.6,0.4-21.4,3.5-25.1,18.6c-5.4,22.2,0.8,34.5-6.1,44.5c-6.9,10,0,23.8,6.1,24.5
			c6.1,0.8,9.2-13.8,3.8-24.5c0,0,2.3-35.3,6.9-44.5c1.5-3.1,4.3-4.5,7.2-5.1c-4,11.1-5.8,25.6-4.9,44.9
			c2.3,52.9,19.9,58.2,24.5,64.4c4.6,6.1-0.8,62.1,4.6,67.4c5.4,5.4,23,1.5,27.6,0.8c4.6-0.8-3.1-4.6-3.1-17.6
			c0-9.6,5.4-24.5,10.1-33c-0.4,14.8-0.4,35.5,3,39.9c5.4,6.9,23.8,3.8,26.1,0.8c2.3-3.1-5.4-8.4-4.6-12.3
			c0.5-2.4,3.1-19.3,4.9-31.6c26.4,3.9,71.5,9.1,125.4,2c0.1,13,0.3,37.9,1.3,41.9c1.4,5.4,24.5,6.1,25.9,0
			c1.4-6.1-7.5-10.7-4.8-24.5c1.6-8.2,4.2-16.6,6-22.1c2.5-0.5,5-1.1,7.5-1.6c0,0,0.8,49.1,3.8,55.2c3.1,6.1,22.2,3.8,26.1,2.3
			c3.8-1.5-5.4-7.7-2.3-26.1c3.1-18.4,5.4-24.5,10.7-27.6c5.4-3.1,46,1.5,54.4-4.6c8.4-6.1,23-10,39.9-12.3
			c16.9-2.3,18.4-3.1,20.7-8.4c2.3-5.4-0.8-16.9-3.1-21.5C486.2,748.3,469.3,746.8,465.5,738.3z M433.3,741.4
			c-2.8,0-5.1-2.3-5.1-5.1c0-2.8,2.3-5.1,5.1-5.1c2.8,0,5.1,2.3,5.1,5.1C438.4,739.1,436.1,741.4,433.3,741.4z" transform="matrix(1, 0, 0, 1, 0, 7.105427357601002e-15)"></path><path d="M858.7,591.2c-0.7-11.1-9.2-21.6-9.2-21.6c-11.1,13.7-6.5,30.8-6.5,30.8s-15.7,19-20.9,19c-5.2,0-265.8-10.5-276.9,3.3
			c0,0-15.7,2-19.6,27.5c-3.9,25.5,0.7,53.7-0.7,56.3c-1.3,2.6-7.2,16.4,1.3,22.9c8.5,6.5,9.8-14.4,5.2-22.3c0,0-2.4-37.4,7.8-57
			c-2.9,36.1-0.2,94.7,0.7,106.1c1.3,15.7,4.6,111.3,6.5,113.2c2,2,24.9,3.9,25.5,0c0.7-3.9-5.9-10.5-5.9-13.1
			c0-2.6,1.3-81.2,5.9-85.8c0.3-0.3,1.3-0.6,3-0.8c0.9,26.2,3.4,90.4,5.5,92.4c2.6,2.6,23.6,5.2,24.9,0.7c1.3-4.6-7.2-7.2-7.2-12.4
			c0-4.4,3.2-62.4,4.3-82.4c38.4-1.3,104-1.3,141.4-0.3c-0.6,24.4-2.1,92.8,0,95.1c2.5,2.8,23.2,6.6,24.8,2.1
			c1.6-4.5-6.8-7.6-6.4-12.8c0.3-4.4,7.1-63.4,9.2-82.6c0.5,0.1,0.8,0.3,0.9,0.4c2.6,3.9,4.6,93,7.9,96.2c3.3,3.3,22.3,1.3,22.9-0.7
			c0.7-2,0.7-4.6-2.6-9.2c-3.3-4.6,0.7-86.4,5.2-92.3c4.6-5.9,13.1-8.5,22.9-20.9c9.8-12.4,22.9-54.3,28.1-59.6
			c5.2-5.2,49.7-3.3,58.3-2c8.5,1.3,18.3-5.9,20.9-15.1c2.6-9.2-38.6-47.1-47.8-62.8C879,588,859.1,597.8,858.7,591.2z M875.3,629
			c-2.4,0-4.4-2-4.4-4.4c0-2.4,2-4.4,4.4-4.4s4.4,2,4.4,4.4C879.6,627,877.7,629,875.3,629z" transform="matrix(1, 0, 0, 1, 0, 7.105427357601002e-15)"></path><path d="M1097.6,430.3c9.7-0.5,18.4-1.7,26.3-3.4v48.8h58.5c-7.2-20.3-47.7-13.1-47.7-13.1v-38.6c21.3-7,36.2-19.4,48.9-37.8
			c19.1-27.5,69.2-21.5,77.6-78.8c8.4-57.3-37-83.5-39.4-90.7c-2.4-7.2-1.2-96.7,3.6-101.5c4.8-4.8,77.6-2.4,77.6-2.4
			c-6-11.9-44.2-27.5-44.2-27.5c-10.7-26.3-59.7-19.1-70.4,4.8c-10.7,23.9,1.2,150.4-7.2,159.9c-8.4,9.5-219.6,103.8-217.2,107.4
			c2.4,3.6,19.1,25.1,51.3,29.8C1047.5,392.1,1054.7,432.6,1097.6,430.3z M1236.1,81.7c2.6,0,4.8,2.1,4.8,4.8c0,2.6-2.1,4.8-4.8,4.8
			s-4.8-2.1-4.8-4.8C1231.3,83.9,1233.4,81.7,1236.1,81.7z M1181.2,270.3c0,0,19.1,39.4-23.9,69.2c-43,29.8-82.4,13.1-82.4,13.1
			C1194.3,343.1,1181.2,270.3,1181.2,270.3z" transform="matrix(1, 0, 0, 1, 0, 7.105427357601002e-15)"></path><path d="M1324.9,534.7c-2.6-3.5-3.5-19.2-3.5-19.2s-12.2,7.9-16.6,18.3c0,0-79.4,75.1-83.8,80.3c-4.4,5.2-46.3,16.6-53.2,18.3
			c-7,1.7-107.4-14.8-123.9-13.1c-5.4,0.6-9.8,2.8-13.5,6c-10.5-1.2-32.5-0.6-39.8,23.7c-9.6,32.3,6.1,128.3-2.6,151.9
			c0,0,23.6-2.6,17.5-66.3c-5.7-59.9-7.6-92.1,16.9-98.6c-2.7,5.3-4.5,11.2-5.5,16.5c-2.6,14,6.1,223.4,6.1,223.4h19.2
			c0,0-1.7-5.2-4.4-11.3c-2.6-6.1-3.5-70.7-1.7-73.3c0.9-1.3,11.8-16.6,22.4-31.6l5.5,108.4h16.6l-3.5-9.6v-69.8l32.4-56.8
			c24.9,2.3,60.1,6,86.4,9.1l3.3,128.8h14.8l-3.5-10.5l8.3-115.5c7.9,1,12.9,1.8,13.5,2.1c3.5,1.7,5.2,129.2,5.2,129.2h17.5
			c0,0-2.6-7-3.5-12.2c-0.9-5.2,3.5-121.3,3.5-121.3s18.3-11.3,22.7-27.1c4.4-15.7,0.9-20.1,2.6-27.9c1.7-7.9,28.8-87.3,28.8-87.3
			s7-2.6,17.5,0.9c10.5,3.5,33.2,15.7,39.3,14c6.1-1.7,10.5-7.9,11.3-14S1327.5,538.2,1324.9,534.7z M1325.8,566.1
			c-2.4,0-4.4-2-4.4-4.4c0-2.4,2-4.4,4.4-4.4c2.4,0,4.4,2,4.4,4.4C1330.1,564.2,1328.2,566.1,1325.8,566.1z" transform="matrix(1, 0, 0, 1, 0, 7.105427357601002e-15)"></path><path d="M656.9,412.2v53.9h33.4c0,0-4-18.3-22.3-12.7v-38.1c8.5,1.9,17.3,2.9,26.3,2.7v48.1h33.4c0,0-4-18.3-22.3-12.7v-36.1
			c11.5-1.4,23.1-4.6,34.2-10c58.9-28.6,60.5-116.2,54.1-146.4c-6.4-30.2,6.4-39.8,6.4-39.8s12.7-1.6,19.1-4.8c0,0-8-11.1-14.3-14.3
			c0,0,3.8-29.2-23.9-36.6c-44.6-11.9-68.4,54.1-66.8,89.1h-78c0,0-31.8-28.6-44.6-27.1c-12.7,1.6-19.1,74.8,0,125.7
			C601.9,380.4,626.9,402.3,656.9,412.2z M769.1,187.6c3.5,0,6.4,2.9,6.4,6.4c0,3.5-2.9,6.4-6.4,6.4c-3.5,0-6.4-2.8-6.4-6.4
			C762.7,190.4,765.6,187.6,769.1,187.6z M616.3,299c0,0,20.7,66,70,39.8c49.3-26.3,31-72.4,31-72.4c36.6,47.7-19.9,96.3-62.9,86.7
			C611.6,343.5,616.3,299,616.3,299z" transform="matrix(1, 0, 0, 1, 0, 7.105427357601002e-15)"></path>
<g transform="matrix(1, 0, 0, 1, 0, 7.105427357601002e-15)">
		<g>
			<g>
				<path class="st1" d="M732.3,937.7c0.8,0,1.6,0.7,1.6,0.7L720,968.2c-1.5,0-5.2,0.2-6.1,0.2c-0.8,0-1.6-0.7-1.6-0.7l-4.8-29.8
					c2.9,0,6.5-0.2,7.6-0.2c0.8,0,1.6,0.7,1.6,0.7l1.5,14.6c0.1,1.3,0.1,3,0.1,4.8c0.5-2,1-3.9,1.5-5.2l5.8-14.7
					C728.1,937.9,731.3,937.7,732.3,937.7L732.3,937.7z" style="fill: rgb(194, 181, 155);"></path>
			</g>
			<g>
				<path class="st1" d="M746.6,952.4c0,3.2-1.8,5.4-6.3,6.3l-4.7,1c0.4,2,1.6,3,3.8,3c2.6,0,4.4-2,4.4-2s1.3,0.7,1.3,2.3
					c0,2.7-4.1,5.6-9,5.6c-4.9,0-8.1-3.1-8.1-8.3c0-6,4.3-14.2,11.9-14.2C744,946.1,746.6,948.6,746.6,952.4L746.6,952.4z
					 M738.6,955.5c1-0.3,1.3-1.2,1.3-2.1c0-0.9-0.3-2.2-1.3-2.2c-1.9,0-2.7,3-3,5.3L738.6,955.5z" style="fill: rgb(194, 181, 155);"></path>
			</g>
			<g>
				<path class="st1" d="M759.4,946.1c3.8,0,6.7,2,6.7,4.7c0,3.3-4,4.5-4,4.5s-1.2-3.6-3.9-3.6c-1.8,0-2.9,1.8-2.9,5.8
					c0,3.6,1,5.2,3.3,5.2c2.4,0,3.9-1.6,3.9-1.6s1.3,0.7,1.3,2.2c0,2.6-4,5.3-8.6,5.3c-4.9,0-8-3.1-8-8.2
					C747.3,954.3,751.7,946.1,759.4,946.1L759.4,946.1z" style="fill: rgb(194, 181, 155);"></path>
			</g>
			<g>
				<path class="st1" d="M777.8,941.3c0.9,0,1.5,0.7,1.5,0.7l-0.7,4.5h4.8l-1.1,3.5c-0.4,1.1-0.9,1.7-2,1.7h-2.5l-1.4,8.9
					c-0.2,1.4,0.1,2.1,1.1,2.1c0.9,0,1.8-0.5,1.8-0.5s1.3,0.7,1.3,2.2c0,2.2-3.1,4.3-7,4.3c-4.1,0-5.8-2.5-5.1-7l1.6-9.9h-2.6
					l1.1-3.6c0.3-0.9,1.1-1.6,2-1.6h1.3l1.5-4.2C775.2,941.9,777,941.3,777.8,941.3L777.8,941.3z" style="fill: rgb(194, 181, 155);"></path>
			</g>
			<g>
				<path class="st1" d="M801.2,952.4c0,3.2-1.8,5.4-6.3,6.3l-4.7,1c0.4,2,1.6,3,3.8,3c2.6,0,4.4-2,4.4-2s1.3,0.7,1.3,2.3
					c0,2.7-4.1,5.6-9,5.6c-4.9,0-8.1-3.1-8.1-8.3c0-6,4.3-14.2,11.9-14.2C798.6,946.1,801.2,948.6,801.2,952.4L801.2,952.4z
					 M793.2,955.5c1-0.3,1.3-1.2,1.3-2.1c0-0.9-0.3-2.2-1.3-2.2c-1.9,0-2.7,3-3,5.3L793.2,955.5z" style="fill: rgb(194, 181, 155);"></path>
			</g>
			<g>
				<path class="st1" d="M820.5,952.4c0,3.2-1.8,5.4-6.3,6.3l-4.7,1c0.4,2,1.6,3,3.8,3c2.6,0,4.4-2,4.4-2s1.3,0.7,1.3,2.3
					c0,2.7-4.1,5.6-9,5.6c-4.9,0-8.1-3.1-8.1-8.3c0-6,4.3-14.2,11.9-14.2C817.9,946.1,820.5,948.6,820.5,952.4L820.5,952.4z
					 M812.5,955.5c1-0.3,1.3-1.2,1.3-2.1c0-0.9-0.3-2.2-1.3-2.2c-1.9,0-2.7,3-3,5.3L812.5,955.5z" style="fill: rgb(194, 181, 155);"></path>
			</g>
			<g>
				<path class="st1" d="M836.3,960.5c0,0,1.6,1.5,1.6,4c0,3.3-2.8,4.2-5.2,4.2c-3.1,0-5.3-1.5-7.6-2.3c-0.6,0.7-1.3,1.5-1.9,2.3
					c0,0-3.5-0.1-3.5-2.4c0-2.9,4.8-7.8,9.9-13.4c-0.6-0.1-1.2-0.2-1.7-0.2c-2.9,0-4.1,1.5-4.1,1.5s-1.5-1.7-1.4-4
					c0.2-3.1,3.1-4,5.5-4c2.5,0,4.3,1,6.1,1.7l1.5-1.7c0,0,3.5,0.1,3.5,2.5c0,2.8-4.6,7.6-9.6,13c1.1,0.3,2,0.5,3,0.5
					C835.1,962.2,836.3,960.5,836.3,960.5L836.3,960.5z" style="fill: rgb(194, 181, 155);"></path>
			</g>
			<g>
				<path class="st1" d="M858.7,966.7c-1.2,7.6-6.4,11.4-13,11.4c-4.2,0-7.3-2.2-7.3-4.8c0-1.7,1.4-2.5,1.4-2.5s1.4,1.3,4.2,1.3
					c2.6,0,6.2-1.1,6.8-5.1l0.5-3.1c-1.8,2.6-4.1,4.6-7.1,4.6c-3.3,0-4.8-2.7-3.9-8.3l0.9-6c0.6-3.7,0.7-6.7,0.7-6.7
					c2.4-0.4,5.5-1.5,6.6-1.5c0.8,0,1.6,0.7,1.6,0.7l-1.2,7.5l-1.1,6.9c-0.1,0.6,0,1,0.6,1c2.8,0,4.3-7.9,4.3-7.9
					c0.6-3.7,0.7-6.7,0.7-6.7c2.4-0.4,5.5-1.5,6.6-1.5c0.9,0,1.6,0.7,1.6,0.7l-1.2,7.5L858.7,966.7z" style="fill: rgb(194, 181, 155);"></path>
			</g>
		</g>
		<g>
			<path class="st1" d="M538.1,947.4h7.4c1.7,0,3,0.1,3.8,0.4c1.2,0.3,2.2,1,3,1.9c0.8,0.9,1.5,2,1.9,3.3c0.4,1.3,0.7,2.9,0.7,4.8
				c0,1.7-0.2,3.1-0.6,4.3c-0.5,1.5-1.2,2.7-2.2,3.6c-0.7,0.7-1.7,1.2-2.9,1.6c-0.9,0.3-2.1,0.4-3.6,0.4h-7.7V947.4z M542.2,950.8
				v13.4h3c1.1,0,2-0.1,2.5-0.2c0.7-0.2,1.2-0.4,1.6-0.8c0.4-0.4,0.8-1,1.1-1.9c0.3-0.9,0.4-2.1,0.4-3.7c0-1.6-0.1-2.8-0.4-3.6
				c-0.3-0.8-0.7-1.5-1.2-2s-1.1-0.8-1.9-0.9c-0.6-0.1-1.7-0.2-3.3-0.2H542.2z" style="fill: rgb(194, 181, 155);"></path>
			<path class="st1" d="M566.4,962.9l3.9,0.6c-0.5,1.4-1.3,2.5-2.3,3.2c-1.1,0.7-2.4,1.1-4,1.1c-2.5,0-4.4-0.8-5.6-2.5
				c-1-1.3-1.4-3-1.4-5c0-2.4,0.6-4.3,1.9-5.7c1.3-1.4,2.9-2.1,4.8-2.1c2.2,0,3.9,0.7,5.1,2.2c1.3,1.4,1.9,3.6,1.8,6.6h-9.7
				c0,1.1,0.3,2,0.9,2.7c0.6,0.6,1.3,1,2.2,1c0.6,0,1.1-0.2,1.5-0.5C565.8,964.1,566.2,963.6,566.4,962.9z M566.6,959
				c0-1.1-0.3-2-0.9-2.6c-0.6-0.6-1.2-0.9-2-0.9c-0.8,0-1.5,0.3-2.1,0.9c-0.6,0.6-0.8,1.4-0.8,2.5H566.6z" style="fill: rgb(194, 181, 155);"></path>
			<path class="st1" d="M571.6,963.4l3.9-0.6c0.2,0.8,0.5,1.3,1,1.7c0.5,0.4,1.2,0.6,2.1,0.6c1,0,1.8-0.2,2.3-0.6
				c0.3-0.3,0.5-0.6,0.5-1c0-0.3-0.1-0.5-0.3-0.7c-0.2-0.2-0.6-0.4-1.3-0.5c-3.1-0.7-5.1-1.3-5.9-1.9c-1.2-0.8-1.7-1.9-1.7-3.3
				c0-1.3,0.5-2.3,1.5-3.2c1-0.9,2.6-1.3,4.7-1.3c2,0,3.5,0.3,4.5,1c1,0.7,1.6,1.6,2,2.9l-3.6,0.7c-0.2-0.6-0.5-1-0.9-1.3
				c-0.4-0.3-1.1-0.5-1.9-0.5c-1,0-1.7,0.1-2.2,0.4c-0.3,0.2-0.4,0.5-0.4,0.8c0,0.3,0.1,0.5,0.4,0.7c0.3,0.3,1.6,0.6,3.6,1.1
				c2.1,0.5,3.5,1,4.3,1.7c0.8,0.7,1.2,1.6,1.2,2.9c0,1.3-0.6,2.5-1.7,3.5c-1.1,1-2.8,1.4-5,1.4c-2,0-3.6-0.4-4.7-1.2
				C572.8,965.8,572,964.7,571.6,963.4z" style="fill: rgb(194, 181, 155);"></path>
			<path class="st1" d="M588.1,950.9v-3.6h3.9v3.6H588.1z M588.1,967.5v-14.6h3.9v14.6H588.1z" style="fill: rgb(194, 181, 155);"></path>
			<path class="st1" d="M595,968.5l4.4,0.5c0.1,0.5,0.2,0.9,0.5,1.1c0.4,0.3,0.9,0.4,1.7,0.4c1,0,1.8-0.2,2.3-0.5
				c0.3-0.2,0.6-0.5,0.8-1c0.1-0.3,0.2-0.9,0.2-1.8v-2.1c-1.2,1.6-2.6,2.4-4.4,2.4c-2,0-3.5-0.8-4.7-2.5c-0.9-1.3-1.3-2.9-1.3-4.9
				c0-2.4,0.6-4.3,1.8-5.6c1.2-1.3,2.6-1.9,4.4-1.9c1.8,0,3.3,0.8,4.5,2.4v-2.1h3.6V966c0,1.7-0.1,3-0.4,3.9s-0.7,1.5-1.2,2
				c-0.5,0.5-1.2,0.9-2.1,1.1c-0.9,0.3-1.9,0.4-3.3,0.4c-2.5,0-4.2-0.4-5.3-1.3c-1-0.8-1.6-1.9-1.6-3.2
				C595,968.8,595,968.7,595,968.5z M598.5,959.9c0,1.6,0.3,2.7,0.9,3.4c0.6,0.7,1.3,1.1,2.2,1.1c0.9,0,1.7-0.4,2.4-1.1
				c0.7-0.7,1-1.8,1-3.3c0-1.5-0.3-2.6-0.9-3.4c-0.6-0.7-1.4-1.1-2.4-1.1c-0.9,0-1.7,0.4-2.3,1.1
				C598.8,957.3,598.5,958.4,598.5,959.9z" style="fill: rgb(194, 181, 155);"></path>
			<path class="st1" d="M625.3,967.5h-3.9v-7.5c0-1.6-0.1-2.6-0.2-3.1c-0.2-0.5-0.4-0.8-0.8-1.1c-0.4-0.3-0.8-0.4-1.3-0.4
				c-0.7,0-1.3,0.2-1.8,0.6c-0.5,0.4-0.9,0.9-1.1,1.5c-0.2,0.6-0.3,1.7-0.3,3.4v6.6H612v-14.6h3.6v2.1c1.3-1.7,2.9-2.5,4.8-2.5
				c0.9,0,1.6,0.2,2.3,0.5c0.7,0.3,1.2,0.7,1.6,1.2c0.4,0.5,0.6,1,0.8,1.6c0.1,0.6,0.2,1.5,0.2,2.6V967.5z" style="fill: rgb(194, 181, 155);"></path>
			<path class="st1" d="M637.2,962.9l3.9,0.6c-0.5,1.4-1.3,2.5-2.3,3.2c-1.1,0.7-2.4,1.1-4,1.1c-2.5,0-4.4-0.8-5.6-2.5
				c-1-1.3-1.4-3-1.4-5c0-2.4,0.6-4.3,1.9-5.7c1.3-1.4,2.9-2.1,4.8-2.1c2.2,0,3.9,0.7,5.1,2.2c1.3,1.4,1.9,3.6,1.8,6.6h-9.7
				c0,1.1,0.3,2,0.9,2.7c0.6,0.6,1.3,1,2.2,1c0.6,0,1.1-0.2,1.5-0.5C636.6,964.1,636.9,963.6,637.2,962.9z M637.4,959
				c0-1.1-0.3-2-0.9-2.6c-0.6-0.6-1.2-0.9-2-0.9c-0.8,0-1.5,0.3-2.1,0.9c-0.6,0.6-0.8,1.4-0.8,2.5H637.4z" style="fill: rgb(194, 181, 155);"></path>
			<path class="st1" d="M657.2,967.5h-3.6v-2.1c-0.6,0.8-1.3,1.5-2.1,1.9c-0.8,0.4-1.6,0.6-2.5,0.6c-1.7,0-3.1-0.7-4.3-2
				c-1.2-1.4-1.8-3.2-1.8-5.7c0-2.5,0.6-4.4,1.7-5.7c1.2-1.3,2.6-1.9,4.4-1.9c1.6,0,3,0.7,4.2,2v-7.3h3.9V967.5z M646.9,959.9
				c0,1.6,0.2,2.7,0.6,3.4c0.6,1,1.5,1.5,2.6,1.5c0.9,0,1.6-0.4,2.3-1.1c0.6-0.8,0.9-1.9,0.9-3.4c0-1.7-0.3-2.9-0.9-3.6
				c-0.6-0.7-1.4-1.1-2.3-1.1c-0.9,0-1.7,0.4-2.3,1.1C647.2,957.4,646.9,958.5,646.9,959.9z" style="fill: rgb(194, 181, 155);"></path>
			<path class="st1" d="M667.6,967.5v-20.2h3.9v7.3c1.2-1.4,2.6-2,4.2-2c1.8,0,3.3,0.6,4.4,1.9c1.2,1.3,1.7,3.1,1.7,5.6
				c0,2.5-0.6,4.4-1.8,5.8c-1.2,1.3-2.6,2-4.3,2c-0.8,0-1.7-0.2-2.5-0.6c-0.8-0.4-1.5-1-2.1-1.9v2.1H667.6z M671.4,959.9
				c0,1.5,0.2,2.6,0.7,3.4c0.7,1,1.6,1.5,2.7,1.5c0.9,0,1.6-0.4,2.2-1.1c0.6-0.7,0.9-1.9,0.9-3.4c0-1.7-0.3-2.9-0.9-3.6
				c-0.6-0.7-1.4-1.1-2.3-1.1c-0.9,0-1.7,0.4-2.3,1.1C671.7,957.3,671.4,958.4,671.4,959.9z" style="fill: rgb(194, 181, 155);"></path>
			<path class="st1" d="M682.6,952.9h4.1l3.5,10.4l3.4-10.4h4l-5.2,14.1l-0.9,2.5c-0.3,0.9-0.7,1.5-1,2c-0.3,0.4-0.7,0.8-1.1,1.1
				c-0.4,0.3-0.9,0.5-1.5,0.7c-0.6,0.2-1.2,0.2-2,0.2c-0.7,0-1.5-0.1-2.2-0.2l-0.3-3c0.6,0.1,1.2,0.2,1.6,0.2c0.9,0,1.6-0.3,2-0.8
				c0.4-0.5,0.8-1.2,1-2L682.6,952.9z" style="fill: rgb(194, 181, 155);"></path>
		</g>
	</g>
</g>
</svg>