<?xml version="1.0" encoding="utf-8"?>
<!-- Generator: Adobe Illustrator 18.1.1, SVG Export Plug-In . SVG Version: 6.00 Build 0)  -->
<svg version="1.1"
	 id="Layer_1" xmlns:dc="http://purl.org/dc/elements/1.1/" xmlns:inkscape="http://www.inkscape.org/namespaces/inkscape" xmlns:svg="http://www.w3.org/2000/svg" xmlns:sodipodi="http://sodipodi.sourceforge.net/DTD/sodipodi-0.dtd" xmlns:rdf="http://www.w3.org/1999/02/22-rdf-syntax-ns#" xmlns:cc="http://creativecommons.org/ns#" sodipodi:docname="men_mooth.svg" inkscape:version="0.92.3 (2405546, 2018-03-11)"
	 xmlns="http://www.w3.org/2000/svg" xmlns:xlink="http://www.w3.org/1999/xlink" x="0px" y="0px" viewBox="569 -94 1911 694"
	 enable-background="new 569 -94 1911 694" xml:space="preserve">
<sodipodi:namedview  id="namedview4315" bordercolor="#666666" inkscape:cx="875" gridtolerance="10" inkscape:cy="633.32724" showgrid="false" inkscape:zoom="0.55816327" pagecolor="#ffffff" borderopacity="1" guidetolerance="10" objecttolerance="10" inkscape:pageshadow="2" inkscape:window-width="1366" inkscape:window-height="716" inkscape:window-y="-8" inkscape:pageopacity="0" inkscape:window-x="-8" inkscape:current-layer="Layer_1" inkscape:window-maximized="1">
	</sodipodi:namedview>
<g>
	
		<linearGradient id="SVGID_2_" gradientUnits="userSpaceOnUse" x1="1185.1453" y1="-456.1242" x2="1185.1453" y2="1528.3529" gradientTransform="matrix(0.3497 0 0 -0.3497 1110.0377 440.4869)">
		<stop  offset="0" style="stop-color:#2483C5;stop-opacity:0"/>
		<stop  offset="1" style="stop-color:#2483C5"/>
	</linearGradient>
	<rect x="569" y="-94" fill="url(#SVGID_2_)" width="1911" height="694"/>
	<path fill="#F3F4F4" d="M1420.8,37.7c0,30.8-29,55.7-64.9,55.7S1291,68.5,1291,37.7s29-55.7,64.9-55.7
		C1391.7-18,1420.8,7,1420.8,37.7z"/>
	<g>
		<g>
			<path fill="#F5F9FA" d="M711.1,27.7h-23.7c0,0-8.7-15,11.8-13.9c20.5,1.1,37.3-3.2,37.3-3.2s-5-15,8.7-21.9s17.5-8.5,30.5-3.2
				c0,0,16.2-27.2,47.9-12.3c0,0,26.1,14.4,14.3,36.4c0,0,13.1,4.3,15,4.3c1.9,0,11.2,14.4-2.5,13.9
				C836.9,27.1,711.1,27.7,711.1,27.7z"/>
		</g>
		<defs>
			<filter id="Adobe_OpacityMaskFilter" filterUnits="userSpaceOnUse" x="685.5" y="-31.4" width="172.2" height="59">
				<feColorMatrix  type="matrix" values="1 0 0 0 0  0 1 0 0 0  0 0 1 0 0  0 0 0 1 0"/>
			</filter>
		</defs>
		<mask maskUnits="userSpaceOnUse" x="685.5" y="-31.4" width="172.2" height="59" id="SVGID_6_">
			<g filter="url(#Adobe_OpacityMaskFilter)">
			</g>
		</mask>
		<g mask="url(#SVGID_6_)">
			<path fill="#DCDCDB" d="M711.1,27.7h-23.7c0,0-8.7-15,11.8-13.9c20.5,1.1,37.3-3.2,37.3-3.2s-5-15,8.7-21.9s17.5-8.5,30.5-3.2
				c0,0,16.2-27.2,47.9-12.3c0,0,26.1,14.4,14.3,36.4c0,0,13.1,4.3,15,4.3c1.9,0,11.2,14.4-2.5,13.9
				C836.9,27.1,711.1,27.7,711.1,27.7z"/>
		</g>
	</g>
	<g>
		<g>
			<path fill="#F5F9FA" d="M1495.1,249.5h-23.7c0,0-8.7-15,11.8-13.9s37.3-3.2,37.3-3.2s-5-15,8.7-21.9c13.7-7,17.5-8.5,30.5-3.2
				c0,0,16.2-27.2,47.9-12.3c0,0,26.1,14.4,14.3,36.4c0,0,13.1,4.3,15,4.3s11.2,14.4-2.5,13.9
				C1620.9,248.9,1495.1,249.5,1495.1,249.5z"/>
		</g>
		<defs>
			<filter id="Adobe_OpacityMaskFilter_1_" filterUnits="userSpaceOnUse" x="1469.6" y="190.4" width="172.2" height="59">
				<feColorMatrix  type="matrix" values="1 0 0 0 0  0 1 0 0 0  0 0 1 0 0  0 0 0 1 0"/>
			</filter>
		</defs>
		<mask maskUnits="userSpaceOnUse" x="1469.6" y="190.4" width="172.2" height="59" id="SVGID_5_">
			<g filter="url(#Adobe_OpacityMaskFilter_1_)">
			</g>
		</mask>
		<g mask="url(#SVGID_5_)">
			<path fill="#DCDCDB" d="M1495.1,249.5h-23.7c0,0-8.7-15,11.8-13.9s37.3-3.2,37.3-3.2s-5-15,8.7-21.9c13.7-7,17.5-8.5,30.5-3.2
				c0,0,16.2-27.2,47.9-12.3c0,0,26.1,14.4,14.3,36.4c0,0,13.1,4.3,15,4.3s11.2,14.4-2.5,13.9
				C1620.9,248.9,1495.1,249.5,1495.1,249.5z"/>
		</g>
	</g>
	<g>
		<g>
			<path fill="#F5F9FA" d="M1792.1,67.2h-23.7c0,0-8.7-15,11.8-13.9s37.3-3.2,37.3-3.2s-5-15,8.7-21.9c13.7-7,17.5-8.5,30.5-3.2
				c0,0,16.2-27.2,47.9-12.3c0,0,26.1,14.4,14.3,36.4c0,0,13.1,4.3,15,4.3c1.9,0,11.2,14.4-2.5,13.9
				C1917.8,66.6,1792.1,67.2,1792.1,67.2z"/>
		</g>
		<defs>
			<filter id="Adobe_OpacityMaskFilter_2_" filterUnits="userSpaceOnUse" x="1766.6" y="8.1" width="172.2" height="59">
				<feColorMatrix  type="matrix" values="1 0 0 0 0  0 1 0 0 0  0 0 1 0 0  0 0 0 1 0"/>
			</filter>
		</defs>
		<mask maskUnits="userSpaceOnUse" x="1766.6" y="8.1" width="172.2" height="59" id="SVGID_1_">
			<g filter="url(#Adobe_OpacityMaskFilter_2_)">
			</g>
		</mask>
		<g mask="url(#SVGID_1_)">
			<path fill="#DCDCDB" d="M1792.1,67.2h-23.7c0,0-8.7-15,11.8-13.9s37.3-3.2,37.3-3.2s-5-15,8.7-21.9c13.7-7,17.5-8.5,30.5-3.2
				c0,0,16.2-27.2,47.9-12.3c0,0,26.1,14.4,14.3,36.4c0,0,13.1,4.3,15,4.3c1.9,0,11.2,14.4-2.5,13.9
				C1917.8,66.6,1792.1,67.2,1792.1,67.2z"/>
		</g>
	</g>
	<g>
		<path fill="#FFD393" d="M2242.1,312.8l-30.9,5.1c0,0-19.8,15.1-4.9,55c14.9,39.8,44.6,171.7,44.6,185.4c0,13.7,4.9,6.9,4.9,6.9
			s22.3-168.2,26-192.3c3.7-24.1,4.9-41.6-11.1-55C2270.6,317.8,2264.3,316.2,2242.1,312.8z"/>
		
			<linearGradient id="SVGID_3_" gradientUnits="userSpaceOnUse" x1="3130.1077" y1="371.6375" x2="3345.0024" y2="371.6375" gradientTransform="matrix(0.3497 0 0 -0.3497 1110.0377 440.4869)">
			<stop  offset="0" style="stop-color:#39606C"/>
			<stop  offset="0.3212" style="stop-color:#384F50"/>
			<stop  offset="0.5939" style="stop-color:#293024"/>
			<stop  offset="0.7697" style="stop-color:#314B46"/>
			<stop  offset="1" style="stop-color:#314E49"/>
		</linearGradient>
		<path fill="url(#SVGID_3_)" d="M2279.8,305.2l-11.1,11.8h-54.4l-9.5-11.8C2204.7,305.2,2268.9,302.7,2279.8,305.2z"/>
		<path opacity="0.8" fill="#FFFFFF" enable-background="new    " d="M2278.9,187.7c0,5.4,0.9,9.3,1.9,8.5c1-0.8,1.6-5.8,1.6-11.3
			c0-5.4-0.9-9.3-1.9-8.5C2279.6,177.2,2278.9,182.2,2278.9,187.7z"/>
		<path fill="#FFFFFF" d="M2281.1,215.6c0.2,1.5,0.9,2.1,1.6,1.5c0.7-0.7,1.1-2.4,0.9-3.8c-0.2-1.5-0.9-2.1-1.6-1.5
			C2281.3,212.3,2280.9,214.1,2281.1,215.6z"/>
		<g>
			<g>
				
					<linearGradient id="SVGID_4_" gradientUnits="userSpaceOnUse" x1="3358.1401" y1="487.2666" x2="3514.6328" y2="487.2666" gradientTransform="matrix(0.3497 0 0 -0.3497 1110.0377 440.4869)">
					<stop  offset="0" style="stop-color:#EA2127"/>
					<stop  offset="0.1636" style="stop-color:#E62327"/>
					<stop  offset="0.3298" style="stop-color:#DA2929"/>
					<stop  offset="0.4965" style="stop-color:#C5322B"/>
					<stop  offset="0.5939" style="stop-color:#B6392C"/>
					<stop  offset="0.6667" style="stop-color:#C8312A"/>
					<stop  offset="0.7745" style="stop-color:#DB2828"/>
					<stop  offset="0.8847" style="stop-color:#E62327"/>
					<stop  offset="1" style="stop-color:#EA2127"/>
				</linearGradient>
				<path fill="url(#SVGID_4_)" d="M2339.1,318.2c0,0-1-48.3-2.8-64.9s-24.8-36.4-24.8-36.4h-8.1c0,0-27.4,79.6-16.4,81.9
					s23.4,11,38.3,20.6C2340.3,328.9,2339.1,318.2,2339.1,318.2z"/>
			</g>
			<g>
				
					<linearGradient id="SVGID_7_" gradientUnits="userSpaceOnUse" x1="2959" y1="494.5544" x2="3115.4927" y2="494.5544" gradientTransform="matrix(0.3497 0 0 -0.3497 1110.0377 440.4869)">
					<stop  offset="0" style="stop-color:#EA2127"/>
					<stop  offset="0.1636" style="stop-color:#E62327"/>
					<stop  offset="0.3298" style="stop-color:#DA2929"/>
					<stop  offset="0.4965" style="stop-color:#C5322B"/>
					<stop  offset="0.5939" style="stop-color:#B6392C"/>
					<stop  offset="0.6667" style="stop-color:#C8312A"/>
					<stop  offset="0.7745" style="stop-color:#DB2828"/>
					<stop  offset="0.8847" style="stop-color:#E62327"/>
					<stop  offset="1" style="stop-color:#EA2127"/>
				</linearGradient>
				<path fill="url(#SVGID_7_)" d="M2172.5,214.3c0,0-22.9,19.8-24.8,36.4c-1.9,16.6-2.8,64.9-2.8,64.9s-1.2,10.7,13.8,1.1
					c15-9.6,27.3-18.3,38.3-20.6c11-2.3-16.4-81.9-16.4-81.9L2172.5,214.3L2172.5,214.3z"/>
			</g>
		</g>
		<path fill="#FFDC8D" d="M2268.3,380.4c1.4,35.4-1.4,124.4-15.7,124.7c-14.3,0.4-34.7-88.1-36.1-123.4s9.1-64.4,23.5-64.7
			C2254.1,316.6,2266.8,345,2268.3,380.4z"/>
		<path fill="#FCF6BE" d="M2267.7,368.1c0,24.7-11,44.7-24.8,44.7c-13.7,0-24.8-20-24.8-44.7c0-24.7,11.1-44.7,24.8-44.7
			C2256.6,323.3,2267.7,343.4,2267.7,368.1z"/>
		<path fill="#FFFFFF" d="M2259.2,358.1c0,19.2-7.3,34.8-16.3,34.8s-16.3-15.6-16.3-34.8c0-19.2,7.3-34.8,16.3-34.8
			S2259.2,338.9,2259.2,358.1z"/>
		
			<linearGradient id="SVGID_8_" gradientUnits="userSpaceOnUse" x1="3095.2085" y1="996.7231" x2="3381.8586" y2="996.7231" gradientTransform="matrix(0.3497 0 0 -0.3497 1110.0377 440.4869)">
			<stop  offset="0" style="stop-color:#EA2127"/>
			<stop  offset="0.1636" style="stop-color:#E62327"/>
			<stop  offset="0.3298" style="stop-color:#DA2929"/>
			<stop  offset="0.4965" style="stop-color:#C5322B"/>
			<stop  offset="0.5939" style="stop-color:#B6392C"/>
			<stop  offset="0.6667" style="stop-color:#C8312A"/>
			<stop  offset="0.7745" style="stop-color:#DB2828"/>
			<stop  offset="0.8847" style="stop-color:#E62327"/>
			<stop  offset="1" style="stop-color:#EA2127"/>
		</linearGradient>
		<path fill="url(#SVGID_8_)" d="M2288.9,112.1c-11.1-20.9-29.7-48.8-49.1-48.2c-18.7,0.5-29.3,16.3-43.9,48.2
			c-1.1,2.3-2.2,4.9-3.4,7.7h100.2C2291.3,117,2290.1,114.4,2288.9,112.1z"/>
		
			<linearGradient id="SVGID_9_" gradientUnits="userSpaceOnUse" x1="3037.2998" y1="704.3979" x2="3438.3362" y2="704.3979" gradientTransform="matrix(0.3497 0 0 -0.3497 1110.0377 440.4869)">
			<stop  offset="0" style="stop-color:#EE3D24"/>
			<stop  offset="0.2059" style="stop-color:#EA3C24"/>
			<stop  offset="0.4147" style="stop-color:#DE3B26"/>
			<stop  offset="0.5939" style="stop-color:#CD3828"/>
			<stop  offset="0.7196" style="stop-color:#BB2B26"/>
			<stop  offset="0.8565" style="stop-color:#B02224"/>
			<stop  offset="1" style="stop-color:#AC1F24"/>
		</linearGradient>
		<path fill="url(#SVGID_9_)" d="M2172.8,215.2c1.3,12,2.5,21.9,4.4,31.1h130.3c1.9-9.3,2.9-19.1,4.4-31.1
			c2.6-23-3.2-50.8-10.6-73.2h-117.2C2176.6,164.5,2170.2,192.1,2172.8,215.2z"/>
		
			<linearGradient id="SVGID_10_" gradientUnits="userSpaceOnUse" x1="3064.2954" y1="457.3869" x2="3411.2109" y2="457.3869" gradientTransform="matrix(0.3497 0 0 -0.3497 1110.0377 440.4869)">
			<stop  offset="0" style="stop-color:#EE3D24"/>
			<stop  offset="0.2059" style="stop-color:#EA3C24"/>
			<stop  offset="0.4147" style="stop-color:#DE3B26"/>
			<stop  offset="0.5939" style="stop-color:#CD3828"/>
			<stop  offset="0.7196" style="stop-color:#BB2B26"/>
			<stop  offset="0.8565" style="stop-color:#B02224"/>
			<stop  offset="1" style="stop-color:#AC1F24"/>
		</linearGradient>
		<path fill="url(#SVGID_10_)" d="M2181.7,263.7c3.9,12.1,9.9,24.9,20,42.3c0,0,33.1-1.2,40.2-1.2c7.1,0,41.2,1.2,41.2,1.2
			c10-17.3,16.1-30.2,20-42.3l-61.7-8.5L2181.7,263.7z"/>
		
			<linearGradient id="SVGID_11_" gradientUnits="userSpaceOnUse" x1="3071.165" y1="885.0494" x2="3406.2146" y2="885.0494" gradientTransform="matrix(0.3497 0 0 -0.3497 1110.0377 440.4869)">
			<stop  offset="0" style="stop-color:#889195"/>
			<stop  offset="0.1091" style="stop-color:#B3BCC0"/>
			<stop  offset="0.1455" style="stop-color:#889AA1"/>
			<stop  offset="0.1758" style="stop-color:#889AA1"/>
			<stop  offset="0.2182" style="stop-color:#A3ABAF"/>
			<stop  offset="0.297" style="stop-color:#AAB9BC"/>
			<stop  offset="0.3636" style="stop-color:#1D2C38"/>
			<stop  offset="0.4121" style="stop-color:#FFFFFF"/>
			<stop  offset="0.4727" style="stop-color:#FFFFFF"/>
			<stop  offset="0.5212" style="stop-color:#BAC2C7"/>
			<stop  offset="0.5333" style="stop-color:#BAC2C7"/>
			<stop  offset="0.5758" style="stop-color:#E6E9E9"/>
			<stop  offset="0.577" style="stop-color:#E6E9E9"/>
			<stop  offset="0.6" style="stop-color:#E6E9E9"/>
			<stop  offset="0.6085" style="stop-color:#D9DFE0"/>
			<stop  offset="0.624" style="stop-color:#C8D1D5"/>
			<stop  offset="0.6432" style="stop-color:#BCC8CD"/>
			<stop  offset="0.6697" style="stop-color:#B5C3C8"/>
			<stop  offset="0.7394" style="stop-color:#B3C1C7"/>
			<stop  offset="0.7939" style="stop-color:#B3C1C7"/>
			<stop  offset="0.8083" style="stop-color:#AEBCC3"/>
			<stop  offset="0.8257" style="stop-color:#9FB0B8"/>
			<stop  offset="0.8424" style="stop-color:#8A9DA9"/>
			<stop  offset="0.8606" style="stop-color:#8A9DA9"/>
			<stop  offset="0.9091" style="stop-color:#9BADB9"/>
			<stop  offset="0.9333" style="stop-color:#9BADB9"/>
			<stop  offset="0.9758" style="stop-color:#8496A6"/>
			<stop  offset="1" style="stop-color:#8496A6"/>
		</linearGradient>
		<path fill="url(#SVGID_11_)" d="M2192.4,119.9c-2.6,6.4-5.6,13.9-8.3,22.2h117.2c-2.7-8.3-5.7-15.9-8.6-22.2H2192.4z"/>
		
			<linearGradient id="SVGID_12_" gradientUnits="userSpaceOnUse" x1="3043.0615" y1="536.4974" x2="3433.0681" y2="536.4974" gradientTransform="matrix(0.3497 0 0 -0.3497 1110.0377 440.4869)">
			<stop  offset="0" style="stop-color:#656D70"/>
			<stop  offset="0.1091" style="stop-color:#B3BCC0"/>
			<stop  offset="0.1455" style="stop-color:#889AA1"/>
			<stop  offset="0.1758" style="stop-color:#889AA1"/>
			<stop  offset="0.2182" style="stop-color:#A3ABAF"/>
			<stop  offset="0.297" style="stop-color:#AAB9BC"/>
			<stop  offset="0.4121" style="stop-color:#FFFFFF"/>
			<stop  offset="0.4727" style="stop-color:#FFFFFF"/>
			<stop  offset="0.5212" style="stop-color:#BAC2C7"/>
			<stop  offset="0.5333" style="stop-color:#BAC2C7"/>
			<stop  offset="0.5758" style="stop-color:#E6E9E9"/>
			<stop  offset="0.577" style="stop-color:#E6E9E9"/>
			<stop  offset="0.6" style="stop-color:#E6E9E9"/>
			<stop  offset="0.6002" style="stop-color:#E4E7E7"/>
			<stop  offset="0.6043" style="stop-color:#BBC0C3"/>
			<stop  offset="0.6087" style="stop-color:#969EA2"/>
			<stop  offset="0.6136" style="stop-color:#757F85"/>
			<stop  offset="0.6191" style="stop-color:#59656D"/>
			<stop  offset="0.6252" style="stop-color:#435059"/>
			<stop  offset="0.6323" style="stop-color:#32404A"/>
			<stop  offset="0.641" style="stop-color:#263440"/>
			<stop  offset="0.6531" style="stop-color:#1F2E3A"/>
			<stop  offset="0.6848" style="stop-color:#1D2C38"/>
			<stop  offset="0.7394" style="stop-color:#B3C1C7"/>
			<stop  offset="0.7939" style="stop-color:#B3C1C7"/>
			<stop  offset="0.8083" style="stop-color:#AEBCC3"/>
			<stop  offset="0.8257" style="stop-color:#9FB0B8"/>
			<stop  offset="0.8424" style="stop-color:#8A9DA9"/>
			<stop  offset="0.8606" style="stop-color:#8A9DA9"/>
			<stop  offset="0.9091" style="stop-color:#9BADB9"/>
			<stop  offset="0.9333" style="stop-color:#9BADB9"/>
			<stop  offset="0.9758" style="stop-color:#8496A6"/>
			<stop  offset="1" style="stop-color:#8496A6"/>
		</linearGradient>
		<path fill="url(#SVGID_12_)" d="M2181.7,263.1c40.3-4.2,81.1-4.2,121.4,0c2.8-5.5,5.2-11,7.5-16.6c-45.2-5.1-91.2-5.1-136.4,0
			C2176.3,252.1,2178.8,257.6,2181.7,263.1z"/>
	</g>
</g>
</svg>
