<?xml version="1.0" encoding="UTF-8" standalone="no"?>
<svg
   xmlns:dc="http://purl.org/dc/elements/1.1/"
   xmlns:cc="http://creativecommons.org/ns#"
   xmlns:rdf="http://www.w3.org/1999/02/22-rdf-syntax-ns#"
   xmlns:svg="http://www.w3.org/2000/svg"
   xmlns="http://www.w3.org/2000/svg"
   height="397.91666"
   width="695.83331"
   xml:space="preserve"
   enable-background="new 0 0 40 40"
   viewBox="0 0 695.83331 397.91666"
   y="0px"
   x="0px"
   id="Layer_1"
   version="1.1"><metadata
   id="metadata316"><rdf:RDF><cc:Work
       rdf:about=""><dc:format>image/svg+xml</dc:format><dc:type
         rdf:resource="http://purl.org/dc/dcmitype/StillImage" /><dc:title></dc:title></cc:Work></rdf:RDF></metadata><defs
   id="defs314">






</defs>

<rect
   y="0.95833379"
   x="5.0074851e-007"
   height="398.95831"
   width="696.875"
   id="rect5536"
   style="fill:#ffffff;fill-opacity:1;stroke:#444444;stroke-width:0;stroke-linecap:butt;stroke-linejoin:bevel;stroke-miterlimit:4;stroke-dasharray:none;stroke-opacity:1;paint-order:markers stroke fill" /><path
   id="path1101"
   style="clip-rule:evenodd;fill:#f7b62d;fill-rule:evenodd;stroke-width:0.55350691"
   d="m 89.447827,172.28532 c -1.49447,-1.10701 -1.27306,0.77491 -1.27306,-7.08489 0,-2.93358 0.1107,-5.97787 -0.38746,-8.85611 -6.19928,-0.99631 -28.78236,-2.54613 -32.93366,1.38377 1.38377,2.26938 1.43912,1.05166 4.1513,2.10333 -2.98894,3.59779 -5.81182,10.51663 -8.63471,13.94837 -3.43174,4.1513 -29.33586,3.98525 -37.02961,8.96681 -5.0369095,3.26569 -4.5940995,10.40593 -5.2583095,17.54617 l -4.37271,0.38745 c 0,10.51664 -1.99262,8.57936 19.8155495,12.56461 8.35795,1.54982 19.09599,3.92989 27.28789,4.76016 1.21772,-8.52401 0.49816,-12.61996 6.53138,-18.09968 13.33952,-12.1218 29.50192,-6.80813 35.03699,1.21772 4.5941,6.75278 5.09226,10.51663 4.4834,20.03694 l 14.501893,-0.1107 0.60886,-4.7048 c 1.77122,0.0554 2.71218,0.27675 4.31735,-0.2214 4.81551,-1.43912 -3.59779,1.43911 1.71587,-0.83026 3.43174,-1.49447 2.65683,-0.55351 5.97788,-1.16237 1.27306,-0.2214 2.71218,-0.83026 4.87086,-0.88561 6.03322,-0.1107 12.4539,2.82289 18.26572,1.82657 l 0.66421,-5.70112 c -3.54244,0.1107 -4.31735,0.77491 -6.19928,-1.05166 1.10702,-5.47972 5.03692,0.4428 8.80076,-4.262 -0.16605,-0.11071 -0.4428,-0.44281 -0.49815,-0.27676 -0.1107,0.16605 -0.38746,-0.2214 -0.55351,-0.27675 -0.16605,-0.0554 -0.38745,-0.16605 -0.55351,-0.2214 l -25.35061,-0.16606 c -0.94096,-14.72328 1.77122,-24.96316 -17.21407,-18.98528 0.0554,-6.25463 0.99632,-5.47972 -3.65315,-8.57936 -3.431743,-2.26938 -3.487093,-2.76753 -8.357953,-3.76385 -1.49447,-12.73065 3.04429,-19.98159 -5.53507,-21.80817 0.0554,4.64946 2.32473,2.98894 2.26938,10.57198 0,2.04798 0,3.98525 0,6.03323 0,0.27675 0,2.93358 0,2.98894 -0.44281,2.43543 0.27675,1.71587 -1.49447,2.71218 z"
   class="st4" /><path
   id="path1103"
   style="clip-rule:evenodd;fill:#d99900;fill-rule:evenodd;stroke-width:0.55350691"
   d="m 8.1930175,199.79461 -0.0553,0.60886 -4.37271,0.38745 c 0,10.51664 -1.99262,8.57936 19.8155495,12.56461 8.35796,1.54982 19.09599,3.9299 27.28789,4.76016 0.83026,-5.64577 0.77491,-9.35427 2.43543,-12.84136 0.1107,0.2214 0.27675,0.44281 0.44281,0.60886 -0.88561,1.38377 -1.54982,2.49078 -1.49447,2.43543 z m 83.0813795,0 c 0.38746,0.44281 0.77491,0.94096 1.10702,1.43912 4.5941,6.75278 5.09226,10.51663 4.4834,20.03695 l 14.501893,-0.11071 0.60886,-4.7048 c 1.77122,0.0554 2.71218,0.27675 4.31735,-0.2214 4.81551,-1.43912 -3.59779,1.43911 1.71587,-0.83026 3.43174,-1.49447 2.65683,-0.55351 5.97788,-1.16237 1.27306,-0.2214 2.71218,-0.83026 4.87086,-0.88561 1.38376,-0.0553 2.82288,0.1107 4.262,0.33211 v -10.35058 l -9.68637,-0.0554 c -0.0553,-1.21772 -0.1107,-2.32473 -0.16605,-3.4871 z"
   class="st0" /><path
   id="path1105"
   style="clip-rule:evenodd;fill:#595857;fill-rule:evenodd;stroke-width:0.55350691"
   d="m 226.05333,188.83518 -4.26201,-16.66056 -119.72353,-0.44281 -4.428063,-13.83767 -5.53507,-0.0554 c 0.22141,5.75647 17.490833,55.01859 19.317403,63.32119 0,0 93.93012,-0.27675 96.4209,-1.16236 0,-0.0554 14.72327,-29.61262 18.21037,-31.16244 z"
   class="st8" /><path
   id="path1107"
   style="clip-rule:evenodd;fill:#717171;fill-rule:evenodd;stroke-width:0.55350691"
   d="m 225.77657,187.83886 -3.98524,-15.60889 -119.72354,-0.44281 -4.428063,-13.83767 -5.53507,-0.0554 c 0.11071,2.82289 4.31736,16.1624 8.800763,30.00008 h 124.87116 z"
   class="st1" /><path
   id="path1109"
   style="clip-rule:evenodd;fill:#2f2328;fill-rule:evenodd;stroke-width:0.55350691"
   d="m 70.407187,193.09718 c -31.88199,5.75647 -21.80817,52.25105 9.29892,45.66431 11.7897,-2.49078 22.029573,-13.78232 18.59783,-28.17349 -2.49078,-10.73804 -13.67162,-20.03695 -27.89675,-17.49082 z"
   class="st13" /><path
   id="path1111"
   style="clip-rule:evenodd;fill:#888888;fill-rule:evenodd;stroke-width:0.55350691"
   d="m 72.012357,205.10828 c -15.77494,4.64946 -8.4133,25.73807 6.08858,21.53141 14.88934,-4.262 7.9705,-25.73806 -6.08858,-21.53141 z"
   class="st10" /><path
   id="path1113"
   style="clip-rule:evenodd;fill:#2f2328;fill-rule:evenodd;stroke-width:0.55350691"
   d="m 135.88706,193.09718 c -31.88199,5.75647 -21.80817,52.25105 9.29892,45.66431 11.7897,-2.49078 22.02957,-13.78232 18.59783,-28.17349 -2.49078,-10.73804 -13.67162,-20.03695 -27.89675,-17.49082 z"
   class="st13" /><path
   id="path1115"
   style="clip-rule:evenodd;fill:#888888;fill-rule:evenodd;stroke-width:0.55350691"
   d="m 137.49223,205.10828 c -15.77494,4.64946 -8.4133,25.73807 6.08858,21.53141 14.88933,-4.262 7.9705,-25.73806 -6.08858,-21.53141 z"
   class="st10" /><path
   id="path1117"
   style="clip-rule:evenodd;fill:#2f2328;fill-rule:evenodd;stroke-width:0.55350691"
   d="m 187.08645,193.09718 c -31.882,5.75647 -21.80817,52.25105 9.29892,45.66431 11.78969,-2.49078 22.02957,-13.78232 18.59783,-28.17349 -2.54613,-10.73804 -13.72697,-20.03695 -27.89675,-17.49082 z"
   class="st13" /><path
   id="path1119"
   style="clip-rule:evenodd;fill:#888888;fill-rule:evenodd;stroke-width:0.55350691"
   d="m 188.63627,205.10828 c -15.77495,4.64946 -8.4133,25.73807 6.08858,21.53141 14.88933,-4.262 8.02585,-25.73806 -6.08858,-21.53141 z"
   class="st10" /><path
   id="path1121"
   style="clip-rule:evenodd;fill:#77c9e0;fill-rule:evenodd;stroke-width:0.55350691"
   d="m 54.189437,175.55101 19.31739,-0.3321 0.22141,-15.55355 -10.90409,-0.1107 c -1.49447,2.26938 -8.0812,13.67162 -8.63471,15.99635 z"
   class="st14" /><path
   id="path1143"
   style="clip-rule:evenodd;fill:#888888;fill-rule:evenodd;stroke-width:0.55350691"
   class="st10"
   d="m 586.497,147.32216 h 52.3064 v 42.39863 H 586.497 Z" /><path
   id="path1145"
   style="clip-rule:evenodd;fill:#d99900;fill-rule:evenodd;stroke-width:0.55350691"
   class="st0"
   d="m 532.6408,203.28171 h 32.15873 v 10.01847 H 532.6408 Z" /><path
   id="path1147"
   style="clip-rule:evenodd;fill:#f6af00;fill-rule:evenodd;stroke-width:0.55350691"
   class="st16"
   d="M 559.70727,187.06395 H 682.5858 v 38.24732 H 559.70727 Z" /><path
   id="path1149"
   style="clip-rule:evenodd;fill:#faca6e;fill-rule:evenodd;stroke-width:0.55350691"
   class="st17"
   d="M 559.70727,187.06395 H 682.5858 v 7.14024 H 559.70727 Z" /><path
   id="path1151"
   style="clip-rule:evenodd;fill:#f6af00;fill-rule:evenodd;stroke-width:0.55350691"
   class="st16"
   d="m 628.89563,147.21146 h 53.13666 v 46.99273 h -53.13666 z" /><path
   id="path1153"
   style="clip-rule:evenodd;fill:#d99900;fill-rule:evenodd;stroke-width:0.55350691"
   class="st0"
   d="m 628.89563,147.21146 h 9.90777 v 46.99273 h -9.90777 z" /><path
   id="path1155"
   style="clip-rule:evenodd;fill:#3e3a39;fill-rule:evenodd;stroke-width:0.55350691"
   d="m 509.61492,194.647 c 1.77122,2.38008 4.09595,3.54244 6.19927,4.4834 -3.09964,9.79708 -10.23987,22.30633 -13.83767,32.15875 -2.32473,6.30998 -2.71218,2.93359 -6.69743,4.92621 -2.15868,1.05167 -1.32842,0 -1.88193,2.15868 4.64946,1.77122 24.07755,0.55351 29.94473,-0.33211 23.91149,-3.43174 21.08861,-27.34323 9.96312,-36.5868 -4.87086,-4.09595 -15.8303,-8.524 -21.47607,-7.52769 -3.15499,0.55351 -0.99631,0.0554 -2.21402,0.71956 z"
   class="st12" /><path
   id="path1157"
   style="clip-rule:evenodd;fill:#888888;fill-rule:evenodd;stroke-width:0.55350691"
   d="m 509.61492,194.647 c 1.77122,2.38008 4.09595,3.54244 6.19927,4.4834 -3.09964,9.79708 -10.23987,22.30633 -13.83767,32.15875 -2.32473,6.30998 -2.71218,2.93359 -6.69743,4.92621 -2.15868,1.05167 -1.32842,0 -1.88193,2.15868 2.54614,0.99631 5.59042,1.16236 12.45391,0.88561 0,0 20.03695,-38.13662 20.203,-42.12187 -3.76385,-1.32842 -11.56829,-3.65315 -14.22513,-3.15499 -3.15499,0.49816 -0.99631,0 -2.21402,0.66421 z"
   class="st10" /><path
   id="path1159"
   style="clip-rule:evenodd;fill:#2f2328;fill-rule:evenodd;stroke-width:0.55350691"
   d="m 666.09129,197.19313 c -28.00745,3.8192 -23.19194,44.50195 5.53507,41.56836 27.7307,-2.82288 23.35799,-45.49826 -5.53507,-41.56836 z"
   class="st13" /><path
   id="path1161"
   style="clip-rule:evenodd;fill:#888888;fill-rule:evenodd;stroke-width:0.55350691"
   d="m 666.36804,208.20792 c -13.61626,3.76384 -8.1919,22.52772 4.98157,19.53879 13.50557,-3.04429 8.3026,-23.19194 -4.98157,-19.53879 z"
   class="st10" /><path
   id="path1163"
   style="clip-rule:evenodd;fill:#2f2328;fill-rule:evenodd;stroke-width:0.55350691"
   d="m 584.17227,197.52523 c -28.61628,5.14762 -19.53879,46.88203 8.35796,41.01486 10.57198,-2.21403 19.76019,-12.3432 16.7159,-25.29526 -2.32473,-9.63102 -12.3432,-18.04433 -25.07386,-15.7196 z"
   class="st13" /><path
   id="path1165"
   style="clip-rule:evenodd;fill:#888888;fill-rule:evenodd;stroke-width:0.55350691"
   d="m 585.61139,208.31862 c -14.11443,4.20665 -7.58304,23.08123 5.47972,19.31739 13.33951,-3.8192 7.14024,-23.08124 -5.47972,-19.31739 z"
   class="st10" /><path
   id="path1167"
   style="clip-rule:evenodd;fill:#f6af00;fill-rule:evenodd;stroke-width:0.55350691"
   class="st16"
   d="m 533.19431,201.45513 h 5.31367 v 15.94099 h -5.31367 z" /><path
   id="path1169"
   style="clip-rule:evenodd;fill:#e50013;fill-rule:evenodd;stroke-width:0.55350691"
   d="m 655.40861,136.14132 v 0 c 2.38008,0 4.31735,1.88192 4.31735,4.20665 v 4.20665 c 0,0.38746 -0.0553,0.77491 -0.16605,1.10702 h -8.35795 c -0.11071,-0.33211 -0.16606,-0.71956 -0.16606,-1.10702 v -4.20665 c 0.0554,-2.32473 1.99263,-4.20665 4.37271,-4.20665 z"
   class="st7" /><path
   id="path1171"
   style="clip-rule:evenodd;fill:#888888;fill-rule:evenodd;stroke-width:0.55350691"
   class="st10"
   d="m 649.92889,144.55462 h 10.95944 v 2.76754 h -10.95944 z" /><path
   id="path1173"
   style="clip-rule:evenodd;fill:#595857;fill-rule:evenodd;stroke-width:0.55350691"
   class="st8"
   d="m 580.02097,147.59891 h 48.81931 v 8.46866 h -48.81931 z" /><g
   id="g1187"
   transform="matrix(0.55350689,0,0,0.55350689,-40.460233,79.73897)"><path
     id="path1175"
     style="clip-rule:evenodd;fill:#c8c9ca;fill-rule:evenodd"
     d="m 635.6,288.4 c 38.3,0 69.6,-30.2 69.6,-67.3 0,-37.1 -31.3,-67.3 -69.6,-67.3 -38.3,0 -69.6,30.2 -69.6,67.3 0,37.1 31.2,67.3 69.6,67.3 z"
     class="st18" /><path
     id="path1177"
     style="clip-rule:evenodd;fill:#eeeeef;fill-rule:evenodd"
     d="m 635.6,282.7 c 35,0 63.6,-27.6 63.6,-61.5 0,-33.9 -28.6,-61.5 -63.6,-61.5 -35,0 -63.6,27.6 -63.6,61.5 -0.1,33.8 28.5,61.5 63.6,61.5 z"
     class="st9" /><g
     id="g1185"><path
       id="path1179"
       style="clip-rule:evenodd;fill:#231916;fill-rule:evenodd"
       d="m 635.6,274.5 c 30.3,0 55,-23.9 55,-53.2 0,-29.3 -24.7,-53.2 -55,-53.2 -30.3,0 -55,23.9 -55,53.2 0,29.3 24.7,53.2 55,53.2 z"
       class="st5" /><path
       id="path1181"
       style="clip-rule:evenodd;fill:#9e9e9f;fill-rule:evenodd"
       d="m 635.6,242.4 c 12,0 21.9,-9.5 21.9,-21.2 0,-11.7 -9.8,-21.2 -21.9,-21.2 -12,0 -21.9,9.5 -21.9,21.2 0,11.7 9.8,21.2 21.9,21.2 z"
       class="st2" /><path
       id="path1183"
       style="clip-rule:evenodd;fill:#3e3a39;fill-rule:evenodd"
       d="m 635.6,228.6 c 4.1,0 7.5,-3.3 7.5,-7.3 0,-4 -3.4,-7.3 -7.5,-7.3 -4.1,0 -7.5,3.3 -7.5,7.3 -0.1,4 3.3,7.3 7.5,7.3 z"
       class="st12" /></g></g><path
   id="path1189"
   style="clip-rule:evenodd;fill:#f29927;fill-rule:evenodd;stroke-width:0.55350691"
   d="m 396.86556,155.84617 -2.82288,9.63102 c -1.16238,2.71218 -1.77123,7.14023 -2.98895,9.85242 -1.82657,0.71956 -15.22144,0.4428 -18.48712,0.3321 l -17.98897,0.1107 -3.65316,-0.1107 h -15.33214 c -1.43912,1.49447 8.85612,15.49819 23.0259,15.49819 2.38007,0 4.76015,0 7.08488,0 2.60148,0 4.59411,-0.49815 5.75647,1.21772 l 0.16605,13.45022 c -3.4871,1.60517 -9.79707,0.88561 -14.33582,0.88561 -16.16241,0 -13.89303,-4.262 -14.44654,3.8192 8.46866,-0.22141 17.43547,0 26.01483,0 4.98156,0 22.97053,-0.60886 26.45762,0.2214 -4.09595,-13.61627 4.64947,-24.74176 15.60891,-27.34324 6.80813,-1.60517 13.56092,0.0554 18.09967,3.37639 5.86718,4.31735 5.97788,6.08858 8.91146,13.56092 1.99263,-2.65683 2.71219,-6.14393 4.0406,-9.68637 0.66421,-1.82657 1.32842,-3.43174 1.82658,-5.09226 1.27306,-4.09595 4.53875,-10.73804 -1.27307,-15.77495 -3.9299,-3.43174 -6.75278,-2.38008 -9.63102,-4.262 l -4.31735,-0.77491 0.0553,-21.53142 -0.2214,21.14396 z"
   class="st19" /><path
   id="path1191"
   style="clip-rule:evenodd;fill:#f9bc00;fill-rule:evenodd;stroke-width:0.55350691"
   d="m 292.6402,206.8795 2.10333,0.0554 h 8.52401 30.11077 c 2.71219,0.1107 6.03323,0.44281 8.63472,-0.27675 1.38376,-0.27676 12.61995,0.1107 15.22143,0.1107 4.53877,0 10.84873,0.77491 14.33583,-0.88561 l -0.16605,-13.45022 c -1.16237,-1.71587 -3.15499,-1.21771 -5.75648,-1.21771 -2.38007,0 -4.76016,0 -7.08488,0 -4.81551,0 -9.57567,0 -14.39117,0 l -18.04433,-0.0554 c -1.66052,-2.26938 -1.38377,-5.03692 -6.30998,-5.64577 -3.54244,-0.44281 -8.57935,-0.1107 -12.28786,-0.16606 h -10.84873 l -1.71587,-0.27675 c -2.10332,0.60886 -5.59042,-0.27675 -7.7491,0.49816 -2.60148,0.88561 -2.71218,9.68637 -3.26569,13.61627 -1.10702,8.3026 -0.83026,7.97049 8.69005,7.69374 z"
   class="st20" /><path
   id="path1193"
   style="clip-rule:evenodd;fill:#100408;fill-rule:evenodd;stroke-width:0.55350691"
   d="m 390.55558,163.31851 v 0.77491 c -0.94097,0.99631 -0.83026,3.43174 -1.93728,4.81551 0,1.54982 -0.1107,1.60517 -0.77491,2.60148 -2.43543,1.27307 -36.91891,0.27675 -39.79715,0.2214 0.11071,-2.10332 5.42437,-18.09967 6.53139,-19.48344 1.99263,0.55351 4.76016,2.21403 6.64208,1.21772 -0.16604,-2.04798 -2.65683,-2.15868 -7.36164,-3.5978 -1.93728,-0.60886 -6.86349,-2.76753 -8.57936,-1.93727 0,1.82657 0.44281,1.54982 2.60148,2.21402 1.16238,0.33211 2.43543,0.77491 3.65315,1.10702 l -6.75279,20.25835 c -0.1107,0.0554 -0.2214,0.16605 -0.27675,0.2214 l -0.66421,0.33211 c -5.70112,1.71587 -16.27309,-4.64946 -21.53141,-7.8598 l -0.71955,4.64946 2.87823,0.88561 c 1.27307,1.54982 5.97788,3.9299 7.97049,4.53876 l 2.21403,1.10701 0.94096,0.38745 h 15.33214 c 5.75647,0.22141 38.08127,0.49816 40.12925,-0.3321 1.27307,-2.71218 1.82657,-7.14024 2.98894,-9.85242 l 2.82288,-9.63102 c 0.27676,-3.09964 2.38008,-7.3063 2.15868,-10.07383 l -5.14761,-19.09599 c -0.44281,-1.54982 -1.71588,-8.6347 -3.21034,-9.40961 -1.16237,-0.60886 -44.66801,-0.94097 -45.55362,0.4428 -2.65683,4.20665 5.36901,3.21034 7.69374,3.21034 5.59042,0 33.37647,-0.4428 34.70489,0.16605 1.77122,1.43912 5.47971,17.26942 6.42068,20.59046 1.60517,5.59042 1.16236,5.36902 -0.38746,10.84873 -1.10701,3.43175 -2.26938,7.1956 -2.98893,10.68269 z"
   class="st21" /><path
   id="path1195"
   style="clip-rule:evenodd;fill:#7d8785;fill-rule:evenodd;stroke-width:0.55350691"
   d="m 379.65149,171.89787 0.22141,0.0553 -0.44281,-9.02217 0.44281,9.02217 c 2.54613,0.16605 5.86716,0.6642 7.91514,-0.44281 l -5.75646,0.0554 c 0.94095,-1.54982 1.16235,-3.48709 1.77121,-5.47972 l 0.77491,-2.15868 c 0.27676,-1.49446 -0.2214,-0.5535 0.60887,-1.99262 0.94095,-6.80814 7.80444,-22.30633 4.98155,-24.85246 -1.54982,-1.38377 -4.31735,-0.77491 -5.25832,1.05166 -1.10701,2.15868 -3.87454,15.99635 -5.42435,18.87459 -3.43176,0.4428 -14.77865,-1.27307 -15.71961,1.43912 -1.38377,4.0406 8.1919,1.77122 14.66794,2.54613 -0.16606,1.82657 -0.83027,3.98525 -1.77123,5.09226 l 0.1107,-0.27675 -14.44653,0.1107 -0.27675,-0.27675 c -1.38377,0.1107 -2.60147,0.27675 -3.7085,0.5535 -0.33209,0.71956 -3.04429,4.0406 -0.33209,5.20297 -2.21404,0.27675 -3.65316,-0.22141 -5.42437,0.49815 2.15868,0.33211 12.2325,0 18.04433,0.44281 0.71954,0.0554 1.54981,0.1107 1.66051,0.1107 4.31735,-0.66421 -0.16605,-0.38745 6.30997,-0.49816 0.27677,-0.0554 0.66421,-0.0554 1.05167,-0.0553 z"
   class="st22" /><path
   id="path1197"
   style="clip-rule:evenodd;fill:#7d8785;fill-rule:evenodd;stroke-width:0.55350691"
   d="m 328.06466,167.08236 c 1.38376,1.60517 4.4834,2.54613 6.19927,3.54244 2.38007,0.88561 6.58673,2.21403 9.52031,1.32842 l 0.66422,-0.33211 c 0.0554,-0.0553 0.2214,-0.1107 0.27674,-0.2214 l -4.04059,0.3321 -0.0553,-14.00372 c -2.10332,-0.99631 -5.64577,-0.77491 -6.47603,-0.27675 -1.60517,0.99631 -4.04059,9.35426 -6.08856,9.63102 z"
   class="st22" /><path
   id="path1199"
   style="clip-rule:evenodd;fill:#100408;fill-rule:evenodd;stroke-width:0.55350691"
   d="m 428.58151,143.22621 -0.0554,21.53142 4.31735,0.77491 c -0.44281,-4.37271 -0.1107,-10.12918 -0.1107,-14.66794 0,-2.04797 -0.33211,-5.20296 0.4428,-6.86348 0.94097,-1.99263 2.60149,-1.93728 3.3764,-4.262 -0.49816,-1.38377 -1.05167,-2.04798 -2.49078,-2.43544 -1.49447,0.49816 -4.92622,4.31736 -5.47972,5.92253 z"
   class="st21" /><path
   id="path1201"
   style="clip-rule:evenodd;fill:#7d8785;fill-rule:evenodd;stroke-width:0.55350691"
   d="m 437.49297,209.03818 c 6.03322,-1.16237 12.39855,-0.33211 11.07014,-7.30629 -1.60517,-1.27307 -1.60517,-1.27307 -4.26201,-1.27307 -2.15867,0 -4.31735,0 -6.47603,-0.0554 0.0553,3.48709 0.16605,5.03691 -0.3321,8.63471 z"
   class="st22" /><path
   id="path1203"
   style="clip-rule:evenodd;fill:#edc542;fill-rule:evenodd;stroke-width:0.55350691"
   d="m 321.47792,168.74288 0.71956,-4.64946 c -0.1107,-0.1107 -0.4428,-0.66421 -0.49815,-0.71956 -0.83026,-0.77491 0.0553,-0.3321 -1.10702,-0.66421 -0.0553,-0.3321 0.71956,-1.93727 -3.32104,-1.38377 v 9.13287 c 2.60148,0.16605 2.32473,-0.88561 4.20665,-1.71587 z"
   class="st23" /><path
   id="path1205"
   style="clip-rule:evenodd;fill:#f9bc00;fill-rule:evenodd;stroke-width:0.55350691"
   d="m 320.59231,162.6543 c -1.38376,-0.44281 -0.94096,-0.44281 -2.43543,-0.16605 -0.49815,2.82288 -0.1107,3.70849 0.38746,5.97787 0.99631,-0.38745 3.32104,-1.66052 2.32473,-2.43543 0,0 -0.16606,-0.0554 -0.22141,-0.1107 z"
   class="st20" /><path
   id="path1207"
   style="clip-rule:evenodd;fill:#231916;fill-rule:evenodd;stroke-width:0.55350691"
   d="m 416.95785,233.89063 c 16.77127,0 30.44289,-13.22881 30.44289,-29.44656 0,-16.21775 -13.67162,-29.44657 -30.44289,-29.44657 -16.77126,0 -30.44288,13.22882 -30.44288,29.44657 0,16.21775 13.67162,29.44656 30.44288,29.44656 z"
   class="st5" /><path
   id="path1209"
   style="clip-rule:evenodd;fill:#9e9e9f;fill-rule:evenodd;stroke-width:0.55350691"
   d="m 416.95785,216.17842 c 6.6421,0 12.12181,-5.25832 12.12181,-11.73435 0,-6.47603 -5.42436,-11.73435 -12.12181,-11.73435 -6.64208,0 -12.12179,5.25832 -12.12179,11.73435 0,6.47603 5.42436,11.73435 12.12179,11.73435 z"
   class="st2" /><path
   id="path1211"
   style="clip-rule:evenodd;fill:#3e3a39;fill-rule:evenodd;stroke-width:0.55350691"
   d="m 416.95785,208.48467 c 2.26938,0 4.15131,-1.82657 4.15131,-4.0406 0,-2.21403 -1.88193,-4.0406 -4.15131,-4.0406 -2.26938,0 -4.1513,1.82657 -4.1513,4.0406 -0.0554,2.26938 1.82657,4.0406 4.1513,4.0406 z"
   class="st12" /></svg>