<?xml version="1.0" encoding="UTF-8" standalone="no"?>
<svg
   xmlns:dc="http://purl.org/dc/elements/1.1/"
   xmlns:cc="http://creativecommons.org/ns#"
   xmlns:rdf="http://www.w3.org/1999/02/22-rdf-syntax-ns#"
   xmlns:svg="http://www.w3.org/2000/svg"
   xmlns="http://www.w3.org/2000/svg"
   height="170"
   width="500"
   version="1.1"
   id="Layer_1"
   x="0px"
   y="0px"
   viewBox="0 0 500 170"
   enable-background="new 0 0 851 160"
   xml:space="preserve"><metadata
   id="metadata1031"><rdf:RDF><cc:Work
       rdf:about=""><dc:format>image/svg+xml</dc:format><dc:type
         rdf:resource="http://purl.org/dc/dcmitype/StillImage" /><dc:title></dc:title></cc:Work></rdf:RDF></metadata><defs
   id="defs1029" />
<g
   style="stroke-width:0.94062638"
   transform="matrix(1.1272222,0,0,1.0026661,-3.0438844,2.896889)"
   id="g1024">
	<path
   style="fill:#c46d01;stroke-width:0.68084598"
   d="m 437.8,59.9 c 1.5,7.7 2.9,15.4 2.9,23.2 -4.3,2.2 -9,2.7 -13.8,2.8 -13.8,0.2 -27.6,1.8 -41.5,1.5 -9,-0.3 -17.9,-0.9 -26.9,-0.8 -20.7,0.3 -41.4,1 -62.1,1.7 -9.1,0.3 -18.2,0.1 -27.3,0.6 -14.5,0.8 -28.9,0.1 -43.4,-0.2 -17.1,-0.4 -34.2,-1 -51.2,-2 -7.6,-0.4 -15.2,-0.2 -22.9,-0.1 -10.8,0.2 -21.5,-0.4 -32.1,-1.7 C 112.8,84.1 106,84.6 99.3,83.6 86.1,81.7 72.7,82.3 59.3,81.5 52.6,81.1 45.9,81.9 39.2,82.4 33.6,82.8 28,83.6 22.6,81.4 21,78.5 19.8,75.6 22,72.5 c 13.7,-0.7 27.4,-1.5 41,-2 3.6,-0.1 7.1,0 10.6,-0.1 -16.6,-0.4 -33,0 -49.4,-1 -1,-0.1 -2,-0.1 -2.9,-0.5 -2.7,-2.8 -3.4,-6.5 -4.5,-10 -0.2,-0.8 0.2,-1.5 1,-1.8 2,-0.6 3.8,-0.1 5.3,1 4,3.1 8.3,3.6 13.3,3.2 9.6,-0.6 19.2,-0.1 28.9,-0.3 7.1,-0.2 14.2,-0.3 21.2,-1.9 2,-0.4 4,-0.3 6,-0.3 42.4,0 84.7,-0.2 127.1,0 11.1,0 22.3,-0.4 33.4,-0.2 11.1,0.2 22.2,0 33.4,0 11.2,0 22.5,0 33.7,0.1 11.1,0 22.3,-0.5 33.4,0.3 10.9,0.8 21.8,0.9 32.7,2 0.8,0.1 1.7,0 2.5,0 -1.1,-0.5 -2.9,0.9 -3.5,-1.1 0.9,-1 2.2,-1.1 3.4,-1.1 5,0 10.1,-0.3 15.1,0.2 2.3,0.8 4.7,0.6 7,0.6 8.3,-0.2 16.6,0.2 24.9,-0.2 0.8,0.1 1.5,0.2 2.2,0.5 z"
   id="path924" />
	<path
   style="fill:#c46c01;stroke-width:0.68084598"
   d="m 442.1,126.7 c 0.3,3 0.9,6 0,9 -0.4,0.3 -0.8,0.4 -1.3,0.2 -2.2,-0.4 -4.5,-0.5 -6.7,-0.4 -13.2,0.4 -26.4,-0.3 -39.5,-0.1 -20.5,0.3 -40.9,-1 -61.4,-0.7 -22.1,0.3 -44.2,1.6 -66.1,4.7 -21.3,3.1 -42.6,3 -63.8,-0.7 -12.2,-2.1 -24.4,-1.7 -36.6,-0.6 -13.1,1.2 -26.2,1.4 -39.3,0.8 -2.3,-0.8 -4.9,-1.8 -4.8,-4.5 0.1,-2.8 3.4,-2.3 5.3,-3 1.3,-0.5 2.7,-0.4 4,-0.5 0.1,0 0.5,0 0.2,-0.1 -0.3,-0.2 -0.5,-0.4 -0.6,-0.8 1,-1.7 2.7,-0.7 4,-1.1 -4.7,0.2 -9.6,0.3 -14.3,1.8 -2.8,0.9 -5.3,1.8 -7,4.5 -1.2,1.9 -3.4,2.6 -5.5,2.9 -6.7,0.9 -13.3,1.1 -20.1,0.6 -9.7,-0.6 -19.4,-1.2 -29.1,-1.2 -6.1,0 -12.2,-0.2 -18.1,-2.2 -4.3,-2.1 -8.8,-2.9 -13.6,-1.4 -2.4,0.2 -4.7,-0.3 -6.9,-0.8 -1.8,-0.4 -3.2,-1.3 -3.5,-3.3 0.7,-5.5 0.5,-11.1 1.5,-16.6 5.7,-0.9 11,1.4 16.6,1.5 12.9,0.2 25.4,4.3 38.3,4.8 8.2,0.3 16.4,0.5 24.6,-0.2 6.4,-0.5 12.8,-2.1 19.3,-0.5 1.4,0.4 3,0.3 4.3,-0.7 4.4,-0.6 8.6,1 12.9,1.5 4,1.8 8.4,1 12.5,1.5 14.3,1.6 28.6,2.1 43,1.5 10.8,-0.5 21.7,-0.9 32.4,-2 3.6,-0.4 7.3,0.4 10.8,-0.7 2.2,-0.4 4.5,-0.3 6.7,-0.3 23.5,0 46.9,0 70.4,0 8.5,0 16.9,-1.1 25.1,-3.4 9,-0.6 17.9,0.7 26.9,0.9 1.7,0 3.5,0.4 5.2,0.4 12.7,0 25.3,1.6 38,2 7.4,0.2 14.3,1.6 21.2,3.8 3,1 6,-0.1 8.9,0.2 2.8,0.2 5.3,0.2 6.1,3.2 z"
   id="path926" />
	<path
   style="fill:#c26c01;stroke-width:0.68084598"
   d="m 438.5,41.9 c -0.1,1.9 -0.5,3.6 -1.4,5.3 -8.2,0.8 -16.4,0.7 -22.6,0.9 4.6,-0.4 11.2,0.1 17.9,-0.4 1.5,-0.1 3,-0.3 4.4,0.5 0.2,2.4 1.4,4.7 0.8,7.2 -2.4,-0.9 -4.8,-1.1 -7.3,-1 -8.2,0.2 -16.5,-0.6 -24.6,1.4 -5.2,1.3 -10.5,0.3 -15.7,-0.2 -12.9,-1.3 -25.8,-2.7 -38.8,-2.7 -5.9,0 -11.7,-0.9 -17.6,-0.7 -18.6,0.8 -37.2,0.2 -55.8,0.9 -14.9,0.6 -29.7,-0.1 -44.6,0.6 -23.7,1.2 -47.5,-0.1 -71.2,0.8 -20.7,0.8 -41.5,0.4 -62.2,0.6 -7.6,0 -15.1,0.2 -22.8,-1.2 -9.9,-1.7 -19.6,1.4 -29.2,3.5 -3.5,0.8 -7.1,1.7 -10.7,1.4 -2.1,-0.2 -3.7,-0.9 -3.7,-3.3 0,-3.2 -1.9,-3.9 -4.6,-4.1 -4.5,-0.3 -9,0.7 -13.4,-0.7 -2.8,-3.2 -2.3,-6.8 -0.9,-10.4 5.1,-1.8 10.4,-1 15.5,-0.7 18.3,1.2 36.7,1.1 55,1 13,-0.1 25.9,-1.6 38.9,0 1.2,0.2 2.5,0.1 3.7,0.1 27,0.2 53.9,-0.3 80.9,-1.3 3.6,-0.1 7.2,0.8 10.8,0.6 25.2,-1.2 50.5,-1 75.7,-0.6 16.9,0.3 33.7,0.3 50.6,0.8 10.5,0.3 20.9,1.9 31.3,2.1 13.5,0.2 26.9,-1.2 40.3,-2.6 5.2,-0.6 10.5,-0.5 15.7,-0.1 2.1,0.1 4.6,-0.2 5.6,2.3 z"
   id="path928" />
	<path
   style="fill:#c36c03;stroke-width:0.68084598"
   d="m 438.3,21 c 1.6,0 2.3,0.9 2.6,2.4 0.5,3.4 0.9,6.8 0,10.1 -3.9,-0.8 -7.9,-1 -11.9,-0.9 -10.8,0.1 -21.6,-1.3 -31.7,-0.8 1,0.4 4.4,-0.2 4.2,2.2 -0.2,2.4 -3.5,2.1 -5.7,2.3 -9.9,0.7 -19.7,-1 -29.5,-1.7 -21.8,-1.7 -43.6,-2.9 -65.5,-1.3 -2,0.1 -4,0.1 -6,0.1 -29.2,-0.1 -58.5,0.5 -87.7,1 -22.2,0.4 -44.5,-0.2 -66.7,0.6 -26.2,1 -52.5,0 -78.7,0.9 C 50,36.3 38.4,35.7 26.8,37 c -3.7,0.4 -7.5,0.6 -11,-1.2 -2.1,-4.2 -0.5,-8.1 3.8,-9.3 2,0.3 4,0.1 6,0.2 15.1,0.4 30.2,1 45.3,0.7 6,-0.1 12,-1.1 17.8,-2.5 14.2,-3.5 28.6,-4.7 43.1,-4.1 9.7,0.4 19.4,0.9 29.1,1.8 5.8,0.6 11.7,0.7 17.6,0.9 32.6,1.2 65.2,1 97.8,0.9 9.2,0 18.5,-0.2 27.7,0 13.4,0.2 26.7,-1 40,-2.6 5.6,-0.7 11.2,-0.7 16.8,-1.1 5.7,-0.4 11.4,-0.1 17.2,-0.6 7.1,-0.6 14.1,1.4 21.2,1.7 8.1,0.4 16.2,1.2 24.1,-1.2 3.9,-1.2 7.9,-0.9 11.8,-0.1 1,0.2 2.1,0.5 3.2,0.5 z"
   id="path930" />
	<path
   style="fill:#963706;stroke-width:0.68084598"
   d="m 134.8,120.1 c -4.4,0.3 -8.5,-1.4 -12.8,-1.6 -0.2,0.1 -0.4,0.4 -0.6,0.3 -10.2,-1.4 -20.3,0.8 -30.4,1.1 -9.2,0.3 -18.4,-1 -27.5,-2.1 -14,-1.8 -28,-3.9 -42.1,-5.1 -0.6,-0.1 -1.2,-0.3 -1.8,-0.4 -2.1,-1.9 -4.3,-3.8 -2.2,-7 4.8,-1.3 9.7,-0.8 14.5,-0.4 8.3,0.6 16.5,2.7 25,2.1 1.1,-0.1 2.3,0.1 3.3,0.5 11.6,4.1 23.9,3.8 35.8,5.4 3.2,0.4 6.5,0.2 9.6,-0.8 2.7,-0.8 5.4,-0.6 8.2,-0.6 71.2,0 142.4,0 213.6,0.1 5,0 9.4,-1 13.4,-3.8 1.8,-1.3 3.7,-1.5 5.7,-1.2 18.2,2.5 36.5,4.3 54.8,5.4 9.5,0.6 18.9,1.5 28.4,2.1 2.4,-0.6 4.2,2.2 6.7,0.9 0.9,-0.2 1.8,-0.3 2.7,-0.2 3.3,0.4 1.4,3 2,4.6 -0.1,0.8 -0.1,1.6 -0.2,2.4 -1.2,1 -2.6,0.9 -3.9,0.7 -13.6,-2.5 -27.5,-2.3 -41.2,-3.6 -16,-1.4 -32.1,-1.5 -48.1,-2.8 -3.7,-0.3 -7.4,-0.1 -11.1,1 -6.6,3.1 -13.8,3.4 -20.7,3.6 -27.4,0.4 -54.7,0.2 -82.1,0.3 -4.7,0.9 -9.4,-0.2 -14.1,0.1 -7.6,0.5 -15.2,0.9 -22.8,1 -9.2,0.1 -18.4,0.9 -27.7,0.6 -10.8,-0.3 -21.6,-1.5 -32.4,-1.9 -0.8,-0.2 -1.4,-0.4 -2,-0.7 z"
   id="path932" />
	<path
   style="fill:#600e04;stroke-width:0.68084598"
   d="m 16.9,105.8 c 0.1,2.3 1.5,4 2.4,6 0.4,0.5 0.4,1 0,1.4 0.8,5.5 -0.2,11 -0.9,16.5 -0.7,2.1 1.8,3.7 0.8,5.8 -0.2,0.9 -0.5,1.7 -0.9,2.6 -1.1,2.4 -0.2,3.4 2.3,3.4 1.5,0 2.9,0 4.4,0.3 4.4,1 8.9,1 13.4,1.2 10.1,0.4 20.2,0.2 30.3,1 1,0.1 2,0.3 3,0.2 13.7,-0.3 27.4,0.8 41.2,0.9 25.2,0.1 50.4,1.6 75.6,1.5 5.5,0 10.9,1.4 16.3,-0.8 5.9,2.6 12.1,0.8 18.1,1.5 11,1.3 22,0.7 32.9,0.7 21.1,-0.1 42.2,1.8 63.3,0.5 9.2,-0.6 18.1,1.9 27.2,1.3 1.8,0.6 3.7,0.5 5.5,0.5 10.7,0.1 21.3,-0.2 32,0.2 1.9,0.7 4,0.3 5.8,1.3 0.6,0.5 0.6,1.1 0.2,1.8 -28.5,0 -57,0.2 -85.5,0.1 -41.2,-0.2 -82.5,-0.5 -123.7,-1.1 -26.2,-0.3 -52.5,-1.4 -78.7,-1.7 -17.6,-0.2 -35.2,0.3 -52.9,0.5 -8.9,0.1 -17.7,-0.5 -26.6,-1.2 -2.2,-0.2 -4.5,-0.3 -6.7,-0.1 -5.5,0.6 -7.2,-0.2 -7.5,-5.5 -0.6,-9.3 0,-18.5 2.1,-27.6 0.3,-1.5 0.1,-2.3 -0.6,-3.6 -2.2,-3.9 -4.9,-8 -2.4,-12.6 1.2,-2.1 1.9,-4.2 2.7,-6.4 1.8,-4.7 1.4,-9.5 2.1,-14.3 C 12.9,75.2 11.2,70.8 10.3,66.2 9.8,63.6 7.5,61.3 9.1,58.4 9.2,58.2 8.8,57.4 8.5,57.1 4.6,53.3 5.2,48.5 5.2,43.8 5.2,41 4.8,38.1 5,35.3 5.2,31.4 6.4,27.7 9.5,25 c 3.9,-0.8 8,-2.2 11.4,1.4 -0.4,0.7 -0.9,1.1 -1.7,0.8 -3.9,1.6 -3.1,5.2 -3.7,8.2 0.9,1 1,2.2 0.7,3.4 -0.1,0.9 -0.7,1.4 -1.4,1.9 0,3.2 -0.7,6.5 0.7,9.7 1.4,1.5 2,3.4 2.2,5.3 0.1,0.8 -0.2,1.6 -0.6,2.3 0.8,3.6 3.2,6.7 3.6,10.4 1.9,0.7 2.1,2.2 1.9,3.9 -0.1,0.3 -0.4,0.5 -0.7,0.7 -0.9,2.8 0.6,5.5 0.2,8.3 0.4,0.5 0.4,1 0.2,1.6 -2.2,1.2 -2.4,3.3 -2.2,5.5 0,1.8 0,3.5 0,5.2 0,0.6 0,1.2 0,1.8 0,0.6 0,1.1 -0.1,1.7 -0.7,2.8 -3.4,5.2 -3.1,8.7 z"
   id="path934" />
	<path
   style="fill:#933905;stroke-width:0.68084598"
   d="m 19.3,93.8 c 0,-2 0,-4.1 0.1,-6.1 0.5,-0.5 1.2,-1 1.9,-1.1 9,-1.7 18,-3.1 25.3,-3.5 -5.3,0.8 -12.4,0.6 -19.5,0.6 -1.7,0 -3.5,0.3 -4.9,-1.2 0,-0.5 0,-0.9 0,-1.4 10.3,1.7 20.6,-0.5 30.8,-0.5 11,0 22,-0.5 32.9,0.8 17,2 34.2,2.4 51.2,4 10.1,1 20.5,0.1 30.7,0.3 15.7,0.4 31.4,0.6 47,1.6 9.9,0.7 19.7,0.1 29.5,0.7 14.7,0.8 29.4,0 44.1,-0.3 17.1,-0.4 34.1,-0.9 51.2,-1.6 11.6,-0.4 23.2,-0.7 34.8,-0.3 8.9,0.4 17.8,1 26.5,0.3 13.2,-1 26.6,-0.2 39.7,-2.9 -2.1,2.6 -5.3,3.6 -8,5.4 -0.8,1.3 -2.1,1.7 -3.5,1.8 -17.6,1.8 -35.2,3.2 -53,1 -10,-1.2 -20.2,-0.7 -30.3,0.1 -1.5,0.1 -3,0.4 -4.5,0.4 -16.8,-0.3 -33.7,0.8 -50.5,0.8 -6.8,0 -13.8,0 -20.5,0.8 -5.1,0.6 -10.4,0.3 -15.1,1.7 -12.5,3.6 -25,1.1 -37.5,1.7 -7.2,0.4 -14.5,0.3 -21.7,0.1 -1.4,0 -2.8,0.1 -4.1,-0.5 -1.4,-1.5 -3.1,-1.8 -5,-1.8 -3,0.1 -6,0.1 -9,0 -3.2,0.1 -6.5,0 -9.7,0 -7.5,-0.2 -15,0.9 -22.3,-1.2 -0.8,-0.2 -1.7,-0.3 -2.6,-0.3 -10.2,0.5 -20.4,-0.8 -30.7,-0.8 -13.2,0 -26.4,-1.7 -39.6,-1.3 -16.8,0.5 -33.6,0.9 -50.3,3.1 -1.1,0.3 -2.3,0.5 -3.4,-0.4 z"
   id="path936" />
	<path
   style="fill:#943905;stroke-width:0.68084598"
   d="m 431.7,14.9 c 0.6,0 1.4,-0.1 1.5,0.5 0.1,0.4 -0.6,0.9 -0.9,1.4 -0.5,2.1 -2.3,2.2 -3.9,2.2 -6,-0.1 -11.8,1.1 -17.7,2.6 -7.3,1.8 -14.9,-0.1 -22.3,-0.7 -12.8,-1.1 -25.7,-0.3 -38.5,0.3 -2.6,0.1 -5.2,0.3 -7.9,0.3 -18.4,-0.1 -36.7,1 -55,2.2 -17.7,1.1 -35.5,1.1 -53.2,0.7 -14.8,-0.3 -29.7,-0.9 -44.5,-1.4 -12.8,-0.5 -25.7,-1.3 -38.5,-1.9 -12.5,-0.6 -24.9,-0.6 -37.4,0.2 -11.7,0.8 -23.3,2.4 -34.8,4.6 -13.3,2.6 -26.9,1.7 -40.3,1.3 -3.2,-0.1 -6.5,0 -9.7,-0.1 -1.4,0 -2.8,0.2 -3.9,-0.9 -2.3,-5.2 -0.3,-9.9 4.4,-10.6 3.5,2.5 7.8,2.1 11.5,2 21.4,-0.9 43,0.7 64.1,-4.9 4.5,-1.2 9.2,-1.1 13.7,-2 11.4,-0.5 22.7,-0.2 34.1,0.1 22.8,1.5 45.5,3.5 68.4,3.3 13.8,-0.1 27.7,1.2 41.5,1.7 16.2,0.6 32.5,0.9 48.7,-0.3 6.3,-0.4 12.7,-0.5 19.1,-0.8 30.8,-1.1 61.7,-1.1 92.5,-0.8 2.8,0 5.9,0.5 9,1 z"
   id="path938" />
	<path
   style="fill:#c46c05;stroke-width:0.68084598"
   d="m 346.1,150.8 c -7.1,0.2 -14.2,-0.2 -21.1,-2 -1.9,-0.5 -3,1.4 -5,1.4 -30.2,-0.5 -60.4,-0.6 -90.7,-1.1 -7,-0.1 -14,-0.4 -20.9,-0.6 -1,0 -2.7,0.7 -2.7,-1.4 0,-0.1 -0.7,-0.4 -0.8,-0.3 -6,3.9 -12.4,0.9 -18.6,1.1 -7.5,0.3 -15,0.1 -22.5,-0.1 -9.6,-0.3 -19.2,-1.2 -28.7,-1.1 -12.7,0.1 -25.4,-0.4 -38.1,-0.5 -17.8,-0.2 -35.6,-1.2 -53.5,-1.9 -5.9,-0.2 -11.9,0.9 -17.7,-0.9 -0.7,-0.2 -1.3,-0.6 -2,-0.8 -1,-0.5 -2.2,-0.2 -3.2,-0.3 -2.6,-0.1 -3.5,-1.3 -2.6,-3.8 3,-2.1 6.6,-0.2 9.8,-1.3 0.9,-0.3 2,-0.1 3,-0.2 5.5,0.7 11,-0.7 16.6,-0.5 2.6,0.1 4.9,0.7 6.7,2.5 1.8,1.5 4.1,1.5 6,1.5 5.5,0 11,0.6 16.4,1 15.1,1 30.2,0.1 45.3,-0.1 13.1,-0.1 26.2,0.9 39.2,1.5 6.8,0.3 13.4,-0.8 20.1,-1.7 5.1,-0.7 10.2,-1 15.2,0.2 4.7,1.1 9.4,1 14.1,1.4 16.5,1.4 33.1,2 49.6,3.1 12.9,0.4 25.6,-1.2 38.4,-2.1 19.9,-1.3 39.7,-3.1 59.7,-3.5 14.1,-0.3 28.2,0.2 42.2,-0.6 4.7,-0.2 9.5,-1.2 14.2,-0.6 8.8,1.1 17.7,-0.1 26.4,1.9 0.4,0.2 0.8,0.5 1.1,0.9 0.1,3 -1,5.9 -1.4,8.8 -0.4,2.2 -2.2,2 -3.8,2 -13.1,-0.1 -26.1,0.4 -39.2,0.6 -2.6,0.1 -5.5,0.3 -8.1,-1 -1.8,-0.4 -3.7,0.3 -5.4,-0.7 0.5,-0.5 1.1,-0.4 1.3,-0.4 -12.7,-0.4 -26,0.4 -39.3,-0.4 z"
   id="path940" />
	<path
   style="fill:#933a04;stroke-width:0.68084598"
   d="m 17.1,55.5 c -0.5,-1.8 -1,-3.6 -1.4,-5.4 4.7,0 9.5,0 14.2,0.1 4,0.1 5.1,1.2 4.5,5.1 -0.3,2.3 0.9,2.4 2.6,2.5 5.6,0.2 10.8,-1.6 16.1,-2.8 7.7,-1.6 15.4,-3.5 23.3,-2.4 23,3.2 46.1,1.4 69.1,1.2 26.2,-0.2 52.3,0.2 78.5,-0.7 15.2,-0.5 30.5,0.2 45.7,-0.7 15.4,-0.9 30.7,0.1 46,-0.8 8,-0.4 16,-0.7 23.9,-0.4 17.1,0.6 34.3,1.1 51.3,3.4 6.6,0.9 13.2,0.9 19.9,-0.9 5,-1.3 10.7,-0.3 16,-0.4 2.5,0 5.1,0.3 7.5,-0.1 2.2,-0.4 2.7,0.8 3.2,2.3 0,1.1 0.1,2.1 0.1,3.2 -1.7,1.1 -3.5,1 -5.4,1 -6.1,0 -12.2,0 -18.3,0 -3.3,0 -6.6,1.5 -9.9,0.5 -6.3,0 -12.6,0 -18.8,0 -1.2,0.9 -2.6,0.6 -4,0.6 -15.6,-0.1 -31.1,-1.8 -46.7,-1.8 -9.1,0 -18.2,-0.5 -27.3,-0.6 -17,-0.3 -34,0 -51,-0.1 -27,-0.2 -53.9,0.7 -80.9,0.8 -27.8,0.2 -55.7,-0.1 -83.5,0.3 -10.7,0.1 -21.4,1.7 -32.1,2 -9.2,0.3 -18.4,0.2 -27.7,0.1 -2.5,0 -5,-0.8 -7.1,-2.2 -2.3,-1.7 -5,-2.8 -7.8,-3.8 z"
   id="path942" />
	<path
   style="fill:#943904;stroke-width:0.68084598"
   d="m 15.6,39.1 c 0,-1.3 0,-2.5 0,-3.8 10.6,1.7 21.3,0 32,-0.3 26.5,-0.8 53,0.2 79.4,-0.7 23.9,-0.8 47.7,0.3 71.5,-0.7 19.7,-0.8 39.5,0.2 59.1,-0.8 14.1,-0.7 28.2,0.2 42.3,-0.7 11.1,-0.7 22.2,-0.7 33.3,-0.4 16.3,0.4 32.5,1.3 48.7,3.4 6.3,0.8 12.8,1 19.2,-1.4 -3.2,-0.6 -6.3,-1.2 -9.8,-1.9 1,-1.3 2.1,-1 3,-1 14.8,-0.2 29.6,0.7 44.5,1.1 1.6,0 1.9,0.5 2,1.7 -0.3,1.9 -0.4,3.9 -1.6,5.6 -2.3,1.7 -4.7,0.4 -6.9,0 -5.5,-1.2 -11,-0.8 -16.4,0.1 -18.2,3.2 -36.5,2.8 -54.9,1.8 -7.1,-0.4 -14.2,-0.7 -21.3,-1 -41.3,-1.9 -82.7,-1.7 -124,-1.2 -19.6,0.2 -39.2,0 -58.8,0.7 C 121.2,40.8 85.3,40 49.5,40 38.7,40 27.8,39.1 16.9,39.5 16.4,39.6 16,39.4 15.6,39.1 Z"
   id="path944" />
	<path
   style="fill:#e29311;stroke-width:0.68084598"
   d="m 15.6,39.1 c 9.6,-1.4 19.2,-0.8 28.8,-0.4 4.5,0.2 9,0.3 13.5,0.3 30.2,0.1 60.5,0.5 90.7,-0.1 18.5,-0.4 37,-0.1 55.4,-0.7 33.7,-1.2 67.4,-0.8 101.2,-0.4 18.8,0.3 37.6,1.4 56.4,2.3 12.4,0.6 24.7,0.7 37.1,0.4 8.3,-0.2 16.5,-2.5 24.8,-3.2 5.5,-0.5 10.5,1.7 15.8,2 0,1 0.2,2 -0.7,2.8 -6.5,-2.5 -13.4,-1.8 -19.9,-1.1 -6.9,0.7 -13.9,1.1 -20.8,1.9 -7.4,0.9 -14.9,1.3 -22.4,0.8 -17.9,-1 -35.8,-2.8 -53.7,-2.4 -3.3,0.1 -6.6,0.3 -9.9,0.1 -24.7,-1.3 -49.4,-0.6 -74.1,-0.6 -7.5,0 -14.9,1 -22.4,0.6 -12.3,-0.7 -24.6,-0.3 -36.9,0.3 -17,0.8 -33.9,0.5 -50.9,0.4 -7.6,0 -15.2,-0.8 -22.8,-0.5 C 86.4,42.4 68,42.5 49.6,42.2 38,42 26.5,40.6 14.9,40.8 15.1,40 15.3,39.5 15.6,39.1 Z"
   id="path946" />
	<path
   style="fill:#c16b0a;stroke-width:0.68084598"
   d="m 431.7,14.9 c -21,0 -42,-0.1 -62.9,0.1 -19.1,0.3 -38.1,0.6 -57.1,1.6 -16.3,0.9 -32.7,0.7 -49,0.4 -11.6,-0.2 -23.1,-0.8 -34.7,-1.5 -10.5,-0.7 -20.9,-0.4 -31.4,-0.5 -13,-0.2 -25.8,-1.7 -38.5,-3.7 -1.9,-0.3 -4,0.5 -5.8,-0.7 19.5,0 39,-0.1 58.4,0 63.8,0.2 127.7,0.5 191.5,0.7 9.9,0.1 19.9,0.6 29.5,3.6 z"
   id="path948" />
	<path
   style="fill:#e39312;stroke-width:0.68084598"
   d="m 24.5,25.5 c 1.1,0.7 2.4,0.7 3.6,0.7 11.5,0 23,0.1 34.5,0.1 9.5,0 18.7,-2.5 28.1,-4 5.5,-0.9 11.1,-1.5 16.7,-2 13.7,-1.1 27.5,-1.2 41.2,-0.7 19.1,0.7 38.1,1.7 57.2,2.4 22.7,0.7 45.4,2 68.1,1 24.5,-1.1 49.1,-2.5 73.7,-3 11.5,-0.3 23,-0.5 34.5,-0.5 8.2,0 16.3,2 24.6,1.5 3.2,-0.2 6.2,-0.5 9,-2 3.3,-1.7 6.9,-0.7 10.3,-1 2.1,-0.2 4.4,0.5 6.3,-1.1 1,2.8 4.4,2.2 6,4.2 -3.3,1.4 -6.5,-0.4 -9.8,0 -2.1,0.3 -4.1,-0.2 -6.1,1.1 -1.2,0.8 -2.8,1.1 -4.3,1.1 -9.2,0.1 -18.4,0.3 -27.6,-1.2 -6.9,-1.2 -13.8,-0.5 -20.8,-0.3 -13.1,0.4 -26,1.1 -39,3 -4.7,0.7 -9.4,0.8 -14.1,0.8 -38.1,0.1 -76.2,0.2 -114.3,0 -13.7,-0.1 -27.4,-0.6 -41,-1.5 -13.5,-0.9 -27,-2.1 -40.6,-2.1 -13,0 -25.6,2.9 -38.2,5.5 C 79,28.2 75.4,28.7 71.8,28.8 55,29 38.3,27.7 21.6,27.7 c -0.9,0 -1.8,0.1 -2.4,-0.7 0.5,-0.3 1,-0.6 1.5,-0.9 1.1,-0.9 2.4,-1.1 3.8,-0.6 z"
   id="path950" />
	<path
   style="fill:#e29219;stroke-width:0.68084598"
   d="m 19.3,93.8 c 13.7,-2.1 27.4,-2.5 41.2,-3.3 13.7,-0.8 27.4,-0.3 41.1,0.3 14.4,0.7 28.9,0.7 43.2,1.7 7.9,0.6 15.8,0.9 23.7,1.2 3.3,2.1 6.9,0.7 10.4,1.1 4.3,0.4 8.8,-1.1 13,1 18.8,0 37.7,0 56.5,0 5.9,-3.9 13,-0.8 19.1,-3.3 1.1,-0.4 2.5,-0.3 3.7,-0.3 15.1,-0.2 30.2,-0.7 45.3,-1 18.4,-0.4 36.9,-1.2 55.3,-1.3 6.4,0 12.6,1.4 19,1.5 13.2,0.3 26.4,-1.2 39.5,-2.3 0.8,-0.1 1.7,-0.4 2.5,-0.7 0.7,0.5 1.5,0.9 2.2,1.4 0.4,0.9 1.2,0.2 1.8,0.4 0.5,0.1 1,0.1 1.1,0.7 0.1,0.8 -0.6,0.9 -1.2,1.2 -9.6,1.8 -19.4,1.4 -29.1,2.6 -8.8,1.1 -17.4,-0.3 -26.1,-1 -9.4,-0.8 -18.8,-1 -28.1,-0.1 -5.7,0.5 -11.4,1 -17.1,1.2 -1,0 -2,0.1 -2.9,0.6 -3.7,2.3 -7.7,1.7 -11.6,1.2 -1.9,-2.4 -1.6,-2.8 2.3,-3.8 -5,0.8 -10,0.3 -14.9,0.4 -12,0.2 -24,2.1 -36.1,1.7 -4.2,-0.1 -8.5,1.6 -12.7,3.4 -0.4,0 0.1,0.4 0.2,0.4 2.4,-0.7 3.2,0.4 3.1,2.6 -1.9,1.2 -3.9,1 -5.9,0.1 -2.4,-3.8 -5.7,-4.5 -9.7,-3.1 -2.8,1 -6.1,1.7 -8.4,0.5 -5.1,-2.7 -10.3,-1.8 -15.5,-1.9 -5.8,-0.2 -11.6,0 -17.4,0 9,0 17.9,0 27.5,0 -1.8,3.5 -5.2,3.2 -7.4,4.8 -4.4,0.7 -8.7,0.8 -13.1,-0.1 -1.7,-1.4 -3.7,-2 -5.9,-1.8 -6.1,0.7 -12,-1.3 -18.1,-1.4 -5.8,-0.1 -11.7,-0.4 -17.5,0.1 -0.5,0 0.1,0.1 -0.4,0 -9.4,-2 -19.2,-0.7 -28.5,-3.4 -1,-0.3 -1.9,-0.6 -2.9,-0.5 -13,0.7 -25.8,-2.1 -38.7,-1.7 C 97.9,93 94.3,95 90.4,94.3 90,94.3 89.6,94.2 89.2,94 87,93 84.8,93.5 82.6,94 73.1,94.2 63.7,94.4 54.2,93.9 49.5,92.7 44.7,93.5 39.9,93.3 c -1.4,0 -2.2,1 -3.2,1.6 -1.2,0.6 -2.6,0.6 -3.9,0.5 -3.3,-0.7 -6.5,-1.2 -9.7,0.4 -1.2,0.6 -2.6,0.5 -3.8,-0.6 0,-0.4 0,-0.9 0,-1.4 z"
   id="path952" />
	<path
   style="fill:#c26b08;stroke-width:0.68084598"
   d="M 118.2,10.6 C 111.6,13 104.7,13.5 97.9,14.9 86.1,17.5 74.1,18.5 62,18 57.2,17.8 52.3,17.9 47.5,18.6 41.4,19.5 35.4,18 29.3,17.9 c -2.7,-0.1 0,-1.4 -0.2,-2.1 3.4,-4.5 8.4,-4.3 12.8,-5 0,0 -0.5,0.1 -0.9,0.1 -0.5,0 -1,0 -1.3,-0.5 6.6,-1.2 13.2,-0.2 19.8,-0.3 18.4,-0.1 36.7,0.2 55.1,0.3 1.1,0 2.3,0.1 3.6,0.2 z"
   id="path954" />
	<path
   style="fill:#e29219;stroke-width:0.68084598"
   d="m 336.5,117 c 3.3,-2.5 7.2,-2.6 11,-2.1 6.7,0.9 13.4,0.7 20.1,1.1 16.8,0.8 33.5,2.3 50.3,3.1 4.5,0.2 8.9,1.1 13.5,0.6 2.7,-0.3 6,1.7 9.3,1.9 0.7,1.6 1.6,3.1 1.4,5 -2.6,-3 -6.2,-2.5 -9.4,-2 -4.7,0.7 -8.7,-1.2 -12.8,-2.6 -1.5,-0.5 -3,-1.2 -4.6,-1.3 -10.8,-0.5 -21.6,-1 -32.4,-1.5 -15.4,-0.7 -30.9,-1.5 -46.4,-2.2 z"
   id="path956" />
	<path
   style="fill:#500b08;stroke-width:0.68084598"
   d="m 39.6,10.4 c 1.2,0.1 2.4,0.3 4.3,0.5 -5.7,0.9 -10.5,2.3 -14.9,5 -5.1,1.5 -4.4,5.8 -4.6,9.7 -1.1,0.9 -2.4,0.9 -3.8,0.7 C 17.1,24.2 13.1,25.7 9.4,25 14.6,17.3 22.1,13.4 30.9,11.5 c 2.9,-0.8 5.8,-1.3 8.7,-1.1 z"
   id="path958" />
	<path
   style="fill:#de8f1b;stroke-width:0.68084598"
   d="m 404.1,60.1 c 11.1,-2.3 22.4,-1.6 33.6,-1.6 0,0.5 0,0.9 0,1.4 -4,1.4 -8.1,0.7 -12.2,0.8 -6,0.1 -12,0.1 -17.9,0 -1.2,0 -2.5,0.5 -3.5,-0.6 z"
   id="path960" />
	<path
   style="fill:#834922;stroke-width:0.68084598"
   d="m 389.7,152.3 c 15,0 30.1,0 45.1,0 0.7,0 1.5,0.2 2.2,0.3 -5.4,0.5 -10.8,0.6 -16.2,0.4 -3,0.9 -6.2,-0.1 -9.2,0.5 -7.3,0 -14.5,0.1 -21.8,0.1 -0.1,-0.4 -0.1,-0.9 -0.1,-1.3 z"
   id="path962" />
	<path
   style="fill:#802304;stroke-width:0.68084598"
   d="m 436.8,48.2 c -4.5,1.2 -9.1,0.4 -13.7,0.5 -4.1,0.1 -8.2,0 -12.4,-0.5 1.9,-0.3 3.9,-0.9 5.8,-0.9 6.3,0.1 12.6,-0.8 18.9,-1 0.9,0 1.4,0 1.7,0.9 0,0.4 -0.2,0.7 -0.3,1 z"
   id="path964" />
	<path
   style="fill:#ce8837;stroke-width:0.68084598"
   d="m 440.9,119.2 c -0.2,-1.6 -2.1,-0.8 -2.7,-1.9 -1,-1.3 3.9,0.3 0.9,-2 -3.1,-3.3 -3.8,-6.9 -1.8,-11 0.9,-0.9 2,-1.3 3.3,-0.8 0.1,5.3 1,10.5 0.3,15.7 z"
   id="path966" />
	<path
   style="fill:#b5772d;stroke-width:0.68084598"
   d="m 437.7,91.5 c -0.9,-1.2 -2.2,-0.6 -3.3,-0.8 -0.4,-0.1 -0.6,-0.3 -0.2,-0.6 0.2,-0.1 0.4,-0.1 0.7,-0.2 7.5,0.2 9.6,3.5 7,11.3 -0.2,0.6 -0.6,1 -0.9,1.6 -0.7,0.4 -1.4,0.6 -2.3,0.3 -1,-0.9 -0.5,-1.8 0,-2.7 1.7,-3.2 1.5,-6.2 -1,-8.9 z"
   id="path968" />
	<path
   style="fill:#f4e4b7;stroke-width:0.68084598"
   d="m 442.1,141.9 c -0.4,-0.1 -0.7,-0.1 -1.1,-0.2 -0.8,-0.7 -1.7,-1.3 -1.7,-2.6 0.2,-1.5 0.6,-2.9 2.2,-3.5 0.2,0 0.3,0 0.5,0 0.1,2.1 0.1,4.2 0.1,6.3 z"
   id="path970" />
	<path
   style="fill:#924003;stroke-width:0.68084598"
   d="m 438.5,102.8 c 0.8,0 1.6,0 2.5,0 -0.1,0.3 -0.2,0.5 -0.3,0.8 -1,0.3 -2,0.6 -2.9,0.9 -0.5,0.4 -0.9,0.9 -1.5,1 -1.1,0.3 -2.5,0.6 -2.9,-0.6 -0.4,-1.4 1.2,-1.5 2.2,-1.9 0.9,-0.5 1.9,-0.5 2.9,-0.2 z"
   id="path972" />
	<path
   style="fill:#c46c05;stroke-width:0.68084598"
   d="m 411.5,153.6 c 3,-1.2 6.1,-0.5 9.2,-0.5 -3,0.7 -6.1,0.6 -9.2,0.5 z"
   id="path974" />
	<path
   style="fill:#e49118;stroke-width:0.68084598"
   d="M 221.2,60.1 C 177.5,60 133.7,59.6 90,60.3 c -11.8,0.2 -23.7,2 -35.7,2 -7.6,0 -15.2,-0.7 -22.8,0.6 -2.6,0.5 -4.9,-0.8 -6.8,-2.4 -2.2,-1.8 -4.5,-3.1 -7.5,-2.8 0,-0.7 -0.1,-1.5 -0.1,-2.2 2.6,-0.5 4.8,-0.5 7,1.9 2.2,2.4 5.9,2.8 9,3.1 8.7,0.9 17.4,0.4 26.1,-0.1 8.6,-0.5 17.1,-1.7 25.7,-1.8 27.4,-0.3 54.7,0.2 82.1,-0.4 17.4,-0.4 34.7,-0.1 52.1,-0.7 30.7,-1.1 61.4,-0.7 92.2,-0.4 19.2,0.2 38.4,1.2 57.6,2.3 5.5,0.3 11,0.3 16.4,0.7 2,1.4 4.4,0.1 6.5,1.4 -4.6,0 -9.1,0 -13.7,0 -4.5,0 -9,0.3 -13.5,0 C 320.3,58.1 275.9,61 231.5,60.1"
   id="path976" />
	<path
   style="fill:#822803;stroke-width:0.68084598"
   d="m 22.3,72 c -0.2,-1.4 -0.4,-2.8 -1.5,-3.8 12.8,0.4 25.6,0.7 38.5,1 5.4,0.1 10.9,-0.2 16.2,1.2 -5.8,0.8 -11.7,0.4 -17.5,0.8 -10.7,0.7 -21.4,0.5 -32.1,1.4 -1.3,0.1 -2.6,0.3 -3.6,-0.6 z"
   id="path978" />
	<path
   style="fill:#de8a27;stroke-width:0.68084598"
   d="m 22.3,72 c 17.7,-1 35.4,-1.6 53.2,-1.5 0.5,0.1 1,0.1 1.4,0.2 0,0.2 0,0.4 0.1,0.6 -0.8,0 -1.5,0 -2.3,0 -13.8,0.5 -27.6,0.9 -41.4,1.7 -3.2,0.2 -6.4,0.3 -9.6,0.8 -1,0.1 -1.4,-0.2 -1.6,-1 0,-0.3 0.1,-0.6 0.2,-0.8 z"
   id="path980" />
	<path
   style="fill:#943904;stroke-width:0.68084598"
   d="m 441.6,135.6 c -0.6,1.3 -1.2,2.5 -1.8,3.8 -0.4,0.5 -1,1 -1.6,0.9 -6.2,-1.1 -12.5,0.4 -18.6,-1.3 -4.2,-1.2 -8.5,-0.8 -12.7,-0.5 -16.2,1.3 -32.4,1.5 -48.7,1.3 -17.5,-0.2 -34.9,1.5 -52.3,2.8 -11.9,0.9 -23.9,2.4 -35.9,2.5 -3.4,0 -6.7,1 -10.1,0.6 -11.7,-1.1 -23.4,-0.8 -35.1,-1.8 -9.9,-0.8 -19.9,-1 -29.7,-2.7 -6,-1 -12,-0.4 -17.8,0.6 -7.6,1.3 -15.1,1.2 -22.7,0.9 -8.6,-0.4 -17.1,-0.7 -25.7,-1 -18.2,-0.6 -36.4,-0.2 -54.6,-0.2 -7.1,0 -14.4,0.3 -21.4,-2 -2.9,-3.1 -6.9,-3 -10.1,-2.1 -4.2,1.2 -8.2,0 -12.3,0.5 -2.8,-1.2 -5.8,-0.4 -8.7,-1.1 -1.2,-0.3 -2.5,-0.1 -3.4,-1.1 0.6,-2 -1.4,-4 -0.1,-6 0.7,3.5 3.9,2 5.9,2.9 1.1,0.5 2.6,0.2 3.9,0.8 4.6,-1.1 9.1,-0.7 13.5,0.9 4.9,2.2 10.2,1.9 15.3,2.1 11.6,0.4 23.1,0.6 34.7,1.6 5.7,0.5 11.4,-0.3 17.1,-0.8 1.5,-0.1 4,-0.9 4.3,-1.9 1,-3.5 3.7,-4.5 6.6,-5.3 6.4,-1.7 12.9,-3 19.9,-0.8 -2.7,1.4 -5.6,-0.4 -7.9,1.3 -2.4,1.3 -5.2,1.1 -7.6,2.3 -1,0.5 -2.3,0.6 -2.5,1.9 -0.2,1.6 1.4,1.8 2.4,2.4 0.7,0.5 1.7,0.4 2.4,0.8 14.1,0.2 28.1,0.2 42.2,-1.2 13.1,-1.3 26.2,-0.6 39.3,1.6 15.1,2.5 30.4,2.7 45.8,1.3 15.2,-1.3 30.3,-3.8 45.6,-4.8 24.1,-1.7 48.1,-1.5 72.2,-1.1 9,0.2 17.9,0.3 26.9,0.5 2.3,0.1 4.8,0.6 6.8,-1.2 0.3,-0.3 1,-0.3 1.4,-0.2 10.3,3.1 20.8,0.6 31.2,1.4 1.4,0.2 3.2,-0.7 3.9,1.4 z"
   id="path982" />
	<path
   style="fill:#e19220;stroke-width:0.68084598"
   d="m 19.4,113.3 c 0,-0.5 0,-1 0,-1.4 11.1,0.9 22.3,1.4 33.2,4 3.8,0.9 8,0.3 12,1 6.8,1.2 13.8,1.6 20.8,2.2 6,0.5 12,-0.1 17.9,-0.9 6.3,-0.9 12.6,-0.8 18.8,0.5 0.7,2.4 -1.2,1.4 -2,1.4 -3.7,-0.2 -7.4,-1.2 -11.1,-0.6 -10,1.5 -20.1,1.9 -30.2,1.3 -10.2,-0.6 -20.5,-0.8 -30.4,-4 -4.9,-1.6 -10,-0.1 -15,-1 -4.8,-1.1 -9.5,-1.4 -14,-2.5 z"
   id="path984" />
	<path
   style="fill:#e19119;stroke-width:0.68084598"
   d="m 134.8,120.1 c 8.5,0.1 16.9,0.8 25.3,1.2 9.9,0.4 19.9,0.8 29.9,-0.4 0.5,-0.1 1,0 1.5,-0.1 8.1,-0.2 16.2,0.1 24.3,-0.7 6,-0.6 11.9,0.4 17.9,0.7 -4.4,1.6 -9.1,0.7 -13.6,1.1 -5.5,0.6 -11.2,0.6 -16.7,1.1 -8.1,0.7 -16.2,0.5 -24.3,0.7 -14,0.3 -27.8,-1.8 -41.7,-2.3 -1.2,0 -2.1,-0.3 -2.6,-1.3 z"
   id="path986" />
	<path
   style="fill:#d78120;stroke-width:0.68084598"
   d="m 126.4,137.9 c -0.1,0 -0.2,0 -0.4,0 -2.5,0.2 -5.3,0 -5.9,-2.6 -0.6,-2.7 2.7,-2.7 4.4,-3.4 2.2,-1 4.6,-1.6 7.1,-1.5 0.7,0 1.4,0.1 2.2,0.1 0,0.2 0,0.3 0.1,0.5 -2.6,0.6 -5.3,1.1 -7.9,1.8 -1,0.3 -2.6,0.3 -2.9,1.3 -0.3,1.4 1.2,1.9 2.1,2.8 0.4,0.4 0.8,0.7 1.2,1 z"
   id="path988" />
	<path
   style="fill:#d17e32;stroke-width:0.68084598"
   d="m 41.8,134.3 c -4.4,-1.2 -9,-0.5 -13.5,-0.9 0.2,-0.4 0.5,-1.1 0.7,-1.2 4.4,-0.1 8.8,-0.3 12.8,2.1 z"
   id="path990" />
	<path
   style="fill:#9a3d04;stroke-width:0.68084598"
   d="m 400.1,51.6 c 3.3,-2 5.9,-1.1 8.4,-1.3 0.6,0 1.3,0.3 1.3,1 0,1 -0.7,1.1 -1.5,1.2 -2.5,0.4 -4.8,-0.7 -8.2,-0.9 z"
   id="path992" />
	<path
   style="fill:#c46d02;stroke-width:0.68084598"
   d="m 433.3,115.4 c -0.4,1.2 -1.5,-1.9 -2.3,-0.7 -2.2,1.2 -4.3,0.3 -6.5,0.1 -10.8,-0.8 -21.6,-1.3 -32.4,-2.3 -15.3,-1.4 -30.7,-2.4 -45.9,-5.2 -3.9,-0.7 -5.8,2.5 -8.8,3.6 -2.4,0.8 -4.6,1.7 -7.1,1.7 -72.6,0 -145.2,0 -217.9,-0.1 -4.1,0 -7.8,1.6 -11.8,1.6 -9.4,0.1 -18.6,-1.2 -27.8,-2.6 -10.4,-1.7 -20.8,-3.4 -31.4,-4.3 -8.2,-0.7 -16.3,-1.6 -24.6,-1.2 -1.3,-2.2 -0.9,-4.2 0.7,-5.9 0.9,-0.9 1.3,-2 1.7,-3.2 4.4,-1.2 8.8,-2.5 13.4,-2.2 1.2,0 2.5,0 3.7,-0.1 1.7,-1.7 3.8,-1.4 5.9,-1.5 3.8,-0.1 7.6,-0.9 11.3,-0.1 10,0 20,0.1 30,0.1 1.8,0.2 3.6,-0.3 5.3,0.8 v 0 c 1.9,1.1 4,1.1 6.2,1.1 2.6,0 5.3,0.4 7.8,0.3 13.5,-0.5 26.7,3.1 40.2,2.7 9,-0.3 17.9,0.4 26.8,1.9 1.9,0.3 3.7,0.3 5.6,0.3 10.8,0 21.7,0 32.5,0.1 1.9,0 3.8,-0.1 5.4,1.1 4.5,0 9,0 13.5,0 6.1,-1.9 12.3,-1.5 18.5,-0.5 2.3,0.4 4.3,0.7 6.6,-0.1 1.9,-0.7 3.9,-0.9 5.7,0.6 2,0 4,0 6,0 1.5,-1.5 3.5,-1.1 5.3,-1.1 8.2,0 16.5,-0.5 24.7,0.1 6.2,0.4 11.7,-1.7 17.4,-2.9 3.4,-0.7 6.8,-1.1 10.3,-1.3 2.1,0 4.2,0.1 6.4,0 1.6,-0.1 3.5,0.6 4.5,-1.6 0.3,-0.7 1.3,-0.6 2.1,-0.6 10.5,0.9 20.9,-1.9 31.4,-1.7 11.4,0.3 22.8,1.3 34.1,2.4 1.5,0.1 2.9,-0.5 4.4,-0.6 11.1,-0.9 22.2,-1.6 33.4,-2.4 3.1,1.1 4.2,5.5 2.3,8.8 -0.5,0.8 -1.6,1.3 -1.5,2.5 -1.5,0.6 -3.1,1.2 -4.7,1.8 1.5,1 2.7,-0.5 4,-0.2 -1.4,3.9 0,7.4 1.4,10.9 -1,0 -2,0 -3,0.1"
   id="path994" />
	<path
   style="fill:#c3690d;stroke-width:0.68084598"
   d="m 22.2,82.4 c 9.2,0 18.5,0 27.7,0 0,0.2 0,0.5 0.1,0.7 -10.2,1.5 -20.4,3 -30.6,4.6 0.2,-2.1 -1.7,-5.4 2.8,-5.3 z"
   id="path996" />
	<path
   style="fill:#b75f32;stroke-width:0.68084598"
   d="m 346.1,150.8 c 14.3,0 28.6,0 43.5,0 -2.1,1.1 -3.8,0.5 -5.3,0.8 -11.4,0 -22.8,0 -34.2,0 -1.4,-0.1 -2.8,0.1 -4,-0.8 z"
   id="path998" />
	<path
   style="fill:#e6972f;stroke-width:0.68084598"
   d="m 18.5,135.8 c 4.1,0.3 8.3,0 12.1,2.2 -4.2,0.2 -8.5,0.4 -12.7,0.6 -0.3,-0.1 -0.4,-0.2 -0.3,-0.4 0,-0.2 0.1,-0.3 0.2,-0.3 0.2,-0.7 0.4,-1.4 0.7,-2.1 z"
   id="path1000" />
	<path
   style="fill:#e3950e;stroke-width:0.68084598"
   d="m 32.8,94.5 c -4.5,0.8 -8.8,2.6 -13.4,2.2 0,-0.5 0,-1 0,-1.5 1.8,0 3.4,-0.4 5.2,-1.1 2.5,-1.1 5.4,-0.5 8.2,0.4 z"
   id="path1002" />
	<path
   style="fill:#bd6d3f;stroke-width:0.68084598"
   d="m 17.7,138 c 0.1,0.2 0.1,0.4 0.1,0.6 0.1,4.2 4,2.5 5.9,3.8 -1.1,0.1 -2.2,0.2 -3.3,0.2 -3.7,0 -4.3,-1.1 -2.7,-4.6 z"
   id="path1004" />
	<path
   style="fill:#aa5c03;stroke-width:0.68084598"
   d="m 191.8,95.9 c -4.5,0 -9,0 -13.5,0 -0.7,-0.7 -0.7,-1.4 -0.1,-2.1 3.7,0 7.3,0 11,-0.1 1.6,0 2.7,0.4 2.6,2.2 z"
   id="path1006" />
	<path
   style="fill:#c87917;stroke-width:0.68084598"
   d="m 178.2,93.8 c 0,0.7 0.1,1.4 0.1,2.1 -2.3,0 -4.7,0 -7,0.1 -1.5,0 -2.6,-0.5 -2.8,-2.2 3.2,0 6.5,0 9.7,0 z"
   id="path1008" />
	<path
   style="fill:#e39312;stroke-width:0.68084598"
   d="m 260,144.7 c 19.2,-0.8 38.2,-2.6 57.3,-4.2 18,-1.6 36.1,-2.1 54.2,-1.8 13.8,0.3 27.6,-1.4 41.3,-1.3 7.7,0 15.5,1.3 23.2,2 1.2,0.1 2.5,0.1 3.7,0.1 0.4,0.8 1.3,1.2 1.2,2.3 -7.3,-1.4 -14.6,-0.3 -22,-1.2 -8.2,-1 -16.4,0.3 -24.6,1 -2.6,0.2 -4.9,-0.5 -7.3,-0.5 -14.9,-0.3 -29.7,0.6 -44.5,1 -15.7,0.5 -31.5,2.3 -47.2,3.5 -11.8,0.9 -23.6,2.2 -35.4,1.5 -0.5,-0.9 -0.5,-1.6 0.1,-2.4 z"
   id="path1010" />
	<path
   style="fill:#e28f1e;stroke-width:0.68084598"
   d="m 260,144.7 c 0,0.8 0,1.5 0,2.3 -11.1,-0.7 -22.3,-1.4 -33.4,-2.2 -7.3,-0.5 -14.6,-1.3 -21.9,-1.4 -4.4,-0.1 -8.6,-1.3 -12.9,-1.6 -6.8,-0.5 -13.4,1 -20,1.7 -6.5,0.7 -12.9,0.2 -19.3,0 -15.5,-0.5 -31,-1.9 -46.5,-0.4 -6.5,0.6 -13.2,0.8 -19.8,-0.4 -1.3,-0.2 -2.7,-0.2 -4.1,-0.2 -9,0 -17.9,-0.7 -26.8,-1.5 -1.1,-0.1 -2,-0.2 -2.1,-1.5 9.2,0.8 18.4,1.7 27.6,1.3 7,-0.3 14,-0.5 20.9,-0.5 19.6,-0.1 39.1,1.5 58.7,1.6 7.9,0 15.6,-0.8 23.3,-1.5 6.1,-0.5 12.2,-0.3 18.3,0.8 7.6,1.3 15.4,1.4 23.1,1.9 9.9,0.7 19.9,0.7 29.9,1 1.6,0.1 3.3,0.4 5,0.6 z"
   id="path1012" />
	<path
   style="fill:#e3950e;stroke-width:0.68084598"
   d="m 213.5,101.2 c -13.5,0 -27,0.9 -40.4,-0.2 -14,-1.2 -28.1,-0.9 -42,-2.4 -12.2,-1.4 -24.5,-1.5 -36.7,-2.7 -1.9,-0.2 -4.3,0.1 -5.4,-2.2 8.7,-2 17.5,-2.2 26.2,-1.3 9,1 18.2,-0.2 26.8,1.7 9.3,2.1 18.8,1.2 28,3.3 3.5,0.8 7.3,0 10.9,0.1 6.3,0.1 12.6,-0.4 18.8,1.3 3,0.8 6.5,0.2 9.7,0.2 1.7,0 3.6,-0.1 4.1,2.2 z"
   id="path1014" />
	<path
   style="fill:#e3950e;stroke-width:0.68084598"
   d="m 321.5,96 c -3.4,2.4 -7.5,1.7 -11.2,2.8 -15.2,4.7 -31,1.6 -46.5,2.4 -0.9,-2 -2.6,-2.5 -5.1,-2.3 1.9,-2.3 4.3,-3 6.3,-3.6 5,-1.5 10.1,-2 15.4,-1.7 4,0.2 8.1,0.7 12,-0.1 10.6,-2.2 21.2,-1 31.9,-1.4 0.6,0 1.2,0 2,0 -0.7,1.7 -2.2,1.1 -3.2,1.7 -0.9,0.5 -3,0.3 -1.6,2.2 z"
   id="path1016" />
	<path
   style="fill:#e3950e;stroke-width:0.68084598"
   d="m 257.7,101.3 c -2.4,0.1 -4.9,-0.4 -7.1,1.3 -0.7,0.5 -2.1,0.5 -2.9,0.1 -6.8,-2.8 -13.9,-0.8 -20.8,-1.4 1.3,-2.4 4.4,-1.5 6.3,-3.7 -10.1,0 -19.8,0 -29.5,0 0,-0.2 0,-0.4 0,-0.6 11.6,0 23.2,0 35,0 0.2,0.9 -1.2,0.2 -1.3,1.2 3.7,-0.3 7.3,0.6 11.1,-1.1 4.4,-2 8.8,0.4 9.2,4.2 z"
   id="path1018" />
	<path
   style="fill:#e3950e;stroke-width:0.68084598"
   d="m 53.7,92.9 c -5.8,0 -11.5,0.6 -17.2,1.5 0.5,-0.8 0.8,-2.1 1.9,-2.1 5.1,0.2 10.3,-0.8 15.3,0.6 z"
   id="path1020" />
	<path
   style="fill:#e3950e;stroke-width:0.68084598"
   d="m 89,93.8 c -1.8,-0.3 -3.7,0.7 -5.3,-0.8 2,-1.1 3.8,-1 5.3,0.8 z"
   id="path1022" />
</g>
</svg>